<?xml version="1.0" encoding="UTF-8"?>
<svg width="400px" height="234px" viewBox="0 0 400 234" version="1.1" xmlns="http://www.w3.org/2000/svg" xmlns:xlink="http://www.w3.org/1999/xlink">
    <!-- Generator: Sketch 44.1 (41455) - http://www.bohemiancoding.com/sketch -->
    <title>Mask</title>
    <desc>Created with Sketch.</desc>
    <defs></defs>
    <g id="Page-1" stroke="none" stroke-width="1" fill="none" fill-rule="evenodd">
        <g id="Artboard" fill="#000000">
            <path d="M237.200067,28.8692857 C240.146974,23.015911 241.252992,19.0032202 241.252992,16.448351 C241.252992,11.6920239 237.571214,9.87342824 225.412437,9.87342824 L211.783918,9.87342824 C198.89027,9.87342824 195.579639,11.3312499 195.579639,16.0802142 C195.579639,19.732131 197.049381,24.1203213 201.102307,32.5212025 L218.412604,67.5899114 L237.200067,28.8692857 Z M0,9.87342824 L0,0 L106.816115,0 L106.816115,9.87342824 C88.0286526,10.6097018 82.8771318,12.7964342 82.8771318,21.9335889 C82.8771318,28.8692857 89.8695418,45.3176367 95.0284855,55.8978875 L159.118155,190.709574 L197.784252,111.427638 L163.905951,40.5613096 C149.906285,10.9631131 146.595654,9.50529147 122.285523,9.87342824 L122.285523,0 L295.024774,0 L295.024774,9.87342824 C269.616048,10.241565 265.926847,13.164571 252.298328,40.5613096 L228.359345,88.0435905 L278.085624,189.619889 L341.804146,38.7279885 C346.228218,28.5085117 347.326814,23.7521846 347.326814,20.8365413 C347.326814,12.7964342 340.334403,9.87342824 320.440923,9.87342824 L320.440923,0 L400,0 L400,9.87342824 C379.371648,10.241565 373.114109,11.3312499 357.273554,48.9695535 L279.555366,233.096842 L255.987529,233.096842 L207.730993,132.256817 L159.118155,233.096842 L136.277766,233.096842 L46.4082246,40.5613096 C33.5145768,12.7964342 27.991909,9.87342824 0,9.87342824 Z" id="Mask"></path>
        </g>
    </g>
</svg>