<?xml version="1.0" encoding="utf-8"?>
<!-- Generator: Adobe Illustrator 21.0.2, SVG Export Plug-In . SVG Version: 6.00 Build 0)  -->
<svg version="1.1" baseProfile="tiny" id="Layer_1" xmlns="http://www.w3.org/2000/svg" xmlns:xlink="http://www.w3.org/1999/xlink"
	 x="0px" y="0px" viewBox="0 0 613 360" xml:space="preserve">
<path d="M71.1,62.2C51.3,19.3,42.9,14.8,0,14.8V-0.4h163.7v15.3c-28.8,1.1-36.7,4.5-36.7,18.6c0,10.7,10.7,36.1,18.6,52.5
	l98.2,208.3l59.3-122.5L251.2,62.2c-21.4-45.7-26.5-48-63.8-47.4V-0.4h264.7v15.3c-38.9,0.6-44.6,5.1-65.5,47.4l-36.7,73.4
	l76.2,156.9l97.7-233.2c6.8-15.8,8.5-23.1,8.5-27.7c0-12.4-10.7-16.9-41.2-16.9V-0.4H613v15.3c-31.6,0.6-41.2,2.2-65.5,60.4
	L428.4,359.7h-36.1l-74-155.8l-74.5,155.8h-35L71.1,62.2z M363.5,44.2c4.5-9,6.2-15.3,6.2-19.2c0-7.3-5.6-10.2-24.3-10.2h-20.9
	c-19.8,0-24.8,2.2-24.8,9.6c0,5.6,2.3,12.4,8.5,25.4l26.5,54.2L363.5,44.2z"/>
</svg>
