<svg xmlns="http://www.w3.org/2000/svg" xmlns:xlink="http://www.w3.org/1999/xlink" viewBox="0 0 1147.3 325.12"><defs><clipPath id="a"><rect x="720.2" y="102.16" width="409" height="4" fill="none"/></clipPath><clipPath id="c"><path d="M537,84.56l29.15,14.6-29.2,14.6V84.56h0Zm10.15-21.4a36,36,0,1,0,36,36,36,36,0,0,0-36-36h0Z" fill="none"/></clipPath><clipPath id="d"><rect x="511.2" y="63.16" width="72" height="72" fill="none"/></clipPath></defs><title>img-lettering-experiences-es</title><g opacity="0.5"><g clip-path="url(#a)"><g opacity="0.5"><g clip-path="url(#a)"><rect x="720.7" y="103.86" width="408.1" height="1" fill="#fff"/></g></g><g clip-path="url(#c)"><g opacity="0.5"><g clip-path="url(#d)"><rect x="506.2" y="58.16" width="82" height="82" fill="#fff"/></g></g></g><g opacity="0.5"><path d="M575.15,87.94a43.53,43.53,0,0,0-83.08,26c0.27,0.86.57,1.71,0.89,2.54h0l0.06,0.16v0.12a2.72,2.72,0,0,0,5.09-1.9,2.68,2.68,0,0,0-.1-0.27q-0.43-1.12-.79-2.27a38.08,38.08,0,1,1,9.62,15.76l-0.19-.14a2.72,2.72,0,0,0-3.63,4h0A43.53,43.53,0,0,0,575.15,87.94Z" fill="#fff"/><path d="M556.55,98.51l-35.4-19a2.72,2.72,0,0,0-3.58,1.16h0l-0.06.1v0.12h0l-0.07.2V81.1a0.44,0.44,0,0,1,0,.2v38.77a2.72,2.72,0,0,0,3.9,2.5l35.26-19.06A2.81,2.81,0,0,0,556.55,98.51Zm-33.84-12,27,14.55-27,14.55V86.46Z" fill="#fff"/></g></g></g><g opacity="0.5"><g opacity="0.75"><path d="M524.56,111.75a14,14,0,0,0,2.93-.28,13.35,13.35,0,0,0,2.25-.67,8.37,8.37,0,0,0,1.66-.89q0.69-.49,1.2-0.89l0.86-.68a1.07,1.07,0,0,1,.63-0.27,0.74,0.74,0,0,1,.38.09,0.9,0.9,0,0,1,.25.21l1.63,2a16.15,16.15,0,0,1-12.55,5.38,13.84,13.84,0,0,1-5.75-1.15,12.17,12.17,0,0,1-4.31-3.21,14.38,14.38,0,0,1-2.7-4.91,20,20,0,0,1-.94-6.28,24.22,24.22,0,0,1,1.45-8.55,20.38,20.38,0,0,1,4-6.66,17.78,17.78,0,0,1,13.34-5.86,16.92,16.92,0,0,1,3.45.32,12,12,0,0,1,2.83,1,11.25,11.25,0,0,1,2.31,1.5,15.9,15.9,0,0,1,1.94,2l-1.6,2a1.92,1.92,0,0,1-.45.41,1.12,1.12,0,0,1-.62.16,1.41,1.41,0,0,1-1-.5,9.48,9.48,0,0,0-1.36-1.09,10.29,10.29,0,0,0-2.22-1.09,10.46,10.46,0,0,0-3.54-.5,12.81,12.81,0,0,0-5.42,1.16,12.68,12.68,0,0,0-4.37,3.33A16,16,0,0,0,515.93,93a21,21,0,0,0-1.06,6.9,15.86,15.86,0,0,0,.72,5,11.22,11.22,0,0,0,2,3.74,8.78,8.78,0,0,0,3.06,2.36A9.14,9.14,0,0,0,524.56,111.75Z" fill="#fff"/><path d="M549.24,115.73a9.87,9.87,0,0,1-3.8-.71,8.35,8.35,0,0,1-3-2.06,9.5,9.5,0,0,1-2-3.3,13.13,13.13,0,0,1-.7-4.45,17.92,17.92,0,0,1,1-6,16.37,16.37,0,0,1,2.74-5,13,13,0,0,1,4.1-3.35,10.94,10.94,0,0,1,5.11-1.22,9.87,9.87,0,0,1,3.8.71,8.35,8.35,0,0,1,3,2.06,9.51,9.51,0,0,1,2,3.31,13.15,13.15,0,0,1,.7,4.44,17.86,17.86,0,0,1-1,6,16.37,16.37,0,0,1-2.74,5,13.08,13.08,0,0,1-4.11,3.36A10.88,10.88,0,0,1,549.24,115.73Zm0.4-3.47a5.87,5.87,0,0,0,3.33-1,8.76,8.76,0,0,0,2.55-2.66,13.7,13.7,0,0,0,1.63-3.84,17.75,17.75,0,0,0,.58-4.55,8.53,8.53,0,0,0-1.37-5.28,4.73,4.73,0,0,0-4-1.77,5.9,5.9,0,0,0-3.34,1,8.69,8.69,0,0,0-2.54,2.65,13.71,13.71,0,0,0-1.62,3.84,17.71,17.71,0,0,0-.58,4.55,8.63,8.63,0,0,0,1.36,5.29A4.71,4.71,0,0,0,549.64,112.25Z" fill="#fff"/><path d="M565.34,115.38L568.39,90h2.22a1.33,1.33,0,0,1,1.5,1.5l-0.35,4.52a15.65,15.65,0,0,1,4.1-4.76,7.89,7.89,0,0,1,4.7-1.61,4.31,4.31,0,0,1,3.8,1.76,8.77,8.77,0,0,1,1.22,5,14.81,14.81,0,0,1,4.26-5.14,8.49,8.49,0,0,1,5-1.66A4.93,4.93,0,0,1,599,91.5a8.55,8.55,0,0,1,1.39,5.25q0,0.58-.05,1.2t-0.12,1.3l-1.9,16.13h-4.37l1.9-16.13A18.34,18.34,0,0,0,596,97a4.86,4.86,0,0,0-.62-2.76,2.39,2.39,0,0,0-2.1-.89,4.78,4.78,0,0,0-2.15.54A7.7,7.7,0,0,0,589,95.49a12.48,12.48,0,0,0-1.86,2.58,20.9,20.9,0,0,0-1.54,3.54L584,115.38h-4.4l1.93-16.13q0.07-.68.13-1.28t0-1.12a4.67,4.67,0,0,0-.59-2.62,2.33,2.33,0,0,0-2.06-.85,4.81,4.81,0,0,0-2.31.6,7.58,7.58,0,0,0-2.1,1.74,14.19,14.19,0,0,0-1.84,2.77,26.79,26.79,0,0,0-1.55,3.69l-1.58,13.2h-4.35Z" fill="#fff"/><path d="M603.44,124L607.56,90h2.22a1.33,1.33,0,0,1,1.5,1.5l-0.42,5.4a20.55,20.55,0,0,1,2.08-3,15.16,15.16,0,0,1,2.36-2.29,10.17,10.17,0,0,1,2.59-1.46,7.68,7.68,0,0,1,2.75-.51,6,6,0,0,1,5,2.35q1.8,2.35,1.8,6.88A20.15,20.15,0,0,1,627,103a20.94,20.94,0,0,1-1.21,3.91,19.46,19.46,0,0,1-1.9,3.48,14.94,14.94,0,0,1-2.47,2.8,11,11,0,0,1-3,1.86,8.53,8.53,0,0,1-3.35.67,7.88,7.88,0,0,1-3.43-.74,7,7,0,0,1-2.6-2.11L607.76,124h-4.33ZM619,93.25a4.69,4.69,0,0,0-2.44.75,10,10,0,0,0-2.39,2.1A17.91,17.91,0,0,0,612,99.3a25.9,25.9,0,0,0-1.71,4l-0.8,6.45a5.26,5.26,0,0,0,2.29,1.94,6.94,6.94,0,0,0,2.71.56,5.6,5.6,0,0,0,2.45-.55,7.72,7.72,0,0,0,2.1-1.49,10.85,10.85,0,0,0,1.7-2.2,15.38,15.38,0,0,0,1.26-2.7,18.72,18.72,0,0,0,.79-3,17.19,17.19,0,0,0,.28-3A7.93,7.93,0,0,0,622,94.8,3.47,3.47,0,0,0,619,93.25Z" fill="#fff"/><path d="M649,115.38h-2.3a1.35,1.35,0,0,1-1.19-.45,1.87,1.87,0,0,1-.31-1.1l0.45-5.07a21.51,21.51,0,0,1-1.94,2.88,13.46,13.46,0,0,1-2.2,2.2,9.64,9.64,0,0,1-2.44,1.4,7.25,7.25,0,0,1-2.65.5,6.22,6.22,0,0,1-2.72-.59,5.67,5.67,0,0,1-2.09-1.73,8.4,8.4,0,0,1-1.34-2.8,13.92,13.92,0,0,1-.47-3.81,17.17,17.17,0,0,1,.56-4.39,17.83,17.83,0,0,1,4.09-7.52,16.65,16.65,0,0,1,3.24-2.75,15.35,15.35,0,0,1,3.84-1.8,14.38,14.38,0,0,1,4.3-.64A18.69,18.69,0,0,1,649,90a13.12,13.12,0,0,1,3,.92ZM638.14,112a4.4,4.4,0,0,0,2.4-.75,9.17,9.17,0,0,0,2.23-2.08,18.08,18.08,0,0,0,2-3.16,28.42,28.42,0,0,0,1.61-4l1.07-8.56a1.73,1.73,0,0,0-1.09-.45h-1.06a8.77,8.77,0,0,0-2.9.49,10.35,10.35,0,0,0-2.62,1.36,11.65,11.65,0,0,0-2.23,2.08,13.49,13.49,0,0,0-1.71,2.66,15,15,0,0,0-1.11,3.08,14.05,14.05,0,0,0-.4,3.35Q634.29,112,638.14,112Z" fill="#fff"/><path d="M655.66,115.38L658.71,90h2.22a1.7,1.7,0,0,1,1.1.32,1.21,1.21,0,0,1,.4,1c0,0.07,0,.16,0,0.29s0,0.25,0,.39l0,0.35c0,0.1,0,.16,0,0.17L662,97.15a17.47,17.47,0,0,1,3.64-5.4,6.13,6.13,0,0,1,4.24-1.9,5.29,5.29,0,0,1,2.1.45l-0.8,4.28a6.07,6.07,0,0,0-2.28-.48,5.49,5.49,0,0,0-4.32,2.36,19.54,19.54,0,0,0-3.18,7.16L660,115.38h-4.35Z" fill="#fff"/><path d="M675.41,110.6c0-.1,0-0.23,0-0.39s0-.39,0-0.69,0.06-.69.11-1.18,0.13-1.12.22-1.9l1.58-12.67h-2.83a0.78,0.78,0,0,1-.54-0.19,0.74,0.74,0,0,1-.21-0.59s0-.15,0-0.3,0-.32.06-0.51L674,91.6q0-.3.06-0.57l3.9-.53,1.88-7.83a1.19,1.19,0,0,1,.38-0.61,1,1,0,0,1,.67-0.24h2.35l-1.1,8.72h6.65l-0.37,3.23h-6.67l-1.53,12.45q-0.13,1-.19,1.65l-0.1,1c0,0.25,0,.42-0.05.53s0,0.17,0,.22a2.64,2.64,0,0,0,.59,1.89,2.13,2.13,0,0,0,1.61.61,3.27,3.27,0,0,0,1.15-.19,4.94,4.94,0,0,0,.86-0.41c0.24-.15.45-0.29,0.61-0.41a0.78,0.78,0,0,1,.45-0.19,0.46,0.46,0,0,1,.31.1,1.25,1.25,0,0,1,.24.32l0.93,2.13a9.06,9.06,0,0,1-2.76,1.69,8.55,8.55,0,0,1-3.14.61,5.34,5.34,0,0,1-3.83-1.33A5.2,5.2,0,0,1,675.41,110.6Z" fill="#fff"/><path d="M710.59,95.48a6.85,6.85,0,0,1-.68,3,6.3,6.3,0,0,1-2.47,2.5,18.48,18.48,0,0,1-5,1.94,54.67,54.67,0,0,1-8.1,1.33c0,0.18,0,.36,0,0.54v0.54a7.82,7.82,0,0,0,1.46,5.11,5.4,5.4,0,0,0,4.41,1.76,8.31,8.31,0,0,0,2.14-.25,9,9,0,0,0,1.67-.61,7.46,7.46,0,0,0,1.3-.8l1-.8c0.32-.24.61-0.45,0.88-0.61a1.5,1.5,0,0,1,.8-0.25,1.09,1.09,0,0,1,.83.42l1.1,1.38A23,23,0,0,1,707.5,113a14.56,14.56,0,0,1-2.49,1.56,11.2,11.2,0,0,1-2.66.91,14.74,14.74,0,0,1-3,.29,10,10,0,0,1-3.9-.72,8.08,8.08,0,0,1-2.93-2.06,9.28,9.28,0,0,1-1.85-3.24,13.07,13.07,0,0,1-.65-4.25,18.6,18.6,0,0,1,.41-3.89,18.14,18.14,0,0,1,1.2-3.69,16.67,16.67,0,0,1,1.92-3.25,13,13,0,0,1,2.6-2.59,12.23,12.23,0,0,1,3.23-1.71,11.24,11.24,0,0,1,3.79-.62,9.09,9.09,0,0,1,3.33.55,7.09,7.09,0,0,1,2.3,1.4,5.61,5.61,0,0,1,1.34,1.88A5,5,0,0,1,710.59,95.48Zm-7.65-2.57a6.51,6.51,0,0,0-2.9.65,7.73,7.73,0,0,0-2.35,1.79A10.9,10.9,0,0,0,695.94,98a16,16,0,0,0-1.12,3.31,48.31,48.31,0,0,0,6.17-1.09,15.34,15.34,0,0,0,3.58-1.33,3.88,3.88,0,0,0,1.65-1.54,3.92,3.92,0,0,0,.4-1.72,2.51,2.51,0,0,0-.84-1.83,3.5,3.5,0,0,0-1.14-.66A4.87,4.87,0,0,0,702.94,92.9Z" fill="#fff"/></g></g><g opacity="0.5"><path d="M481.11,75.78a42,42,0,0,0-80.22,25.12c0.26,0.83.55,1.65,0.86,2.45h0l0.06,0.15,0,0.11a2.63,2.63,0,0,0,4.91-1.84,2.59,2.59,0,0,0-.1-0.26q-0.41-1.08-.76-2.2a36.77,36.77,0,1,1,9.28,15.22l-0.2-.2a2.62,2.62,0,0,0-3.51,3.91h0A42,42,0,0,0,481.11,75.78Z" fill="#fff"/><path d="M463.16,86L429,67.58a2.62,2.62,0,0,0-3.46,1.12h0l-0.05.1,0,0.11,0,0-0.07.19,0,0.06q0,0.09,0,.19v0.07q0,0.09,0,.18v0.08q0,0.08,0,.17s0,0,0,.06v36.78s0,0,0,.06A2.62,2.62,0,0,0,429,109.2l34.15-18.4A2.71,2.71,0,0,0,463.16,86ZM430.49,74.34l26.08,14.05-26.08,14.05V74.34Z" fill="#fff"/></g><g opacity="0.5"><polygon points="554.67 167.32 554.67 164.86 551.8 164.86 517.98 164.86 517.98 174.14 517.98 181.59 517.98 251.15 517.98 257.56 517.98 268.31 517.98 276.87 536.04 276.87 554.67 276.87 554.67 267.93 554.67 264.84 554.67 179.43 554.67 174.67 554.67 167.32 554.67 167.32"/><polygon points="40.73 234.66 81.31 234.66 81.31 205.93 40.73 205.93 40.73 193.75 83.75 193.75 83.75 164.86 4.2 164.86 4.2 247.84 4.2 276.87 24.34 276.87 85.37 276.87 85.37 247.65 40.73 247.65 40.73 234.66"/><polygon points="203 265.35 198.46 258.23 173.03 218.43 208.25 164.86 164.43 164.86 148.68 194.89 134.87 168.83 132.77 164.86 115.48 164.86 88.94 164.86 124.33 218.43 86.99 276.87 130.82 276.87 148.68 241.16 166.53 276.87 169.85 276.87 210.37 276.87 204.6 267.85 203 265.35"/><polygon points="353.22 234.66 393.8 234.66 393.8 205.93 353.22 205.93 353.22 199.4 353.22 198.79 353.22 193.75 396.24 193.75 396.24 164.86 345.12 164.86 334.61 164.86 316.69 164.86 316.69 201.2 316.69 222.49 316.69 276.87 397.86 276.87 397.86 247.65 353.22 247.65 353.22 234.66"/><path d="M736.48,207.07c0,5.36.32,12.17,0.81,20.29l-18.69-36-13.77-26.51H665.05v112h35.71V234.66c0-1.07,0-17.81,0-19,1.6-2.37,3.1,10.81,4.51,8.39L734,276.87h38.15v-112H736.48v42.21Z"/><polygon points="891.5 186.16 891.5 266.32 891.5 276.87 892.12 276.87 928.19 276.87 928.19 245.59 928.19 239.15 928.19 239.15 928.19 221.83 928.19 164.86 891.5 164.86 891.5 186.16"/><path d="M1128.67,215.67c-4-3.39-10.32-6.62-18.53-9.37l-0.14,0c-1.46-.49-4.06-1.3-7.63-2.27l-3.26-1-2.42-.76a27.55,27.55,0,0,1-3.91-1.24c-2-.86-3.89-2.12-3.89-4a4,4,0,0,1,.1-0.88c0.31-1.39,1.4-2.37,3.24-3a19.18,19.18,0,0,1,5.75-.7,26.83,26.83,0,0,1,5.72.71,54.36,54.36,0,0,1,7.27,2.21,40.39,40.39,0,0,1,13.64,7.79L1134.94,184l3.64-6.77a54.19,54.19,0,0,0-16.07-9.12,69.25,69.25,0,0,0-23.86-4.35c-1.33,0-2.62,0-3.89.1-12.27.55-22,3.76-29.06,9.65a40.54,40.54,0,0,0-4.54,4.4,35,35,0,0,0-3.39,4.53,33.54,33.54,0,0,0-5.05,18.18,39.21,39.21,0,0,0,.46,6.08,31.13,31.13,0,0,0,1.92,7,28,28,0,0,0,7.84,10.78c3.08,2.6,8.12,5.36,15.42,8.28,6.17,2.11,11.53,3.9,16.23,5.19l0.05,0a18.9,18.9,0,0,1,5.55,2.23,5.86,5.86,0,0,1,2.52,3.6c0,2.83-2.33,4.42-7,4.67-0.42,0-.85,0-1.31,0a22.88,22.88,0,0,1-3-.24,57.46,57.46,0,0,1-10.91-2.85,51,51,0,0,1-14.69-8.12q-0.95.06-1.89,0.17l-15.34,26.08,0.25,0.71c1,0.73,2,1.44,3.05,2.12q2.77,1.85,5.6,3.42a72.1,72.1,0,0,0,16.32,6.71,67.56,67.56,0,0,0,17.75,2.35c13.8,0,24.84-3.25,33.12-9.58q14.61-11.44,14.61-29.22C1139.22,229.79,1135.65,221.68,1128.67,215.67Z"/><polygon points="607.42 234.66 648.01 234.66 648.01 205.93 607.42 205.93 607.42 193.75 650.44 193.75 650.44 164.86 570.9 164.86 570.9 269.88 570.9 276.87 574.63 276.87 639.87 276.87 639.87 276.87 652.07 276.87 652.07 272.08 652.07 272.08 652.07 247.65 607.42 247.65 607.42 234.66"/><path d="M499.83,255.79l-12.69-21.46a44.3,44.3,0,0,0,5.16-3.61,37,37,0,0,0,5.46-5.42c5.37-6.6,8-14.82,8-24.74a38.89,38.89,0,0,0-1.08-9.32,31.06,31.06,0,0,0-2.65-7A31.61,31.61,0,0,0,492,173c-7.63-5.36-18.51-8.12-32.47-8.12h-48.7v112h36.69V239.53h4.71l17.86,37.34H512.3Zm-52.2-63.34h9c3.73,0,6.33.65,8.12,2.11a8.56,8.56,0,0,1,4.06,7.63,9,9,0,0,1-4.06,7.79,6.52,6.52,0,0,1-1.37.82,16.63,16.63,0,0,1-6.75,1.13h-9.25V192.46h0.26"/><path d="M555.66,174.47a4.5,4.5,0,0,1-1,.2A4.5,4.5,0,0,0,555.66,174.47Z"/><path d="M855.2,244.82q-1.94.4-4,.61a48.9,48.9,0,0,1-5.15.27c-14.29,0-25.65-8.93-25.65-25.16,0-15.84,9.77-24.68,23.35-25.57,0.75,0,1.52-.08,2.29-0.08h0.19a33.83,33.83,0,0,1,12.47,2.75c4.38,1.79,7.47,3.08,8.93,4.22s2.76,1.95,3.57,2.76L874.89,193l6.06-19.2-1.3-1.14a56,56,0,0,0-12-5.68c-5.36-2.11-14.77-3.73-24-3.73-17.37,0-31.66,5.19-43,15.42a49.56,49.56,0,0,0-15.13,25.65A69.88,69.88,0,0,0,783.55,221c0,18,5.68,32.3,17,42.53a57.6,57.6,0,0,0,8.51,6.34q2,1.23,4.14,2.29a60.44,60.44,0,0,0,15.81,5.3q2.71,0.52,5.54.84a81.72,81.72,0,0,0,9,.49,77.83,77.83,0,0,0,12.86-1c1.53-.26,3-0.55,4.48-0.91a48.87,48.87,0,0,0,16.68-7.36c0.33-.23.64-0.47,1-0.71a43.28,43.28,0,0,0,4.8-4.12l-10.55-29.22A33.93,33.93,0,0,1,855.2,244.82Z"/><path d="M295.1,173.79a38.18,38.18,0,0,0-14.72-7.06,61,61,0,0,0-11.26-1.7q-2.52-.16-5.19-0.16h-48.7V268.62h0v8.25h36.69V242h12c13.31,0,23.7-2.92,31.17-8.93a31.2,31.2,0,0,0,9.63-12.74,43.54,43.54,0,0,0,3-16.81c0-1.87-.09-3.66-0.27-5.4Q306,182.36,295.1,173.79Zm-28.41,38.64c-1.95,1.3-4.87,1.95-8.93,1.95h-6V192.46h6a22.57,22.57,0,0,1,5.54.59,9.5,9.5,0,0,1,3.39,1.52c2.76,1.79,4.06,4.87,4.06,8.93a11.16,11.16,0,0,1-2.2,7.26A8.07,8.07,0,0,1,266.69,212.42Z"/><path d="M1048.54,263.51l-4.67-13.41-2.45-7-6-17.25-1.31-3.77-3.16-9.08-0.64-1.83-6-17.22L1023,190l-2.89-8.32-5.86-16.83H973.64l-38,109.34-0.93,2.67h38.15l4.22-15.75h32l4.38,15.75h39.77l-2.53-7.27-1.21-3.48-0.66-1.91-0.47-.33ZM984.84,233l8.28-30,4.69,17,3.59,13H984.84Z"/></g><path d="M21.33,273.87q-10-14.53-20.13-29v29H21.33Z" fill="#80c4b8"/><path d="M957.79,150.52a7.71,7.71,0,0,1-1.63-1.13A7.71,7.71,0,0,0,957.79,150.52Z" fill="none"/><path d="M453.15,213.67q-1.06-2.35-2-4.74h0Q452.09,211.32,453.15,213.67Z"/><path d="M444.63,189.46a152.86,152.86,0,0,1-4.47-27.6h0a152.89,152.89,0,0,0,4.47,27.6h0Z"/><path d="M453.15,213.67q1.82,4,3.87,8Q455,217.69,453.15,213.67Z"/><path d="M551.67,164.32h0a11.93,11.93,0,0,1-2.87-2.46h0A11.93,11.93,0,0,0,551.67,164.32Z"/><path d="M848.26,242.75l-0.06-.32h0Z"/><polygon points="909.29 251.09 909.36 251.15 909.29 251.09 909.29 251.09"/><path d="M923.24,242.43l0,0.05Z"/><path d="M82.37,273.87V244.65H37.73v-13H78.31V202.93H37.73V190.75h43v-28.9H1.2v83q10.08,14.51,20.13,29h61Z" fill="#9cd1c8"/><path d="M197.83,264.73q1.51,0,3,.08l0.76,0-1.6-2.5a14.26,14.26,0,0,1-6.54-1.75,31.68,31.68,0,0,1,2-5.37L170,215.43l35.23-53.57H161.42l-15.75,30-13.81-26.06c-2.75-.09-5.58-0.46-8.11.25-6.31,1.77-9.59-.21-11.28-4.22H85.94l35.39,53.57L84,273.87h43.83l17.86-35.71,17.86,35.71h3.31C175.92,265.74,186.77,264.57,197.83,264.73Z" fill="#9cd1c8"/><path d="M265.56,207.76a8.07,8.07,0,0,1-1.86,1.67c-1.95,1.3-4.87,1.95-8.93,1.95h-6V189.46h6a22.57,22.57,0,0,1,5.54.59c1.82-9.37,3.78-18.7,5.82-28q-2.52-.16-5.19-0.16h-29.7l10.7,8.9a72.68,72.68,0,0,1-19.49-8.9H212.23V242a27.44,27.44,0,0,1,9.05-.05c9.65,1.48,19,19.85,14.4,28.44-0.36.67-2,.61-3.12,0.89,0.7,0.9,1.45,1.73,2.22,2.55h12.35a15,15,0,0,1,1.8-.11V239h12c13.31,0,23.7-2.92,31.17-8.93a31.2,31.2,0,0,0,9.63-12.74c-12.06-2.56-23.9-6.06-35.77-9.42Z" fill="#9cd1c8"/><path d="M216.72,249.78a32.34,32.34,0,0,0-4.49,4.37v11.47c3.23,0.29,6.46.6,9.69,0.84-1.25-6,.26-12.62-3.67-18.11Z" fill="#9cd1c8"/><path d="M350.22,195.8v-5h43v-28.9H342.12q-5.22,23.84-10.36,47.7c-2,9.43-4.86,11.66-14.4,10.45-1.23-.16-2.45-0.33-3.67-0.51v54.38h81.17V244.65H350.22v-13H390.8V202.93H350.22V196.4l-3.11-.72Z" fill="#9cd1c8"/><path d="M453.27,189.46a131.17,131.17,0,0,1-5-27.6h-8.15a152.86,152.86,0,0,0,4.47,27.6h8.64Z" fill="#9cd1c8"/><path d="M484.66,215.47a32.65,32.65,0,0,0,4.06,11.35l0.59,0.91a37,37,0,0,0,5.46-5.42c-2-4.34-3.09-8.42-2.92-11.73a36.18,36.18,0,0,1,9.88-22.34,31.07,31.07,0,0,0-2.65-7C489,190.66,482.51,204,484.66,215.47Z" fill="#9cd1c8"/><path d="M449.61,235.87c-13.69-22.81-20.21-48-22.91-74H407.84v35.84l4.63,0.16c-1.54.39-3.08,0.74-4.63,1.06v75h36.69V236.53h4.71l17.86,37.34h16.08A134.66,134.66,0,0,1,449.61,235.87Z" fill="#9cd1c8"/><path d="M460.37,207.81a16.63,16.63,0,0,1-6.75,1.13h-2.51q1,2.38,2,4.74,1.82,4,3.87,8,2.74,5.24,5.92,10.32a120.48,120.48,0,0,0,43.56,41.92h2.79l-12.47-21.08q-4-3.23-7.8-6.79A129.11,129.11,0,0,1,460.37,207.81Z" fill="#9cd1c8"/><path d="M515,248.15v6.4a54.36,54.36,0,0,0,22.35,7.35,72.81,72.81,0,0,1,14.34,3v-3.09c-9.18-2-18.38-3.94-27.14-7.64A40.53,40.53,0,0,1,515,248.15Z" fill="#9cd1c8"/><path d="M534.83,175.7c5.56,1,11.24.31,16.84,0.73v-4.77a6.89,6.89,0,0,1-.78,0,13.29,13.29,0,0,1-2.29-.26c-8.51-1.63-17-3.45-25.8-2.27a36.15,36.15,0,0,0-7.81,2v7.44A34,34,0,0,1,534.83,175.7Z" fill="#9cd1c8"/><path d="M515,273.87H533A125,125,0,0,1,515,265.31v8.56Z" fill="#9cd1c8"/><path d="M649.07,273.87v-4.79c-4.07,1.6-8.13,3.21-12.2,4.79h12.2Z" fill="#9cd1c8"/><path d="M567.9,266.88v7h3.73A8.76,8.76,0,0,0,567.9,266.88Z" fill="#9cd1c8"/><path d="M662.05,273.87h3.11a14.41,14.41,0,0,0-3.11-1.37v1.37Z" fill="#9cd1c8"/><path d="M1119.5,165.08a72.76,72.76,0,0,0,5.63,8.11c2,2.42,4.49,5,6.81,7.77l3.64-6.77A54.18,54.18,0,0,0,1119.5,165.08Z" fill="#5ca89b"/><path d="M731,273.87h38.15V251a44.14,44.14,0,0,1-.7-8.29c0.06-13-3.9-26.15-7.77-38.91-2-6.58,1.11-9.5,7.76-7.43l0.7,0.23V161.86H733.48v42.21c0,5.36.32,12.17,0.81,20.29l-18.69-36a123.94,123.94,0,0,1-13.36,32.69Z" fill="#80c4b8"/><path d="M664,260.75c-0.65.41-1.29,0.84-1.92,1.26V272.5a14.41,14.41,0,0,1,3.11,1.37h32.6V231.66c0-1.07,0-2.22,0-3.41q-1.78,2.64-3.71,5.24C685.94,244.36,675.55,253.38,664,260.75Z" fill="#80c4b8"/><path d="M867.72,261.15c-10.51-2.78-14.06-9.62-15.52-19.33q-1.94.4-4,.61l0.06,0.32q0.55,3,1.14,5.94c1.29,6.44-.24,10.72-5.1,14.29A123.33,123.33,0,0,1,826,274.49q2.71,0.52,5.54.84c6.72-3.82,13-8.77,19.67-13.74l2.23,13.21c1.53-.26,3-0.55,4.48-0.91a81.12,81.12,0,0,0-1.19-8.58c-1.37-6,1.11-5.73,5.37-4s7.77,5,12.49,5.2c0.33-.23.64-0.47,1-0.71C873,264.07,870.56,261.9,867.72,261.15Z" fill="#80c4b8"/><path d="M797.46,212.22c2.95,18.15,5.77,36.33,8.65,54.68q2,1.23,4.14,2.29c-3-18-5.82-36-8.74-54-1-6.18,1.25-10.4,6.88-13.41,7.64-4.08,15.2-8.39,22.4-13.2,5.69-3.81,9-4.28,10,3.43,0.75,0,1.52-.08,2.29-0.08h0.19c-0.93-5.75,1.34-7.82,7.09-6.79,7,1.25,14,2.91,20.86,4.66a5.8,5.8,0,0,1,.69.23l6.06-19.2-1.3-1.14a56,56,0,0,0-12-5.68c-5.36-2.11-14.77-3.73-24-3.73-17.37,0-31.66,5.19-43,15.42a49.56,49.56,0,0,0-15.13,25.65c3.22,1.2,6.44,2.41,9.68,3.56C795.66,206.12,796.95,209.07,797.46,212.22Z" fill="#80c4b8"/><path d="M923.16,242.34l0.08,0.1,0,0.05a6.6,6.6,0,0,1,1.91.11v-6.45C924.54,238.21,923.79,240.25,923.16,242.34Z" fill="#80c4b8"/><path d="M918,177.89c2.38,13.65,4.62,27.33,7.18,40.94v-57H888.5v21.3c6.41-3,12.84-6,18.68-10.28C912.78,168.81,916.82,171,918,177.89Z" fill="#80c4b8"/><path d="M894.33,264.78c-2.58-.14-4.47-0.54-5.82-1.45v10.55h0.61C889.38,270.8,890.73,267.8,894.33,264.78Z" fill="#80c4b8"/><path d="M1014,263.51c-12.6-9.15-18.78-20-19.74-33.47H981.84l8.28-30,4.69,17a93.78,93.78,0,0,1,1.85-9.52c1-4.15,3.16-8,4.78-12-8.75,1.64-12.82-4.3-15.49-10.72-3.43-8.23-7-16.14-12.8-22.9h-2.51l-38,109.34,0.47,2.67h36.75l4.22-15.75h32l4.38,15.75h25.87a79.15,79.15,0,0,1-11.2-4A61.76,61.76,0,0,1,1014,263.51Z" fill="#80c4b8"/><path d="M1001.45,195.48a66.48,66.48,0,0,1,15.63-16.78l-5.86-16.83H973.15c5.83,6.76,9.37,14.67,12.8,22.9C988.62,191.17,992.7,197.11,1001.45,195.48Z" fill="#6eb6a9"/><path d="M1119.5,165.08a69.25,69.25,0,0,0-23.86-4.35c-1.33,0-2.62,0-3.89.1a12.8,12.8,0,0,1-11.2,6.12c-1.68,0-3.77-1.11-4.48,1-0.94,2.77,1.92,3.26,3.54,4,5.1,2.31,9.14,5.9,13.26,9.59a53.28,53.28,0,0,1,7.84,8.66,54.36,54.36,0,0,1,7.27,2.21,40.39,40.39,0,0,1,13.64,7.79L1131.94,181c-2.32-2.81-4.84-5.35-6.81-7.77A72.76,72.76,0,0,1,1119.5,165.08Z" fill="#6eb6a9"/><path d="M1105.22,237.71c-6.08,19.11-18.13,30.35-34.47,35.75a67.56,67.56,0,0,0,17.75,2.35c13.8,0,24.84-3.25,33.12-9.58q14.61-11.44,14.61-29.22c0-10.23-3.57-18.34-10.55-24.35-4-3.39-10.32-6.62-18.53-9.37C1110.25,214,1109.08,225.58,1105.22,237.71Z" fill="#6eb6a9"/><path d="M923.28,242.48c-3.58,4.59-7.8,8.16-13.93,8.67-0.47,4.2-3.28,5.28-6.95,5.23-0.37,2.81-1.63,4.72-5.45,4.86,0.45-3.42,2.61-4.47,5.37-4.94h0a11.63,11.63,0,0,1,3.72-4.09,7.86,7.86,0,0,1,3.24-1.12h0a24.44,24.44,0,0,1,6.85-6.43,17.05,17.05,0,0,1,7-2.33h0c0.63-2.09,1.39-4.12,2-6.19V218.83c-2.55-13.62-4.8-27.29-7.18-40.94-1.2-6.88-5.23-9.08-10.83-5-5.84,4.25-12.27,7.27-18.68,10.28v80.16c1.36,0.92,3.25,1.32,5.82,1.45-3.6,3-5,6-5.21,9.09h36.07V242.59A6.6,6.6,0,0,0,923.28,242.48Z" fill="#4fb9d0"/><path d="M931.68,273.87h1.4l-0.47-2.67Z" fill="#4fb9d0"/><path d="M923.15,242.33h0c0.63-2.09,1.39-4.12,2-6.19h0C924.54,238.21,923.79,240.25,923.15,242.33Z" fill="#4fb9d0"/><path d="M197.83,264.73c-11.06-.16-21.9,1-31,9.14h40.52l-5.76-9-0.76,0Q199.33,264.75,197.83,264.73Z" fill="#4fb9d0"/><path d="M221.92,266.46h0c-3.23-.24-6.46-0.55-9.69-0.85v8.25h22.55c-0.77-.81-1.52-1.65-2.22-2.55Z" fill="#4fb9d0"/><path d="M200.84,264.81l0.76,0h0Z" fill="#4fb9d0"/><path d="M221.92,266.46h0c-3.23-.24-6.46-0.55-9.69-0.84h0c3.23,0.29,6.46.6,9.69,0.85h0Z" fill="#4fb9d0"/><path d="M831.58,275.33a81.71,81.71,0,0,0,9,.49,77.83,77.83,0,0,0,12.86-1l-2.23-13.21C844.55,266.56,838.3,271.51,831.58,275.33Z" fill="#eb5e57"/><path d="M862.14,261.33c-4.26-1.75-6.75-2-5.37,4a81.12,81.12,0,0,1,1.19,8.58,48.87,48.87,0,0,0,16.68-7.36C869.91,266.38,866.3,263,862.14,261.33Z" fill="#4fb9d0"/><path d="M248.92,273.87v-0.11a15,15,0,0,0-1.8.11h1.8Z" fill="#4fb9d0"/><path d="M501.72,188.25a36.18,36.18,0,0,0-9.88,22.34c-0.17,3.31.93,7.39,2.92,11.73,5.37-6.6,8-14.82,8-24.74A38.89,38.89,0,0,0,501.72,188.25Z" fill="#4fb9d0"/><path d="M534.83,175.7A34,34,0,0,0,515,178.59v69.57a40.53,40.53,0,0,0,9.55,6c8.76,3.7,18,5.64,27.14,7.64V176.43C546.07,176,540.39,176.66,534.83,175.7Z" fill="#4fb9d0"/><path d="M649.07,269.08V244.65H604.42v-13H645V202.93H604.42V190.75h43v-28.9H567.9v105a8.76,8.76,0,0,1,3.73,7h65.24C640.94,272.29,645,270.68,649.07,269.08Z" fill="#4fb9d0"/><path d="M662.05,161.86V262c0.64-.43,1.28-0.85,1.92-1.26,11.57-7.38,22-16.39,30-27.26q1.93-2.6,3.71-5.24c-0.1-4.75-.38-10.39-0.77-16.88l5.28,9.69a123.94,123.94,0,0,0,13.36-32.69l-13.77-26.51H662.05Z" fill="#4fb9d0"/><path d="M636.86,273.87h0c4.07-1.58,8.14-3.19,12.2-4.79h0C645,270.68,640.94,272.29,636.86,273.87Z" fill="#4fb9d0"/><path d="M489.3,227.73l-0.59-.91a32.65,32.65,0,0,1-4.06-11.35c-2.15-11.47,4.3-24.81,14.42-34.27A31.61,31.61,0,0,0,489,170c-7.63-5.36-18.51-8.12-32.47-8.12h-8.24a131.17,131.17,0,0,0,5,27.6h0.36c3.73,0,6.33.65,8.12,2.11a8.56,8.56,0,0,1,4.06,7.63,9,9,0,0,1-4.06,7.79,6.52,6.52,0,0,1-1.37.82A129.11,129.11,0,0,0,489,246q3.82,3.56,7.8,6.79l-12.69-21.46A44.3,44.3,0,0,0,489.3,227.73Z" fill="#eb5e57"/><path d="M548.59,171.44a13.29,13.29,0,0,0,2.29.26,6.9,6.9,0,0,0,.78,0v-7.34a11.93,11.93,0,0,1-2.87-2.46H515v9.29a36.15,36.15,0,0,1,7.81-2C531.61,168,540.08,169.8,548.59,171.44Z" fill="#eb5e57"/><path d="M515,254.55v10.76A125,125,0,0,0,533,273.87h18.62v-8.94a72.81,72.81,0,0,0-14.34-3A54.36,54.36,0,0,1,515,254.55Z" fill="#eb5e57"/><path d="M551.67,171.67h0a4.5,4.5,0,0,0,1-.2A4.5,4.5,0,0,1,551.67,171.67Z" fill="#eb5e57"/><path d="M550.89,171.7a6.89,6.89,0,0,0,.78,0h0A6.9,6.9,0,0,1,550.89,171.7Z" fill="#eb5e57"/><path d="M462.94,232q-3.17-5.08-5.92-10.32-2.06-3.93-3.87-8-1.06-2.35-2-4.74h-6.75V189.46h0.26a152.89,152.89,0,0,1-4.47-27.6H426.7c2.69,26,9.22,51.2,22.91,74a134.66,134.66,0,0,0,33.57,38h23.34A120.48,120.48,0,0,1,462.94,232Z" fill="#4fb9d0"/><path d="M304.5,195.1c-0.82-.24-1.63-0.46-2.42-0.61-8.49-1.67-16.85-4-25.34-5.64-3.84-.76-4.61-2.52-3.79-6q2.23-9.54,4.43-19.09a61,61,0,0,0-11.26-1.7c-2,9.32-4,18.65-5.82,28a9.5,9.5,0,0,1,3.39,1.52c2.76,1.79,4.06,4.87,4.06,8.93a11.16,11.16,0,0,1-2.19,7.26l0.4,0.13c11.87,3.36,23.72,6.86,35.77,9.42a43.54,43.54,0,0,0,3-16.81C304.76,198.63,304.67,196.83,304.5,195.1Zm-9.58,15.51a6.85,6.85,0,0,1-7.2-6.17c-0.4-3.51,2.54-6.09,5.83-6.35,3.75-.3,6.54,1.85,7.05,6C300.32,207.74,298.54,210.49,294.91,210.61Z" fill="#4fb9d0"/><path d="M331.76,209.55q5.15-23.85,10.36-47.7H331.61q-2,8.41-4.08,16.79c-1.67,6.64-.39,16-5.75,19.25-2.3,1.37-5.1,1.13-8.09.31v21.29c1.22,0.18,2.44.36,3.67,0.51C326.9,221.21,329.72,219,331.76,209.55Z" fill="#4fb9d0"/><path d="M123.76,166.08c2.53-.71,5.36-0.34,8.11-0.25l-2.1-4H112.48C114.16,165.87,117.45,167.84,123.76,166.08Z" fill="#4fb9d0"/><path d="M200,262.35l-4.55-7.12a31.68,31.68,0,0,0-2,5.37A14.26,14.26,0,0,0,200,262.35Z" fill="#eb5e57"/><path d="M216.72,249.78c-1-1-2.14-2-.84-3.59l2.37,2.16h0c3.94,5.49,2.42,12.08,3.68,18.11l10.64,4.86c1.07-.28,2.76-0.23,3.12-0.89,4.63-8.58-4.75-27-14.4-28.44a27.44,27.44,0,0,0-9.05.05v12.11A32.34,32.34,0,0,1,216.72,249.78Z" fill="#eb5e57"/><path d="M218.24,248.35h0c3.94,5.49,2.42,12.08,3.67,18.11h0c-1.26-6,.26-12.62-3.68-18.11h0Z" fill="#eb5e57"/><path d="M231.23,161.86h-8.79a72.68,72.68,0,0,0,19.49,8.9Z" fill="#eb5e57"/><path d="M347.11,195.68l3.11,0.72V195.8Z" fill="#eb5e57"/><path d="M407.84,197.69v1.21c1.54-.31,3.08-0.66,4.63-1.06Z" fill="#eb5e57"/><path d="M1003.23,221.44c0-13.15,6.68-25.64,16.75-34.43l-2.89-8.32a66.48,66.48,0,0,0-15.63,16.78c-1.62,4-3.75,7.89-4.78,12a93.78,93.78,0,0,0-1.85,9.52l3.59,13h-4.12c1,13.46,7.15,24.32,19.74,33.47a61.76,61.76,0,0,0,11.06,6.37,79.15,79.15,0,0,0,11.2,4h13.9l-2.53-7.27C1023.46,264.4,1003.17,244.26,1003.23,221.44Z" fill="#4fb9d0"/><path d="M1099.38,201l-3.26-1a42.18,42.18,0,0,1,4.64,19.42,46.61,46.61,0,0,1-3.57,17.78,5.86,5.86,0,0,1,2.52,3.6c0,2.83-2.33,4.42-7,4.67a48.83,48.83,0,0,1-38.3,21.33,72.1,72.1,0,0,0,16.32,6.71c16.34-5.41,28.39-16.64,34.47-35.75,3.86-12.13,5-23.72,1.93-34.41l-0.14,0C1105.54,202.77,1102.95,202,1099.38,201Z" fill="#4fb9d0"/><path d="M1092.87,181.51c-4.12-3.69-8.16-7.28-13.26-9.59-1.62-.73-4.48-1.22-3.54-4,0.72-2.11,2.8-1,4.48-1a12.8,12.8,0,0,0,11.2-6.12c-12.27.55-22,3.76-29.06,9.65a40.53,40.53,0,0,0-4.54,4.4,49.65,49.65,0,0,1,31.1,15.3,19.18,19.18,0,0,1,5.75-.7,26.83,26.83,0,0,1,5.72.71A53.28,53.28,0,0,0,1092.87,181.51Z" fill="#4fb9d0"/><path d="M1025.09,269.88a79.15,79.15,0,0,0,11.2,4h0A79.15,79.15,0,0,1,1025.09,269.88Z" fill="#4fb9d0"/><path d="M849.4,248.69q-0.59-3-1.14-5.94l-0.06-.32a48.89,48.89,0,0,1-5.15.27c-14.29,0-25.65-8.93-25.65-25.16,0-15.84,9.77-24.68,23.35-25.57-0.94-7.71-4.28-7.24-10-3.43-7.19,4.81-14.75,9.13-22.4,13.2-5.63,3-7.88,7.22-6.88,13.41,2.92,18,5.78,36,8.74,54a60.44,60.44,0,0,0,15.81,5.3A123.33,123.33,0,0,0,844.3,263C849.15,259.4,850.69,255.13,849.4,248.69Z" fill="#4fb9d0"/><path d="M760.73,203.84c3.87,12.75,7.83,25.87,7.77,38.91a44.14,44.14,0,0,0,.7,8.29v-54.4l-0.7-.23C761.84,194.33,758.73,197.26,760.73,203.84Z" fill="#4fb9d0"/><path d="M797.6,260.56a57.6,57.6,0,0,0,8.51,6.34c-2.87-18.35-5.7-36.53-8.65-54.68-0.51-3.15-1.8-6.1-5.31-7.34-3.24-1.15-6.46-2.36-9.68-3.56A69.88,69.88,0,0,0,780.55,218C780.55,236,786.23,250.33,797.6,260.56Z" fill="#4fb9d0"/><path d="M850.34,185.1c-5.76-1-8,1-7.09,6.79a33.83,33.83,0,0,1,12.47,2.75c4.38,1.79,7.47,3.08,8.93,4.22s2.76,1.95,3.57,2.76L871.89,190a5.8,5.8,0,0,0-.69-0.23C864.29,188,857.35,186.36,850.34,185.1Z" fill="#eb5e57"/><path d="M867.72,261.15c2.84,0.75,5.3,2.92,7.87,4.67a43.28,43.28,0,0,0,4.8-4.12l-10.55-29.22a33.93,33.93,0,0,1-17.63,9.34C853.66,251.53,857.21,258.37,867.72,261.15Z" fill="#eb5e57"/><path d="M918.93,243.32a17.18,17.18,0,0,0-2.79,1.34,24.44,24.44,0,0,0-6.85,6.43l0.06,0.06c6.13-.5,10.34-4.07,13.93-8.67l0-.05-0.08-.1A17.3,17.3,0,0,0,918.93,243.32Z" fill="#80c4b8"/><path d="M923.24,242.43l-0.08-.1h0Z" fill="#80c4b8"/><path d="M916.14,244.66a24.44,24.44,0,0,0-6.85,6.43h0A24.44,24.44,0,0,1,916.14,244.66Z" fill="#80c4b8"/><path d="M916.14,244.66a17.18,17.18,0,0,1,2.79-1.34A17.18,17.18,0,0,0,916.14,244.66Z" fill="#80c4b8"/><path d="M906.06,252.2a11.63,11.63,0,0,0-3.72,4.09l0.08,0.08c3.67,0.05,6.48-1,6.95-5.23l-0.06-.06A7.86,7.86,0,0,0,906.06,252.2Z" fill="#80c4b8"/><path d="M906.06,252.2a11.63,11.63,0,0,0-3.72,4.09h0A11.63,11.63,0,0,1,906.06,252.2Z" fill="#80c4b8"/><path d="M897,261.23c3.81-.14,5.08-2.05,5.45-4.86l-0.08-.08C899.57,256.76,897.41,257.81,897,261.23Z" fill="#80c4b8"/><polygon points="902.33 256.3 902.41 256.38 902.33 256.3 902.33 256.3" fill="#80c4b8"/><path d="M548.8,161.86a11.93,11.93,0,0,0,2.87,2.46v-2.46H548.8Z" fill="#9cd1c8"/><path d="M292.1,170.79a38.18,38.18,0,0,0-14.72-7.06q-2.22,9.54-4.43,19.09c-0.82,3.51-.05,5.27,3.79,6,8.49,1.67,16.85,4,25.34,5.64,0.79,0.16,1.6.37,2.42,0.61Q303,179.36,292.1,170.79Z" fill="#eb5e57"/><path d="M313.69,198.2c3,0.82,5.79,1.06,8.09-.31,5.36-3.21,4.08-12.6,5.75-19.25q2.11-8.38,4.08-16.79H313.69V198.2Z" fill="#eb5e57"/><path d="M293.54,198.09c-3.29.26-6.23,2.84-5.83,6.35a6.85,6.85,0,0,0,7.2,6.17c3.62-.12,5.4-2.87,5.67-6.52C300.08,199.94,297.28,197.79,293.54,198.09Z" fill="#9cd1c8"/><path d="M215.88,246.19c-1.29,1.57-.11,2.55.84,3.59l1.52-1.43Z" fill="#9cd1c8"/><path d="M218.24,248.35l-1.52,1.43,1.52-1.43h0Z" fill="#9cd1c8"/><path d="M1007.51,225.48c-1.58-11.53,4.21-25.13,13.81-34.59L1020,187c-10.07,8.79-16.72,21.29-16.75,34.43-0.05,22.82,20.23,43,44.43,45.16l-1.21-3.48C1026.83,260.89,1010.25,245.44,1007.51,225.48Z" fill="#6eb6a9"/><path d="M1086,193.13c0.31-1.39,1.4-2.37,3.24-3a49.65,49.65,0,0,0-31.1-15.3,35,35,0,0,0-3.39,4.53C1067.47,180.26,1077.94,184.16,1086,193.13Z" fill="#6eb6a9"/><path d="M1088.37,245.23c-7.91,11-19.25,16.64-32.77,18a43.25,43.25,0,0,1-6.76.13q2.77,1.85,5.6,3.42a48.83,48.83,0,0,0,38.3-21.33c-0.42,0-.86,0-1.31,0A22.88,22.88,0,0,1,1088.37,245.23Z" fill="#6eb6a9"/><path d="M1089.79,198a54.36,54.36,0,0,1,2.91,4.8c2.51,4.66,3.61,9.74,4.38,14.91,0.94,6.31-.65,12.61-4.65,16.83a1.61,1.61,0,0,1-.8.43,18.9,18.9,0,0,1,5.55,2.23,46.61,46.61,0,0,0,3.57-17.78,42.18,42.18,0,0,0-4.64-19.42l-2.42-.76A27.54,27.54,0,0,1,1089.79,198Z" fill="#6eb6a9"/><path d="M1007.51,225.48c2.73,20,19.32,35.41,38.94,37.64l-0.66-1.91-0.47-.33,0.22-.38-4.67-13.41c-1.2,3-2.5,6-4,8.9q0.59-6.23,1.19-12.45c0.12-1.27.23-2.42,0.32-3.5l-6-17.25c-1.49-1.08-3.28-2.27-5.46-3.72a19.22,19.22,0,0,1,4.15-.05l-3.16-9.08c-1.4-.48-2.81-1-4.21-1.49,1.17-.18,2.36-0.28,3.57-0.34l-6-17.22C1011.73,200.35,1005.93,214,1007.51,225.48Z" fill="#eb5e57"/><path d="M1050.16,203.65c2.38-2.23,4.29-5.59,5.46-10.7,1.09,7.19-1.71,12.38-3.54,17.71a28,28,0,0,0,7.84,10.78c3.08,2.6,8.12,5.36,15.42,8.28,6.17,2.11,11.53,3.9,16.23,5.19l0.05,0a1.61,1.61,0,0,0,.8-0.43c4-4.23,5.58-10.52,4.65-16.83-0.77-5.17-1.86-10.25-4.38-14.91a54.36,54.36,0,0,0-2.91-4.8c-2-.86-3.89-2.12-3.89-4a4,4,0,0,1,.1-0.88c-8.07-9-18.53-12.87-31.25-13.74a33.54,33.54,0,0,0-5.05,18.18A39.2,39.2,0,0,0,1050.16,203.65Zm7.82,11.25c2.53-8.26,5.12-16.5,7.68-24.74l1.28,0c-0.48,7.47-2.5,15.27-1,22.34,1.6,7.59,12.16,7.46,16,15q-11.26-3.8-22.52-7.6C1056.59,218.94,1057.4,216.82,1058,214.91Z" fill="#eb5e57"/><path d="M1045.79,261.22c1,0.73,2,1.44,3.05,2.12a43.25,43.25,0,0,0,6.76-.13c13.52-1.33,24.86-6.94,32.77-18a57.46,57.46,0,0,1-10.91-2.85,51,51,0,0,1-14.69-8.12q-0.95.06-1.89,0.17l-15.34,26.08Z" fill="#eb5e57"/><path d="M1059.43,219.9q11.26,3.82,22.52,7.6c-3.86-7.5-14.42-7.38-16-15-1.49-7.06.54-14.86,1-22.34l-1.28,0c-2.57,8.25-5.15,16.49-7.68,24.74C1057.4,216.82,1056.59,218.94,1059.43,219.9Z" fill="#6eb6a9"/><path d="M1038.1,243.54q-0.59,6.23-1.19,12.45c1.46-2.94,2.77-5.9,4-8.9l-2.45-7C1038.33,241.12,1038.22,242.28,1038.1,243.54Z" fill="#6eb6a9"/><path d="M1027,219.08c2.18,1.45,4,2.65,5.46,3.72l-1.31-3.77A19.22,19.22,0,0,0,1027,219.08Z" fill="#6eb6a9"/><path d="M1023.74,208.45c1.4,0.52,2.81,1,4.21,1.49l-0.64-1.83C1026.1,208.17,1024.91,208.28,1023.74,208.45Z" fill="#6eb6a9"/><path d="M1055.63,192.95c-1.17,5.11-3.08,8.47-5.46,10.7a31.13,31.13,0,0,0,1.92,7C1053.92,205.33,1056.71,200.14,1055.63,192.95Z" fill="#6eb6a9"/></svg>