<svg xmlns="http://www.w3.org/2000/svg" xmlns:xlink="http://www.w3.org/1999/xlink" viewBox="0 0 1147.3 325.12"><defs><clipPath id="a"><rect x="720.2" y="97.84" width="409" height="4" fill="none"/></clipPath><clipPath id="c"><path d="M537,80.24l29.15,14.6-29.2,14.6V80.24h0Zm10.15-21.4a36,36,0,1,0,36,36,36,36,0,0,0-36-36h0Z" fill="none"/></clipPath><clipPath id="d"><rect x="511.2" y="58.84" width="72" height="72" fill="none"/></clipPath></defs><title>Intro-svg</title><g opacity="0.5"><path d="M747.54,239.26a10.35,10.35,0,0,0-2.77-1A11.72,11.72,0,0,1,747.54,239.26Z"/><path d="M349.79,175.73a0.62,0.62,0,0,1-.11-0.09l-0.11-.09A2.15,2.15,0,0,0,349.79,175.73Z"/><path d="M373,279.47h0l0-.1h49.07V248.25H374.75L374.59,235v-0.49h43.27v-4.76l-0.1-.08V203.89H386.15l-0.1-.08a5.48,5.48,0,0,1-1.85.09c2.31,1.8,5.43,4.11,7.89,6.1-2.65-2-5.3-4-7.91-6h-9.58v-6.9h0V196a3.51,3.51,0,0,0,.34.34h0a5.8,5.8,0,0,1,0-1h0l-0.37-.28v-4.25h45.84V160.12H375.87c-2.07,3.16-4,6.13-5.33,8A18.33,18.33,0,0,0,369,173a4.11,4.11,0,0,0,.59,3.16,1.22,1.22,0,0,0,.35.26,1.26,1.26,0,0,1-.54-0.36,1.36,1.36,0,0,0,1.14.56,4,4,0,0,0,1.16-.06c-1.08.28-1.85,0.22-2.29-.4a4.11,4.11,0,0,1-.59-3.16h0c0.09-.47.2-0.94,0.32-1.4a17.78,17.78,0,0,1,1.26-3.34l0.1-.1,0.16-.31a85.55,85.55,0,0,0,5.18-7.79h-0.69c-0.64,1-1.19,1.88-1.78,2.87-0.76,1.33-1.52,2.66-2.19,3.81,0.74-1.42,1.6-2.89,2.39-4.2,0.4-.79.89-1.58,1.28-2.37H335.86v3.75a39.22,39.22,0,0,1,6,3.75,5.92,5.92,0,0,1,1.31,1.49,4.82,4.82,0,0,0-1.51-1.49c-1.78-1.09-4.05-1.09-6-2.27v57.8h0v1.19c3,0.69,5.83,1.38,8.69,2.07l0.19,0-0.19,0c-2.87-.69-5.73-1.38-8.69-2.07v10.15l-0.1,0v0.18c0.21-.08.43-0.14,0.66-0.2l-0.66.22V236h0.1a27.12,27.12,0,0,0,5.12,1.84,25.33,25.33,0,0,1-5.12-1.84v0.3c1.55,0.88,5.18,1.71,7.42,2.16l1.4,0.34-0.63-.11,0.7,0.12,0.19,0-0.88-.17c-2.12-.39-6.37-1.31-8.1-2.3v7.92l-0.1,0v0.2l1.12,0.19-1.12-.19v34.87h26.28a117,117,0,0,0,3.16-13.57c0.49-2.65.87-5.31,1.09-8,0.1-.89.1-1.78,0.2-2.67a3.39,3.39,0,0,0-1-2.66,3.72,3.72,0,0,1,1.07,2.06c0,0.13-.05.32-0.09,0.61-0.07,1.53-.1,2.39-0.1,2.8a125.83,125.83,0,0,1-4.24,21.5H373M343.67,170c0,0.1,0,.1.1,0.1,1,1,2,1.88,3,2.87,0.89,0.79,1.68,1.58,2.57,2.37a1,1,0,0,1,.25.2l0.14,0.11a0.57,0.57,0,0,0,.11.09h0q1.5,1.31,3,2.68-1.53-1.29-3-2.6c-0.2-.1-0.3-0.3-0.49-0.4l-0.28-.25c-0.66-.65-1.38-1.3-2.11-2l-0.18-.17c-1-.89-2-1.88-3-2.87h-0.1l-0.3.22a0.74,0.74,0,0,1,.3-0.3h0s0,0-.07,0l0.07-.06a6.36,6.36,0,0,0-.84-1.31A6.36,6.36,0,0,1,343.67,170Zm-6.07,64.2c3.58,0,10,4.64,8.07,4.77C347.59,238.84,341.13,234.16,337.59,234.2Zm8.13,4.77c2-.11-3.75-4.87-7.63-4.84C342,234,348,239,345.72,239Zm-10.05-15.81a184.32,184.32,0,0,1,29.54,7.61A201.67,201.67,0,0,0,335.66,223.15Zm30.51,30.6a5,5,0,0,0-1.51-1.91l0.16,0.12A4.71,4.71,0,0,1,366.18,253.76Zm0.17,4.17c0.07-.73.18-2.4,0.19-3.16C366.75,253,366.25,260.23,366.35,257.93ZM368,182.46c1.44-.13,5.73-2.4,8.28-3.67-1.11.46-6.76,3.49-8.32,3.66h0c1.56-.17,7.22-3.29,8.32-3.66,0.69-.4,1.38-0.59,1.68-0.79a9.15,9.15,0,0,1-1.68.79c1.48-.59,3-1.09,4.35-1.68a28.27,28.27,0,0,0,9.58-5.24c0.3-.2.49-0.49,0.79-0.69l0.1-.1a5.93,5.93,0,0,1,.79-0.79l0,0,0-.06-0.05.05c-1.42-1.45-4.31-.77-7.58.59,2.66-1.13,5.08-1.81,6.71-1.26a2.46,2.46,0,0,1,.93.62,2.43,2.43,0,0,0-.45-0.4,2.59,2.59,0,0,1,.65.49,5.93,5.93,0,0,1-.79.79l-0.1.1a5.65,5.65,0,0,1-.79.69,28.27,28.27,0,0,1-9.58,5.24c-1.38.59-2.87,1.09-4.35,1.68C373.69,180.13,369.18,182.57,368,182.46Z"/><path d="M365.2,230.76h0Z"/><path d="M589.07,204.88v-1.09h0v-19h0v0l0.15,0v-0.1l-0.15,0v-3.61h0.15v-0.49H589v-0.31a14.65,14.65,0,0,0-2.44,0,21.28,21.28,0,0,1,2.59-.25v-20h-24.9a80.8,80.8,0,0,0-6.82,4.45c-2.47,1.78-4.94,3.66-7.31,5.63v43.67c1.78,2.17,3.75,4.84,6.22,7.41a3.4,3.4,0,0,0,.26.36c-0.12-.12-0.25-0.23-0.36-0.36a5.66,5.66,0,0,0,1.09,1.09l0.3,0.3a1.85,1.85,0,0,0,.69.59,3.91,3.91,0,0,0,.4.3,2.16,2.16,0,0,1,.49.4c0.1,0.1.3,0.2,0.4,0.3s0.3,0.2.4,0.3a0.75,0.75,0,0,0,.4.2c0.1,0.1.3,0.1,0.4,0.2s0.3,0.1.4,0.2a0.36,0.36,0,0,0,.3.1,2.25,2.25,0,0,0,.4.1c0.1,0,.2.1,0.3,0.1h0.89a0.37,0.37,0,0,0,.3-0.1,0.2,0.2,0,0,0,.2-0.1,0.52,0.52,0,0,0,.3-0.2,0.1,0.1,0,0,0,.1-0.1c1.12-.78,1.55-2.78,1.59-5.27a13,13,0,0,1-.57,4.12,3.15,3.15,0,0,1-1,1.45,0.1,0.1,0,0,0-.1.1c-0.1.1-.2,0.1-0.3,0.2a0.2,0.2,0,0,0-.2.1h0a0.37,0.37,0,0,0-.3.1h-0.94a0.37,0.37,0,0,1-.3-0.1,2.25,2.25,0,0,0-.4-0.1c-0.1,0-.2-0.1-0.3-0.1a0.75,0.75,0,0,1-.4-0.2,1.45,1.45,0,0,0-.4-0.2,0.75,0.75,0,0,0-.4-0.2c-0.1-.1-0.3-0.2-0.4-0.3s-0.3-.2-0.4-0.3a2.15,2.15,0,0,1-.49-0.4c-0.1-.1-0.3-0.2-0.4-0.3s-0.49-.4-0.69-0.59l-0.3-.3a11.27,11.27,0,0,1-1.09-1.09c-2.47-2.57-4.45-5-6.22-7.11v4l0,0.09h0l0,0.06c0.2,0.34.38,0.68,0.55,1-0.19-.33-0.39-0.66-0.58-1v61h39.12v-33.1l-0.1-.23v-0.17c-0.41-.83-0.77-1.68-1.12-2.54-0.21-.56-0.39-1.13-0.57-1.7a37.78,37.78,0,0,0,1.69,4.15V207.11l0.1-.36v-0.31m-25.83-5a30.14,30.14,0,0,1-.12-3.12,31.23,31.23,0,0,0,.12,3.15v0Zm-0.08,30.9q1-.11,1.92-0.28A6.66,6.66,0,0,1,563.27,232.34Zm2-9.51a27.83,27.83,0,0,0,0-8.14c-0.11-1.09-.25-2.18-0.4-3.23C565.53,215.34,566,220,565.31,222.83ZM566,196.22c0-.08,0-0.16,0-0.23l0-.11C566,196,566,196.1,566,196.22Zm-1.1-5.17a12,12,0,0,0-1.79,6.63c0-3.74.91-6.65,3.58-9.16A12.23,12.23,0,0,0,564.87,191Zm20.84,41.88q0-1.17,0-2.45,0,1.28,0,2.45h0Zm2-23.2a86.72,86.72,0,0,0-1.37,9c-0.13,1-.24,1.9-0.34,2.74,0,0.11,0,.22,0,0.33a64.82,64.82,0,0,0-.39,8.34,64.83,64.83,0,0,1,.42-8.67,85.07,85.07,0,0,1,2.07-13.93c0.05-.18.12-0.35,0.18-0.52C588.07,207.89,587.89,208.79,587.72,209.72Z"/><path d="M706.64,234.91v-0.4a54.87,54.87,0,0,0-2-6.13A60.69,60.69,0,0,1,706.64,234.91Z"/><path d="M855.42,169.49a16.13,16.13,0,0,0,2-1.68C856.71,168.3,856.12,168.9,855.42,169.49Z"/><path d="M1033.65,176.72h0.2a0.14,0.14,0,0,0-.2,0h0Z"/><path d="M953.92,208.73c0-.3-0.1-0.59-0.1-1A3.7,3.7,0,0,0,953.92,208.73Z"/><path d="M560.52,224.93a0.51,0.51,0,0,0-.4-0.2A0.75,0.75,0,0,0,560.52,224.93Z"/><path d="M561.31,225.33c-0.1-.1-0.3-0.1-0.4-0.2A2.94,2.94,0,0,0,561.31,225.33Z"/><path d="M562.3,225.62a0.32,0.32,0,0,0,.3,0h-0.3Z"/><path d="M562,225.53a2.25,2.25,0,0,1-.4-0.1A0.59,0.59,0,0,0,562,225.53Z"/><path d="M550,170.18c0.69-.59,1.38-1.09,2.07-1.68s1.33-1,2-1.55c1.08-.81,2.16-1.62,3.23-2.4,2.17-1.58,4.45-3.06,6.72-4.45H550v10l-0.1.08,0.1-.08v0.08Z"/><path d="M559.58,224.34c-0.1-.1-0.3-0.2-0.4-0.3A0.77,0.77,0,0,0,559.58,224.34Z"/><path d="M553.65,218.43c0.79,0.94,1.6,1.89,2.52,2.85C555.28,220.31,554.45,219.36,553.65,218.43Z"/><path d="M549.95,213.87v0.3c1.17,1.29,2.39,2.74,3.7,4.27C552.33,216.84,551.13,215.29,549.95,213.87Z"/><path d="M899.39,246.27c-15.21,0-27.37-9.48-27.37-26.77,0-17.78,11.56-27.37,27.37-27.37a34.12,34.12,0,0,1,13.44,3c4.64,1.88,7.9,3.26,9.48,4.54a41.69,41.69,0,0,1,3.85,3l10.37-32.8-1.38-1.19a58.83,58.83,0,0,0-12.84-6c-5.73-2.27-15.71-4-25.59-4-11.56,0-21.83,2.17-30.82,6.42a89.59,89.59,0,0,1-16.26,15.56A88.55,88.55,0,0,0,866,164.86a63.09,63.09,0,0,0-15,10,49.8,49.8,0,0,0-9.29,11.07c-5.93,9.39-8.79,20.75-8.79,34.08,0,19.17,6,34.38,18.18,45.35s27.27,16.2,45.84,16.2c3.06,0,5.93-.2,8.69-0.4L906,281h0.25l0.14,0a58.2,58.2,0,0,0,22.6-6.86l0.37-.12a45.78,45.78,0,0,0,9.88-7.51L927.94,235.4C920.63,242.62,911.15,246.27,899.39,246.27Z"/><path d="M820.75,195.69v-3.44l0,0V160.12h-38v44.93q0,8.6.89,21.64L749.07,160.1H720.62a17.06,17.06,0,0,1,2.57,2.79c0.21,0.25.4,0.52,0.58,0.78L724,164,724,164c1.61,2.68,2.28,6,1.59,10.6a37.1,37.1,0,0,1-1.23,5.14c-0.1.26-.19,0.53-0.3,0.79a36.53,36.53,0,0,1-2.08,4.69,31.63,31.63,0,0,1-3.29,4.92,42.49,42.49,0,0,0,3.49-5.56c0.69-1.38,1.38-2.77,1.88-4.05a37.11,37.11,0,0,0,1.48-5.93c0.79-5.24-.2-9-2.37-11.76a13.83,13.83,0,0,0-3.06-2.77H706.59v41.59l0.15,0h0v0.1h0v32.71h-0.1l0,0.19v0.21l0,0.17v13.26h-0.1l0.1,0.08v31.14h38V245.48c-3.26-.91-6.52-0.1-10.47,1.19-0.68.2-1.35,0.41-2,.63L733,247l1.16-.38c4.05-1.19,7.21-2.07,10.47-1.28v-6.92h-0.1v-0.1h0.1l-0.1,0v-3.74c0-5.73-.4-12.94-0.89-21.64l18.67,34.18h0.1l0.1,0.2c7.9,0.2,13.63-3.36,21.44-2.47-7.11-.89-12.65,1.88-20,2.27h-0.1c7.31-.4,12.84-3.16,20-2.37H784c0.49,0.1,1,.1,1.48.2h0.3l0.56,0.1c0.34,0.13.73,0.25,1.15,0.37l0.12,0.22a11.49,11.49,0,0,0-1.78-.4h-0.3A7.62,7.62,0,0,0,784,245h-0.1c-7.8-.89-13.53,2.67-21.44,2.47l2.77,5,0.16-.07,0.05,0.1-0.07,0,14.72,26.79h14.42v0.1h0.49c-0.38-2.48-.86-5-1.33-7.45l0-.38-0.06-.32c-0.17-1.22-.37-2.47-0.6-3.74,0.28,1.48.52,3,.71,4.37,0.59,2.47,1,5,1.38,7.71H820.8v-84a33,33,0,0,1-8.76,1.63A33.4,33.4,0,0,0,820.75,195.69Zm-94.1-8.5c0.1-.2.2-0.49,0.3-0.69a1.67,1.67,0,0,0,.2-0.49,31.88,31.88,0,0,0,2-7.61c0.3-2.27-1.38-7.61-.4-9.29a1.66,1.66,0,0,1,.49-1.19,2.7,2.7,0,0,1,.61-0.42l-0.2.18a2.86,2.86,0,0,0-.36.24,1.88,1.88,0,0,0-.42.78l-0.07.11c0,0.1,0,.21,0,0.32-0.87,1.7.7,7,.4,9.26-0.05.49-.13,1-0.21,1.46a28,28,0,0,0,.41-3.53c0.18-1.25-.61-4.44-0.61-6.57,0.07,2.12.79,5.08,0.71,6.28a28,28,0,0,1-.94,6c0-.12.05-0.24,0.08-0.35-0.14.59-.3,1.17-0.48,1.75,0.07-.21.13-0.42,0.19-0.64-0.08.26-.15,0.53-0.23,0.79l0-.15-0.06.22c-0.23.71-.48,1.41-0.77,2.09a1.67,1.67,0,0,0-.2.49c-0.1.2-.2,0.49-0.3,0.69a8.17,8.17,0,0,1-.69,1.28l0,0A8.16,8.16,0,0,1,726.65,187.19ZM709.1,240l0.08,0.09a10.13,10.13,0,0,0,3.68,3A9.6,9.6,0,0,1,709.1,240Zm34.74-1.76c-3.59-.49-7.25.53-10.82,2-5.45,2.19-10.89,5-16.51,4.07,5.17,0.88,10.2-1.52,15.22-3.56-5.64,2.28-11.34,5-17,3,6.05,2,12.15-1.21,18.18-3.55a38,38,0,0,1,4-1.42l0.39-.11A15.45,15.45,0,0,1,743.84,238.25Zm40,4.88c-0.09-.71,1.59-0.71,3.19,1.38l0.21,0.38C785.65,242.63,783.91,242.49,783.83,243.13Zm25.17-46c1.49,0,1.4-.67-0.47-0.67C810.46,196.43,810.54,197.12,809,197.11Z"/><path d="M1130,219.55l-0.07-.1-0.12-.16a31.4,31.4,0,0,0-2.63-3.06,1.44,1.44,0,0,0-.2.1c-0.66-.66-1.32-1.31-2-1.88-4.35-3.66-11.07-7.11-19.86-10.08-1.58-.49-4.35-1.38-8.1-2.47l-6-1.88c-2.77-.69-8.3-2.27-8.3-5.53s3.26-4.84,9.68-4.84c3.66,0,8.3,1,13.83,3.16a42.22,42.22,0,0,1,14.52,8.3l14.82-27.66c-9.39-8-23.81-13.24-38.13-14.23h0l0.07-.1a35,35,0,0,0-4.4-.2h-1.43l-0.13.2c-14.34.22-25.54,3.68-33.51,10.37a37,37,0,0,0-10.77,13.93c0,0.1-.1.2-0.1,0.3l0,0a2.54,2.54,0,0,0-.52.75,23.2,23.2,0,0,0-1.38,4.45,37.53,37.53,0,0,0-1.09,9.39,37,37,0,0,0,.29,4.63l-0.09-.09a32,32,0,0,0,3.56,11.86c0.3,0.49.59,1.09,0.89,1.58l0.69,0-0.6.07c8.1,12.94,45.35,16.3,48.21,27.66,0,4.59-7.57,5.17-13.5,4.44-0.67-.08-1.31-0.18-1.92-0.29s-1.52-.37-2.26-0.59l-0.06.06-0.53-.16c-3.18-1-5.95-2-7.62-2.66-0.46-.19-0.92-0.39-1.37-0.6l-0.07.07a0.71,0.71,0,0,0-.23-0.07,58.15,58.15,0,0,1-13.14-8.1c-3.26,5.43-18.28,23.12-17.09,29.14,0.8,4.33,7.38,7.53,14.26,9.44,8.87,2.75,24.66,6.66,31.88,6.66a73.36,73.36,0,0,0,17.39-2c1.28-.3,2.57-0.69,3.75-1.09s3.26-1.28,4.35-1.58l0.56-.19a4.21,4.21,0,0,0,1.28-.52c2.14-.92,5.19-2.47,6.19-3.53,0.56-.39,1.11-0.78,1.65-1.2,10.37-8.1,15.51-18.47,15.61-31.12C1136.3,229.58,1132.73,223,1130,219.55Zm-80.31-6.06c0.92-1.12.81-2.5,0.1-4C1050.54,211,1050.66,212.37,1049.73,213.49ZM1095.91,255l-0.14-.06,0.56-1.2C1096.19,254.16,1096.05,254.58,1095.91,255Zm13.45,7.2a1.15,1.15,0,0,1,.76.47,14.07,14.07,0,0,1,2.48,2.54Z"/><path d="M61.26,249.23a38.72,38.72,0,0,0-1,16.9,39.21,39.21,0,0,1,1.19-17.88H41.65V234.42H84.33a44.19,44.19,0,0,1-4.45-4.15,75.38,75.38,0,0,1-15.21-26.48H41.75V190.85h45.2a115.14,115.14,0,0,1-.4-28c0.1-1,.2-1.88.3-2.87H63.58c-0.59,2.27-1.28,4.54-2,6.82l0,0.2c-0.1.31-.18,0.62-0.27,0.93,0.09-.38.19-0.75,0.29-1.13q0.59-3.41,1.48-6.82H2.82V279.37H65.75c-0.13-.23-0.25-0.47-0.38-0.7l0.38,0.68c-0.79-1.38-1.48-2.77-2.17-4.15l0.11,0.24-0.11-.22a0.74,0.74,0,0,1-.15-0.28,2.15,2.15,0,0,0,.15.26,2.25,2.25,0,0,0-.15-0.26,0.75,0.75,0,0,1,0-.22c0.1,0.2.2,0.3,0.3,0.49,0.69,1.38,1.48,2.77,2.17,4.15H89.37V248.25H61.51C61.41,248.57,61.34,248.9,61.26,249.23Zm-0.94-76c0-.17,0-0.33.07-0.49,0,0.2-.05.39-0.07,0.59q-0.13,2.15-.12,4.31Q60.18,175.47,60.32,173.26Zm2,99.24a27.4,27.4,0,0,1-1.57-5,39.32,39.32,0,0,1-.76-6.7,40.94,40.94,0,0,0,.76,6.7,39.13,39.13,0,0,0,2.37,6.72C62.8,273.66,62.54,273.09,62.29,272.51Z"/><path d="M312.64,169.61c-7.9-6.42-19-9.48-33.2-9.48H227.58V279.47H266.7V242.32h12.84a73.29,73.29,0,0,0,16.1-1.68h0.2l0-.15a41.75,41.75,0,0,0,16.67-7.75,33.52,33.52,0,0,0,9.29-11.46c-2.13-.37-4.27-0.74-6.48-1a0.44,0.44,0,0,0-.17-0.05l0.26,0-0.32,0a2.19,2.19,0,0,0-.89-0.1h0c-0.79,0-1.58.06-2.37,0.14h-0.08c0.79-.07,1.61-0.13,2.44-0.13a14.48,14.48,0,0,0-2.5.13l-0.61,0c-0.58.07-1.13,0.16-1.66,0.27l-0.2,0c-0.36.08-.7,0.17-1,0.27,0.3-.08.6-0.17,0.91-0.24l-0.63.14,0.66-.15,0.28-.06h0l0.08,0h0c0.52-.1,1-0.19,1.61-0.26,1-.1,2.07-0.2,3.16-0.2-2.31,0-3.44.1-3.83,0.14s0.18-.14,3.83-0.14c2.57,0.3,5.14.59,7.9,1a45.19,45.19,0,0,0,4.05-19.76C326.18,187.19,321.63,176.62,312.64,169.61Zm-30.23,41.2c-2.07,1.38-5.14,2.07-9.48,2.07h-6.42V189.56h6.42c4.35,0,7.41.69,9.48,2.27,3,1.88,4.35,5.14,4.35,9.48S285.38,208.83,282.41,210.8Zm18.32,14.91h0a13.61,13.61,0,0,1,5.78-4.38A13.63,13.63,0,0,0,300.73,225.71Zm5.84-4.42c0.39-.15.79-0.3,1.21-0.43C307.37,221,307,221.14,306.57,221.3Z"/><path d="M309.09,220.53h0l0.13,0h0Z"/><path d="M213.85,266c-4.74,1.09-18.47-9-21.83-6.72a15.58,15.58,0,0,0,3.46,5.73c3.36,3.85,8.1,7.71,10.67,10.67l0.2,0.2c0.31,0.31.89,0.84,1.65,1.5l0.69,0.6,1.71,1.46h0c0.2,0.21.48,0.4,0.77,0.67a5.66,5.66,0,0,1-.77-0.67h12Z"/><path d="M645.29,234.42h43.27V224.24l-0.1-.07v-0.34c-0.54-.39-1.07-0.81-1.59-1.22,0.57,0.41,1.14.81,1.69,1.22v-20h-5.73a9,9,0,0,0,.36,3.91,9.39,9.39,0,0,1-.5-2.13,9,9,0,0,1,0-1.69h-0.1s0-.08,0-0.12h-4.94s0,0.08,0,.12H645.39V190.95h45.84V160.12H606.46V260.3h0v19.07h7.8a18,18,0,0,0-.83-3.6v-0.09a11,11,0,0,1,.84,3.69h78.54V248.25H645.29V234.42Zm40.42-22.34q-0.33-.37-0.62-0.75a17.93,17.93,0,0,1-1.21-1.89,9.32,9.32,0,0,1-.61-1.5A15.12,15.12,0,0,0,685.7,212.08Zm-8.27-2.53,0-.1a17.29,17.29,0,0,1-.11-2.43A17.3,17.3,0,0,0,677.44,209.55Z"/><path d="M560.92,225.13c-0.1-.1-0.3-0.1-0.4-0.2A0.75,0.75,0,0,0,560.92,225.13Z"/><path d="M525.55,194.39c0.36-.41.73-0.82,1.09-1.23l-0.6.66C525.84,194,525.75,194.19,525.55,194.39Z"/><path d="M534.74,184.31q-4.17,4.34-8.09,8.85c2.67-2.94,5.34-5.88,8.09-8.73v-0.12Z"/><path d="M561.61,225.43c-0.1,0-.2-0.1-0.3-0.1C561.41,225.33,561.51,225.43,561.61,225.43Z"/><path d="M559.24,224c-0.1-.1-0.3-0.22-0.49-0.4A2.15,2.15,0,0,1,559.24,224Z"/><path d="M560.13,224.64c-0.1-.1-0.3-0.2-0.4-0.3A0.53,0.53,0,0,0,560.13,224.64Z"/><path d="M562,225.53a0.37,0.37,0,0,0,.3.1C562.2,225.62,562.1,225.53,562,225.53Z"/><path d="M517.15,234.22c8.3-4.94,13.93-11.46,17.09-19.46-2.27,1.34-4.45,3-6.46,4.26l0.75-.65c1.78-1.19,3.69-2.61,5.7-3.71,0.1-.2.1-0.4,0.2-0.59-0.83.46-1.65,1-2.47,1.5a19.46,19.46,0,0,1,2.47-1.6,26.1,26.1,0,0,0,1.16-3.84l0,0a0.2,0.2,0,0,1,.1-0.2,49.79,49.79,0,0,0,1.38-11.76,40.44,40.44,0,0,0-2.27-13.73c-3,3.06-5.93,6.22-8.69,9.39-0.2.2-.3,0.4-0.49,0.59a7.3,7.3,0,0,1-.91.83c0.24-.28.48-0.55,0.71-0.83l-1,1.07-0.31.23,1.42-1.5q4.45-5.19,9.19-10.08a29.64,29.64,0,0,0-4-7.41l-0.11.11a2.88,2.88,0,0,1-.18-0.31q-4,3.81-7.76,7.84l-0.4.37q4-4.24,8.17-8.23a35.92,35.92,0,0,0-8.1-7.8,40.1,40.1,0,0,0-4.05-2.47h0c-7.8-4-18-6.22-30.51-6.22H450.46a12.85,12.85,0,0,1-1.48,1c-0.44.3-.79,0.49-1.09,0.69-4.94,2.67-8.89,3.16-12,2.17V243l0.1,0.07v36.49h28.85c0-.1,0-0.21,0-0.32H475V239.63h5l4.19,8.77,0,0.15,0.69,1.19,0-.15,6.63,13.87,0,0.21,0.93,1.86,0,0.12L499,279.47h45Zm-53.09,26.6a3.53,3.53,0,0,1-.66.08l0.38,0a0.64,0.64,0,0,1-.28.05,9.4,9.4,0,0,1-3.57-.75l0.45,0.1a11.84,11.84,0,0,0,3.13.65c-0.27-.06-0.54-0.15-0.81-0.22l0.71,0.12a4.46,4.46,0,0,0,.68-0.09h0Zm32.55-11.45a38.41,38.41,0,0,1,1.17-4.18A39.29,39.29,0,0,0,496.61,249.37Zm-1.5-56.05a2.33,2.33,0,0,1,.49.49l0-.06a9,9,0,0,1,1.93,6,9.56,9.56,0,0,1-4.35,8.3c-1.68,1.38-4.54,2.07-8.3,2.07l-0.07.12H474.77V189.47h9.88c4,0,6.72.69,8.69,2.27a6.47,6.47,0,0,1,1.78,1.48,173.34,173.34,0,0,1,22.33-26.1c-0.53.53-1.05,1.07-1.56,1.61A163.68,163.68,0,0,0,495.12,193.32Zm16.35,31.49a5.73,5.73,0,0,1-.85,0,4.39,4.39,0,0,1-.69-0.19A4.92,4.92,0,0,0,511.47,224.81Zm-2.71-.89a3.75,3.75,0,0,1-1.35-1.55,5.19,5.19,0,0,1-.26-2.4A4.9,4.9,0,0,0,508.76,223.91Zm-0.63-8.3,0.24-.47h0Zm-0.66,13.77a17.83,17.83,0,0,0-6,7,18.65,18.65,0,0,1,5.95-7.11c0.2-.1.4-0.3,0.59-0.4q-0.62.37-1.21,0.79c0.42-.31.86-0.61,1.31-0.89a26.35,26.35,0,0,1,2.59-1.51c-0.89.5-1.76,1-2.59,1.59a54.23,54.23,0,0,1,7.25-3.59l2.33-.83a70.82,70.82,0,0,0-9.58,4.55C507.86,229.08,507.67,229.28,507.47,229.38Z"/><polygon points="474.96 279.35 474.96 279.25 474.96 279.25 474.96 279.37 474.96 279.35"/><path d="M1034.34,248.25h-4a48.62,48.62,0,0,0,4,9.29v-9.29Z"/><path d="M1034.34,257.53a43.06,43.06,0,0,1-4-9.29,37.55,37.55,0,0,0,1.66,5.24,34.14,34.14,0,0,1-1.76-5.24h-19.76c-2.35,4.94-5.7,9.07-10.39,11.43,4.65-2.38,8-6.5,10.39-11.43H986.82V234.42h27.81c0.1-.56.18-1.12,0.26-1.68l-0.21,1.68h15.26v-2.22c0-.08,0-0.16,0-0.25v-2.07h0v-4.54h0l-0.1.06v-4c-2.07-2.17-7.36-2.77-11-1.38a5.75,5.75,0,0,0-3.64,2.8,5.57,5.57,0,0,1,3.74-3.1c3.66-1.28,8.89-.79,11.07,1.28V203.59H986.82v-2.17h-0.1v-5.63a51.37,51.37,0,0,0-12.65,4.05l-0.44.23a6.79,6.79,0,0,0-.83.44l-0.14.07-0.36-.05a11.26,11.26,0,0,1,1.88-1,51.38,51.38,0,0,1,12.65-4.15v-4.74h26.08a61,61,0,0,1,10.47-2.37,12.9,12.9,0,0,1,6.22.4,9.52,9.52,0,0,1,3.06,2h0.1V170.17c0.45,0.44,1,.88,1.38,1.29-0.43-.61-0.93-1.13-1.38-1.65v-9.69H948.09V279.37h86.45V258.23c-0.07-.11-0.13-0.23-0.2-0.34v-0.35ZM954.49,210.7a9,9,0,0,1-.37-1.18,1,1,0,0,1-.06-0.22,2.32,2.32,0,0,0,.11.32,3.47,3.47,0,0,0,1.43,2.19A3.53,3.53,0,0,1,954.49,210.7Zm6.29,11.41,0-.24c-0.07-.26-0.15-0.51-0.24-0.76a24.09,24.09,0,0,0-2.33-6.95,4.34,4.34,0,0,0-.72-1,4.48,4.48,0,0,1,.87,1.21,23.36,23.36,0,0,1,2.47,7.71A0.07,0.07,0,0,1,960.78,222.11Zm8,27.47q-0.48-.84-0.92-1.72a37.48,37.48,0,0,0,1.92,3.25Q969.26,250.36,968.78,249.58Zm3.77,5q-0.73-.76-1.38-1.59a23.68,23.68,0,0,0,2.58,2.71C973.34,255.35,972.94,255,972.55,254.6Zm8.19-50.51c-2.43-.37-4.82-0.66-7.14-0.9-4.57-.67-13.31-2.79-17.45-0.24,2.7-1.57,7.39-.92,11.09-0.42-4-.51-9.08-1.17-11.69.87a0.38,0.38,0,0,0-.2.2l-0.1.1a5.57,5.57,0,0,0-1.38,4.05v0.1a3.7,3.7,0,0,0,.1,1,2.32,2.32,0,0,0,.06.36,3.35,3.35,0,0,0-.11-0.46,3,3,0,0,1-.1-1v-0.1h0a5.32,5.32,0,0,1,1.38-4.05l0.1-.1a0.38,0.38,0,0,0,.2-0.2c4.05-3.46,14.62-.59,19-0.1,2,0.2,4.05.49,6.22,0.79,9.68,1.48,19.86,4.25,27,10.27,0.2,0.1.3,0.3,0.49,0.4a1.36,1.36,0,0,0,.4.3,23.21,23.21,0,0,1,4.74,5.93c0.1,0.1.2,0.3,0.3,0.4s0.1,0.2.2,0.3l0,0.09c-0.09-.1-0.1-0.19-0.19-0.29s-0.2-.3-0.3-0.4a27.79,27.79,0,0,0-4.74-5.93,1.36,1.36,0,0,0-.4-0.3c-0.2-.1-0.3-0.3-0.49-0.4a36.21,36.21,0,0,0-8.32-5.09,69.93,69.93,0,0,0-17.6-5Z"/><path d="M84.92,203.79H65.16a81.58,81.58,0,0,0,8.08,17.56l0-.06c0.22,0.36.43,0.72,0.66,1.07s0.47,0.67.79,1.06A77.14,77.14,0,0,0,80,230.27a29.84,29.84,0,0,0,4.45,4.15,0.52,0.52,0,0,0,.3.2,0.22,0.22,0,0,1-.2-0.2h0.4V203.79Z"/><path d="M64.77,203.79A77.16,77.16,0,0,0,73.2,221.3a79.67,79.67,0,0,1-8-17.51h-0.4Z"/><path d="M87,190.95h0.59V160.12H86.9c-0.1,1-.2,1.88-0.3,2.87A110.37,110.37,0,0,0,87,190.95Z"/><path d="M986.72,195.69v-0.1a51.38,51.38,0,0,0-12.65,4.15A55.87,55.87,0,0,1,986.72,195.69Z"/><path d="M1023.18,188.58l-0.14,0a30.54,30.54,0,0,0-5.14.92q-2.82.61-5.58,1.42h20.1a7.8,7.8,0,0,0-3-2A12.9,12.9,0,0,0,1023.18,188.58Z"/><path d="M117.42,253a60.69,60.69,0,0,0-3.75-9.09V244a65.21,65.21,0,0,1,4.15,10.57A5.23,5.23,0,0,0,117.42,253Z"/><path d="M322.13,221.08c-2.25-.33-4.5-0.59-6.69-0.85,2.17,0.28,4.33.57,6.59,1A0.35,0.35,0,0,1,322.13,221.08Z"/><path d="M131.9,277.69H132l0.16,0Z"/><path d="M210.49,260.89a126,126,0,0,0-12.14-6.13c-2-.87-3.88-1.69-5.64-2.38l-1.33-.51A135.78,135.78,0,0,1,210.69,261l-28-43.67,37.54-57.1H190a88.36,88.36,0,0,1,1.25,15.41A85.16,85.16,0,0,0,189.84,160h-16.3l-11.07,21-0.07.24,0,0.06c-1.27,4.54-2.72,9-4.23,13.47q-1.11,3.21-2.29,6.39c-0.16.41-.31,0.84-0.47,1.26l-0.13.32c-2.27,6-4.54,12.05-6.92,18.08,2.07-5.14,4.15-10.37,6-15.61,0.13-.31.25-0.61,0.37-0.91-0.09.27-.19,0.55-0.27,0.81-1.88,5.24-4,10.47-6,15.61-0.35.9-.71,1.79-1.06,2.69-3.18,7.83-6.43,15.67-9.47,23.56l-1.33,3.3c-0.2.4-.3,0.79-0.59,1.38,0,0.1-.1.2-0.1,0.3l-0.11.29c-0.47,1.09-1,2.39-1.51,3.75-1,2.5-1.79,5.23-1.25,7.35a3.58,3.58,0,0,0,.6,1.46,4.94,4.94,0,0,0,3.56,1.88,5.42,5.42,0,0,1-1.33-.49,8.13,8.13,0,0,0,1.33.39,10.92,10.92,0,0,0,7.31-2.87,1.36,1.36,0,0,0,.3-0.4q0.28-.44.52-0.9c-0.19.37-.39,0.74-0.62,1.1-0.09.09-.17,0.24-0.26,0.35-1.5,1.28-4.52,3-7.25,2.82,2.72,0.58,5.62-1.22,7.22-2.78h0c-1.58,1.58-4.54,3.46-7.31,2.87a4.75,4.75,0,0,1-3.56-1.88c-2.17-2.77.79-9.48,2.37-13,3.85-10.37,8.2-20.65,12.35-30.92,2.37-6,4.64-12,6.92-18.08l0.59-1.48c2.37-6.52,4.64-13.24,6.42-19.86l-5.63,10.67-0.12-.21,0.12-.39-16.8-31.52H93.12l37.74,57.1L113.77,243.9a60.7,60.7,0,0,1,3.75,9.09c0.1,0.49.3,1,.4,1.48,0.1,0.2.1,0.49,0.2,0.69,0.34,1.21.58,3,1,4.89-0.51-1.87-.82-3.71-1.11-4.91a6.3,6.3,0,0,0-.2-0.69c0.74,3.43,1,8.17,3.29,10.45,0.09,0.11.17,0.23,0.27,0.34s0.26,0.16.39,0.24a4.07,4.07,0,0,0,4.88.93c-2.36,1-4.05.42-5.27-1-2.67-2.07-3-7.21-3.75-10.87A60.17,60.17,0,0,0,113.47,244l-1.78,2.77,0.07,0.12-0.46.77c4.45,9,7.21,17.66,1.68,18.47l0.21,0-0.11,0a3.7,3.7,0,0,1-1.09.1h0a3.7,3.7,0,0,0,1-.1h0c5.53-.79,2.77-9.48-1.68-18.47l-5.83,9.09v0.06l-0.16.24,0,0.21L91,279.47h46.73l1.09-2.27-0.19,0,0.19,0v0l0.86-.1,0.05-.09-0.91.12h0c-2.49.25-5,.36-6.73,0.56l0.28,0-0.44,0c-0.27,0-.52.07-0.71,0.11h0l-0.46,0h0l-0.37,0,0.37,0c-2.39-.25-6.64.37-11.1,0.74,0.93-.06,1.85-0.12,2.74-0.2-0.89.07-1.81,0.14-2.74,0.2-2,.16-3.93.27-5.78,0.25,1.81,0,3.73-.1,5.63-0.25-6.67.4-13.83,0.3-14.82-4a3.81,3.81,0,0,1,.23-2.73,5.84,5.84,0,0,0,0,2.73c0.89,4.15,8.1,4.35,14.82,3.85,4-.34,8-0.89,10.43-0.8,0.25,0.06.59,0.13,1,.21a5.41,5.41,0,0,0,.77-0.2c1.69-.2,4.35-0.25,6.93-0.59l3.15-6.44a14.31,14.31,0,0,1,2.1-4.36l10-20.13,0.24-.29v-0.09l0.1-.11,2.17-4.25-2.12,4.25a1.37,1.37,0,0,1-.15.2l0.11-.13,0,0c0.49-.49,1-1.09,1.48-1.58a18.25,18.25,0,0,1,1.38-1.38c1.48-1.48,2.87-2.87,4.45-4.25l0.1-.1,0.15-.15-0.25.25-0.1.1c-1.48,1.38-3,2.77-4.35,4.25l18.38,36.65h7.31v-0.1h0.6c0.28-1.1.53-2.23,0.77-3.37-0.21,1.3-.41,2.49-0.62,3.47l18.94-.09,0.08,0.09h1.63l-0.08-.1h5.76c-1.78-1.48-3.26-2.77-4.05-3.56l-0.2-.2c-2.47-2.87-7.21-6.72-10.67-10.67a14.82,14.82,0,0,1-3.46-5.73c3.56-2.17,17.29,7.9,21.93,6.72L210.59,261Zm-103.14,4.35-0.09-.09a7.25,7.25,0,0,0,3.81,1.05A7,7,0,0,1,107.35,265.24Zm9.09-.4a2.92,2.92,0,0,1-1.49.88,4.82,4.82,0,0,0,1.39-.88c1.1-1.43,1.2-3.58.67-6.11C117.57,261.25,117.5,263.41,116.44,264.85Zm15.83,12.6c0.13-.28-2-0.36-2.55-0.2C129.59,276.93,133.15,277,132.26,277.44Zm-11-8.55h-0.1c1.9-.06,6.76-0.87,11.69-1.16C128.11,268,123.35,268.84,121.28,268.9Zm26.23-12.83c-0.31.88-.59,1.78-0.85,2.68a29.63,29.63,0,0,1,1.35-4.11C147.83,255.08,147.67,255.56,147.51,256.06Zm2.42-4.85a3.47,3.47,0,0,0-.49.79h0a0.52,0.52,0,0,0-.1.15,0.52,0.52,0,0,1-.1.15c-0.27.39-.52,0.8-0.75,1.21l0.05-.13a9,9,0,0,1,.79-1.28c0.1-.1.1-0.2,0.2-0.3A3.47,3.47,0,0,0,150,251c0.63-.88,1.3-1.73,2-2.57Q150.92,249.79,149.93,251.21Zm40.13,6.61a8.4,8.4,0,0,0-2.37,3.6c0.65-1.83,1.43-3.16,2.46-3.69A0.1,0.1,0,0,0,190.05,257.82Z"/><path d="M122.11,265.68a6.21,6.21,0,0,0,1.07.43A4.11,4.11,0,0,1,122.11,265.68Z"/><path d="M139.88,267.88h0l0.72,0.12Z"/><path d="M148.33,253.89l0,0.06,0.06-.13Z"/><path d="M167,233.63l-4.74,4.45,0.1-.1L167,233.6Z"/><path d="M186.31,250.29h0.07l0.94,0.22,0.12,0C187,250.45,186.64,250.36,186.31,250.29Z"/></g><path d="M532.9,207.92a49.79,49.79,0,0,0,1.38-11.76A40.44,40.44,0,0,0,532,182.43c-3,3.06-5.93,6.22-8.69,9.39-0.2.2-.3,0.4-0.49,0.59-1.38,1.58-4.64,3.06-5.93,4.64-3.56,4.25-17.78,20-10.57,25.19,5.73,3.36,18.87-9.09,22.72-11.66h0.1c0.59-.49,1.09-0.79,1.48-1.09A8.58,8.58,0,0,1,532.9,207.92Z" fill="#53b8ce"/><path d="M1031.32,169.46c-0.49-.69-1.09-1.28-1.58-1.88V168C1030.24,168.48,1030.83,169,1031.32,169.46Z" fill="none"/><path d="M212.31,262.85c0.3-.69-1.58-2.27-4.54-4.05l0.1,0.1C210.73,260.77,212.56,262.15,212.31,262.85Z" fill="none"/><path d="M208.36,278.14a5.65,5.65,0,0,1-.79-0.69h0C207.77,277.67,208.06,277.86,208.36,278.14Z" fill="none"/><path d="M151.65,243.78c0.1-.1.2-0.3,0.3-0.4,0.4-.4.79-0.89,1.19-1.28-0.49.59-1,1.09-1.48,1.68h0Z" fill="none"/><path d="M744.72,237.26a10.35,10.35,0,0,0-2.77-1h0A11.72,11.72,0,0,1,744.72,237.26Z" fill="none"/><path d="M369.59,279.64c0.2-.69.4-1.48,0.59-2.27h0C370,278.14,369.79,278.95,369.59,279.64Z" fill="none"/><path d="M586.25,204.75c0.69-2.17,1.38-4.35,2.17-6.32-0.79,1.58-1.58,3.06-2.17,4.45v1.88Z" fill="none"/><path d="M703.82,232.91v-0.4a54.86,54.86,0,0,0-2-6.13A60.69,60.69,0,0,1,703.82,232.91Z" fill="none"/><path d="M852.6,167.49c0.69-.59,1.28-1.19,2-1.68A16.14,16.14,0,0,1,852.6,167.49Z" fill="none"/><path d="M81.7,232.42H81.6a0.52,0.52,0,0,0,.3.2A0.22,0.22,0,0,1,81.7,232.42Z" fill="#f05a57"/><path d="M1030.83,174.72h0.2a0.14,0.14,0,0,0-.2,0h0Z" fill="#61aa9d"/><path d="M153.92,239.33l-2.17,4.35c0.49-.49,1-1.09,1.48-1.58a18.26,18.26,0,0,1,1.38-1.38Z" fill="#f05a57"/><path d="M153.13,242.2a0.38,0.38,0,0,1,.2-0.2l1.19-1.19h0Z" fill="#f05a57"/><path d="M782.75,242.89a7.63,7.63,0,0,0-1.48-.2C781.77,242.79,782.26,242.79,782.75,242.89Z" fill="none"/><path d="M790.86,269.76c-0.89-6.42-2.47-14.23-5.73-18.08,0.49,0.89.79,2.27,1.78,4.74A83.34,83.34,0,0,1,790.86,269.76Z" fill="none"/><path d="M951.2,207.52c-0.1-.3-0.1-0.49-0.2-0.79A2.32,2.32,0,0,1,951.2,207.52Z" fill="none"/><path d="M985.38,259.68c-0.59-.1-1.19-0.1-1.78-0.2C984.15,259.59,984.79,259.59,985.38,259.68Z" fill="none"/><path d="M729.11,165.33a2.9,2.9,0,0,0-2.67.59,1.89,1.89,0,0,0-.49,1.19C726.84,165.51,727.92,165,729.11,165.33Z" fill="none"/><path d="M735.18,170.27c-0.69-.79-1.38-1.58-2.17-2.37A21.7,21.7,0,0,1,735.18,170.27Z" fill="none"/><path d="M677.74,214.73a21.93,21.93,0,0,1-3.06-6.52A15.88,15.88,0,0,0,677.74,214.73Z" fill="none"/><path d="M784.73,243.38A11.49,11.49,0,0,0,783,243,11.49,11.49,0,0,1,784.73,243.38Z" fill="none"/><path d="M1005.34,212.86a1.36,1.36,0,0,0,.4.3A1.36,1.36,0,0,1,1005.34,212.86Z" fill="none"/><path d="M969.48,198.83a11.26,11.26,0,0,1,1.88-1A6.84,6.84,0,0,0,969.48,198.83Z" fill="none"/><path d="M365.34,168.3c-1.48,0-3.36-5.33-4.84-10.18h0C361.89,163,363.71,168.3,365.34,168.3Z" fill="none"/><path d="M779.2,249.71c3,0.49,4.35.49,5.14,1a5.47,5.47,0,0,0-1.88-1.19c-1.28-.59-11.76-1.58-13.63-1.38a10.66,10.66,0,0,0-3.56,1.09C770.21,247.83,773.71,248.92,779.2,249.71Z" fill="none"/><path d="M952.39,201.59a0.38,0.38,0,0,0,.2-0.2Z" fill="none"/><path d="M741.85,236.27h0c-4-.89-7.8.3-11.66,1.88C734.15,236.65,738,235.48,741.85,236.27Z" fill="none"/><path d="M951,205.64a5.32,5.32,0,0,1,1.38-4.05A4.74,4.74,0,0,0,951,205.64Z" fill="none"/><path d="M761.22,245.06h-1.58l0.1,0.2c7.9,0.2,13.63-3.36,21.44-2.47C774.06,241.9,768.53,244.67,761.22,245.06Z" fill="none"/><path d="M680.3,205.94a9,9,0,0,1-.4-4.05h-0.2A9.41,9.41,0,0,0,680.3,205.94Z" fill="none"/><path d="M783.35,240.81c0.49,0.89.89,1.68,1.38,2.57A21.22,21.22,0,0,1,783.35,240.81Z" fill="none"/><path d="M722.59,247.51c-6.62,2.07-12.94,3-18.67-2.17v0.3a17.9,17.9,0,0,0,3.16,2.17C712.41,250.79,717.4,249.49,722.59,247.51Z" fill="none"/><path d="M771.39,213.92c0.59,1.19,1.09,2.37,1.68,3.66C772.58,216.41,772,215.13,771.39,213.92Z" fill="none"/><path d="M770.21,211.57c0.4,0.79.79,1.58,1.19,2.47C771,213.15,770.6,212.36,770.21,211.57Z" fill="none"/><path d="M705.55,237a17.21,17.21,0,0,1-1.68-4.45v0.4A14.62,14.62,0,0,0,705.55,237Z" fill="none"/><path d="M951.1,206.73c0-.3-0.1-0.59-0.1-1A3.7,3.7,0,0,0,951.1,206.73Z" fill="none"/><path d="M1012.55,162.27c0.1-1.28-.1-2.17-2.07-1.78a9.21,9.21,0,0,1,1.38.2A2.9,2.9,0,0,1,1012.55,162.27Z" fill="none"/><path d="M993.48,161.78a1.16,1.16,0,0,0,.69-1h0A1.17,1.17,0,0,1,993.48,161.78Z" fill="none"/><path d="M1018.08,174.72c2.77-.1,3.56-1.38,3.56-3-2.07,4.35-4.64,2.17-6.72-.89C1015.71,173.14,1016.75,174.82,1018.08,174.72Z" fill="none"/><path d="M477.58,216.81c-2,4.05-3.85,8.1-5.53,12.45A201.54,201.54,0,0,0,465.42,249c-1.48,5.24-1.28,9.78-4.84,9.88a17.64,17.64,0,0,0,2.27.2C462,265,461.37,271.14,461,277.27h1A178.65,178.65,0,0,1,477.58,216.81Z" fill="none"/><path d="M451.79,255.14c-4.94-3.56-9.48-8.79-14.23-12-1.48-1-3-2.07-4.45-3.06V241a15.07,15.07,0,0,0,1.58,1.09C439.44,245.46,445.57,251.29,451.79,255.14Z" fill="none"/><path d="M482,247.73c1-4.05,2.17-7.61,2.37-8.4,4-11.86,9.58-22.23,16.3-32.7,2.07-3.16,4.25-6.22,6.42-9.29-11.76,14.62-21.24,31-25.79,49.2Z" fill="none"/><path d="M994.18,160.79h0a1.52,1.52,0,0,0-.69-0.69A1.46,1.46,0,0,1,994.18,160.79Z" fill="none"/><path d="M922.65,273.12l1-.3C923.34,272.92,923,273,922.65,273.12Z" fill="none"/><path d="M993.48,161.78a1.1,1.1,0,0,1-.89-0.79C992.89,161.56,993.19,161.88,993.48,161.78Z" fill="none"/><path d="M1100,230.84c1.48-1.58,3.75-.4,4.15-3.36C1103.44,229.16,1101.27,229.45,1100,230.84Z" fill="none"/><path d="M557.3,222.73a0.75,0.75,0,0,0,.4.2A0.51,0.51,0,0,0,557.3,222.73Z" fill="none"/><path d="M521.44,218.86c-5.33,2.67-11.46,4.74-16.2,8,4.45-2.77,10.08-4.54,14.42-6.82A13.83,13.83,0,0,1,521.44,218.86Z" fill="none"/><path d="M555.53,221.35c0.1,0.1.3,0.2,0.4,0.3C555.82,221.55,555.62,221.45,555.53,221.35Z" fill="none"/><path d="M558.09,223.13c0.1,0.1.3,0.1,0.4,0.2A2.93,2.93,0,0,1,558.09,223.13Z" fill="none"/><path d="M559.48,223.62h0.3A0.32,0.32,0,0,1,559.48,223.62Z" fill="none"/><path d="M554.54,220.36l0.3,0.3Z" fill="none"/><path d="M560.56,223.62a0.2,0.2,0,0,0,.2-0.1A0.2,0.2,0,0,1,560.56,223.62Z" fill="none"/><path d="M558.79,223.43a2.24,2.24,0,0,0,.4.1A0.59,0.59,0,0,1,558.79,223.43Z" fill="none"/><path d="M604.33,261.76c1.09,2.27,3.16,5.33,4.74,8.5a67.55,67.55,0,0,0-5.43-11.07v1.09A6.81,6.81,0,0,0,604.33,261.76Z" fill="none"/><path d="M713.45,196.55a25.52,25.52,0,0,1-9.58,3.16v0.1A24,24,0,0,0,713.45,196.55Z" fill="none"/><path d="M554.54,162.55c-1.78,1.28-3.56,2.57-5.33,4-0.69.49-1.38,1.09-2.07,1.68h0Q550.83,165.24,554.54,162.55Z" fill="none"/><path d="M720.37,160.89a17.67,17.67,0,0,0-2.67-2.77h-0.4A12,12,0,0,1,720.37,160.89Z" fill="none"/><path d="M515.51,164.35h0a2.33,2.33,0,0,0-.49.49A2.33,2.33,0,0,1,515.51,164.35Z" fill="none"/><path d="M556.37,222c0.1,0.1.3,0.2,0.4,0.3A0.77,0.77,0,0,1,556.37,222Z" fill="none"/><path d="M560.76,201.59c-1.68-12.45,2.27-16.8,16.1-20.85a33.16,33.16,0,0,1,9.48-1.68v-0.49c-4.25.1-9.19,1.78-13.63,3.46C560.47,186.58,559.28,191.71,560.76,201.59Z" fill="none"/><path d="M585.36,205.54a86.75,86.75,0,0,0-2.07,13.93,88.36,88.36,0,0,1,3.06-14.72v-1.88A12.85,12.85,0,0,0,585.36,205.54Z" fill="none"/><path d="M553.35,219.28c-2.47-2.57-4.35-5.14-6.22-7.41v0.3C549,214.24,551,216.71,553.35,219.28Z" fill="none"/><path d="M724.27,184.5a1.67,1.67,0,0,0,.2-0.49A1,1,0,0,0,724.27,184.5Z" fill="none"/><path d="M583.78,237.36a41,41,0,0,1-.89-6.22v0.1A31.62,31.62,0,0,0,583.78,237.36Z" fill="none"/><path d="M583.78,237.46c0.1,0.3.2,0.69,0.3,1C584,238.15,583.88,237.85,583.78,237.46Z" fill="none"/><path d="M561.65,206.93c0,0.2.1,0.4,0.1,0.59-0.2-1-.3-1.88-0.49-2.67A15.33,15.33,0,0,0,561.65,206.93Z" fill="none"/><path d="M560.17,230.24c-3.16-.3-5.93-3-8-5.53-1.78-2.17-3.16-5.63-4.94-8.6v0.4C551,222.54,553.65,230.72,560.17,230.24Z" fill="none"/><path d="M561.06,223.43c0-.1.1-0.1,0,0C561.16,223.33,561.06,223.33,561.06,223.43Z" fill="none"/><path d="M566.89,211.57c0.59,4.64,2.47,12.94-1.48,16.6l-0.2.2C569.55,225,568.67,218.39,566.89,211.57Z" fill="none"/><path d="M977.78,202.07c9.39,1.48,19.76,4.25,27,10.27C997.63,206.33,987.46,203.57,977.78,202.07Z" fill="none"/><path d="M342.33,236.86c-0.1,0-.3-0.1-0.4-0.1A0.75,0.75,0,0,0,342.33,236.86Z" fill="none"/><path d="M340.84,168h0a4.83,4.83,0,0,0-2-2.37A6.36,6.36,0,0,1,340.84,168Z" fill="none"/><path d="M153,199.32l-0.59,1.48c-2.27,6-4.54,12.05-6.92,18.08,2.07-5.14,4.15-10.37,6-15.61C152.14,201.89,152.54,200.6,153,199.32Z" fill="none"/><path d="M364.85,180.45c-0.2-.1-0.4-0.1-0.59-0.2A1.4,1.4,0,0,0,364.85,180.45Z" fill="none"/><path d="M1067.14,257.39c0.3,3.75,7.8-4.05,13.73-10.87h0C1075,253.36,1067.48,261.17,1067.14,257.39Z" fill="none"/><path d="M340.35,168.79c0.1-.1.1-0.3,0.2-0.4C340,168.69,340.15,168.89,340.35,168.79Z" fill="none"/><path d="M365.34,168.3c0.1,0,.2,0,0.2-0.1A0.31,0.31,0,0,1,365.34,168.3Z" fill="none"/><path d="M150.32,198.93q-9,24.16-18.38,48.11C138.21,231.13,144.24,215,150.32,198.93Z" fill="none"/><path d="M165.14,230.64l-0.4.4Z" fill="none"/><path d="M164.15,231.53L159.41,236Q162,233.75,164.15,231.53Z" fill="none"/><path d="M83.78,161c0.1-1,.2-1.88.3-2.87h0C84,159,83.88,160,83.78,161Z" fill="none"/><path d="M207.77,259l-0.1-.1a126,126,0,0,0-22.82-10.27C190.38,250.2,201.54,255.24,207.77,259Z" fill="none"/><path d="M363.57,253.16c0.2-2-1.48-3.56-4.15-4.84C362.08,249.61,363.71,251.19,363.57,253.16Z" fill="none"/><path d="M192.75,263c3.36,3.85,8.2,7.8,10.67,10.67C200.85,270.75,196.11,266.9,192.75,263Z" fill="none"/><path d="M1107.79,223.43c2.07-5.63,10-6.42,15.41-8.69-4.45,1.78-12.55,3.06-15.12,7.11-2.27,3.56-2.27,5.43-1.09,6.32C1106.8,227.28,1107,225.78,1107.79,223.43Z" fill="none"/><path d="M334.42,232.22c-0.69.1-1.28,0.2-1.68,0.3v0.18C333.24,232.52,333.73,232.42,334.42,232.22Z" fill="none"/><path d="M159.06,236.37l-0.1.1a0.1,0.1,0,0,0,.1-0.1h0Z" fill="none"/><path d="M1115.1,227.48c-0.2.1-.3,0.1-0.49,0.2A2.54,2.54,0,0,1,1115.1,227.48Z" fill="none"/><path d="M358.53,247.93a3,3,0,0,1,.79.4A3,3,0,0,0,358.53,247.93Z" fill="none"/><path d="M147.2,249.21c1.38-1.88,3-3.66,4.45-5.43v-0.1A47.42,47.42,0,0,0,147.2,249.21Z" fill="none"/><path d="M373.45,176.8c1.48-.59,3-1.09,4.35-1.68l-2.67.89A9.15,9.15,0,0,1,373.45,176.8Z" fill="none"/><path d="M389.06,168.2c-2.27-2.57-8.6.89-14,3.56C380.46,169.09,386.78,165.73,389.06,168.2Z" fill="none"/><path d="M1059.18,252c-3.06,3.06-7.41,7.9-4.15,9h0.3C1054.15,260.36,1056.12,256.4,1059.18,252Z" fill="none"/><path d="M445.07,159.7c-4.94,2.67-8.89,3.16-12,2.17h0C436.18,163,440.13,162.47,445.07,159.7Z" fill="none"/><path d="M369.2,174.33c-1.28.3-2.17,0.3-2.67-.3C367,174.72,367.91,174.72,369.2,174.33Z" fill="none"/><path d="M371.77,193.1c-8.5-6.22-16.89-12.55-24.8-19.36,8,7,16.8,13.44,24.8,20.35v-1Z" fill="none"/><path d="M987.26,259.78c10.27,0.2,16.6-5.63,20.35-13.53h0C1003.91,254.15,997.54,260,987.26,259.78Z" fill="none"/><path d="M365.64,168.2c0.1,0,.1-0.1.2-0.1C365.69,168.1,365.64,168.1,365.64,168.2Z" fill="none"/><path d="M150.32,198.93c1-2.67,2.17-5.83,3.26-9.29h0C152.44,193.1,151.3,196.26,150.32,198.93Z" fill="none"/><path d="M133.08,250.1c0-.1.1-0.2,0.1-0.3-1.58,3.66-4.45,10.27-2.37,13a4.94,4.94,0,0,0,3.56,1.88,5.42,5.42,0,0,1-2.47-1.28C128.73,260.28,131.69,253.86,133.08,250.1Z" fill="none"/><path d="M115,252.45c0.79,3.66,1.09,8.79,3.75,10.87-2.27-2.57-3-7.71-3.56-10.18A6.29,6.29,0,0,0,115,252.45Z" fill="none"/><path d="M365.94,171a19.56,19.56,0,0,1,1.58-4.84l-0.1.1A20,20,0,0,0,365.94,171Z" fill="none"/><path d="M1123.2,214.73a6.8,6.8,0,0,1,.79-0.3A6.8,6.8,0,0,0,1123.2,214.73Z" fill="none"/><path d="M60.76,273.2c-0.1-.2-0.2-0.3-0.3-0.49A2.16,2.16,0,0,0,60.76,273.2Z" fill="none"/><path d="M142,261.46c-0.1.1-.2,0.3-0.3,0.4A1.36,1.36,0,0,0,142,261.46Z" fill="none"/><path d="M370.19,277.37h0c2.47-8.79,7.31-21,7.11-31.12h-0.2C377.5,256.13,372.75,268.08,370.19,277.37Z" fill="none"/><path d="M58.78,164.94a30.81,30.81,0,0,0-1.28,6.42,64.28,64.28,0,0,0,1.28,17.39A74.1,74.1,0,0,1,58.78,164.94Z" fill="none"/><path d="M362.38,228.74c1.28,0.4,2.47.89,3.66,1.38a21.38,21.38,0,0,1,5.73,3.36V233a18.22,18.22,0,0,0-3.85-2.37A52,52,0,0,0,362.38,228.74Z" fill="none"/><path d="M1067.09,242.3l-0.1.1,0.1-.1h0Z" fill="none"/><path d="M57.4,264.13a34.66,34.66,0,0,0,2.87,8.1,27.41,27.41,0,0,1-2.37-6.72,39.34,39.34,0,0,1,.89-19.17h-0.1A38.73,38.73,0,0,0,57.4,264.13Z" fill="none"/><path d="M109.07,264.23a3.7,3.7,0,0,0,1.09-.1C109.76,264.13,109.47,264.23,109.07,264.23Z" fill="none"/><path d="M1026.28,164.64c-4.05-1.68-5.24-1.19-5.33.1a1,1,0,0,1,.3-0.4c1.78-1.88,5.24.59,8.5,3.66v-0.4A10.28,10.28,0,0,0,1026.28,164.64Z" fill="none"/><path d="M343.81,171c0.89,0.79,1.68,1.58,2.57,2.37C345.59,172.55,344.7,171.76,343.81,171Z" fill="none"/><path d="M1020.46,186.58c-3.26.2-7,1.38-10.47,2.37h0.59A60.18,60.18,0,0,1,1020.46,186.58Z" fill="none"/><path d="M705.79,195.37c7.41-1.68,12.94-9.39,15.61-16.8-0.59,1.38-1.19,2.77-1.88,4.05-3.85,7.31-8.79,11.56-15.51,12.25v0.69A6.1,6.1,0,0,0,705.79,195.37Z" fill="none"/><path d="M518.67,197c1.28-1.58,2.67-3.06,4-4.64-4.94,5.33-21.44,21.24-18.28,27.86a4.2,4.2,0,0,0,1.68,2C499,217,515.12,201.3,518.67,197Z" fill="none"/><path d="M723.28,186.48c0.2-.4.49-0.89,0.69-1.28C723.68,185.69,723.48,186.08,723.28,186.48Z" fill="none"/><path d="M530.43,209.3c-0.4.3-1,.69-1.48,1.09a27.73,27.73,0,0,1,3.85-2.27,0.2,0.2,0,0,1,.1-0.2C532.11,208.31,531.32,208.8,530.43,209.3Z" fill="none"/><path d="M181.93,248.22c-2.37,1-2.47,13-2.17,21.83C179.61,261.34,179.81,249.41,181.93,248.22Z" fill="none"/><path d="M128.43,275.79c1.38-.3,4.54-0.3,7.61-0.59v-0.1C133.08,275.39,130,275.49,128.43,275.79Z" fill="none"/><path d="M207.57,277.37h0c-1.78-1.58-3.46-3-4.05-3.56A27.37,27.37,0,0,0,207.57,277.37Z" fill="none"/><path d="M116.87,276.48c4.94-.3,9.68-1,11.56-0.69C126.16,275.39,121.62,276.08,116.87,276.48Z" fill="none"/><path d="M359.12,277.37h0a117,117,0,0,0,4.25-21.54A131.15,131.15,0,0,1,359.12,277.37Z" fill="none"/><path d="M118,266.9c-3.16-.1-11.26-1-14.62,1.58C106.85,266.28,115.2,266.9,118,266.9Z" fill="none"/><path d="M308.24,218.19h0c-5.93.69-9.39,3.36-11.56,7.31C299,221.65,302.41,218.86,308.24,218.19Z" fill="none"/><path d="M1026.78,231.92c0.1-.69.3-1.28,0.4-2v-2.07a18.77,18.77,0,0,0-1,4.54h0.59A0.44,0.44,0,0,1,1026.78,231.92Z" fill="none"/><path d="M388.27,169.09l-0.1.1Z" fill="none"/><path d="M145.72,251.46c-0.89,1.58-1.38,4-2.07,6.13A60.68,60.68,0,0,1,145.72,251.46Z" fill="none"/><path d="M957.82,219.85c0.2,0.89.3,1.88,0.49,3,1.38,9.39,3.56,19.46,8.89,26.77-5.43-7.9-6.92-19.07-9.19-28.95A1.87,1.87,0,0,0,957.82,219.85Z" fill="none"/><path d="M146.61,250c-0.1.1-.1,0.2-0.2,0.3A0.52,0.52,0,0,0,146.61,250Z" fill="none"/><path d="M118.46,266.9c3.85-.1,16.3-2.67,21.73-0.2l0.1-.1C134.36,264.31,121.67,266.9,118.46,266.9Z" fill="none"/><path d="M188.6,259.59a9,9,0,0,0,.1,1.68c1.09,4.05,5.14,8.4,7.71,11.76,1.19,1.48,2.37,3,3.66,4.45h1.63C196.21,270.95,190.77,263.93,188.6,259.59Z" fill="none"/><path d="M1027.17,223.33c-2.57,1.78-9,1.78-12.45,1.19q-0.89-.15-1.48-0.3a1.67,1.67,0,0,1-.59-0.3h0c0,0.1-.1,1.09-0.1,1.48v0.2c-0.1,2.17-.4,4.45-0.69,6.82h14.33a23.27,23.27,0,0,1,1-4.54v-4.54h0Z" fill="#82c1b5"/><path d="M372.26,158.12h0c-0.49.79-1.09,1.58-1.58,2.37-0.1.1-.1,0.3-0.2,0.4C371.07,159.9,371.62,159,372.26,158.12Z" fill="#82c1b5"/><path d="M1036.66,263.54l0.1,0.1-0.1-.1h0Z" fill="#82c1b5"/><path d="M582.89,231.13a41,41,0,0,0,.89,6.22v0.1c0.1,0.3.2,0.69,0.3,1a37.81,37.81,0,0,0,2.17,5.53V201.79c-1.38,4.64-2.47,12.65-3.06,17.68C582.89,223.62,582.79,227.75,582.89,231.13Z" fill="#82c1b5"/><path d="M576.87,179.76c-13.83,4.05-17.78,9.39-16.1,21.83,0.1,1,.3,2.07.49,3.16,0.1,0.79.3,1.68,0.49,2.67,1,5.53,2.07,13.93-.59,15.81a0.1,0.1,0,0,0-.1.1c-0.1.1-.2,0.1-0.3,0.2a0.2,0.2,0,0,0-.2.1c-0.1,0-.2.1-0.3,0.1h-0.94a0.37,0.37,0,0,1-.3-0.1,2.24,2.24,0,0,0-.4-0.1c-0.1,0-.2-0.1-0.3-0.1a0.75,0.75,0,0,1-.4-0.2,1.45,1.45,0,0,0-.4-0.2,0.75,0.75,0,0,0-.4-0.2c-0.1-.1-0.3-0.2-0.4-0.3s-0.3-.2-0.4-0.3a2.15,2.15,0,0,1-.49-0.4c-0.1-.1-0.3-0.2-0.4-0.3s-0.49-.4-0.69-0.59l-0.3-.3a11.26,11.26,0,0,1-1.09-1.09c-2.47-2.57-4.45-5-6.22-7.11v4c1.78,3,2.17,6.32,4,8.6,2.07,2.57,4,5.24,7,5.53a36.64,36.64,0,0,0,4.35-.49,9.69,9.69,0,0,0,2.67-1.38l0.2-.2c4-3.66,4.05-12,3.46-16.6-1.88-6.92-6.52-13.93-5.63-17.88,1.38-5.73,15.31-13.14,23-11.16v-4.54C583.58,178.08,580.42,178.77,576.87,179.76Z" fill="#82c1b5"/><path d="M838.87,183.91c-5.93,9.39-8.79,20.75-8.79,34.08,0,19.17,6,34.38,18.18,45.35s27.27,16.2,45.84,16.2c3.06,0,5.93-.2,8.69-0.4,5.53-1.58,11-3.26,15.91-4.74l4-1.19,1-.3c1-.3,1.88-0.59,2.87-0.89a45.78,45.78,0,0,0,9.88-7.51L925.12,233.4c-7.31,7.21-16.8,10.87-28.55,10.87-15.21,0-27.37-9.48-27.37-26.77,0-17.78,11.56-27.37,27.37-27.37a34.12,34.12,0,0,1,13.44,3c4.64,1.88,7.9,3.26,9.48,4.54a41.69,41.69,0,0,1,3.85,3l10.37-32.8-1.38-1.19a58.83,58.83,0,0,0-12.84-6c-5.73-2.27-15.71-4-25.59-4-11.56,0-21.83,2.17-30.82,6.42A89.61,89.61,0,0,1,838.87,183.91Z" fill="#82c1b5"/><path d="M381.35,201.89c2.67,2.07,6.42,4.84,9,7,7.8,6.52,16.5,13.24,24.6,19.17V201.89H381.35Z" fill="#82c1b5"/><path d="M685.74,221.83v-9.09c-2.47-2-4.54-4.15-5.33-6.92a9.41,9.41,0,0,1-.59-4.05h-4.94a17.3,17.3,0,0,0-.2,6.32c0.69,2.27.69,4.54,2.07,6.52C678.82,217.2,682.58,219.47,685.74,221.83Z" fill="#82c1b5"/><path d="M703.82,246.35c5.73,5.14,12.05,4.25,18.67,2.17,6.22-2.47,12.35-7,18.77-5.53a1.4,1.4,0,0,1,.59.2v-6.82c-3.85-.79-7.8.3-11.66,1.88-6.62,2.67-13.24,6.32-20.15,2.87A9.62,9.62,0,0,1,705.6,237a15.35,15.35,0,0,1-1.68-4v13.34h-0.1Z" fill="#82c1b5"/><path d="M60.56,272.73a2.16,2.16,0,0,0-.3-0.49,34.66,34.66,0,0,1-2.87-8.1,39.21,39.21,0,0,1,1.19-17.88H38.83V232.42H81.51a44.19,44.19,0,0,1-4.45-4.15,75.38,75.38,0,0,1-15.21-26.48H38.93V188.85H58.78v-0.2a64.28,64.28,0,0,1-1.28-17.39,43.39,43.39,0,0,1,1.28-6.42q0.59-3.41,1.48-6.82H0V277.37H62.93c-0.79-1.38-1.48-2.77-2.17-4.15A0.75,0.75,0,0,1,60.56,272.73Z" fill="#82c1b5"/><path d="M365.34,168.3c0.1,0,.2,0,0.2-0.1h0.1c0.1,0,.1-0.1.2-0.1a9.54,9.54,0,0,0,2.17-2.87c0.79-1.58,1.78-3.26,2.67-4.74,0.4-.79.89-1.58,1.28-2.37H360.5C361.89,163,363.71,168.3,365.34,168.3Z" fill="#82c1b5"/><path d="M370.48,160.89c-0.79,1.38-1.58,2.77-2.27,4L367.62,166a85.56,85.56,0,0,0,5.33-8h-0.69C371.62,159,371.07,159.9,370.48,160.89Z" fill="#82c1b5"/><path d="M368,165.24c-0.2.3-.3,0.69-0.49,1l0.1-.1,0.59-1.19A0.52,0.52,0,0,0,368,165.24Z" fill="#82c1b5"/><path d="M1078.35,270.95a34,34,0,0,1-5.73,2.17c-4.15,1.38-19.76-.79-25-1.38,7.61,2.67,26.87,7.71,35.07,7.71a73.36,73.36,0,0,0,17.39-2c1.28-.3,2.57-0.69,3.75-1.09s3.26-1.28,4.35-1.58c1.78-.49,9.19-4,8.3-5-1.09-1.48-10.37-9.88-10.37-10-1.48-2.17-2.87-4.35-6-5.14s-6.22-1.19-7.31-1.78C1085.66,252.45,1084.92,267.27,1078.35,270.95Z" fill="#82c1b5"/><path d="M605.32,261.76c-0.2-.49-1.48-3-1.68-3.46v19.07h7.06c-0.2-2.27.2-4.64-.69-7.11C608.38,267.19,606.41,264,605.32,261.76Z" fill="#82c1b5"/><path d="M340.84,168h0c0,0.1,0,.1.1,0.1,1,1,2,1.88,3,2.87,0.89,0.79,1.68,1.58,2.57,2.37,0.2,0.1.3,0.3,0.49,0.4,7.8,6.82,16.3,15.12,24.8,21.34v-6.22h45.84V158.12H373.05c-2.07,3.16-4,6.13-5.33,8a18.34,18.34,0,0,0-1.58,4.84,4.11,4.11,0,0,0,.59,3.16c0.49,0.59,1.38.59,2.67,0.3a34.09,34.09,0,0,0,5.83-2.57c5.43-2.77,11.66-6.13,14-3.56a5.93,5.93,0,0,1-.79.79l-0.1.1a5.65,5.65,0,0,1-.79.69h0a28.28,28.28,0,0,1-9.58,5.24c-1.38.59-2.87,1.09-4.35,1.68-2.87,1.38-7.61,4-8.6,3.66-0.2-.1-0.4-0.1-0.59-0.2-4.45-2.07-6.22-13.73-6.32-22.13H333v3.75a39.22,39.22,0,0,1,6,3.75A5.93,5.93,0,0,1,340.84,168Z" fill="#82c1b5"/><path d="M554.54,162.55c2.17-1.58,4.45-3.06,6.72-4.45h-14v10.08c0.69-.59,1.38-1.09,2.07-1.68C551,165.14,552.76,163.85,554.54,162.55Z" fill="#82c1b5"/><path d="M507.21,195.37a103.13,103.13,0,0,0-6.42,9.29c-6.72,10.47-12.45,18.87-16.3,30.73-0.3.79-2.27,6.52-3.26,10.47l7.51,15.71c2.27-11,5.93-23.71,12.05-31a20.37,20.37,0,0,1,4.45-3.75c5.33-3.56,11.26-4.45,16.2-7,3.06-2,6.62-5.93,10.18-7.8a26.11,26.11,0,0,0,1.19-4,43,43,0,0,0-3.85,2.27c-5.63,4.35-17.29,15.51-22.72,11.86l-0.1-.1a3.77,3.77,0,0,1-1.68-2c-3.16-6.62,13.34-22.53,18.28-27.86q4.45-5.19,9.19-10.08a29.64,29.64,0,0,0-4-7.41C520.65,182,513.64,187.47,507.21,195.37Z" fill="#82c1b5"/><path d="M720.37,160.89c4,4.84,3.46,11.26.89,17.68-2.67,7.41-8.2,15.12-15.61,16.8a12.1,12.1,0,0,1-1.88.2v4.15a25.52,25.52,0,0,0,9.58-3.16,26,26,0,0,0,9.78-10.08,8.17,8.17,0,0,1,.69-1.28c0.1-.2.2-0.49,0.3-0.69a1.67,1.67,0,0,0,.2-0.49,31.88,31.88,0,0,0,2-7.61c0.3-2.27-1.38-7.61-.4-9.29h0a1.66,1.66,0,0,1,.49-1.19,2.71,2.71,0,0,1,2.67-.59h0.1a8.89,8.89,0,0,1,3.56,2.37l0.1,0.1L733,168a25.83,25.83,0,0,1,2.17,2.37c1.09,1.28,2.17,2.57,3,3.36,10.08,10,20,18.67,28,30.82q2.22,3.41,4.15,7.11c0.4,0.79.79,1.58,1.19,2.47,0.59,1.19,1.09,2.37,1.68,3.66,3.46,7.8,6.22,15.81,10.27,23.22,0.49,0.89.89,1.68,1.38,2.57a11.49,11.49,0,0,0-1.78-.4h-0.3a7.63,7.63,0,0,0-1.48-.2h-0.1c-7.8-.89-13.53,2.67-21.44,2.47l2.77,5a10.53,10.53,0,0,1,1.88-.69l0.89-.3a9.88,9.88,0,0,1,3.56-1.09c1.88-.2,12.35.79,13.63,1.38a7.52,7.52,0,0,1,1.88,1.19,2.55,2.55,0,0,1,.89.89c3.16,4,4.84,11.66,5.73,18.08,0.59,2.47,1,5,1.38,7.71H818v-84c-4.74,1.48-9.39,2.17-13.53,1.19-0.3-.1-0.59-0.1-0.89-0.2A71.32,71.32,0,0,0,818,190.23V158.12h-38v44.93q0,8.6.89,21.64L746.25,158.1H717.8A17.06,17.06,0,0,1,720.37,160.89Z" fill="#82c1b5"/><path d="M1045.15,212.76c0.3,0.49.59,1.09,0.89,1.58l2.37,0.1c1.09,0.2,2.17.3,3.26,0.49l6.42,0.89c4.35,0.49,8.69.89,12.94,1.09a10.17,10.17,0,0,1,4.25.79,14.58,14.58,0,0,0,2.67,1.58,2.67,2.67,0,0,0,3.06-1.48,5.5,5.5,0,0,0-.1-3.56c-1.58-5.93-3.66-11.86-7.8-16.4a35.17,35.17,0,0,0-6.22-5.14c-4.74-3.46-9.68-6.72-14.52-10-1-.69-2-1.38-3-2a2.67,2.67,0,0,0-1.09-.49,2.2,2.2,0,0,0-1.38.3c-1.28.49-2.47,0.69-3.06,2a23.19,23.19,0,0,0-1.38,4.45,37.54,37.54,0,0,0-1.09,9.39,37,37,0,0,0,.3,4.74C1045.95,205.15,1050.49,210.29,1045.15,212.76Z" fill="#82c1b5"/><path d="M445.07,159.7c-4.94,2.67-8.89,3.16-12,2.17v78.25c1.48,1,3,2.07,4.45,3.06,4.74,3.16,9.29,9.39,14.23,12.94,3,1.88,5.93,2.27,8.79,2.77,3.56-.2,6.32-4.64,7.8-9.88,1.88-6.72,3.06-13.34,5.63-19.76,1.68-4.35,1.58-8.4,3.56-12.45,1.28-2.87,2.77-5.73,4.25-8.6h-9.88V187.47h9.88c4,0,6.72.69,8.69,2.27a6.47,6.47,0,0,1,1.78,1.48A173.36,173.36,0,0,1,515,164.74l0.49-.49c-7.8-4.05-18-6.22-30.53-6.22H447.64a12.84,12.84,0,0,1-1.48,1C445.71,159.31,445.37,159.51,445.07,159.7Z" fill="#82c1b5"/><path d="M1020.95,164.74c-0.79,1.58.79,4.74,0.69,7.11a10.27,10.27,0,0,0,.4-1C1022.53,169.46,1020.85,166.42,1020.95,164.74Z" fill="#61aa9d"/><path d="M1012.35,166.13a33,33,0,0,0,2.57,4.74c-1.09-2.87-1.78-6.62-2.37-8.69C1012.45,163.54,1011.81,165.14,1012.35,166.13Z" fill="#61aa9d"/><path d="M1124.29,214.44c-0.69-.69-1.38-1.38-2.07-2-4.35-3.66-11.07-7.11-19.86-10.08-1.58-.49-4.35-1.38-8.1-2.47l-6-1.88c-2.77-.69-8.3-2.27-8.3-5.53s3.26-4.84,9.68-4.84c3.66,0,8.3,1,13.83,3.16a42.22,42.22,0,0,1,14.52,8.3l14.82-27.66c-9.39-8-23.81-13.24-38.13-14.23-0.1,0-6.62,1.09-5.73-.1-14.42.2-25.69,3.66-33.69,10.37a37,37,0,0,0-10.77,13.93c0,0.1-.1.2-0.1,0.3a8.17,8.17,0,0,1,.69,1.28v0.1c0.69,2.77-2.17,5-2,5.73l0.3,0.59c1,1.78,3.66,1.88,5.14,4.05a5.84,5.84,0,0,1,.89,2.37c0.2,1.09-.3,6.62,2.27,5.53a1.76,1.76,0,0,0,.79-0.69,5.31,5.31,0,0,1,3.75-1.48,11.15,11.15,0,0,1,4.64,1.19,7.52,7.52,0,0,1,1.88,1.19A4.45,4.45,0,0,1,1064,207a2.24,2.24,0,0,0,1.37,2.86h0c2.37,0.89,2.87-3.46,4.35-3.06,0.69-.2,2.77,1.58,2.87,1.78,0.69,1.88-2.67,4.15-2.07,6.13,0.3,0.79,1.19,1.58,3.46,2.17h0.1c7.8-.79,22.53,15.51,21.73,23.51a56.52,56.52,0,0,1-3.16,13.83,33.36,33.36,0,0,0-1.28,4.15,4.15,4.15,0,0,0,.2,2.67,5.93,5.93,0,0,0,.89,1.28c1.28,1.48,2.67,3.06,4.54,3.26a1.23,1.23,0,0,0,1.28-.4,1.21,1.21,0,0,0,0-1.28,8.22,8.22,0,0,0-.79-1.19c-1.68-2.67,1.38-2.57,3.16-1.58a12.68,12.68,0,0,0,3,1.68,1.68,1.68,0,0,0,.69.1c0.59-.1.79-0.89,0.89-1.48a1.15,1.15,0,0,1,2.07-.79,14.08,14.08,0,0,1,2.87,3.06,5.76,5.76,0,0,1,1.09,4,1.06,1.06,0,0,1-.2.59,1.54,1.54,0,0,1-1.19.3,9.08,9.08,0,0,1-3.26-1.09c-1.19-.59-4.05-3.66-4.54-0.69a4.62,4.62,0,0,0,.4,2.27,5.76,5.76,0,0,0,.79,1.78,6.79,6.79,0,0,0,1.68,1.68,11.4,11.4,0,0,0,2.87,2c1.09,0.49,2.07-.4,3.16-0.89-1-.69-2-2.07-2.17-2.07,0.2,0.1,2.57-2.77,3.66.49a0.57,0.57,0,0,1,.1.4v0.4a37.9,37.9,0,0,0,5.33-3.46c10.37-8.1,15.51-18.47,15.61-31.12C1133.48,221,1124.09,214.44,1124.29,214.44Z" fill="#61aa9d"/><path d="M57.89,265.51a39.13,39.13,0,0,0,2.37,6.72,2.16,2.16,0,0,0,.3.49c0.1,0.2.2,0.3,0.3,0.49,0.69,1.38,1.48,2.77,2.17,4.15H86.54V246.25H58.68A41,41,0,0,0,57.89,265.51Z" fill="#a5d6cd"/><path d="M308.24,218.19c-1.38-.1-1.48-0.2,3.16-0.2,2.57,0.3,5.14.59,7.9,1a45.19,45.19,0,0,0,4.05-19.76c0-14-4.54-24.6-13.53-31.61-7.9-6.42-19-9.48-33.2-9.48H224.76V277.47h39.12V240.32h12.84a73.29,73.29,0,0,0,16.1-1.68c0.89-4.94,1.88-9.48,4-13.14C298.86,221.65,302.31,218.86,308.24,218.19Zm-28.65-9.39c-2.07,1.38-5.14,2.07-9.48,2.07h-6.42V187.56h6.42c4.35,0,7.41.69,9.48,2.27,3,1.88,4.35,5.14,4.35,9.48S282.55,206.83,279.59,208.8Z" fill="#a5d6cd"/><path d="M187.22,188a76.07,76.07,0,0,1-19,39.42c-1,1.09-2.07,2.17-3.06,3.26l-0.4.4-0.59.59-4.74,4.45-0.4.4-0.1.1c-1.48,1.38-3,2.77-4.35,4.25L173,277.47h7.31c-0.2-1.68-.3-4.35-0.4-7.31-0.3-8.79.1-21.24,2.17-21.83a5.15,5.15,0,0,1,3,.4c5.43,1.48,16.5,6.52,22.82,10.27l-28-43.67,37.54-57.1H187.22A88.37,88.37,0,0,1,187.22,188Z" fill="#a5d6cd"/><path d="M460.68,259a9.41,9.41,0,0,1-4.64-1.28,30.55,30.55,0,0,1-4.15-2.47c-6.32-4-12.35-11.76-17.09-15a15.07,15.07,0,0,0-1.58-1.09v38.43h28.85c0.4-6.22,2-14.92,2.87-20.85C464.14,256.52,461.37,259.09,460.68,259Z" fill="#a5d6cd"/><path d="M113.61,262.85c-0.49.69-1.88,1.09-3.36,1.28a3.7,3.7,0,0,1-1.09.1c-1.88,0-3.85-.3-4.64-1-1.28-1.09-1.58-4.84-2-8.1L88.22,277.47H135L136,275.2c-3.06.3-6.13,0.3-7.61,0.59-1.88-.3-6.62.4-11.56,0.69-6.22.49-12.65,0.59-14.52-2.77-1.38-2.57-.69-4.25,1-5.24,3.36-2.57,11.46-1.58,14.62-1.58h0.4c3.36-.1,15.91-2.57,21.83-0.3l11.36-22.82a46.43,46.43,0,0,0-4.45,5.43,3.47,3.47,0,0,0-.49.79c-0.1.1-.1,0.2-0.2,0.3a14.62,14.62,0,0,0-.79,1.28,47,47,0,0,0-2.07,6.13,14.07,14.07,0,0,1-1.68,3.85c-0.1.1-.2,0.3-0.3,0.4-1.58,1.58-4.54,3.46-7.31,2.87a4.75,4.75,0,0,1-3.56-1.88c-2.17-2.77.79-9.48,2.37-13,3.85-10.37,8.2-20.65,12.35-30.92,2.37-6,4.64-12,6.92-18.08l0.59-1.48c2.37-6.52,4.64-13.24,6.42-19.86l-5.63,10.67-0.3-.49c-1.19,3.46-2.27,6.62-3.26,9.29q-9,24.16-18.38,48.11c-1.48,4-3.16,14.62-7,16.8-2.87,1.68-4.84,1.09-6.22-.49-2.67-2.07-3-7.21-3.75-10.87A60.18,60.18,0,0,0,110.65,242l-1.78,2.77C113,251.78,116.18,259.37,113.61,262.85Z" fill="#a5d6cd"/><path d="M189.19,257.31a15.58,15.58,0,0,0,3.46,5.73c3.36,3.85,8.1,7.71,10.67,10.67l0.2,0.2c0.59,0.59,2.17,2,4.05,3.56h12.05L211,264C206.28,265.12,192.55,255,189.19,257.31Z" fill="#a5d6cd"/><path d="M84.77,188.55V158.12H84.07c-0.1,1-.2,1.88-0.3,2.87A113.44,113.44,0,0,0,84.77,188.55Z" fill="#a5d6cd"/><path d="M188.6,259.59c-1-2.07-1.28-3.56-.49-4.15h-0.25c-4.45,2-5.53,15.91-6.82,22l20.75-.1c-1.28-1.48-3.06-3.66-4.25-5.14C194.92,268.87,188.5,260.08,188.6,259.59Z" fill="#a5d6cd"/><path d="M188.11,255.42a0.75,0.75,0,0,1,.49-0.2,1.43,1.43,0,0,0-.69.2h0.2Z" fill="#a5d6cd"/><path d="M340.55,168.4a0.67,0.67,0,0,1,.3-0.4,6.36,6.36,0,0,0-2-2.37c-1.78-1.09-4.05-1.09-6-2.27v57.8a184.34,184.34,0,0,1,29.54,7.61c1.88,0.59,2.17,1.88,4,2.67a37.23,37.23,0,0,1,5.43,3.66v-2.57H415v-4.76l-9.19-7.11c-8-6.32-16.4-12.35-24.5-18.67h-9.58v-7.8c-8-6.82-16.8-13.34-24.8-20.35-0.2-.1-0.3-0.3-0.49-0.4-0.89-.79-1.78-1.58-2.57-2.37-1-.89-2-1.88-3-2.87h-0.1" fill="#a5d6cd"/><path d="M370.19,277.37h49.1V246.25h-42C377.5,256.33,372.61,268.58,370.19,277.37Z" fill="#a5d6cd"/><path d="M343.81,171c-1-.89-2-1.88-3-2.87h0C341.83,169.09,342.82,170.08,343.81,171Z" fill="#a5d6cd"/><path d="M60.76,273.2c0.69,1.38,1.38,2.77,2.17,4.15h0C62.24,276.08,61.4,274.7,60.76,273.2Z" fill="#a5d6cd"/><path d="M338.87,165.63a35,35,0,0,0-6-3.75v1.48C334.72,164.45,337,164.52,338.87,165.63Z" fill="#a5d6cd"/><path d="M346.47,173.34c0.2,0.1.3,0.3,0.49,0.4A2.15,2.15,0,0,1,346.47,173.34Z" fill="#a5d6cd"/><path d="M60.56,272.73a2.16,2.16,0,0,0-.3-0.49A2.16,2.16,0,0,0,60.56,272.73Z" fill="#a5d6cd"/><path d="M460.68,259a26,26,0,0,1-8.79-3.75,22.93,22.93,0,0,0,4.15,2.47A11.86,11.86,0,0,0,460.68,259Z" fill="#a5d6cd"/><path d="M719.38,182.62c0.69-1.38,1.38-2.77,1.88-4.05a37.11,37.11,0,0,0,1.48-5.93c0.79-5.24-.2-9-2.37-11.76a13.83,13.83,0,0,0-3.06-2.77H703.77V196C710.63,195.15,715.43,190,719.38,182.62Z" fill="#53b8ce"/><path d="M731.48,244.67c-3.06.89-6,2.07-8.89,3-5,2-10.18,3.16-15.51.3a17.9,17.9,0,0,1-3.16-2.17v31.81h38V243.48C738.69,242.57,735.43,243.38,731.48,244.67Z" fill="#53b8ce"/><path d="M611.44,277.37H690V246.25H642.47V232.42h43.27V222.24c-1.19-.89-2.47-1.68-3.56-2.67a23,23,0,0,1-4.35-4.84,15.88,15.88,0,0,1-3.06-6.52,17.23,17.23,0,0,1-.59-6.32H642.56V188.95h45.84V158.12H603.64V259.19a60.45,60.45,0,0,1,5.43,11.07C610.36,272.82,611.44,275.39,611.44,277.37Z" fill="#53b8ce"/><path d="M777.32,277.37h14.42v-0.22c-0.2-2-.49-4.54-0.89-7.51-1-4.64-1.28-9.09-3-13.34a48.93,48.93,0,0,0-1.78-4.74l-1.88-1.88c-0.79-.49-2.17-0.49-5.14-1-5.43-.89-8.89-1.88-13.93-0.49-0.89.4-1.68,1.88-2.57,2.37Z" fill="#53b8ce"/><path d="M554.54,220.36l0.3,0.3c0.2,0.2.49,0.4,0.69,0.59a3.93,3.93,0,0,0,.4.3,2.15,2.15,0,0,1,.49.4c0.1,0.1.3,0.2,0.4,0.3s0.3,0.2.4,0.3a0.75,0.75,0,0,0,.4.2c0.1,0.1.3,0.1,0.4,0.2s0.3,0.1.4,0.2a0.36,0.36,0,0,0,.3.1,2.24,2.24,0,0,0,.4.1c0.1,0,.2.1,0.3,0.1h0.89a0.37,0.37,0,0,0,.3-0.1,0.2,0.2,0,0,0,.2-0.1,0.52,0.52,0,0,0,.3-0.2,0.1,0.1,0,0,0,.1-0.1c2.57-1.78,1.48-10,.59-15.81,0-.2-0.1-0.4-0.1-0.59a15.33,15.33,0,0,0-.4-2.07v-0.2c-0.2-1.09-.4-2.07-0.49-3.06-1.48-9.88-.3-15,12-19.66,4.45-1.68,9.39-3.36,13.63-3.46v-20h-24.9a80.8,80.8,0,0,0-6.82,4.45c-2.47,1.78-4.94,3.66-7.31,5.63v43.67c1.78,2.17,3.75,4.84,6.22,7.41A3.42,3.42,0,0,0,554.54,220.36Z" fill="#53b8ce"/><path d="M741.26,243c-6.42-1.48-12.55,2.17-18.77,4.54,2.87-.89,5.83-2,8.89-3,4.05-1.19,7.21-2.07,10.47-1.28v-0.2A1.47,1.47,0,0,1,741.26,243Z" fill="#53b8ce"/><path d="M554.54,220.36a11.26,11.26,0,0,1-1.09-1.09A5.66,5.66,0,0,0,554.54,220.36Z" fill="#53b8ce"/><path d="M677.74,214.73a23,23,0,0,0,4.35,4.84,41.7,41.7,0,0,0,3.56,2.67v-0.41A51.37,51.37,0,0,1,677.74,214.73Z" fill="#53b8ce"/><path d="M561.75,207.52c1,5.83,2,14-.59,15.81C563.73,221.45,562.64,213.05,561.75,207.52Z" fill="#53b8ce"/><path d="M610.65,277.37h0.79a18,18,0,0,0-2.47-7.11A21.83,21.83,0,0,1,610.65,277.37Z" fill="#53b8ce"/><path d="M765.27,249.21l-0.89.3c-0.69.2-1.28,0.49-1.88,0.69l0.2,0.4C763.59,250.2,764.38,249.71,765.27,249.21Z" fill="#53b8ce"/><path d="M506.13,222.24h0c5.53,3.75,17.19-7.41,22.82-11.76h-0.1C525,213.15,511.86,225.6,506.13,222.24Z" fill="#53b8ce"/><path d="M561.26,204.66v0.2c-0.2-1.09-.4-2.17-0.49-3.16C560.86,202.58,561.06,203.57,561.26,204.66Z" fill="#53b8ce"/><path d="M722.79,172.65a37.11,37.11,0,0,1-1.48,5.93c2.57-6.42,3.16-12.84-.89-17.68C722.59,163.75,723.58,167.41,722.79,172.65Z" fill="#53b8ce"/><path d="M791.74,277.27v0.2h0.49c-0.4-2.57-.89-5.14-1.38-7.71C791.25,272.63,791.5,275.29,791.74,277.27Z" fill="#53b8ce"/><path d="M784.34,250.69l0.89,0.89A2.55,2.55,0,0,0,784.34,250.69Z" fill="#53b8ce"/><path d="M554.83,220.66c0.2,0.2.49,0.4,0.69,0.59A1.85,1.85,0,0,1,554.83,220.66Z" fill="#53b8ce"/><path d="M561.45,158.12h-0.2c-2.27,1.38-4.54,2.87-6.72,4.45C556.81,161,559.08,159.51,561.45,158.12Z" fill="#53b8ce"/><path d="M557.7,222.93c0.1,0.1.3,0.1,0.4,0.2A0.75,0.75,0,0,1,557.7,222.93Z" fill="#53b8ce"/><path d="M523.22,191.81c2.87-3.16,5.73-6.32,8.69-9.39v-0.12q-4.74,4.94-9.19,10.08C522.92,192.19,523,192,523.22,191.81Z" fill="#53b8ce"/><path d="M558.49,223.33c0.1,0,.2.1,0.3,0.1C558.69,223.43,558.59,223.33,558.49,223.33Z" fill="#53b8ce"/><path d="M555.92,221.65a2.15,2.15,0,0,1,.49.4C556.32,221.94,556.12,221.83,555.92,221.65Z" fill="#53b8ce"/><path d="M556.91,222.34c0.1,0.1.3,0.2,0.4,0.3A0.53,0.53,0,0,1,556.91,222.34Z" fill="#53b8ce"/><path d="M674.67,208.21a17.3,17.3,0,0,1,.2-6.32h-0.79A17.23,17.23,0,0,0,674.67,208.21Z" fill="#53b8ce"/><path d="M559.18,223.53c0.1,0,.2.1,0.3,0.1A0.37,0.37,0,0,1,559.18,223.53Z" fill="#53b8ce"/><path d="M560.76,223.53a0.52,0.52,0,0,0,.3-0.2A0.52,0.52,0,0,1,560.76,223.53Z" fill="#53b8ce"/><path d="M560.27,223.72a0.37,0.37,0,0,0,.3-0.1A0.37,0.37,0,0,0,560.27,223.72Z" fill="#53b8ce"/><path d="M495,243.19c-1.28,3.36-3.16,14.42-5.43,20.45l6.62,13.83h45l-26.77-45.25c8.3-4.94,13.93-11.46,17.09-19.46-2.67,1.58-5.24,3.56-7.51,4.94-0.79.49-1.68,0.89-2.47,1.38a17.19,17.19,0,0,1-1.78,1.09c-4.35,2.37-10,4.05-14.42,6.82-0.2.1-.4,0.3-0.59,0.4C499.06,231,497.34,237.16,495,243.19Z" fill="#f05a57"/><path d="M583.78,237.46v-0.1h0a31.5,31.5,0,0,1-.89-6.22V231a64.83,64.83,0,0,1,.3-11.56,85.07,85.07,0,0,1,2.07-13.93,17,17,0,0,1,1-2.57V182.82c-2.47-.79-6.13-0.4-10.67,1.78C560,192,565,196.36,566.79,211.47v0.2c1.78,6.82,2.67,13.44-1.68,16.8a6.67,6.67,0,0,1-4.94,1.88c-6.62.49-9.19-7.61-12.94-13.73v61h39.12v-33.1a38.43,38.43,0,0,1-2.17-5.93A4.82,4.82,0,0,1,583.78,237.46Z" fill="#f05a57"/><path d="M565.21,228.37a8.46,8.46,0,0,1-2.67,1.38,10.15,10.15,0,0,1-2.37.49A7,7,0,0,0,565.21,228.37Z" fill="#f05a57"/><path d="M495,243.19c2.37-6,4.15-12.15,9.58-15.91,0.2-.1.4-0.3,0.59-0.4a18.3,18.3,0,0,0-4.45,3.75c-6,7.21-9.78,20.06-12.05,31l1,2C491.8,257.61,493.68,246.52,495,243.19Z" fill="#f05a57"/><path d="M586.25,244.37v-0.3a37.81,37.81,0,0,1-2.17-5.53A41.39,41.39,0,0,0,586.25,244.37Z" fill="#f05a57"/><path d="M563.23,193.79c-1,3.85,1.78,11,3.66,17.88v-0.2c-1.78-15-6.82-19.46,8.79-26.87,4.54-2.17,8.2-2.57,10.67-1.78v-0.1C578.54,180.65,564.61,188.06,563.23,193.79Z" fill="#f05a57"/><path d="M531.42,212.66c0.1-.2.1-0.4,0.2-0.59-3.56,2-7.11,4.84-10.18,6.82a19.89,19.89,0,0,0,2.47-1.38C526.18,216.21,528.7,214.14,531.42,212.66Z" fill="#f05a57"/><path d="M582.89,231.13c-0.1-3.36,0-7.51.3-11.56A64.82,64.82,0,0,0,582.89,231.13Z" fill="#f05a57"/><path d="M472.14,277.37V237.63h5l4.25,8.89c4.54-18.18,13.93-34.58,25.79-49.2a187.29,187.29,0,0,1,20.45-22.82,35.92,35.92,0,0,0-8.1-7.8,40.09,40.09,0,0,0-4.05-2.47l-0.49.49c-2.67,2.67-5.14,5.43-7.51,8.2-5.24,6.22-10.18,12.45-14.72,18.77a9,9,0,0,1,2,6,9.56,9.56,0,0,1-4.35,8.3c-1.68,1.38-4.54,2.07-8.3,2.07-1.58,2.77-3.16,5.63-4.54,8.6A176.35,176.35,0,0,0,462,277.25h10.18v0.12Z" fill="#53b8ce"/><path d="M507.21,197.34A222,222,0,0,1,528,175c-0.1-.2-0.2-0.3-0.3-0.49A194.94,194.94,0,0,0,507.21,197.34Z" fill="#53b8ce"/><path d="M481.82,208.21c-1.48,2.87-3,5.63-4.25,8.6,1.48-3,3-5.73,4.54-8.6h-0.3Z" fill="#53b8ce"/><path d="M492.79,191.81c4.54-6.32,9.48-12.55,14.72-18.77,2.37-2.87,4.94-5.53,7.51-8.2a163.69,163.69,0,0,0-22.72,26.48A2.33,2.33,0,0,1,492.79,191.81Z" fill="#53b8ce"/><path d="M703.82,232.52A17.21,17.21,0,0,0,705.5,237a12.29,12.29,0,0,0,3.16,3.26c7.11,4.74,14.33.79,21.44-2,3.85-1.58,7.8-2.77,11.66-1.88v-3.85c0-5.73-.4-12.94-0.89-21.64l18.67,34.18h1.58c7.31-.4,12.84-3.16,20-2.37h0.1c0.49,0.1,1,.1,1.48.2H783a11.49,11.49,0,0,1,1.78.4c-6.72-1.88-2.87-4.74,0,0a21.22,21.22,0,0,1-1.38-2.57c-4-7.41-6.82-15.41-10.27-23.22-0.49-1.19-1.09-2.47-1.68-3.66-0.4-.79-0.79-1.58-1.19-2.47-1.28-2.37-2.57-4.74-4.15-7.11-7.71-11.66-17.09-19.76-26.77-29.34-1.09-1-2.47-3-4.05-4.84-0.69-.79-1.38-1.58-2.17-2.37l-0.2-.2-0.1-.1a10.65,10.65,0,0,0-3.56-2.37h-0.1c-1.19-.3-2.27.2-3.16,1.78-0.2,2.07.79,5.83,0.69,7.21a28.07,28.07,0,0,1-2.17,9.68,1.67,1.67,0,0,0-.2.49c-0.1.2-.2,0.49-0.3,0.69a8.17,8.17,0,0,1-.69,1.28,26,26,0,0,1-9.78,10.08,25.69,25.69,0,0,1-9.58,3.26v33h-0.1Z" fill="#f05a57"/><path d="M685.74,212.76v-11H680a9,9,0,0,0,.4,4.05A15.14,15.14,0,0,0,685.74,212.76Z" fill="#f05a57"/><path d="M773.07,217.6c3.46,7.8,6.22,15.81,10.27,23.22C779.3,233.4,776.53,225.4,773.07,217.6Z" fill="#f05a57"/><path d="M725.95,167.11h0c-0.89,1.68.69,7,.4,9.29a26.22,26.22,0,0,1-2,7.61,28.07,28.07,0,0,0,2.17-9.68C726.74,172.94,725.75,169.19,725.95,167.11Z" fill="#f05a57"/><path d="M724,185.19c0.1-.2.2-0.49,0.3-0.69A4.81,4.81,0,0,1,724,185.19Z" fill="#f05a57"/><path d="M723.28,186.48a26,26,0,0,1-9.78,10.08A26,26,0,0,0,723.28,186.48Z" fill="#f05a57"/><path d="M732.86,167.8l0.2,0.2A0.22,0.22,0,0,0,732.86,167.8Z" fill="#f05a57"/><path d="M729.26,165.33a8.31,8.31,0,0,1,3.56,2.37A10.14,10.14,0,0,0,729.26,165.33Z" fill="#f05a57"/><path d="M680.3,205.94c0.89,2.67,3,4.94,5.33,6.92h0A17.93,17.93,0,0,1,680.3,205.94Z" fill="#f05a57"/><path d="M784.73,243.38c-2.87-4.74-6.72-1.88,0,0h0Z" fill="#f05a57"/><path d="M710,241.11c6.92,3.46,13.53-.3,20.15-2.87-7.11,2.77-14.33,6.82-21.44,2A12.29,12.29,0,0,1,705.6,237,10.15,10.15,0,0,0,710,241.11Z" fill="#f05a57"/><path d="M766.16,204.46q2.22,3.41,4.15,7.11Q768.38,207.87,766.16,204.46Z" fill="#f05a57"/><path d="M766.16,204.46c-8-12.05-17.88-20.85-28-30.82-0.79-.79-1.78-2.07-3-3.36,1.58,1.88,3.06,3.75,4.05,4.84C749,184.7,758.45,192.8,766.16,204.46Z" fill="#f05a57"/><path d="M1046.14,214.44c8.1,12.94,45.35,16.3,48.21,27.66,0,6-13,5.14-18.28,3.46s-9.39-3.36-9.29-3.26a58.15,58.15,0,0,1-13.14-8.1c-3.26,5.43-18.28,23.12-17.09,29.14,1.48,8,22.72,12.15,29,11.46,13.83-1.48,20.85-8.2,26.77-20.65,14-29.64,10.87-35.07-22.53-37.64C1068.77,216.31,1054.15,213.35,1046.14,214.44Z" fill="#53b8ce"/><path d="M1024.65,232.42h2.47V228a27.17,27.17,0,0,0-1.38,3C1025.64,231.13,1024.65,232.32,1024.65,232.42Z" fill="#53b8ce"/><path d="M1027.57,246.25a48.62,48.62,0,0,0,4,9.29v-9.29h-4Z" fill="#53b8ce"/><path d="M1036.86,263.32l-0.1.2,0.1,0.1,1,0.69A9.31,9.31,0,0,1,1036.86,263.32Z" fill="#53b8ce"/><path d="M1027.57,246.25h0a37.54,37.54,0,0,0,4,10v-0.69A43.07,43.07,0,0,1,1027.57,246.25Z" fill="#53b8ce"/><path d="M84.12,188.85a115.14,115.14,0,0,1-.4-28c0.1-1,.2-1.88.3-2.87H60.76c-0.59,2.27-1.28,4.54-2,6.82a77,77,0,0,0-.1,23.81v0.2H84.12Z" fill="#f05a57"/><path d="M107.83,264.13a4.81,4.81,0,0,0,1.19.1,3.7,3.7,0,0,0,1.09-.1c5.53-.79,2.77-9.48-1.68-18.47l-5.83,9.09C103.34,259,103.24,263.44,107.83,264.13Z" fill="#f05a57"/><path d="M81.7,232.42h0.4V201.79H62.34A81.59,81.59,0,0,0,71,220.36C72.71,222.93,78.54,228.37,81.7,232.42Z" fill="#f05a57"/><path d="M60.76,158.12H60.26q-0.89,3.41-1.48,6.82C59.43,162.67,60.17,160.3,60.76,158.12Z" fill="#f05a57"/><path d="M71,220.36a79.68,79.68,0,0,1-8.69-18.57h-0.4a77.17,77.17,0,0,0,15.21,26.48,29.84,29.84,0,0,0,4.45,4.15h0.1C78.54,228.37,72.71,222.93,71,220.36Z" fill="#f05a57"/><path d="M83.78,161a110.37,110.37,0,0,0,.4,28h0.59v-0.4A113.44,113.44,0,0,1,83.78,161Z" fill="#f05a57"/><path d="M109.07,264.23a4.81,4.81,0,0,1-1.19-.1c-4.64-.69-4.45-5.14-5.24-9.39l-0.2.3c0.4,3.26.69,7,2,8.1C105.22,263.83,107.19,264.23,109.07,264.23Z" fill="#f05a57"/><path d="M110.16,264.13a4.83,4.83,0,0,0,3.36-1.28c2.67-3.46-.49-11.16-4.45-18.18l-0.59,1C112.92,254.65,115.69,263.32,110.16,264.13Z" fill="#f05a57"/><path d="M1007.71,246.25H984V232.42h27.81c0.4-2.27.59-4.54,0.79-6.82v-0.2c0-.4.1-1.19,0.1-1.19v-0.3a14.6,14.6,0,0,0-1.68-4.25c-0.1-.1-0.1-0.2-0.2-0.3s-0.2-.3-0.3-0.4a27.79,27.79,0,0,0-4.74-5.93,1.36,1.36,0,0,0-.4-0.3c-0.2-.1-0.3-0.3-0.49-0.4-7.21-6-17.68-8.79-27-10.27-3.85-.59-7.61-1-11.16-1.28-4.05-.4-10.87-1.88-14,0.59a0.38,0.38,0,0,0-.2.2l-0.1.1a5.57,5.57,0,0,0-1.38,4.05v0.1a3.7,3.7,0,0,0,.1,1,2.32,2.32,0,0,0,.2.79c0.69,2.87,2.87,2.17,4.15,4.74a23.36,23.36,0,0,1,2.47,7.71c0.1,0.2-.89.49-0.79,0.69,2.17,10,4.74,21.14,10.18,28.95a23.71,23.71,0,0,0,16.4,9.88,10.87,10.87,0,0,0,1.78.2,12.6,12.6,0,0,0,1.88.1C997.54,260,1003.91,254.15,1007.71,246.25Z" fill="#53b8ce"/><path d="M967.21,249.61c3.46,5,8.5,8.79,16.4,9.88A24,24,0,0,1,967.21,249.61Z" fill="#53b8ce"/><path d="M951.2,207.52c1,4.25,5.24,7.31,6.62,12.35a24.11,24.11,0,0,0-2.47-7.71C954.07,209.69,951.89,210.39,951.2,207.52Z" fill="#53b8ce"/><path d="M966.71,200.8c3.46,0.3,7.31.69,11.16,1.28-2.17-.3-4.25-0.59-6.22-0.79-4.45-.49-14.92-3.36-19,0.1C955.75,198.83,962.66,200.41,966.71,200.8Z" fill="#53b8ce"/><path d="M1004.75,212.36c0.2,0.1.3,0.3,0.49,0.4A2.85,2.85,0,0,1,1004.75,212.36Z" fill="#53b8ce"/><path d="M987.26,259.78a12,12,0,0,1-1.88-.1A12.6,12.6,0,0,0,987.26,259.78Z" fill="#53b8ce"/><path d="M365.84,168.1c-0.1,0-.1.1-0.2,0.1h-0.1a0.35,0.35,0,0,0-.2.1c-1.58,0-3.36-5.33-4.84-10.18h-2.57c0.1,8.4,2,20.15,6.32,22.13a1.4,1.4,0,0,0,.59.2c1,0.3,7.41-3.26,8.6-3.66h0c0.69-.4,1.38-0.59,1.68-0.79l2.67-.89a30.26,30.26,0,0,0,9.58-5.24h0c0.3-.2.49-0.49,0.79-0.69l0.1-.1a5.93,5.93,0,0,1,.79-0.79c-2.27-2.47-8.6.89-14,3.56a44.26,44.26,0,0,1-5.83,2.57c-1.28.4-2.17,0.4-2.67-.3a4.11,4.11,0,0,1-.59-3.16,17.78,17.78,0,0,1,1.58-4.74A19,19,0,0,1,365.84,168.1Z" fill="#f05a57"/><path d="M445.07,159.7a10.78,10.78,0,0,1,1.09-.59c0.49-.3,1.09-0.69,1.48-1H433.12v3.75C436.18,162.87,440.13,162.47,445.07,159.7Z" fill="#f05a57"/><path d="M370.48,160.89c0.1-.1.1-0.3,0.2-0.4a44.77,44.77,0,0,0-2.67,4.74,0.51,0.51,0,0,0,.2-0.4C368.9,163.54,369.64,162.17,370.48,160.89Z" fill="#f05a57"/><path d="M367.52,166.22c0.2-.3.3-0.69,0.49-1a13.83,13.83,0,0,1-2.17,2.87A19,19,0,0,0,367.52,166.22Z" fill="#f05a57"/><path d="M387.38,169.88a30.26,30.26,0,0,1-9.58,5.24A28.28,28.28,0,0,0,387.38,169.88Z" fill="#f05a57"/><path d="M369.2,174.33a34.09,34.09,0,0,0,5.83-2.57A27.74,27.74,0,0,1,369.2,174.33Z" fill="#f05a57"/><path d="M388.17,169.19a5.65,5.65,0,0,1-.79.69A4.94,4.94,0,0,0,388.17,169.19Z" fill="#f05a57"/><path d="M446.06,159.11c-0.4.2-.69,0.4-1.09,0.59A10.77,10.77,0,0,0,446.06,159.11Z" fill="#f05a57"/><path d="M370.48,160.89c-0.79,1.28-1.58,2.67-2.27,4C368.9,163.66,369.64,162.27,370.48,160.89Z" fill="#f05a57"/><path d="M389.06,168.2a5.93,5.93,0,0,1-.79.79A3,3,0,0,0,389.06,168.2Z" fill="#f05a57"/><path d="M364.85,180.45c1,0.3,5.83-2.27,8.6-3.66h0C372.26,177.29,365.84,180.75,364.85,180.45Z" fill="#f05a57"/><path d="M364.26,180.25c-4.35-2.07-6.22-13.73-6.32-22.13h0C357.94,166.5,359.76,178.28,364.26,180.25Z" fill="#f05a57"/><path d="M372.26,158.12H372c-0.4.79-.79,1.58-1.28,2.37C371.17,159.7,371.77,158.91,372.26,158.12Z" fill="#f05a57"/><path d="M446.06,159.11c0.49-.3,1.09-0.69,1.48-1h0A5.53,5.53,0,0,1,446.06,159.11Z" fill="#f05a57"/><path d="M366.53,174.13a4.11,4.11,0,0,1-.59-3.16A4.11,4.11,0,0,0,366.53,174.13Z" fill="#f05a57"/><path d="M838.87,183.91a88.57,88.57,0,0,0,24.3-21,63.09,63.09,0,0,0-15,10A49.8,49.8,0,0,0,838.87,183.91Z" fill="#f05a57"/><path d="M804.34,194.87a2.88,2.88,0,0,0-.89-0.2A3.66,3.66,0,0,0,804.34,194.87Z" fill="#f05a57"/><path d="M803.5,194.68c4.84-.89,4.84,1.09.89,0.2,4.05,1,8.79.3,13.53-1.19v-3.56A65.91,65.91,0,0,1,803.5,194.68Z" fill="#f05a57"/><path d="M803.5,194.68a2.88,2.88,0,0,0,.89.2C808.29,195.76,808.29,193.79,803.5,194.68Z" fill="#f05a57"/><path d="M817.93,190.21h0a71.32,71.32,0,0,1-14.42,4.45A71.32,71.32,0,0,0,817.93,190.21Z" fill="#f05a57"/><path d="M903.14,279a58.21,58.21,0,0,0,23.22-7c-1,.3-1.88.59-2.77,0.79l-1,.3c-0.59.2-1.09,0.3-1.68,0.49C915.44,275.39,909.31,277.27,903.14,279Z" fill="#f05a57"/><path d="M926.4,272h0c-0.89.3-1.88,0.59-2.77,0.79A24.22,24.22,0,0,1,926.4,272Z" fill="#f05a57"/><path d="M921.07,273.61c0.49-.2,1.09-0.3,1.68-0.49-1.38.4-2.67,0.79-4,1.19-5,1.48-10.47,3.16-15.91,4.74h0.49C909.31,277.27,915.44,275.39,921.07,273.61Z" fill="#f05a57"/><path d="M983.9,199.72v-5.93a51.37,51.37,0,0,0-12.65,4.05c-0.59.3-1.28,0.69-1.88,1A67.06,67.06,0,0,0,983.9,199.72Z" fill="#f05a57"/><path d="M983.9,193.59a51.37,51.37,0,0,0-12.65,4.15,55.87,55.87,0,0,1,12.65-4.05v-0.1h0Z" fill="#f05a57"/><path d="M1026.58,187a12.9,12.9,0,0,0-6.22-.4,75.65,75.65,0,0,0-10.87,2.37h20.1A7.8,7.8,0,0,0,1026.58,187Z" fill="#f05a57"/><path d="M969.48,198.83a61.36,61.36,0,0,0,14.52.89h0A66.34,66.34,0,0,1,969.48,198.83Z" fill="#f05a57"/><path d="M1041.6,200.9h0a32,32,0,0,0,3.56,11.86h0C1050.49,210.29,1045.95,205.15,1041.6,200.9Z" fill="#f05a57"/><path d="M1016.11,218c-2.17.69-3.85,2.07-4.05,4.35-0.4-.89.1,0.2,0.49,1.68a2,2,0,0,0,.59.3q0.59,0.15,1.48.3c3.46,0.59,10,.59,12.45-1.19v-4.05C1025,217.2,1019.71,216.61,1016.11,218Z" fill="#f05a57"/><path d="M993.48,161.78a1.16,1.16,0,0,0,.69-1v-0.1a1.52,1.52,0,0,0-.69-0.69h-0.2a0.1,0.1,0,0,0-.1.1H993a1.52,1.52,0,0,0-.49,1A1,1,0,0,0,993.48,161.78Z" fill="#61aa9d"/><path d="M993.19,160a0.1,0.1,0,0,0,.1-0.1Z" fill="#61aa9d"/><path d="M992.6,161a3,3,0,0,1,.49-1A1.85,1.85,0,0,0,992.6,161Z" fill="#61aa9d"/><path d="M1027.47,246.25h-19.76c-3.75,7.9-10.08,13.73-20.35,13.53a12,12,0,0,1-1.88-.1c-0.59-.1-1.19-0.1-1.78-0.2-7.8-1.19-12.94-4.84-16.4-9.88-5.33-7.31-7.51-17.39-8.89-26.77-0.2-1.09-.3-2-0.49-3-1.38-5-5.63-8.1-6.62-12.35-0.1-.2-0.1-0.49-0.2-0.79a3,3,0,0,1-.1-1v-0.1a5,5,0,0,1,1.38-4.05l0.1-.1a0.38,0.38,0,0,0,.2-0.2c4.05-3.46,14.62-.59,19-0.1,2,0.2,4.05.49,6.22,0.79,9.68,1.48,19.86,4.25,27,10.27,0.2,0.1.3,0.3,0.49,0.4a1.36,1.36,0,0,0,.4.3,23.21,23.21,0,0,1,4.74,5.93c0.1,0.1.2,0.3,0.3,0.4s0.1,0.2.2,0.3a21.77,21.77,0,0,1,1.19,2.67c0.1-2.27,1.78-3.85,4.05-4.54,3.66-1.28,8.89-.79,11.07,1.28V201.59H984v-2.17a67.06,67.06,0,0,1-14.52-.89,11.26,11.26,0,0,1,1.88-1A51.37,51.37,0,0,1,984,193.39v-4.74h26.08a61,61,0,0,1,10.47-2.37,12.9,12.9,0,0,1,6.22.4,9.52,9.52,0,0,1,3.06,2h0.1V158.12H945.27V277.37h86.45V256.23A34.16,34.16,0,0,1,1027.47,246.25Z" fill="#61aa9d"/><path d="M1124.39,214.24c-0.1.1-.3,0.1-0.4,0.2-0.3.1-.49,0.2-0.79,0.3-5.43,2.17-12.45,2.27-16.1,7-2.07,2.67-2.67,3.16-1,6.72,1.28,1.78,5.63,1.88,10.67.49s7.9-5.63,12.74-7.8A31.43,31.43,0,0,0,1124.39,214.24Z" fill="#f05a57"/><path d="M1115.1,227.48c4.94-1.88,9.68-4.05,14.42-6.22v-0.1C1124.68,223.33,1119.94,225.6,1115.1,227.48Z" fill="#f05a57"/><path d="M1124.39,214.24h0c-0.1.1-.3,0.1-0.4,0.2A1.45,1.45,0,0,1,1124.39,214.24Z" fill="#f05a57"/><path d="M1090.3,156.94h-1.43c-0.79,1.28-1.68,2.47-2.47,3.75-2.87,4.05-12.94,16.3-15,18.77-0.79.89-1.28,1.48-1.28,1.48-4.15,4.05-18.18,12.65-10,14.92a8.35,8.35,0,0,0,5.14-.69c8.3-4.64,15.41-18.77,19.86-24.7,2.57-3.46,6.32-8.2,9.58-13.34A35,35,0,0,0,1090.3,156.94Z" fill="#f05a57"/><path d="M136.93,158.12H90.3L128,215.23,110.95,241.9A60.69,60.69,0,0,1,114.7,251c0.1,0.49.3,1,.4,1.48,0.1,0.2.1,0.49,0.2,0.69,0.69,2.47,1,7.51,3.26,10.08a6.21,6.21,0,0,0,5.24.89c5-1.19,6.62-12.65,8.3-17,6.22-16,12.35-32.11,18.38-48.11,1-2.67,2.17-5.83,3.26-9.39Z" fill="#53b8ce"/><path d="M114.6,251a60.69,60.69,0,0,0-3.75-9.09V242A65.2,65.2,0,0,1,115,252.57,5.23,5.23,0,0,0,114.6,251Z" fill="#53b8ce"/><path d="M123.64,264c-2.17.49-3.75,0.2-4.84-.69,1.38,1.58,3.36,2.17,6.22.49,3.85-2.17,5.43-12.84,7-16.8C130.31,251.46,128.73,262.85,123.64,264Z" fill="#53b8ce"/><path d="M308.24,218.19c-5.83.69-9.29,3.46-11.56,7.31-2,3.56-3,8.1-3.85,13a41.75,41.75,0,0,0,16.89-7.8A33.52,33.52,0,0,0,319,219.28c-2.27-.4-4.54-0.79-6.92-1.09C313.48,218.39,309.92,218.29,308.24,218.19Z" fill="#53b8ce"/><path d="M311.35,218.09c0.3,0,.59.1,0.89,0.1A2.19,2.19,0,0,0,311.35,218.09Z" fill="#53b8ce"/><path d="M332.84,222.34v10.18a13.71,13.71,0,0,1,1.68-.3c3.85-.89,11.16,5,8.2,4.74h-0.3a2.24,2.24,0,0,0-.4-0.1c0.89,0.2-2.77-.49,0,0-1.28-.2-7-1.28-9.09-2.47v8c6.82,1.09,18.87,2.67,25.69,5.63a3,3,0,0,1,.79.4h0.1c2.67,1.28,4.35,2.87,4.15,4.84,0.4-4-.49,8.69,0,0a24.23,24.23,0,0,1-.2,2.67,125.82,125.82,0,0,1-4.25,21.54h11c2.57-9.39,7.31-21.24,7-31.12h-5.43V233.5a18.67,18.67,0,0,0-5.73-3.36c-1.19-.49-2.37-0.89-3.66-1.38-6.72-2-14.23-3-20.85-4.35C338.67,223.72,335.8,223,332.84,222.34Z" fill="#53b8ce"/><path d="M308.24,218.19c1-.1,2.07-0.2,3.16-0.2C306.76,218.09,306.86,218.19,308.24,218.19Z" fill="#53b8ce"/><path d="M341.54,224.41c6.62,1.38,14,2.37,20.85,4.35a201.68,201.68,0,0,0-29.54-7.61v1.19C335.8,223,338.67,223.72,341.54,224.41Z" fill="#53b8ce"/><path d="M312.29,218.19c2.27,0.3,4.54.59,6.92,1.09a0.35,0.35,0,0,1,.1-0.2c-2.67-.4-5.33-0.69-7.9-1A2.19,2.19,0,0,1,312.29,218.19Z" fill="#53b8ce"/><path d="M311.35,218.09c-1.09,0-2.17.1-3.16,0.2h0.1A14.49,14.49,0,0,1,311.35,218.09Z" fill="#53b8ce"/><path d="M312.29,218.19c-0.3,0-.59-0.1-0.89-0.1a28.17,28.17,0,0,0-3.06.2C309.92,218.29,313.48,218.39,312.29,218.19Z" fill="#53b8ce"/><path d="M296.78,225.5c-2.07,3.56-3.16,8.2-4,13.14H293C293.82,233.6,294.71,229.06,296.78,225.5Z" fill="#53b8ce"/><path d="M153.92,239.33l0.69,1.38c1.48-1.48,2.87-2.87,4.45-4.25l0.1-.1,0.4-.4,4.74-4.45,0.59-.59,0.4-.4,1.58-1.58a76,76,0,0,0,20-38.53A85.17,85.17,0,0,0,187,158h-16.3l-11.07,21c-1.88,6.82-4.15,13.53-6.62,20.15-0.49,1.28-1,2.67-1.38,4-1.88,5.24-4,10.47-6,15.61-3.85,9.88-7.9,19.66-11.86,29.54-0.2.4-.3,0.79-0.59,1.38,0,0.1-.1.2-0.1,0.3-1.38,3.75-4.94,10.27-1.78,13.34a8.14,8.14,0,0,0,3.06,1.28,10.92,10.92,0,0,0,7.31-2.87,1.36,1.36,0,0,0,.3-0.4,14.35,14.35,0,0,0,1.68-3.85,29.64,29.64,0,0,1,2.07-6.13,9,9,0,0,1,.79-1.28c0.1-.1.1-0.2,0.2-0.3a3.47,3.47,0,0,0,.49-0.79,49,49,0,0,1,4.54-5.43Z" fill="#f05a57"/><path d="M143.65,257.61a14.35,14.35,0,0,1-1.68,3.85A9.28,9.28,0,0,0,143.65,257.61Z" fill="#f05a57"/><path d="M145.62,218.86c-4.15,10.27-8.5,20.55-12.35,30.92,0.2-.49.4-1,0.59-1.38C137.72,238.54,141.67,228.74,145.62,218.86Z" fill="#f05a57"/><path d="M159.55,236l-0.4.4Z" fill="#f05a57"/><path d="M164.79,231l-0.59.59A1.68,1.68,0,0,1,164.79,231Z" fill="#f05a57"/><path d="M134.36,264.72c2.77,0.59,5.73-1.28,7.31-2.87C140.19,263.14,137.13,264.92,134.36,264.72Z" fill="#f05a57"/><path d="M159.65,179.17l-0.1.2c-1.88,6.72-4.15,13.34-6.42,19.86C155.5,192.7,157.78,186,159.65,179.17Z" fill="#f05a57"/><path d="M159,236.57c-1.48,1.38-3,2.77-4.45,4.25h0C156,239.33,157.48,237.95,159,236.57Z" fill="#f05a57"/><path d="M186.72,190.53a76,76,0,0,1-20,38.53c-0.49.49-1,1.09-1.58,1.58,1.09-1.09,2.07-2.07,3.06-3.26a76.07,76.07,0,0,0,19-39.42,84.06,84.06,0,0,0-.2-29.84h-0.15A85.18,85.18,0,0,1,186.72,190.53Z" fill="#f05a57"/><path d="M147.2,249.21a3.47,3.47,0,0,0-.49.79A3.47,3.47,0,0,1,147.2,249.21Z" fill="#f05a57"/><path d="M146.51,250.3a14.62,14.62,0,0,0-.79,1.28A5.6,5.6,0,0,1,146.51,250.3Z" fill="#f05a57"/><path d="M188.6,255.14c0.3,0-2.07.3,0,0h0Z" fill="#f05a57"/><path d="M187.86,255.42a1.83,1.83,0,0,1,.69-0.2C187.61,255.34,187.61,255.42,187.86,255.42Z" fill="#f05a57"/><path d="M184.9,248.62a6.25,6.25,0,0,0-3-.4A6.16,6.16,0,0,1,184.9,248.62Z" fill="#f05a57"/><path d="M210.93,263.93L207.77,259c-6.22-3.75-17.39-8.79-22.92-10.37a6.25,6.25,0,0,0-3-.4c-2.17.89-2.37,13-2.17,21.83,0.1,3,.3,5.63.4,7.31h0.79c2.27-9.09,3-19.86,6.42-21.64-0.3,0,0,1.68,1.09,3.75,2.17,4.35,7.61,11.36,13.24,17.88h5.73c-1.78-1.48-3.26-2.77-4.05-3.56l-0.2-.2c-2.47-2.87-7.21-6.72-10.67-10.67a14.82,14.82,0,0,1-3.46-5.73C192.55,255,206.28,265.12,210.93,263.93Z" fill="#f05a57"/><path d="M192.75,263a15.58,15.58,0,0,1-3.46-5.73A13.71,13.71,0,0,0,192.75,263Z" fill="#f05a57"/><path d="M203.52,273.81a0.38,0.38,0,0,0-.2-0.2A0.38,0.38,0,0,0,203.52,273.81Z" fill="#f05a57"/><path d="M140.52,266.7c-5.48-2.47-18.14.1-21.92,0.2h-0.4c-2.79,0-11.16-1.58-14.75.59-1.2.89-1.79,3.16-1.3,5,0.9,4.15,8.17,4.35,14.95,3.85,4.78-.4,9.47-1.09,11.66-0.69-5.28-.89,4.09-0.79,0,0,1.59-.3,4.68-0.3,7.67-0.69Z" fill="#53b8ce"/><path d="M128.43,275.79c4-.79-5.24-0.89,0,0h0Z" fill="#53b8ce"/><path d="M101.91,272.53a3.81,3.81,0,0,1,1.28-4.05c-1.68,1-2.37,2.67-1,5.24,1.78,3.36,8.3,3.26,14.52,2.77C110.06,276.87,102.9,276.78,101.91,272.53Z" fill="#53b8ce"/><path d="M340.74,168.2h0c0.1,0,.1-0.1,0,0C340.84,168.1,340.84,168.2,340.74,168.2Z" fill="#82c1b5"/><path d="M340.84,168.1h0c0-.1-0.2,0-0.2,0l-0.1.3a0.74,0.74,0,0,1,.3-0.3h0Z" fill="#82c1b5"/><path d="M1080.82,246.64a41.36,41.36,0,0,1-4.15-1c-3,2.77-8.79,7.9-9.39,11.07h0a1.63,1.63,0,0,0,0,.69C1067.48,261.17,1075,253.36,1080.82,246.64Z" fill="#82c1b5"/><path d="M1055.53,261.07c-0.2,0-.3-0.1-0.49-0.1A1.06,1.06,0,1,0,1055.53,261.07Z" fill="#82c1b5"/><path d="M1067.09,242.3l-0.1.1a68.44,68.44,0,0,0-7.71,9.48c-3.06,4.45-5,8.4-3.85,9a0.59,0.59,0,0,1,.4.1c0.89-.1,2.07-0.89,3.56-2.27a71.21,71.21,0,0,0,9.58-12.45c0.59-.89,1.09-1.78,1.58-2.57A28,28,0,0,1,1067.09,242.3Z" fill="#82c1b5"/><path d="M1055.73,261.07c1.09,0,2.27-1,3.46-2.27a8.35,8.35,0,0,1-3.46,2.27h0Z" fill="#82c1b5"/><path d="M1055.28,261c0.1,0,.1.1,0.2,0.1h0.2A2.24,2.24,0,0,0,1055.28,261Z" fill="#82c1b5"/><path d="M1055,261a4.28,4.28,0,0,0,.49.1,0.2,0.2,0,0,1-.2-0.1H1055Z" fill="#82c1b5"/><path d="M332.84,277.37h26.28c1.88-7.11,3.66-14.33,4.25-21.54,0.1-.89.1-1.78,0.2-2.67,0.2-1.88-1.48-3.56-4.15-4.84h-0.1a3,3,0,0,1-.79-0.4c-7.21-3.06-20.15-4.45-25.69-5.43v34.87h0Z" fill="#f05a57"/><path d="M358.53,247.93c-6.82-3-18.87-4.54-25.69-5.63v0.2C338.37,243.48,351.32,244.87,358.53,247.93Z" fill="#f05a57"/><path d="M363.57,253.16c-0.4,8.69.49-4,0,0h0Z" fill="#f05a57"/><path d="M363.57,253.16a24.23,24.23,0,0,1-.2,2.67A24.23,24.23,0,0,0,363.57,253.16Z" fill="#f05a57"/><path d="M359.32,248.22h0.1C359.42,248.32,359.32,248.32,359.32,248.22Z" fill="#f05a57"/><path d="M332.84,234c2.27,1.28,8.3,2.67,9.09,2.87,0.1,0,.3.1,0.4,0.1h0.3c2.67,0.2-4.64-5.14-8.2-4.74a12.05,12.05,0,0,0-1.68.49V234h0.1Z" fill="#a5d6cd"/><path d="M342.62,237c3,0.3-4.25-5.63-8.2-4.74C338,231.82,345.29,237.16,342.62,237Z" fill="#a5d6cd"/><path d="M341.93,236.86c-2.77-.49.89,0.2,0,0h0Z" fill="#a5d6cd"/><path d="M332.84,234v0.3c2.07,1.19,7.9,2.27,9.09,2.47C341,236.65,335.06,235.28,332.84,234Z" fill="#a5d6cd"/><path d="M342.42,237c0-.1-0.1-0.1,0,0C342.33,236.86,342.42,236.86,342.42,237Z" fill="#a5d6cd"/><g opacity="0.5"><path d="M617.3,81.62l-0.5.5a1.42,1.42,0,0,1-.6.2,1.22,1.22,0,0,1-.9-0.4c-0.3-.3-0.7-0.6-1.2-1a14.51,14.51,0,0,0-1.8-1,6.77,6.77,0,0,0-2.6-.4,8.81,8.81,0,0,0-2.9.5,6,6,0,0,0-2.1,1.4,5.33,5.33,0,0,0-1.3,2,7,7,0,0,0-.5,2.5,3.8,3.8,0,0,0,.6,2.2,4.63,4.63,0,0,0,1.6,1.5,11.29,11.29,0,0,0,2.2,1.1c0.8,0.3,1.7.7,2.6,1s1.7,0.7,2.6,1.1a8.56,8.56,0,0,1,2.2,1.5,6.91,6.91,0,0,1,1.6,2.2,7.45,7.45,0,0,1,.6,3.1,12,12,0,0,1-7.4,11.5,12.38,12.38,0,0,1-5.2,1,12,12,0,0,1-5.7-1.3,11.52,11.52,0,0,1-4.1-3.4l1.7-2.2a2.36,2.36,0,0,1,.5-0.5,1.42,1.42,0,0,1,.6-0.2,1.37,1.37,0,0,1,1,.6,8.7,8.7,0,0,0,1.4,1.2,8.54,8.54,0,0,0,5.2,1.8,10.07,10.07,0,0,0,3.1-.5,9.74,9.74,0,0,0,2.4-1.5,7.64,7.64,0,0,0,1.5-2.3,9.43,9.43,0,0,0,.5-3,4.14,4.14,0,0,0-.6-2.3,4.63,4.63,0,0,0-1.6-1.5,11.29,11.29,0,0,0-2.2-1.1c-0.8-.3-1.7-0.6-2.5-0.9s-1.7-.7-2.6-1.1a8.56,8.56,0,0,1-2.2-1.5,7.85,7.85,0,0,1-1.6-2.3,8.11,8.11,0,0,1-.6-3.3,11.12,11.12,0,0,1,6.7-10.3,12.25,12.25,0,0,1,4.9-.9,11,11,0,0,1,4.9,1,9.44,9.44,0,0,1,3.6,2.9Z" fill="#fff"/><path d="M620.6,111.84L625,75h4.5l-2.1,17.1a14.57,14.57,0,0,1,4.4-4.5,9.32,9.32,0,0,1,4.9-1.5,5.22,5.22,0,0,1,4.4,1.9,8.78,8.78,0,0,1,1.6,5.5v1c0,0.4-.1.7-0.1,1.1l-1.9,16.1h-4.55l1.9-16.1c0-.3.1-0.7,0.1-1v-0.9a5.22,5.22,0,0,0-.8-3.1,2.72,2.72,0,0,0-2.4-1,4.93,4.93,0,0,0-2.3.6,9.12,9.12,0,0,0-2.3,1.7,14.85,14.85,0,0,0-2.1,2.7,28.48,28.48,0,0,0-1.7,3.5l-1.6,13.4h-4.4v0.3h0Z" fill="#fff"/><path d="M665.5,111.84h-2.35a1.36,1.36,0,0,1-1.2-.5,2,2,0,0,1-.3-1.1l0.4-5.1a20.75,20.75,0,0,1-1.9,2.9,11.45,11.45,0,0,1-2.2,2.2,10,10,0,0,1-2.4,1.4,8,8,0,0,1-2.6.5,6,6,0,0,1-2.7-.6,6.84,6.84,0,0,1-2.1-1.7,8,8,0,0,1-1.3-2.8,14.58,14.58,0,0,1-.5-3.8,16.12,16.12,0,0,1,.6-4.4,17.6,17.6,0,0,1,1.6-4,20.45,20.45,0,0,1,2.5-3.5,16.92,16.92,0,0,1,3.2-2.8,14.65,14.65,0,0,1,3.8-1.8,15.4,15.4,0,0,1,4.3-.6,17.33,17.33,0,0,1,3.2.3,17.1,17.1,0,0,1,3,.9Zm-10.9-3.3a3.84,3.84,0,0,0,2.4-.8,8.65,8.65,0,0,0,2.15-2.12,16,16,0,0,0,2-3.2,37,37,0,0,0,1.6-4l1.1-8.6a1.67,1.67,0,0,0-1.1-.4h-1.1a9.29,9.29,0,0,0-2.9.5,9.39,9.39,0,0,0-2.6,1.4,11,11,0,0,0-2.2,2.1,12.35,12.35,0,0,0-1.7,2.7,16.29,16.29,0,0,0-1.1,3.1,12.67,12.67,0,0,0-.4,3.4c0,3.92,1.25,5.92,3.85,5.92h0Z" fill="#fff"/><path d="M672.1,111.84l3.1-25.3h2.2a1.8,1.8,0,0,1,1.1.3,1.16,1.16,0,0,1,.4,1V89l-0.4,4.6a19.47,19.47,0,0,1,3.6-5.4,6,6,0,0,1,4.2-1.9,5.37,5.37,0,0,1,2.1.5l-0.8,4.3a6.35,6.35,0,0,0-2.3-.5A5.36,5.36,0,0,0,681,93a20.27,20.27,0,0,0-3.2,7.2L676.4,112h-4.3v-0.2h0Z" fill="#fff"/><path d="M709,91.94a6,6,0,0,1-.7,3,6.63,6.63,0,0,1-2.5,2.5,18.7,18.7,0,0,1-5,1.9,57.3,57.3,0,0,1-8.1,1.3v1a7.76,7.76,0,0,0,1.5,5.1,5.31,5.31,0,0,0,4.4,1.8,12.48,12.48,0,0,0,2.1-.2c0.6-.2,1.2-0.4,1.7-0.6a5.67,5.67,0,0,0,1.3-.8c0.4-.3.7-0.6,1-0.8l0.9-.6a1.2,1.2,0,0,1,.8-0.2,0.91,0.91,0,0,1,.8.4l1.1,1.4a26.14,26.14,0,0,1-2.5,2.3,21.28,21.28,0,0,1-2.5,1.6,12.24,12.24,0,0,1-2.7.9,13.86,13.86,0,0,1-3,.3,9.69,9.69,0,0,1-3.9-.7,8.64,8.64,0,0,1-2.9-2.1,11.3,11.3,0,0,1-1.9-3.2,14.21,14.21,0,0,1-.6-4.2,17.22,17.22,0,0,1,.4-3.9,22.85,22.85,0,0,1,1.2-3.7,16.89,16.89,0,0,1,1.9-3.2,12.81,12.81,0,0,1,2.6-2.6,14.09,14.09,0,0,1,3.2-1.7,11.64,11.64,0,0,1,3.8-.6,10.42,10.42,0,0,1,3.3.5,7.44,7.44,0,0,1,2.3,1.4,5.86,5.86,0,0,1,1.3,1.9A5.12,5.12,0,0,1,709,91.94Zm-7.7-2.5a7.17,7.17,0,0,0-2.9.6,6.9,6.9,0,0,0-2.4,1.8,10.6,10.6,0,0,0-1.8,2.7,11.65,11.65,0,0,0-1.1,3.3,47.8,47.8,0,0,0,6.2-1.1,14.56,14.56,0,0,0,3.6-1.3,3.9,3.9,0,0,0,1.6-1.5,4.71,4.71,0,0,0,.4-1.7,2.92,2.92,0,0,0-.2-0.9,2.36,2.36,0,0,0-.6-0.9,4.13,4.13,0,0,0-1.1-.7,4.31,4.31,0,0,0-1.7-.3h0Z" fill="#fff"/></g><g opacity="0.5"><g clip-path="url(#a)"><g opacity="0.5"><g clip-path="url(#a)"><rect x="720.7" y="99.54" width="408.1" height="1" fill="#fff"/></g></g><g clip-path="url(#c)"><g opacity="0.5"><g clip-path="url(#d)"><rect x="506.2" y="53.84" width="82" height="82" fill="#fff"/></g></g></g><g opacity="0.5"><path d="M575.15,83.62a43.53,43.53,0,0,0-83.08,26c0.27,0.86.57,1.71,0.89,2.54h0l0.06,0.16v0.12a2.72,2.72,0,0,0,5.09-1.9,2.68,2.68,0,0,0-.1-0.27q-0.43-1.12-.79-2.27a38.08,38.08,0,1,1,9.62,15.76l-0.19-.14a2.72,2.72,0,0,0-3.63,4h0A43.53,43.53,0,0,0,575.15,83.62Z" fill="#fff"/><path d="M556.55,94.19l-35.4-19a2.72,2.72,0,0,0-3.58,1.16h0l-0.06.1v0.12h0l-0.07.2v0.06a0.44,0.44,0,0,1,0,.2v38.77a2.72,2.72,0,0,0,3.9,2.5l35.26-19.06A2.81,2.81,0,0,0,556.55,94.19Zm-33.84-12,27,14.55-27,14.55V82.14Z" fill="#fff"/></g></g></g><g opacity="0.5"><path d="M573.11,73.46a42,42,0,0,0-80.22,25.12c0.26,0.83.55,1.65,0.86,2.45h0l0.06,0.15,0,0.11a2.63,2.63,0,0,0,4.91-1.84,2.59,2.59,0,0,0-.1-0.26q-0.41-1.08-.76-2.2a36.77,36.77,0,1,1,9.28,15.22L507,112a2.62,2.62,0,0,0-3.51,3.91h0A42,42,0,0,0,573.11,73.46Z" fill="#fff"/><path d="M555.16,83.66L521,65.26a2.62,2.62,0,0,0-3.46,1.12h0l-0.05.1,0,0.11,0,0-0.07.19,0,0.06q0,0.09,0,.19v0.07q0,0.09,0,.18v0.08q0,0.08,0,.17s0,0,0,.06v36.78s0,0,0,.06a2.62,2.62,0,0,0,3.77,2.42l34.15-18.4A2.71,2.71,0,0,0,555.16,83.66ZM522.49,72l26.08,14.05-26.08,14.05V72Z" fill="#fff"/></g></svg>