<?xml version="1.0" standalone="no"?><!-- Generator: Adobe Fireworks CS6, Export SVG Extension by Aaron Beall (http://fireworks.abeall.com) . Version: 0.6.1  --><!DOCTYPE svg PUBLIC "-//W3C//DTD SVG 1.1//EN" "http://www.w3.org/Graphics/SVG/1.1/DTD/svg11.dtd"><svg id="Untitled-Page%201" viewBox="0 0 150 100" style="background-color:#ffffff00" version="1.1"	xmlns="http://www.w3.org/2000/svg" xmlns:xlink="http://www.w3.org/1999/xlink" xml:space="preserve"	x="0px" y="0px" width="150px" height="100px">	<path d="M 134.791 34.9375 C 134.791 32.8567 133.0997 31.1694 131.0127 31.1694 C 128.9261 31.1694 127.2344 32.8567 127.2344 34.9375 L 127.2344 91.4014 L 21.5568 91.4014 L 21.5568 8.5591 L 121.9971 8.5591 L 74.437 55.9929 L 39.3183 20.9685 C 37.8295 19.4834 35.4159 19.4834 33.9279 20.9685 C 32.4391 22.4534 32.4384 24.8596 33.9279 26.3452 L 71.6641 63.9807 C 71.7696 64.0859 71.8805 64.1816 71.9951 64.2717 C 73.475 65.4978 75.6379 65.4536 76.9821 64.113 L 133.321 7.9236 C 134.3333 7.2473 135 6.0969 135 4.791 C 135 2.9347 133.6532 1.3955 131.8821 1.0836 C 131.4846 0.9979 131.0791 0.979 130.6804 1.0226 L 17.8693 1.0226 C 17.8539 1.0226 17.8391 1.0245 17.8237 1.0247 C 17.8085 1.0245 17.7938 1.0226 17.7784 1.0226 C 15.6917 1.0226 14 2.7095 14 4.791 L 14 95.2319 C 14 97.3127 15.6917 99 17.7784 99 C 18.0055 99 18.2269 98.9763 18.4429 98.938 L 130.3481 98.938 C 130.564 98.9763 130.7854 99 131.0127 99 C 131.4326 99 131.8354 98.9287 132.2131 98.8025 C 133.8177 98.3679 135 96.9084 135 95.1694 C 135 94.7395 134.9243 94.3281 134.791 93.9429 L 134.791 34.9375 Z" fill="#ffffff"/></svg>