<?xml version="1.0" standalone="no"?><!-- Generator: Adobe Fireworks CS6, Export SVG Extension by Aaron Beall (http://fireworks.abeall.com) . Version: 0.6.1  --><!DOCTYPE svg PUBLIC "-//W3C//DTD SVG 1.1//EN" "http://www.w3.org/Graphics/SVG/1.1/DTD/svg11.dtd"><svg id="Untitled-Page%201" viewBox="0 0 300 500" style="background-color:#ffffff00" version="1.1"	xmlns="http://www.w3.org/2000/svg" xmlns:xlink="http://www.w3.org/1999/xlink" xml:space="preserve"	x="0px" y="0px" width="300px" height="500px">	<path d="M 149.5 7 C 66.3819 7 -1 74.8485 -1 158.5464 C -1 163.6573 -0.7399 168.7068 -0.2483 173.6873 C -0.2483 173.7061 -0.2513 173.724 -0.2513 173.7428 C -0.2513 174.8894 -0.1131 176.0017 0.1272 177.0754 C 1.643 183.8391 7.6594 188.896 14.8633 188.896 C 23.2112 188.896 29.9785 182.1116 29.9785 173.7428 C 29.9785 173.3746 29.9491 173.0135 29.9234 172.652 C 29.872 172.2098 29.8147 171.7694 29.7684 171.3258 C 29.3289 167.1261 29.0968 162.864 29.0968 158.5464 C 29.0968 91.5864 83.0035 37.3058 149.5 37.3058 C 215.9958 37.3058 269.9032 91.5864 269.9032 158.5464 C 269.9032 174.229 266.8899 189.8729 260.9917 204.3912 C 255.2766 218.4609 246.9014 231.4023 236.4581 242.3765 C 225.3246 254.0775 211.953 262.2069 197.79 269.6115 C 178.8326 279.5214 162.2353 293.3718 149.0665 310.0883 C 128.7019 335.9375 116.5347 368.6318 116.5347 404.1919 C 116.5347 413.2913 117.3664 422.1904 118.8947 430.8467 C 119.6046 438.5505 126.0361 444.5835 133.8719 444.5835 C 141.5225 444.5835 147.8254 438.8301 148.7807 431.3877 C 148.8629 430.7456 148.9203 430.0955 148.9203 429.4307 C 148.9203 428.4626 148.8211 427.5188 148.6491 426.6038 C 148.6667 426.6023 148.6845 426.5986 148.7029 426.5974 C 147.3514 419.3364 146.6314 411.8499 146.6314 404.1919 C 146.6314 388.5229 149.6396 372.8931 155.5267 358.3857 C 161.2323 344.3264 169.5935 331.3931 180.02 320.4211 C 185.2068 314.9619 190.8977 309.9904 196.9971 305.5907 C 204.5757 300.1248 212.9691 296.3077 221.1239 291.8561 C 228.8706 287.6268 236.2463 282.71 243.1417 277.1843 C 252.142 269.9722 260.3202 261.7244 267.4681 252.6508 C 287.8326 226.8009 300 194.1061 300 158.5464 C 300 74.8485 232.6181 7 149.5 7 Z" fill="#ffffff"/>	<path d="M 132.7704 461.6941 C 124.4593 461.6941 117.722 468.478 117.722 476.8469 C 117.722 485.2153 124.4593 492 132.7704 492 C 141.0817 492 147.8188 485.2153 147.8188 476.8469 C 147.8188 468.478 141.0817 461.6941 132.7704 461.6941 Z" fill="#ffffff"/></svg>