<?xml version="1.0" encoding="utf-8"?>
<!-- Generator: Adobe Illustrator 21.0.2, SVG Export Plug-In . SVG Version: 6.00 Build 0)  -->
<svg version="1.1" id="Layer_1" xmlns="http://www.w3.org/2000/svg" xmlns:xlink="http://www.w3.org/1999/xlink" x="0px" y="0px"
	 viewBox="0 0 28 24" style="enable-background:new 0 0 28 24;" xml:space="preserve">
<style type="text/css">
	.st0{fill:#FFFFFF;}
</style>
<path class="st0" d="M23.7,7c0,0.2,0,0.4,0,0.6c0,6.6-5,14.2-14.2,14.2c-2.8,0-5.4-0.8-7.7-2.2c0.4,0,0.8,0.1,1.2,0.1
	c2.3,0,4.5-0.8,6.2-2.1c-2.2,0-4-1.5-4.7-3.5c0.3,0.1,0.6,0.1,0.9,0.1c0.5,0,0.9-0.1,1.3-0.2c-2.3-0.5-4-2.5-4-4.9c0,0,0,0,0-0.1
	c0.7,0.4,1.4,0.6,2.3,0.6C3.7,8.8,2.8,7.3,2.8,5.5c0-0.9,0.2-1.8,0.7-2.5C6,6,9.7,8,13.8,8.2c-0.1-0.4-0.1-0.7-0.1-1.1
	c0-2.8,2.2-5,5-5c1.4,0,2.7,0.6,3.6,1.6c1.1-0.2,2.2-0.6,3.2-1.2c-0.4,1.2-1.2,2.1-2.2,2.8c1-0.1,2-0.4,2.9-0.8
	C25.5,5.5,24.7,6.3,23.7,7z"/>
</svg>
