<svg xmlns="http://www.w3.org/2000/svg" xmlns:xlink="http://www.w3.org/1999/xlink" viewBox="0 0 1147.3 325.12"><defs><clipPath id="a"><rect x="720.2" y="99.89" width="409" height="4" fill="none"/></clipPath><clipPath id="c"><path d="M537,82.29l29.15,14.6-29.2,14.6V82.29h0Zm10.15-21.4a36,36,0,1,0,36,36,36,36,0,0,0-36-36h0Z" fill="none"/></clipPath><clipPath id="d"><rect x="511.2" y="60.89" width="72" height="72" fill="none"/></clipPath></defs><title>Intro-svg</title><g opacity="0.5"><g clip-path="url(#a)"><g opacity="0.5"><g clip-path="url(#a)"><rect x="720.7" y="101.59" width="408.1" height="1" fill="#fff"/></g></g><g clip-path="url(#c)"><g opacity="0.5"><g clip-path="url(#d)"><rect x="506.2" y="55.89" width="82" height="82" fill="#fff"/></g></g></g><g opacity="0.5"><path d="M575.15,85.67a43.53,43.53,0,0,0-83.08,26c0.27,0.86.57,1.71,0.89,2.54h0l0.06,0.16v0.12a2.72,2.72,0,0,0,5.09-1.9,2.68,2.68,0,0,0-.1-0.27q-0.43-1.12-.79-2.27a38.08,38.08,0,1,1,9.62,15.76l-0.19-.14a2.72,2.72,0,0,0-3.63,4h0A43.53,43.53,0,0,0,575.15,85.67Z" fill="#fff"/><path d="M556.55,96.24l-35.4-19a2.72,2.72,0,0,0-3.58,1.16h0l-0.06.1v0.12h0l-0.07.2v0.06a0.44,0.44,0,0,1,0,.2V117.8a2.72,2.72,0,0,0,3.9,2.5l35.26-19.06A2.81,2.81,0,0,0,556.55,96.24Zm-33.84-12,27,14.55-27,14.55V84.19Z" fill="#fff"/></g></g></g><g opacity="0.5"><g opacity="0.75"><path d="M542.13,102.15l-1.65,13.45h-4.65l4.38-35.83h9.88a16.25,16.25,0,0,1,5,.67,9.2,9.2,0,0,1,3.46,1.93,7.84,7.84,0,0,1,2,3,10.75,10.75,0,0,1,.67,3.9,14.12,14.12,0,0,1-.92,5.19,11.27,11.27,0,0,1-2.69,4.06,12.39,12.39,0,0,1-4.35,2.66,16.89,16.89,0,0,1-5.91,1h-5.2Zm2.3-18.7-1.85,15h5.2a10,10,0,0,0,3.75-.65A7.57,7.57,0,0,0,554.25,96a7.81,7.81,0,0,0,1.67-2.78,10.4,10.4,0,0,0,.58-3.51,7.47,7.47,0,0,0-.43-2.6,5.14,5.14,0,0,0-1.27-2,5.7,5.7,0,0,0-2.15-1.25,9.5,9.5,0,0,0-3-.44h-5.2Z" fill="#fff"/><path d="M580.83,115.6h-2.3a1.35,1.35,0,0,1-1.19-.45A1.88,1.88,0,0,1,577,114l0.45-5.07a21.51,21.51,0,0,1-1.94,2.88,13.46,13.46,0,0,1-2.2,2.2,9.6,9.6,0,0,1-2.44,1.4,7.24,7.24,0,0,1-2.65.5,6.22,6.22,0,0,1-2.73-.59,5.66,5.66,0,0,1-2.09-1.73,8.38,8.38,0,0,1-1.34-2.8,13.92,13.92,0,0,1-.47-3.81,17.17,17.17,0,0,1,.56-4.39,17.84,17.84,0,0,1,4.09-7.52,16.65,16.65,0,0,1,3.24-2.75,15.35,15.35,0,0,1,3.84-1.8,14.37,14.37,0,0,1,4.3-.64,18.69,18.69,0,0,1,3.16.26,13.14,13.14,0,0,1,3,.92Zm-10.9-3.35a4.41,4.41,0,0,0,2.4-.75,9.15,9.15,0,0,0,2.22-2.08,18.08,18.08,0,0,0,2-3.16,28.53,28.53,0,0,0,1.61-4l1.07-8.56a1.74,1.74,0,0,0-1.09-.45h-1.06a8.77,8.77,0,0,0-2.9.49,10.35,10.35,0,0,0-2.62,1.36,11.65,11.65,0,0,0-2.23,2.08,13.58,13.58,0,0,0-1.71,2.66,14.93,14.93,0,0,0-1.11,3.08,14,14,0,0,0-.4,3.35Q566.08,112.25,569.93,112.25Z" fill="#fff"/><path d="M587.45,115.6l3-25.35h2.22a1.7,1.7,0,0,1,1.1.32,1.22,1.22,0,0,1,.4,1c0,0.07,0,.16,0,0.29l0,0.39c0,0.13,0,.25,0,0.35s0,0.16,0,.17l-0.35,4.6a17.45,17.45,0,0,1,3.64-5.4,6.13,6.13,0,0,1,4.24-1.9,5.29,5.29,0,0,1,2.1.45L603,94.8a6.06,6.06,0,0,0-2.27-.48,5.49,5.49,0,0,0-4.33,2.36,19.56,19.56,0,0,0-3.17,7.16l-1.4,11.75h-4.35Z" fill="#fff"/><path d="M607.2,110.82q0-.15,0-0.39c0-.16,0-0.39.05-0.69s0.06-.69.11-1.18,0.13-1.12.23-1.9L609.18,94h-2.83a0.79,0.79,0,0,1-.54-0.19,0.75,0.75,0,0,1-.21-0.59s0-.15,0-0.3l0.06-.51,0.08-.59q0-.3.06-0.57l3.9-.53,1.88-7.83a1.19,1.19,0,0,1,.38-0.61,1,1,0,0,1,.67-0.24H615l-1.1,8.72h6.65L620.18,94H613.5L612,106.45q-0.12,1-.19,1.65l-0.1,1c0,0.25,0,.42,0,0.53s0,0.17,0,.22a2.64,2.64,0,0,0,.59,1.89,2.13,2.13,0,0,0,1.61.61,3.26,3.26,0,0,0,1.15-.19,5,5,0,0,0,.86-0.41c0.24-.15.45-0.29,0.61-0.41a0.78,0.78,0,0,1,.45-0.19,0.46,0.46,0,0,1,.31.1,1.27,1.27,0,0,1,.24.32l0.92,2.13a9,9,0,0,1-2.76,1.69,8.55,8.55,0,0,1-3.14.61,5.34,5.34,0,0,1-3.83-1.33A5.2,5.2,0,0,1,607.2,110.82Z" fill="#fff"/><path d="M630.15,90.27l-3,25.33h-4.37l3-25.33h4.38Zm1.68-8a2.82,2.82,0,0,1-.26,1.21,3.47,3.47,0,0,1-.7,1,3.33,3.33,0,0,1-1,.69,2.74,2.74,0,0,1-1.15.25,2.68,2.68,0,0,1-1.12-.25,3,3,0,0,1-1-.69,3.53,3.53,0,0,1-.66-1,3,3,0,0,1-.25-1.21A3,3,0,0,1,626,81.1a3.37,3.37,0,0,1,1.65-1.71,2.59,2.59,0,0,1,1.13-.26,2.75,2.75,0,0,1,1.15.25,3.34,3.34,0,0,1,1,.69,3.24,3.24,0,0,1,.69,1A3.14,3.14,0,0,1,631.83,82.32Z" fill="#fff"/><path d="M634.73,115.6l4.47-36.83h4.38L639.1,115.6h-4.37Z" fill="#fff"/><path d="M646.38,115.6l4.45-36.83h4.45l-2.08,17.1a15,15,0,0,1,4.39-4.46,9.19,9.19,0,0,1,4.94-1.51,5.38,5.38,0,0,1,4.42,1.9,8.56,8.56,0,0,1,1.55,5.52q0,0.5,0,1t-0.1,1.11l-1.9,16.13H662l1.9-16.13q0-.5.09-1t0-.89a5,5,0,0,0-.76-3.05,2.84,2.84,0,0,0-2.41-1,5,5,0,0,0-2.31.61,9.38,9.38,0,0,0-2.31,1.74,14.67,14.67,0,0,0-2.1,2.71,20.25,20.25,0,0,0-1.7,3.54l-1.62,13.42h-4.45Z" fill="#fff"/><path d="M691.3,115.6H689a1.35,1.35,0,0,1-1.19-.45,1.87,1.87,0,0,1-.31-1.1l0.45-5.07a21.51,21.51,0,0,1-1.94,2.88,13.42,13.42,0,0,1-2.2,2.2,9.64,9.64,0,0,1-2.44,1.4,7.24,7.24,0,0,1-2.65.5,6.22,6.22,0,0,1-2.72-.59,5.68,5.68,0,0,1-2.09-1.73,8.42,8.42,0,0,1-1.34-2.8,13.92,13.92,0,0,1-.47-3.81,17.17,17.17,0,0,1,.56-4.39,17.83,17.83,0,0,1,4.09-7.52A16.65,16.65,0,0,1,680,92.36a15.36,15.36,0,0,1,3.84-1.8,14.38,14.38,0,0,1,4.3-.64,18.67,18.67,0,0,1,3.16.26,13.12,13.12,0,0,1,3,.92Zm-10.9-3.35a4.41,4.41,0,0,0,2.4-.75,9.19,9.19,0,0,0,2.23-2.08,18.2,18.2,0,0,0,2-3.16,28.53,28.53,0,0,0,1.61-4l1.08-8.56a1.74,1.74,0,0,0-1.09-.45h-1.06a8.78,8.78,0,0,0-2.9.49A10.35,10.35,0,0,0,682,95.07a11.65,11.65,0,0,0-2.22,2.08,13.45,13.45,0,0,0-1.71,2.66,15.11,15.11,0,0,0-1.11,3.08,14.1,14.1,0,0,0-.4,3.35Q676.55,112.25,680.4,112.25Z" fill="#fff"/><path d="M697.92,115.6l3-25.35h2.22a1.7,1.7,0,0,1,1.1.32,1.22,1.22,0,0,1,.4,1c0,0.07,0,.16,0,0.29l0,0.39c0,0.13,0,.25,0,0.35s0,0.16,0,.17l-0.35,4.6a17.45,17.45,0,0,1,3.64-5.4,6.13,6.13,0,0,1,4.24-1.9,5.29,5.29,0,0,1,2.1.45l-0.8,4.28a6.06,6.06,0,0,0-2.27-.48,5.49,5.49,0,0,0-4.33,2.36,19.56,19.56,0,0,0-3.17,7.16l-1.4,11.75h-4.35Z" fill="#fff"/></g></g><g opacity="0.5"><path d="M513.11,75.51a42,42,0,0,0-80.22,25.12c0.26,0.83.55,1.65,0.86,2.45h0l0.06,0.15,0,0.11a2.63,2.63,0,0,0,4.91-1.84,2.59,2.59,0,0,0-.1-0.26q-0.41-1.08-.76-2.2a36.77,36.77,0,1,1,9.28,15.22l-0.2-.2a2.62,2.62,0,0,0-3.51,3.91h0A42,42,0,0,0,513.11,75.51Z" fill="#fff"/><path d="M495.16,85.7L461,67.31a2.62,2.62,0,0,0-3.46,1.12h0l-0.05.1,0,0.11,0,0-0.07.19,0,0.06q0,0.09,0,.19v0.07q0,0.09,0,.18v0.08q0,0.08,0,.17s0,0,0,.06v36.78s0,0,0,.06a2.62,2.62,0,0,0,3.77,2.42l34.15-18.4A2.71,2.71,0,0,0,495.16,85.7ZM462.49,74.07l26.08,14.05-26.08,14.05V74.07Z" fill="#fff"/></g><g opacity="0.5"><polygon points="42.32 236.35 82.82 236.35 82.82 207.68 42.32 207.68 42.32 195.53 85.25 195.53 85.25 166.69 5.87 166.69 5.87 261.73 5.87 278.46 17.47 278.46 86.87 278.46 86.87 249.31 42.32 249.31 42.32 236.35"/><polygon points="354.13 236.35 394.63 236.35 394.63 207.68 354.13 207.68 354.13 202.55 354.13 200.45 354.13 195.53 397.06 195.53 397.06 166.69 337.18 166.69 326.68 166.69 317.69 166.69 317.69 201.72 317.69 224.55 317.69 278.46 398.68 278.46 398.68 249.31 354.13 249.31 354.13 236.35"/><path d="M736.56,208.81c0,5.35.32,12.15,0.81,20.25L712.31,180.8,705,166.69H665.29V278.46h35.64V236.35c0-4.77-.26-10.72-0.66-17.7l0.59-1.19,33.27,61H772.2V166.69H736.56v42.12Z"/><path d="M872.63,237.16l-0.16.15q-10,9.88-26,10H845.9a32.69,32.69,0,0,1-3.55-.2c-12.54-1.37-22-10.09-22-24.91,0-12.29,5.89-20.35,14.89-23.75q1.17-.44,2.4-0.78a31.61,31.61,0,0,1,8.31-1.06,33.6,33.6,0,0,1,12.63,2.75c4.37,1.78,7.45,3.08,8.91,4.21,0.79,0.62,1.53,1.14,2.18,1.61a12.53,12.53,0,0,1,1.39,1.14l0.93-3,3.38-10.7,5.41-17.12-1.3-1.13a55.86,55.86,0,0,0-12-5.67c-5.35-2.11-14.74-3.73-24-3.73-17.33,0-31.59,5.18-42.93,15.39a50,50,0,0,0-15.68,28.21,71.94,71.94,0,0,0-1.33,14.07c0,17.2,5.2,31,15.58,41.08,0.47,0.46.94,0.92,1.43,1.36,0.94,0.85,1.91,1.64,2.89,2.42a56.9,56.9,0,0,0,19,9.89c1.52,0.46,3.07.85,4.65,1.2a75.63,75.63,0,0,0,16.41,1.72c1.46,0,2.87,0,4.27-.12s3-.18,4.5-0.34a55.42,55.42,0,0,0,21.34-6.41h0q1.18-.66,2.31-1.39t2.3-1.58a43.12,43.12,0,0,0,4-3.29c0.34-.32.68-0.63,1-1l-5.58-15.45Zm-2.14,33.43h0Z"/><path d="M891.25,183.26V264a7,7,0,0,0-.34,1.45l0.34,0v13.05h36.61V166.69H891.25v16.56Z"/><path d="M1127.91,217.39c-4.05-3.4-10.37-6.64-18.63-9.39-1.46-.49-4.05-1.3-7.61-2.27l-1.82-.57L1096,204c-2.59-.65-7.78-2.11-7.78-5.18,0-2.48,2-3.91,5.91-4.37a27.1,27.1,0,0,1,3.16-.17c3.4,0,7.78,1,13,2.92a40.31,40.31,0,0,1,13.61,7.77l6.4-11.92,7.53-14c-6.74-5.73-16.22-10-26.31-12a67.83,67.83,0,0,0-13.53-1.4,72.9,72.9,0,0,0-13.78,1.22,46.57,46.57,0,0,0-12.7,4.26,1.68,1.68,0,0,0-1.68.93,35,35,0,0,0-4.72,3.31,39.66,39.66,0,0,0-5.43,5.45,34.17,34.17,0,0,0-2.89,4.13,33.56,33.56,0,0,0-4.64,17.47,35.87,35.87,0,0,0,1.46,10.49,27.94,27.94,0,0,0,8.74,13.32,29.13,29.13,0,0,0,3,2.2,74.78,74.78,0,0,0,12.35,6.06c3.34,1.14,6.43,2.18,9.31,3.11q2.41,0.77,4.63,1.43l2.25,0.65a22.05,22.05,0,0,1,5,1.86,6,6,0,0,1,3.12,4c0,2.71-2.14,4.29-6.42,4.63-0.58,0-1.19.07-1.84,0.07a31.27,31.27,0,0,1-7.1-1q-1.77-.43-3.77-1c-1-.3-2-0.63-3.07-1a51,51,0,0,1-15-8.41l-0.84-.66-0.34.58-15.63,26.58-4.43-12.75-1.65-4.73-3.1-8.91-4.84-13.92-2.61-7.49-1.75-5-7.84-22.55-1.2-3.46-2.7-7.77-4.12-11.83h-40.5l-1.9,5.46-37,106.31h38.07l4.21-15.71h31.91l1.89,6.78,2.49,8.93h39.69l-2.66-7.66-1.17-3.38-0.55-1.59c0.67,0.49,1.35,1,2,1.44,1.5,1,3,2,4.52,2.89a75.05,75.05,0,0,0,13,6.22,67.35,67.35,0,0,0,23,4c13.77,0,24.78-3.24,33-9.56q14.58-11.42,14.58-29.16C1138.44,231.49,1134.87,223.39,1127.91,217.39ZM998,234.73h-13.6l4.87-17.66,2.76-10c0.25-.61.51-1.21,0.77-1.81l4.42,16,3.7,13.44H998Z"/><polygon points="205.97 269.66 202.28 263.88 195.3 252.97 174.33 220.15 209.48 166.69 165.75 166.69 150.04 196.66 135.82 169.83 134.16 166.69 108.31 166.69 90.43 166.69 125.74 220.15 88.48 278.46 132.22 278.46 150.04 242.83 166.17 275.1 167.85 278.46 211.59 278.46 205.97 269.66 205.97 269.66"/><polygon points="607.79 236.35 648.28 236.35 648.28 207.68 607.79 207.68 607.79 195.53 650.72 195.53 650.72 166.69 571.34 166.69 571.34 278.46 630.29 278.46 652.33 278.46 652.33 275.64 652.33 269.09 652.33 249.31 607.79 249.31 607.79 236.35"/><polygon points="611.03 148.88 618.64 161.84 642.13 161.84 629.17 138.35 592.73 138.35 579.77 161.84 603.25 161.84 611.03 148.88"/><path d="M491.47,242.28l-3.7-6.26a44.35,44.35,0,0,0,5-3.47c9.12-7.3,13.64-17.33,13.64-30.23a35.07,35.07,0,0,0-3.3-15.51,29.59,29.59,0,0,0-3.68-5.75,33.43,33.43,0,0,0-6.79-6.28c-7.61-5.35-18.47-8.1-32.4-8.1H411.63V278.46h36.61V241.21h4.7l12.22,25.55,5.6,11.71h42.12l-6.49-11Zm-26.06-30.55c-1.62,1.3-4.37,1.94-8.1,1.94h-9.23V194.23h9.23c3.73,0,6.32.65,8.1,2.11a8.54,8.54,0,0,1,4.05,7.61A9,9,0,0,1,465.41,211.73Z"/><path d="M543.86,166.69H518.54V278.46h36.61V166.69H543.86Zm5.12,3.91h0Zm0,0h0c-0.61-.5-1.29-1-2-1.44,0.69,0.47,1.38.93,2,1.44h0Z"/><path d="M296.14,175.6c-5.91-4.75-13.65-7.56-23.22-8.52a78.58,78.58,0,0,0-7.88-.39h-48.6v94.2h0v9.68h0v7.88h36.61V243.64h12c13.28,0,23.65-2.92,31.1-8.91a31.06,31.06,0,0,0,9.09-11.54,42.48,42.48,0,0,0,3.54-17.94c0-.94,0-1.86-0.07-2.76Q307.87,184.86,296.14,175.6Zm-28.25,38.48-0.1.08c-1.94,1.3-4.86,1.94-8.91,1.94h-6V194.23h6c4,0,7,.65,8.91,2.11,2.75,1.78,4,4.86,4,8.91S270.58,212.29,267.89,214.08Z"/></g><path d="M445.06,215q1.81,4,3.87,7.94Q446.87,219,445.06,215Z"/><path d="M432.12,163.69h0A150.62,150.62,0,0,0,445.06,215,150.6,150.6,0,0,1,432.12,163.69Z"/><path d="M546,167.6h0c-1.62-1.34-3.8-2.43-5.14-3.91h0C542.19,165.17,544.37,166.26,546,167.6Z"/><path d="M549.7,168.48l-0.2-.13Z"/><path d="M545.83,164c0-.11-0.09-0.22-0.13-0.33h0C545.74,163.81,545.79,163.92,545.83,164Z"/><path d="M867.49,267.58h0Z"/><path d="M832.19,195.5c-0.05-.22-0.1-0.43-0.14-0.65,0,0.22.09,0.43,0.14,0.65h0Z"/><path d="M914.13,243.67l0,0.05Z"/><polygon points="900.22 252.31 900.22 252.31 900.28 252.37 900.22 252.31"/><path d="M83.87,275.46V246.31H39.32v-13h40.5V204.68H39.32V192.53H82.25V163.69H2.87v95q5.8,8.36,11.6,16.74h69.4Z" fill="#9cd1c8"/><path d="M190.29,265.92q1.5,0,3,.08c3.22,0.13,6.45.38,9.67,0.66l-3.69-5.77c-3.35,2.68-7.35,3.93-13.34.91A27.74,27.74,0,0,1,192.3,250l-21-32.82,35.15-53.45H162.75l-15.71,30-14.21-26.83a56.65,56.65,0,0,1-7,.42c-3.16,0-6.51-.59-9.45.23-6.07,1.7-9.34-.07-11.07-3.79H87.43l35.31,53.45L85.48,275.46h43.74L147,239.83l16.14,32.27C171.39,266.64,180.76,265.78,190.29,265.92Z" fill="#9cd1c8"/><path d="M228.06,271.61c-0.36.66-2,.61-3.11,0.89a36.15,36.15,0,0,0,2.62,3h9.71a15.24,15.24,0,0,1,7.92,0h4.86V240.64h12c13.28,0,23.65-2.92,31.1-8.91a31.06,31.06,0,0,0,9.09-11.54c-12.65-2.16-25-5.6-37.34-9.11l-0.1.08c-1.94,1.3-4.86,1.94-8.91,1.94h-6V191.23h2.77c1.79-9.21,3.71-18.38,5.72-27.54H224.13l10.17,8.46a72.5,72.5,0,0,1-18.8-8.46h-2.05V243.2l0.25,0C223.32,244.71,232.68,263,228.06,271.61Z" fill="#9cd1c8"/><path d="M213.45,267.58l0.88,0.07c-0.66-3.18-.56-6.51-0.88-9.75v9.68Z" fill="#9cd1c8"/><path d="M314.68,221.55v53.91h81V246.31H351.13v-13h40.5V204.68h-40.5v-5.12c-4-.74-7.93-1.59-11.89-2.53,4,0.16,7.92.29,11.89,0.43v-4.92h42.93V163.69H334.18q-5.16,23.58-10.25,47.17C322.32,218.31,320.21,221.25,314.68,221.55Z" fill="#9cd1c8"/><path d="M476.5,216.77a32.58,32.58,0,0,0,4.05,11.33,126,126,0,0,0,7.92,11.18l-3.7-6.26a44.35,44.35,0,0,0,5-3.47c-3.9-6.47-6.33-12.88-6.08-17.66,0.59-11.23,7.24-21.54,16.42-28.07a29.58,29.58,0,0,0-3.68-5.75C483.26,187.36,474,203.34,476.5,216.77Z" fill="#9cd1c8"/><path d="M453,210.67h-8V191.23h0.23a130.57,130.57,0,0,1-5-27.54h-8.14A150.6,150.6,0,0,0,445.06,215q1.81,4,3.87,7.94,2.74,5.23,5.91,10.3a120.17,120.17,0,0,0,44.24,42.25h10.8l-6.49-11a143.42,143.42,0,0,1-22.52-17.26A129.34,129.34,0,0,1,453,210.67Z" fill="#9cd1c8"/><path d="M418.71,163.69H408.63V275.46h36.61V243q-1.91-2.87-3.72-5.88C427.94,214.49,421.42,189.52,418.71,163.69Z" fill="#9cd1c8"/><path d="M467.76,275.46h7.82a129.17,129.17,0,0,1-13.42-11.71Z" fill="#9cd1c8"/><path d="M515.54,275.46h10.37q-5.3-1.95-10.37-4.36v4.36Z" fill="#9cd1c8"/><path d="M516.29,255.41l-0.75-.34V260a56.1,56.1,0,0,0,13.52,3.14,71,71,0,0,1,21.66,5.84l1.43,0.66v-4.55l-0.88-.22C539.52,262,527.55,260.17,516.29,255.41Z" fill="#9cd1c8"/><circle cx="545.99" cy="167.6" transform="translate(290.91 678.61) rotate(-80.54)" fill="#9cd1c8"/><path d="M526.57,177.08c7.69,1.32,15.6-.44,23.22,1.85a4.61,4.61,0,0,0,2.36.13v-8.35c-0.28-.33-0.56-0.65-0.86-1a8.55,8.55,0,0,0-1.59-1.29l-0.2-.13a6,6,0,0,0-3.49-.75H546c0.67,3.09.06,4.7-1.6,5.26a5.33,5.33,0,0,1-1.77.23,13.27,13.27,0,0,1-2.29-.26c-8.17-1.57-16.3-3.29-24.76-2.38v6.73A31.72,31.72,0,0,1,526.57,177.08Z" fill="#9cd1c8"/><path d="M646.88,267.79c-6.54,2.53-13,5.15-19.59,7.67h22v-2.82l-0.29-.18A6.46,6.46,0,0,1,646.88,267.79Z" fill="#9cd1c8"/><path d="M1108.48,164a79.78,79.78,0,0,0,7.11,10.62c3.59,4.42,9.08,9.26,11.68,15.43l7.53-14C1128,170.27,1118.57,166,1108.48,164Z" fill="#5ca89b"/><path d="M989.65,201.76L989,204.07c0.25-.61.51-1.21,0.77-1.81Z" fill="#80c4b8"/><path d="M649,272.46l0.29,0.18v-6.56l-2.45,1.7A6.46,6.46,0,0,0,649,272.46Z" fill="#80c4b8"/><path d="M731.13,275.46h34.1c-0.07-3,1.24-3.82,4-2.74v-4.47c-6-5.24-9.53-12.78-9.48-24.27,0.06-13-3.89-26.1-7.75-38.82-2-6.56,1.11-9.48,7.74-7.41,3.19,1,6.34,2.1,9.48,3.24v-37.3H733.56v42.12c0,5.35.32,12.15,0.81,20.25L709.31,177.8a123.23,123.23,0,0,1-11.45,36.66Z" fill="#80c4b8"/><path d="M662.29,257.27v18.19h35.64V233.35c0-4.77-.26-10.72-0.66-17.7a132.51,132.51,0,0,1-11.86,19.11A107.18,107.18,0,0,1,662.29,257.27Z" fill="#80c4b8"/><path d="M853.17,262.53c4.69,1.92,8.67,5.93,14.34,5.08-2.91-1.8-5.61-4.43-8.77-5.26-10-2.65-13.69-9-15.27-18H842.9a32.66,32.66,0,0,1-3.55-.2q0.53,2.88,1.1,5.75c1.29,6.43-.24,10.69-5.09,14.26a131.22,131.22,0,0,1-16,10.32c1.52,0.46,3.07.85,4.65,1.2,6.18-3.69,12-8.29,18.23-12.9l2.45,14.5c1.53-.08,3-0.18,4.5-0.34-0.51-3.47-.66-7-1.43-10.45C846.44,260.49,848.91,260.79,853.17,262.53Z" fill="#80c4b8"/><path d="M869.47,234.31c1.53,11.15,3.53,22.23,5.72,33.26a43.12,43.12,0,0,0,4-3.29,6.85,6.85,0,0,1-2.28-4.23c-0.84-4-1.59-8.11-2.29-12.17l-4.95-13.71Z" fill="#80c4b8"/><path d="M788.62,213.52c2.55,15.71,5,31.45,7.49,47.29,0.47,0.46.94,0.92,1.43,1.36,0.94,0.85,1.91,1.64,2.89,2.42-2.62-16-5.17-32.1-7.77-48.15-1-6.17,1.24-10.38,6.86-13.38,7.63-4.07,15.17-8.37,22.35-13.17,5.8-3.88,9.16-4.29,10,3.91,0,0.35.09,0.7,0.16,1s0.09,0.43.14,0.65q1.17-.44,2.4-0.78l-0.1-.48c-1.35-6.5.83-8.86,6.9-7.78,7,1.25,13.92,2.91,20.81,4.65,3.33,0.84,4.26,4,4.31,6.85q0,2.14.11,4.27a12.54,12.54,0,0,1,1.39,1.14l0.93-3a15.57,15.57,0,0,1,3.38-10.7l5.41-17.12-1.3-1.13a55.87,55.87,0,0,0-12-5.67c-5.35-2.11-14.74-3.73-24-3.73-17.33,0-31.59,5.18-42.93,15.39a50,50,0,0,0-15.68,28.21l1.46,0.53C786.82,207.44,788.11,210.38,788.62,213.52Z" fill="#80c4b8"/><path d="M867.49,267.58a34.69,34.69,0,0,1,3.09,3q1.18-.66,2.31-1.39C870.89,268.85,869.36,267.37,867.49,267.58Z" fill="#80c4b8"/><path d="M908.92,179.27c2.72,15.59,5.26,31.22,8.29,46.75a17.85,17.85,0,0,1,.28,4.66c-0.3,4.5-2.14,8.6-3.44,12.89l0.08,0.1,0,0.05c4.46-.33,4.87,2.7,5.44,6.08q2.15,12.84,4.41,25.66h0.84V163.69H888.25v16.56a76.86,76.86,0,0,0,9.86-6C903.7,170.21,907.72,172.41,908.92,179.27Z" fill="#80c4b8"/><path d="M985,231.73h-3.65l4.87-17.66c0.33-1.71.7-3.45,1.14-5.24a34,34,0,0,1,1.61-4.76l0.64-2.31,0.14,0.5c0.8-1.81,1.64-3.61,2.38-5.44-8.73,1.63-12.8-4.29-15.46-10.69a106.47,106.47,0,0,0-8.4-17l-37,106.31h38.07l4.21-15.71h25.1C990.27,251.8,985.92,242.63,985,231.73Z" fill="#80c4b8"/><path d="M1007.42,266.54l2.49,8.93h18.59a80.87,80.87,0,0,1-12.73-4.4A62.84,62.84,0,0,1,1007.42,266.54Z" fill="#80c4b8"/><path d="M649,272.46a6.46,6.46,0,0,1-2.16-4.67h0A6.46,6.46,0,0,0,649,272.46Z" fill="#80c4b8"/><path d="M1066.78,169q0.82-.48,1.68-0.93A1.68,1.68,0,0,0,1066.78,169Z" fill="#6eb6a9"/><path d="M992.17,196.82a64,64,0,0,1,22.66-21.29l-4.12-11.83h-40.5l-1.9,5.46a106.47,106.47,0,0,1,8.4,17C979.38,192.52,983.44,198.45,992.17,196.82Z" fill="#6eb6a9"/><path d="M1095.88,238.45a6,6,0,0,1,3.12,4c0,2.71-2.14,4.29-6.42,4.63a50.12,50.12,0,0,1-27.78,26.34,67.35,67.35,0,0,0,23,4c13.77,0,24.78-3.24,33-9.56q14.58-11.42,14.58-29.16c0-10.2-3.56-18.3-10.53-24.3-4.05-3.4-10.37-6.64-18.63-9.39-1.46-.49-4.05-1.3-7.61-2.27l-1.82-.57C1100.86,213.35,1099.89,225.6,1095.88,238.45Z" fill="#6eb6a9"/><path d="M1108.48,164a67.83,67.83,0,0,0-13.53-1.4,72.91,72.91,0,0,0-13.78,1.22,12.85,12.85,0,0,1-10.07,4.55c-0.85,0-1.81-.29-2.64-0.29q-0.86.45-1.68,0.93a2.7,2.7,0,0,0-.15.36c-0.94,2.76,1.92,3.25,3.53,4,5.09,2.3,9.12,5.89,13.23,9.57a53.26,53.26,0,0,1,7.74,8.52,27.09,27.09,0,0,1,3.16-.17c3.4,0,7.78,1,13,2.92a40.31,40.31,0,0,1,13.61,7.77l6.4-11.92c-2.6-6.17-8.09-11-11.68-15.43A79.78,79.78,0,0,1,1108.48,164Z" fill="#6eb6a9"/><path d="M872.32,189.72a15.57,15.57,0,0,0-3.38,10.7Z" fill="#4fb9d0"/><path d="M879.14,264.27c0.34-.32.68-0.63,1-1l-5.58-15.45c0.7,4.07,1.45,8.13,2.29,12.17A6.85,6.85,0,0,0,879.14,264.27Z" fill="#4fb9d0"/><path d="M893.27,257.51h0a11.6,11.6,0,0,1,3.72-4.08,7.84,7.84,0,0,1,3.23-1.11h0A24.39,24.39,0,0,1,907,245.9a17,17,0,0,1,7-2.32h0c1.3-4.29,3.14-8.39,3.44-12.89a17.85,17.85,0,0,0-.28-4.66c-3-15.53-5.57-31.16-8.29-46.75-1.2-6.87-5.22-9.06-10.81-5a76.86,76.86,0,0,1-9.86,6V261C889.06,258.71,891,257.9,893.27,257.51Z" fill="#4fb9d0"/><path d="M914.18,243.72c-3.58,4.58-7.79,8.14-13.9,8.65-0.47,4.19-3.27,5.27-6.93,5.22-0.36,2.71-1.56,4.59-5.09,4.82v13.05H924q-2.25-12.82-4.41-25.66C919,246.42,918.64,243.4,914.18,243.72Z" fill="#4fb9d0"/><path d="M917.49,230.68c-0.3,4.5-2.14,8.6-3.44,12.89h0C915.35,239.28,917.18,235.19,917.49,230.68Z" fill="#4fb9d0"/><path d="M14.47,275.46q-5.79-8.37-11.6-16.74v16.74h11.6Z" fill="#80c4b8"/><path d="M208.59,275.46l-5.62-8.8c-3.22-.28-6.44-0.53-9.67-0.66q-1.5-.06-3-0.08c-9.53-.14-18.9.72-27.12,6.18l1.68,3.36h43.74Z" fill="#4fb9d0"/><path d="M214.33,267.65h0l-0.88-.07v7.88h14.12a36.15,36.15,0,0,1-2.62-3Z" fill="#4fb9d0"/><path d="M193.3,266c3.22,0.13,6.45.38,9.67,0.66h0C199.74,266.38,196.52,266.13,193.3,266Z" fill="#4fb9d0"/><path d="M214.33,267.65h0l-0.88-.07h0l0.88,0.07h0Z" fill="#4fb9d0"/><path d="M824.07,275.69a75.62,75.62,0,0,0,16.41,1.72c1.46,0,2.87,0,4.27-.12l-2.45-14.5C836.08,267.4,830.25,272,824.07,275.69Z" fill="#eb5e57"/><path d="M867.49,267.58h0v0c-5.67.85-9.65-3.16-14.34-5.08-4.25-1.74-6.73-2-5.36,4,0.78,3.41.92,7,1.43,10.45a55.42,55.42,0,0,0,21.34-6.41A34.72,34.72,0,0,0,867.49,267.58Z" fill="#4fb9d0"/><path d="M867.49,267.58h0a34.72,34.72,0,0,1,3.09,3h0A34.69,34.69,0,0,0,867.49,267.58Z" fill="#4fb9d0"/><path d="M765.23,275.46h4v-2.74C766.47,271.64,765.16,272.49,765.23,275.46Z" fill="#4fb9d0"/><path d="M237.27,275.46h7.92A15.24,15.24,0,0,0,237.27,275.46Z" fill="#4fb9d0"/><path d="M697.27,215.65l0.59-1.19-0.74-1.36C697.17,214,697.22,214.81,697.27,215.65Z" fill="#4fb9d0"/><path d="M503.39,199.33a35.07,35.07,0,0,0-3.3-15.51c-9.18,6.53-15.83,16.84-16.42,28.07-0.25,4.79,2.18,11.19,6.08,17.66C498.87,222.26,503.39,212.22,503.39,199.33Z" fill="#4fb9d0"/><path d="M549.78,178.93c-7.62-2.29-15.53-.53-23.22-1.85a31.72,31.72,0,0,0-11,.1v77.89l0.75,0.34c11.26,4.76,23.23,6.59,35,9.42l0.88,0.22v-86A4.61,4.61,0,0,1,549.78,178.93Z" fill="#4fb9d0"/><path d="M546,167.6a6,6,0,0,1,3.49.75l0.2,0.13a8.55,8.55,0,0,1,1.59,1.29c0.3,0.3.58,0.62,0.86,1v-7H545.7c0,0.11.09,0.22,0.13,0.33A5.68,5.68,0,0,1,546,167.6Z" fill="#4fb9d0"/><path d="M604.79,246.31v-13h40.5V204.68h-40.5V192.53h42.93V163.69H568.34V275.46h58.94c6.54-2.52,13.05-5.14,19.59-7.67h0l2.45-1.7V246.31H604.79Z" fill="#4fb9d0"/><polygon points="608.03 145.88 615.64 158.84 639.13 158.84 626.17 135.35 589.73 135.35 576.77 158.84 600.25 158.84 608.03 145.88" fill="#4fb9d0"/><path d="M662.29,163.69v93.58a107.18,107.18,0,0,0,23.11-22.52,132.51,132.51,0,0,0,11.86-19.11c0-.84-0.1-1.68-0.15-2.55l0.74,1.36a123.23,123.23,0,0,0,11.45-36.66L702,163.69H662.29Z" fill="#4fb9d0"/><path d="M546,167.6h0Z" fill="#4fb9d0"/><path d="M551.29,169.77a8.55,8.55,0,0,0-1.59-1.29A8.55,8.55,0,0,1,551.29,169.77Z" fill="#4fb9d0"/><path d="M546,167.6h0a6,6,0,0,1,3.49.75A6,6,0,0,0,546,167.6Z" fill="#4fb9d0"/><path d="M646.88,267.79h0c-6.54,2.53-13,5.15-19.59,7.67h0c6.54-2.52,13.05-5.14,19.59-7.67h0Z" fill="#4fb9d0"/><path d="M480.55,228.1a32.58,32.58,0,0,1-4.05-11.33c-2.51-13.42,6.76-29.4,19.92-38.7a33.43,33.43,0,0,0-6.79-6.28c-7.61-5.35-18.47-8.1-32.4-8.1h-17a130.57,130.57,0,0,0,5,27.54h9c3.73,0,6.32.65,8.1,2.11a8.54,8.54,0,0,1,4.05,7.61,9,9,0,0,1-4.05,7.78c-1.62,1.3-4.37,1.94-8.1,1.94H453a129.34,129.34,0,0,0,27.84,36.56,143.42,143.42,0,0,0,22.52,17.26l-14.92-25.22A126,126,0,0,1,480.55,228.1Z" fill="#eb5e57"/><path d="M540.29,172.83a13.27,13.27,0,0,0,2.29.26,5.33,5.33,0,0,0,1.77-.23c1.66-.56,2.27-2.17,1.6-5.26h0c-1.62-1.34-3.8-2.43-5.14-3.91H515.54v6.76C524,169.54,532.12,171.26,540.29,172.83Z" fill="#eb5e57"/><path d="M529.06,263.1A56.1,56.1,0,0,1,515.54,260V271.1q5.07,2.41,10.37,4.36h26.24V269.6l-1.43-.66A71,71,0,0,0,529.06,263.1Z" fill="#eb5e57"/><polygon points="546 167.61 546 167.61 545.95 167.6 546 167.61" fill="#eb5e57"/><path d="M544.35,172.86a5.33,5.33,0,0,1-1.77.23A5.33,5.33,0,0,0,544.35,172.86Z" fill="#eb5e57"/><path d="M546,167.6h0c0.67,3.09.06,4.7-1.6,5.26,1.66-.56,2.27-2.17,1.6-5.26h0Z" fill="#eb5e57"/><path d="M546,167.6h0Z" fill="#eb5e57"/><path d="M454.83,233.22q-3.17-5.07-5.91-10.3-2.05-3.93-3.87-7.94a150.62,150.62,0,0,1-12.94-51.28H418.71c2.72,25.82,9.23,50.8,22.81,73.43q1.81,3,3.72,5.88v-4.79h4.7l12.22,25.55a129.17,129.17,0,0,0,13.42,11.71h23.5A120.17,120.17,0,0,1,454.83,233.22Z" fill="#4fb9d0"/><path d="M255.89,191.23c4,0,7,.65,8.91,2.11,2.75,1.78,4,4.86,4,8.91s-1.27,7-3.95,8.83c12.34,3.51,24.69,6.95,37.34,9.11a42.48,42.48,0,0,0,3.54-17.94c0-.94,0-1.86-0.07-2.76-3.72-1-7.72-2.93-11.39-3.65-8.47-1.66-16.81-4-25.28-5.63-3.83-.75-4.6-2.51-3.78-6q2.35-10,4.67-20.1a78.56,78.56,0,0,0-7.88-.39h-3.66c-2,9.16-3.93,18.33-5.72,27.54h3.22Zm29.91,8.19c3.74-.3,6.53,1.85,7,6-0.27,3.65-2,6.39-5.66,6.51a6.84,6.84,0,0,1-7.19-6.16C279.58,202.26,282.51,199.69,285.79,199.43Z" fill="#4fb9d0"/><path d="M319.71,180c-1.59,6.31-.51,15.1-5,18.69v22.84c5.53-.31,7.64-3.24,9.25-10.69q5.1-23.59,10.25-47.17h-10.5Q321.75,171.87,319.71,180Z" fill="#4fb9d0"/><path d="M116.38,167.48c2.94-.82,6.29-0.18,9.45-0.23a56.65,56.65,0,0,0,7-.42l-1.66-3.14H105.31C107,167.41,110.31,169.18,116.38,167.48Z" fill="#4fb9d0"/><path d="M199.28,260.88l-7-10.92a27.74,27.74,0,0,0-6.36,11.83C191.93,264.82,195.93,263.57,199.28,260.88Z" fill="#eb5e57"/><path d="M214.33,267.65l10.62,4.85c1.07-.28,2.76-0.23,3.11-0.89,4.62-8.57-4.74-26.9-14.37-28.38l-0.25,0v14.7C213.77,261.14,213.67,264.47,214.33,267.65Z" fill="#eb5e57"/><path d="M214.33,267.65h0c-0.66-3.18-.56-6.51-0.88-9.75h0C213.77,261.14,213.67,264.48,214.33,267.65Z" fill="#eb5e57"/><path d="M224.13,163.69H215.5a72.5,72.5,0,0,0,18.8,8.46Z" fill="#eb5e57"/><path d="M351.13,199.55v-2.1c-4-.14-7.92-0.27-11.89-0.43C343.2,198,347.17,198.82,351.13,199.55Z" fill="#eb5e57"/><path d="M1028.5,275.46h21.09l-2.66-7.66c-1.4.12-2.82,0.19-4.26,0.19-22.73,0-43-16.11-47.68-36.27H985c0.87,10.9,5.22,20.08,13.67,28h6.81l1.89,6.78a62.84,62.84,0,0,0,8.35,4.53A80.86,80.86,0,0,0,1028.5,275.46Z" fill="#4fb9d0"/><path d="M987.4,208.83c-0.44,1.78-.82,3.53-1.14,5.24l2.76-10A34,34,0,0,0,987.4,208.83Z" fill="#4fb9d0"/><path d="M1017.53,183.29l-2.7-7.77a64,64,0,0,0-22.66,21.29c-0.74,1.83-1.58,3.63-2.38,5.44l4.42,16C995.85,204.07,1005,191.05,1017.53,183.29Z" fill="#4fb9d0"/><path d="M1071.1,168.34a12.85,12.85,0,0,0,10.07-4.55,46.57,46.57,0,0,0-12.7,4.26C1069.29,168.05,1070.25,168.33,1071.1,168.34Z" fill="#4fb9d0"/><path d="M1092.57,247c-0.58,0-1.19.07-1.84,0.07a31.27,31.27,0,0,1-7.1-1,48.55,48.55,0,0,1-31.89,21.07,75,75,0,0,0,13,6.22A50.12,50.12,0,0,0,1092.57,247Z" fill="#4fb9d0"/><path d="M1083.4,182.88c-4.11-3.68-8.14-7.26-13.23-9.57-1.62-.73-4.47-1.22-3.53-4a2.7,2.7,0,0,1,.15-0.36,35,35,0,0,0-4.72,3.31,39.65,39.65,0,0,0-5.43,5.45c20.23,5.44,34.69,22.42,34.63,42.94a46.56,46.56,0,0,1-2.62,15.28l2.25,0.65a22.06,22.06,0,0,1,5,1.86c4-12.85,5-25.1,1-36.29L1093,201c-2.59-.65-7.78-2.11-7.78-5.18,0-2.48,2-3.91,5.91-4.37A53.26,53.26,0,0,0,1083.4,182.88Z" fill="#4fb9d0"/><path d="M1015.76,271.06a80.87,80.87,0,0,0,12.73,4.4h0A80.86,80.86,0,0,1,1015.76,271.06Z" fill="#4fb9d0"/><path d="M840.45,249.91q-0.57-2.87-1.1-5.75c-12.54-1.37-22-10.09-22-24.91,0-12.29,5.89-20.35,14.89-23.75-0.05-.22-0.1-0.43-0.14-0.65s-0.13-.7-0.16-1c-0.85-8.2-4.21-7.79-10-3.91-7.18,4.8-14.72,9.11-22.35,13.17-5.62,3-7.86,7.21-6.86,13.38,2.6,16,5.16,32.1,7.77,48.15a56.9,56.9,0,0,0,19,9.89,131.22,131.22,0,0,0,16-10.32C840.21,260.6,841.74,256.34,840.45,249.91Z" fill="#4fb9d0"/><path d="M752,205.16c3.86,12.73,7.82,25.82,7.75,38.82-0.06,11.49,3.52,19,9.48,24.27V201c-3.14-1.14-6.3-2.25-9.48-3.24C753.08,195.68,750,198.6,752,205.16Z" fill="#4fb9d0"/><path d="M796.11,260.82c-2.48-15.85-4.94-31.58-7.49-47.29-0.51-3.15-1.8-6.08-5.3-7.33l-1.46-.53a71.94,71.94,0,0,0-1.33,14.07C780.54,236.94,785.74,250.72,796.11,260.82Z" fill="#4fb9d0"/><path d="M855.53,196.41c4.37,1.78,7.45,3.08,8.91,4.21,0.79,0.62,1.53,1.14,2.18,1.61q-0.07-2.13-.11-4.27c0-2.86-1-6-4.31-6.85-6.89-1.74-13.82-3.4-20.81-4.65-6.07-1.09-8.25,1.28-6.9,7.78l0.1,0.48a31.61,31.61,0,0,1,8.31-1.06A33.6,33.6,0,0,1,855.53,196.41Z" fill="#eb5e57"/><path d="M843.46,244.35c1.58,9,5.26,15.35,15.27,18,3.17,0.84,5.86,3.46,8.77,5.26v0h0c1.87-.21,3.4,1.27,5.4,1.56q1.18-.76,2.3-1.58c-2.19-11-4.19-22.11-5.72-33.26Q859.47,244.18,843.46,244.35Z" fill="#eb5e57"/><path d="M867.51,267.61v0Z" fill="#eb5e57"/><polygon points="867.49 267.58 867.49 267.58 867.49 267.58 867.49 267.58" fill="#eb5e57"/><path d="M914.18,243.72l0-.05-0.08-.1a17,17,0,0,0-7,2.32,24.39,24.39,0,0,0-6.83,6.41l0.06,0.06C906.39,251.87,910.6,248.3,914.18,243.72Z" fill="#80c4b8"/><path d="M914,243.58h0l0.08,0.1Z" fill="#80c4b8"/><path d="M907,245.9a24.39,24.39,0,0,0-6.83,6.41h0A24.39,24.39,0,0,1,907,245.9Z" fill="#80c4b8"/><path d="M907,245.9a17.14,17.14,0,0,1,2.78-1.34A17.14,17.14,0,0,0,907,245.9Z" fill="#80c4b8"/><path d="M893.27,257.51l0.08,0.08c3.66,0.05,6.46-1,6.93-5.22l-0.06-.06a7.84,7.84,0,0,0-3.23,1.11A11.6,11.6,0,0,0,893.27,257.51Z" fill="#80c4b8"/><path d="M897,253.42a11.6,11.6,0,0,0-3.72,4.08h0A11.6,11.6,0,0,1,897,253.42Z" fill="#80c4b8"/><path d="M887.91,262.43l0.34,0V261A7,7,0,0,0,887.91,262.43Z" fill="#80c4b8"/><path d="M893.35,257.59l-0.08-.08c-2.32.39-4.21,1.2-5,3.48v1.42C891.79,262.17,893,260.3,893.35,257.59Z" fill="#80c4b8"/><polygon points="893.27 257.51 893.27 257.51 893.35 257.58 893.27 257.51" fill="#80c4b8"/><path d="M545.83,164c0-.11-0.09-0.22-0.13-0.33h-4.84c1.34,1.47,3.51,2.56,5.14,3.91h0A5.68,5.68,0,0,0,545.83,164Z" fill="#9cd1c8"/><path d="M546,167.6h0Z" fill="#9cd1c8"/><path d="M546,167.61h0Z" fill="#9cd1c8"/><path d="M293.14,172.6c-5.91-4.75-13.65-7.56-23.22-8.52q-2.33,10.05-4.67,20.1c-0.82,3.5-.05,5.26,3.78,6,8.47,1.67,16.81,4,25.28,5.63,3.67,0.72,7.67,2.61,11.39,3.65Q304.87,181.86,293.14,172.6Z" fill="#eb5e57"/><path d="M314.68,198.72c4.51-3.59,3.44-12.38,5-18.69q2-8.15,4-16.33h-9v35Z" fill="#eb5e57"/><path d="M287.17,211.92c3.62-.12,5.39-2.86,5.66-6.51-0.51-4.14-3.3-6.29-7-6-3.28.26-6.21,2.84-5.81,6.34A6.84,6.84,0,0,0,287.17,211.92Z" fill="#9cd1c8"/><path d="M1039.32,250.94a12.84,12.84,0,0,0,1.2-1.56l-1.65-4.73c-0.92,2.63-2,5.48-3.09,8.8A38.88,38.88,0,0,0,1039.32,250.94Z" fill="#6eb6a9"/><path d="M998.22,226.76c-1.92-14,7-31.05,20.51-40l-1.2-3.46c-12.5,7.76-21.68,20.77-23.32,35l3.7,13.44H995c4.73,20.16,25,36.28,47.68,36.27,1.44,0,2.85-.07,4.26-0.19l-1.17-3.38C1022.59,266.47,1001.35,249.56,998.22,226.76Z" fill="#6eb6a9"/><path d="M1047.22,264.27c1.5,1,3,2,4.52,2.89a48.55,48.55,0,0,0,31.89-21.07q-1.76-.43-3.77-1C1072.14,256.7,1060.82,262.7,1047.22,264.27Z" fill="#6eb6a9"/><path d="M1083.22,204.08c2.51,4.65,3.6,9.72,4.37,14.88a20.55,20.55,0,0,1-3.59,15.55q2.41,0.77,4.63,1.43a46.56,46.56,0,0,0,2.62-15.28c0.06-20.52-14.39-37.5-34.63-42.94a34.16,34.16,0,0,0-2.89,4.13C1066.26,184.4,1076.15,191,1083.22,204.08Z" fill="#6eb6a9"/><path d="M1060.92,235l-0.34.58,1.18,0.08Z" fill="#6eb6a9"/><path d="M998.22,226.76c3.12,22.8,24.37,39.71,47.53,37.67l-0.55-1.59-0.47-.33,0.22-.38-4.43-12.75a12.84,12.84,0,0,1-1.2,1.56,38.88,38.88,0,0,1-3.53,2.51c1.11-3.32,2.17-6.17,3.09-8.8l-3.1-8.91a121.5,121.5,0,0,1-8.21,21.47q0.59-6.21,1.18-12.42c1.51-16,1.51-16-11.12-24.42,2.89-.47,8.81.33,13.3,1.45l-2.61-7.49c-4.63-1.38-9.27-2.84-13.9-4.56,3.88-.59,8.09-0.38,12.16-0.46l-7.84-22.55C1005.27,195.7,996.31,212.76,998.22,226.76Z" fill="#eb5e57"/><path d="M1045.2,262.84c0.67,0.49,1.35,1,2,1.44,13.6-1.57,24.92-7.58,32.65-19.23-1-.3-2-0.63-3.07-1a51,51,0,0,1-15-8.41l-1.18-.08-15.63,26.58Z" fill="#eb5e57"/><path d="M1050.56,209.82q2.84-9.16,5.69-18.31l1.27,0c-0.48,7.46-2.5,15.24-1,22.29,1.59,7.57,12.13,7.45,16,14.94l-10.16-3.43a74.76,74.76,0,0,0,12.35,6.06c3.34,1.14,6.43,2.18,9.31,3.11a20.55,20.55,0,0,0,3.59-15.55c-0.77-5.16-1.86-10.23-4.37-14.88-7.08-13.11-17-19.68-29.48-22.22a33.56,33.56,0,0,0-4.64,17.47A35.87,35.87,0,0,0,1050.56,209.82Z" fill="#eb5e57"/><path d="M1044.73,262.5l0.47,0.33-0.25-.71Z" fill="#eb5e57"/><path d="M1056.52,213.84c-1.48-7,.54-14.83,1-22.29l-1.27,0q-2.85,9.15-5.69,18.31a27.94,27.94,0,0,0,8.74,13.32,29.11,29.11,0,0,0,3,2.2l10.16,3.43C1068.65,221.29,1058.11,221.41,1056.52,213.84Z" fill="#6eb6a9"/><path d="M1017.63,220.37c12.63,8.4,12.63,8.4,11.12,24.42q-0.59,6.21-1.18,12.42a121.5,121.5,0,0,0,8.21-21.47l-4.84-13.92C1026.44,220.7,1020.52,219.9,1017.63,220.37Z" fill="#6eb6a9"/><path d="M1014.42,209.77c4.63,1.72,9.27,3.18,13.9,4.56l-1.75-5C1022.5,209.39,1018.3,209.18,1014.42,209.77Z" fill="#6eb6a9"/></svg>