<?xml version="1.0" encoding="UTF-8"?>
<svg width="54px" height="32px" viewBox="0 0 54 32" version="1.1" xmlns="http://www.w3.org/2000/svg" xmlns:xlink="http://www.w3.org/1999/xlink">
    <!-- Generator: Sketch 43.2 (39069) - http://www.bohemiancoding.com/sketch -->
    <title>Stroke 2</title>
    <desc>Created with Sketch.</desc>
    <defs></defs>
    <g id="Symbols" stroke="none" stroke-width="1" fill="none" fill-rule="evenodd">
        <g id="menu" transform="translate(-26.000000, -18.000000)" fill="#4690A0">
            <path d="M58.0224169,21.92 C58.4192399,21.127 58.5685496,20.58 58.5685496,20.233 C58.5685496,19.588 58.0705166,19.34 56.4311164,19.34 L54.5913005,19.34 C52.8506903,19.34 52.4027613,19.539 52.4027613,20.184 C52.4027613,20.68 52.6021749,21.275 53.1483076,22.416 L55.4851544,27.18 L58.0224169,21.92 Z M32.2649941,23.508 C30.5243839,19.736 29.7788376,19.34 26,19.34 L26,18 L40.419908,18 L40.419908,19.34 C37.8836476,19.439 37.1882052,19.736 37.1882052,20.978 C37.1882052,21.92 38.132163,24.153 38.8286075,25.592 L47.4805523,43.902 L52.7003786,33.135 L48.1268928,23.508 C46.2379751,19.488 45.790046,19.291 42.5082393,19.34 L42.5082393,18 L65.8276054,18 L65.8276054,19.34 C62.396489,19.39 61.8994581,19.787 60.0596422,23.508 L56.8279394,29.959 L63.5418646,43.753 L72.1437055,23.26 C72.7409442,21.871 72.8892518,21.226 72.8892518,20.828 C72.8892518,19.736 71.9442919,19.34 69.2587218,19.34 L69.2587218,18 L80,18 L80,19.34 C77.2142221,19.39 76.36947,19.539 74.2320368,24.649 L63.739274,49.658 L60.5566731,49.658 L54.0431636,35.963 L47.4805523,49.658 L44.3981591,49.658 L32.2649941,23.508 Z" id="Stroke-2"></path>
        </g>
    </g>
</svg>