<?xml version="1.0" encoding="UTF-8"?>
<svg width="1177px" height="418px" viewBox="0 0 1177 418" version="1.1" xmlns="http://www.w3.org/2000/svg" xmlns:xlink="http://www.w3.org/1999/xlink">
    <!-- Generator: Sketch 49.1 (51147) - http://www.bohemiancoding.com/sketch -->
    <title>Group 3</title>
    <desc>Created with Sketch.</desc>
    <defs></defs>
    <g id="Page-1" stroke="none" stroke-width="1" fill="none" fill-rule="evenodd">
        <g id="404" transform="translate(-226.000000, -226.000000)">
            <g id="Group-3" transform="translate(230.000000, 225.000000)">
                <g id="Group-2">
                    <g id="pattern">
                        <g id="if_plus_216373-copy-2" opacity="0.45" transform="translate(48.668800, 354.668800) rotate(-22.000000) translate(-48.668800, -354.668800) translate(38.168800, 344.168800)" fill="#041C3F" fill-rule="nonzero">
                            <path d="M17.5379572,7.51626739 L12.5271123,7.51626739 L12.5271123,2.50542246 C12.5271123,1.12242926 11.4046831,0 10.0216899,0 C8.63869666,0 7.51626739,1.12242926 7.51626739,2.50542246 L7.60520989,7.51626739 L2.50542246,7.51626739 C1.12242926,7.51626739 0,8.63869666 0,10.0216899 C0,11.4046831 1.12242926,12.5271123 2.50542246,12.5271123 L7.60520989,12.4381698 L7.51626739,17.5379572 C7.51626739,18.9209504 8.63869666,20.0433797 10.0216899,20.0433797 C11.4046831,20.0433797 12.5271123,18.9209504 12.5271123,17.5379572 L12.5271123,12.4381698 L17.5379572,12.5271123 C18.9209504,12.5271123 20.0433797,11.4046831 20.0433797,10.0216899 C20.0433797,8.63869666 18.9209504,7.51626739 17.5379572,7.51626739 Z" id="Shape"></path>
                        </g>
                        <g id="if_plus_216373-copy-3" opacity="0.45" transform="translate(89.615148, 143.301053) rotate(-47.000000) translate(-89.615148, -143.301053) translate(78.615148, 132.301053)" fill="#041C3F" fill-rule="nonzero">
                            <path d="M18.5151432,7.93506135 L13.2251023,7.93506135 L13.2251023,2.64502045 C13.2251023,1.18496916 12.0401331,0 10.5800818,0 C9.12003051,0 7.93506135,1.18496916 7.93506135,2.64502045 L8.02895958,7.93506135 L2.64502045,7.93506135 C1.18496916,7.93506135 0,9.12003051 0,10.5800818 C0,12.0401331 1.18496916,13.2251023 2.64502045,13.2251023 L8.02895958,13.131204 L7.93506135,18.5151432 C7.93506135,19.9751944 9.12003051,21.1601636 10.5800818,21.1601636 C12.0401331,21.1601636 13.2251023,19.9751944 13.2251023,18.5151432 L13.2251023,13.131204 L18.5151432,13.2251023 C19.9751944,13.2251023 21.1601636,12.0401331 21.1601636,10.5800818 C21.1601636,9.12003051 19.9751944,7.93506135 18.5151432,7.93506135 Z" id="Shape"></path>
                        </g>
                        <g id="if_plus_216373-copy-4" opacity="0.45" transform="translate(133.539122, 195.228667) rotate(-2.000000) translate(-133.539122, -195.228667) translate(128.539122, 190.228667)" fill="#041C3F" fill-rule="nonzero">
                            <path d="M8.12277717,3.48119022 L5.80198369,3.48119022 L5.80198369,1.16039674 C5.80198369,0.519857739 5.28212595,0 4.64158695,0 C4.00104796,0 3.48119022,0.519857739 3.48119022,1.16039674 L3.5223843,3.48119022 L1.16039674,3.48119022 C0.519857739,3.48119022 0,4.00104796 0,4.64158695 C0,5.28212595 0.519857739,5.80198369 1.16039674,5.80198369 L3.5223843,5.76078961 L3.48119022,8.12277717 C3.48119022,8.76331617 4.00104796,9.28317391 4.64158695,9.28317391 C5.28212595,9.28317391 5.80198369,8.76331617 5.80198369,8.12277717 L5.80198369,5.76078961 L8.12277717,5.80198369 C8.76331617,5.80198369 9.28317391,5.28212595 9.28317391,4.64158695 C9.28317391,4.00104796 8.76331617,3.48119022 8.12277717,3.48119022 Z" id="Shape"></path>
                        </g>
                        <g id="if_plus_216373-copy-6" opacity="0.45" transform="translate(247.960842, 95.960842) rotate(-49.000000) translate(-247.960842, -95.960842) translate(241.460842, 89.460842)" fill="#041C3F" fill-rule="nonzero">
                            <path d="M11.375,4.875 L8.125,4.875 L8.125,1.625 C8.125,0.728 7.397,0 6.5,0 C5.603,0 4.875,0.728 4.875,1.625 L4.9326875,4.875 L1.625,4.875 C0.728,4.875 0,5.603 0,6.5 C0,7.397 0.728,8.125 1.625,8.125 L4.9326875,8.0673125 L4.875,11.375 C4.875,12.272 5.603,13 6.5,13 C7.397,13 8.125,12.272 8.125,11.375 L8.125,8.0673125 L11.375,8.125 C12.272,8.125 13,7.397 13,6.5 C13,5.603 12.272,4.875 11.375,4.875 Z" id="Shape"></path>
                        </g>
                        <g id="if_plus_216373-copy-7" opacity="0.45" transform="translate(262.537904, 39.193788) rotate(-2.000000) translate(-262.537904, -39.193788) translate(257.537904, 34.193788)" fill="#041C3F" fill-rule="nonzero">
                            <path d="M8.15331423,3.49427753 L5.82379588,3.49427753 L5.82379588,1.16475918 C5.82379588,0.521812111 5.30198377,0 4.6590367,0 C4.01608964,0 3.49427753,0.521812111 3.49427753,1.16475918 L3.53562648,3.49427753 L1.16475918,3.49427753 C0.521812111,3.49427753 0,4.01608964 0,4.6590367 C0,5.30198377 0.521812111,5.82379588 1.16475918,5.82379588 L3.53562648,5.78244693 L3.49427753,8.15331423 C3.49427753,8.7962613 4.01608964,9.31807341 4.6590367,9.31807341 C5.30198377,9.31807341 5.82379588,8.7962613 5.82379588,8.15331423 L5.82379588,5.78244693 L8.15331423,5.82379588 C8.7962613,5.82379588 9.31807341,5.30198377 9.31807341,4.6590367 C9.31807341,4.01608964 8.7962613,3.49427753 8.15331423,3.49427753 Z" id="Shape"></path>
                        </g>
                        <g id="if_plus_216373-copy-8" opacity="0.45" transform="translate(147.098003, 11.818807) rotate(-2.000000) translate(-147.098003, -11.818807) translate(136.598003, 1.318807)" fill="#041C3F" fill-rule="nonzero">
                            <path d="M17.6712132,7.5733771 L12.6222952,7.5733771 L12.6222952,2.52445903 C12.6222952,1.13095765 11.4913375,0 10.0978361,0 C8.70433475,0 7.5733771,1.13095765 7.5733771,2.52445903 L7.6629954,7.5733771 L2.52445903,7.5733771 C1.13095765,7.5733771 0,8.70433475 0,10.0978361 C0,11.4913375 1.13095765,12.6222952 2.52445903,12.6222952 L7.6629954,12.5326769 L7.5733771,17.6712132 C7.5733771,19.0647146 8.70433475,20.1956723 10.0978361,20.1956723 C11.4913375,20.1956723 12.6222952,19.0647146 12.6222952,17.6712132 L12.6222952,12.5326769 L17.6712132,12.6222952 C19.0647146,12.6222952 20.1956723,11.4913375 20.1956723,10.0978361 C20.1956723,8.70433475 19.0647146,7.5733771 17.6712132,7.5733771 Z" id="Shape"></path>
                        </g>
                        <g id="if_plus_216373-copy-18" opacity="0.45" transform="translate(253.825013, 348.001402) rotate(-56.000000) translate(-253.825013, -348.001402) translate(243.325013, 337.501402)" fill="#041C3F" fill-rule="nonzero">
                            <path d="M18.2193991,7.80831389 L13.0138565,7.80831389 L13.0138565,2.6027713 C13.0138565,1.16604154 11.8478149,0 10.4110852,0 C8.97435543,0 7.80831389,1.16604154 7.80831389,2.6027713 L7.90071227,7.80831389 L2.6027713,7.80831389 C1.16604154,7.80831389 0,8.97435543 0,10.4110852 C0,11.8478149 1.16604154,13.0138565 2.6027713,13.0138565 L7.90071227,12.9214581 L7.80831389,18.2193991 C7.80831389,19.6561288 8.97435543,20.8221704 10.4110852,20.8221704 C11.8478149,20.8221704 13.0138565,19.6561288 13.0138565,18.2193991 L13.0138565,12.9214581 L18.2193991,13.0138565 C19.6561288,13.0138565 20.8221704,11.8478149 20.8221704,10.4110852 C20.8221704,8.97435543 19.6561288,7.80831389 18.2193991,7.80831389 Z" id="Shape"></path>
                        </g>
                        <g id="if_plus_216373-copy-19" opacity="0.45" transform="translate(179.326270, 297.436579) rotate(-60.000000) translate(-179.326270, -297.436579) translate(168.326270, 286.436579)" fill="#041C3F" fill-rule="nonzero">
                            <path d="M18.3934081,7.88288919 L13.1381486,7.88288919 L13.1381486,2.62762973 C13.1381486,1.17717812 11.9609705,0 10.5105189,0 C9.0600673,0 7.88288919,1.17717812 7.88288919,2.62762973 L7.97617004,7.88288919 L2.62762973,7.88288919 C1.17717812,7.88288919 0,9.0600673 0,10.5105189 C0,11.9609705 1.17717812,13.1381486 2.62762973,13.1381486 L7.97617004,13.0448678 L7.88288919,18.3934081 C7.88288919,19.8438597 9.0600673,21.0210378 10.5105189,21.0210378 C11.9609705,21.0210378 13.1381486,19.8438597 13.1381486,18.3934081 L13.1381486,13.0448678 L18.3934081,13.1381486 C19.8438597,13.1381486 21.0210378,11.9609705 21.0210378,10.5105189 C21.0210378,9.0600673 19.8438597,7.88288919 18.3934081,7.88288919 Z" id="Shape"></path>
                        </g>
                        <g id="if_plus_216373-copy-20" opacity="0.45" transform="translate(117.960842, 294.960842) rotate(-30.000000) translate(-117.960842, -294.960842) translate(111.460842, 288.460842)" fill="#041C3F" fill-rule="nonzero">
                            <path d="M11.375,4.875 L8.125,4.875 L8.125,1.625 C8.125,0.728 7.397,0 6.5,0 C5.603,0 4.875,0.728 4.875,1.625 L4.9326875,4.875 L1.625,4.875 C0.728,4.875 0,5.603 0,6.5 C0,7.397 0.728,8.125 1.625,8.125 L4.9326875,8.0673125 L4.875,11.375 C4.875,12.272 5.603,13 6.5,13 C7.397,13 8.125,12.272 8.125,11.375 L8.125,8.0673125 L11.375,8.125 C12.272,8.125 13,7.397 13,6.5 C13,5.603 12.272,4.875 11.375,4.875 Z" id="Shape"></path>
                        </g>
                        <g id="if_plus_216373-copy-21" opacity="0.05" transform="translate(110.438386, 407.546258) rotate(-330.000000) translate(-110.438386, -407.546258) translate(97.438386, 394.546258)" fill="#041C3F" fill-rule="nonzero">
                            <path d="M22.0174482,9.43604924 L15.7267487,9.43604924 L15.7267487,3.14534975 C15.7267487,1.40911669 14.3176321,0 12.581399,0 C10.8451659,0 9.43604924,1.40911669 9.43604924,3.14534975 L9.54770916,9.43604924 L3.14534975,9.43604924 C1.40911669,9.43604924 0,10.8451659 0,12.581399 C0,14.3176321 1.40911669,15.7267487 3.14534975,15.7267487 L9.54770916,15.6150888 L9.43604924,22.0174482 C9.43604924,23.7536813 10.8451659,25.162798 12.581399,25.162798 C14.3176321,25.162798 15.7267487,23.7536813 15.7267487,22.0174482 L15.7267487,15.6150888 L22.0174482,15.7267487 C23.7536813,15.7267487 25.162798,14.3176321 25.162798,12.581399 C25.162798,10.8451659 23.7536813,9.43604924 22.0174482,9.43604924 Z" id="Shape"></path>
                        </g>
                        <circle id="Oval-4" stroke="#041C3F" stroke-width="8" opacity="0.05" cx="130.5" cy="77.5" r="17.5"></circle>
                        <circle id="Oval-4-Copy-3" stroke="#041C3F" stroke-width="8" cx="220.5" cy="54.5" r="10.5"></circle>
                        <circle id="Oval-4-Copy-15" stroke="#041C3F" stroke-width="8" opacity="0.05" cx="195" cy="354" r="13"></circle>
                        <circle id="Oval-4-Copy-16" stroke="#041C3F" stroke-width="8" opacity="0.15" cx="134.5" cy="338.5" r="10.5"></circle>
                        <circle id="Oval-4-Copy-17" stroke="#041C3F" stroke-width="8" cx="167" cy="408" r="7"></circle>
                        <circle id="Oval-4-Copy-18" stroke="#041C3F" stroke-width="8" opacity="0.05" cx="10.5" cy="264.5" r="10.5"></circle>
                        <circle id="Oval-4-Copy-20" stroke="#00A8BD" stroke-width="8" opacity="0.05" cx="83.5" cy="258.5" r="21.5"></circle>
                        <circle id="Oval-4-Copy-19" stroke="#041C3F" stroke-width="8" cx="53" cy="182" r="13"></circle>
                    </g>
                    <g id="pattern" transform="translate(1034.500000, 213.000000) scale(-1, 1) translate(-1034.500000, -213.000000) translate(900.000000, 0.000000)">
                        <g id="if_plus_216373-copy-12" opacity="0.45" transform="translate(48.668800, 354.668800) scale(-1, 1) rotate(-22.000000) translate(-48.668800, -354.668800) translate(38.168800, 344.168800)" fill="#041C3F" fill-rule="nonzero">
                            <path d="M17.5379572,7.51626739 L12.5271123,7.51626739 L12.5271123,2.50542246 C12.5271123,1.12242926 11.4046831,0 10.0216899,0 C8.63869666,0 7.51626739,1.12242926 7.51626739,2.50542246 L7.60520989,7.51626739 L2.50542246,7.51626739 C1.12242926,7.51626739 0,8.63869666 0,10.0216899 C0,11.4046831 1.12242926,12.5271123 2.50542246,12.5271123 L7.60520989,12.4381698 L7.51626739,17.5379572 C7.51626739,18.9209504 8.63869666,20.0433797 10.0216899,20.0433797 C11.4046831,20.0433797 12.5271123,18.9209504 12.5271123,17.5379572 L12.5271123,12.4381698 L17.5379572,12.5271123 C18.9209504,12.5271123 20.0433797,11.4046831 20.0433797,10.0216899 C20.0433797,8.63869666 18.9209504,7.51626739 17.5379572,7.51626739 Z" id="Shape"></path>
                        </g>
                        <g id="if_plus_216373-copy-5" opacity="0.45" transform="translate(89.615148, 143.301053) scale(-1, 1) rotate(-47.000000) translate(-89.615148, -143.301053) translate(78.615148, 132.301053)" fill="#041C3F" fill-rule="nonzero">
                            <path d="M18.5151432,7.93506135 L13.2251023,7.93506135 L13.2251023,2.64502045 C13.2251023,1.18496916 12.0401331,0 10.5800818,0 C9.12003051,0 7.93506135,1.18496916 7.93506135,2.64502045 L8.02895958,7.93506135 L2.64502045,7.93506135 C1.18496916,7.93506135 0,9.12003051 0,10.5800818 C0,12.0401331 1.18496916,13.2251023 2.64502045,13.2251023 L8.02895958,13.131204 L7.93506135,18.5151432 C7.93506135,19.9751944 9.12003051,21.1601636 10.5800818,21.1601636 C12.0401331,21.1601636 13.2251023,19.9751944 13.2251023,18.5151432 L13.2251023,13.131204 L18.5151432,13.2251023 C19.9751944,13.2251023 21.1601636,12.0401331 21.1601636,10.5800818 C21.1601636,9.12003051 19.9751944,7.93506135 18.5151432,7.93506135 Z" id="Shape"></path>
                        </g>
                        <g id="if_plus_216373-copy-11" opacity="0.45" transform="translate(247.960842, 95.960842) scale(-1, 1) rotate(-49.000000) translate(-247.960842, -95.960842) translate(241.460842, 89.460842)" fill="#041C3F" fill-rule="nonzero">
                            <path d="M11.375,4.875 L8.125,4.875 L8.125,1.625 C8.125,0.728 7.397,0 6.5,0 C5.603,0 4.875,0.728 4.875,1.625 L4.9326875,4.875 L1.625,4.875 C0.728,4.875 0,5.603 0,6.5 C0,7.397 0.728,8.125 1.625,8.125 L4.9326875,8.0673125 L4.875,11.375 C4.875,12.272 5.603,13 6.5,13 C7.397,13 8.125,12.272 8.125,11.375 L8.125,8.0673125 L11.375,8.125 C12.272,8.125 13,7.397 13,6.5 C13,5.603 12.272,4.875 11.375,4.875 Z" id="Shape"></path>
                        </g>
                        <g id="if_plus_216373-copy-10" opacity="0.45" transform="translate(262.537904, 39.193788) scale(-1, 1) rotate(-2.000000) translate(-262.537904, -39.193788) translate(257.537904, 34.193788)" fill="#041C3F" fill-rule="nonzero">
                            <path d="M8.15331423,3.49427753 L5.82379588,3.49427753 L5.82379588,1.16475918 C5.82379588,0.521812111 5.30198377,0 4.6590367,0 C4.01608964,0 3.49427753,0.521812111 3.49427753,1.16475918 L3.53562648,3.49427753 L1.16475918,3.49427753 C0.521812111,3.49427753 0,4.01608964 0,4.6590367 C0,5.30198377 0.521812111,5.82379588 1.16475918,5.82379588 L3.53562648,5.78244693 L3.49427753,8.15331423 C3.49427753,8.7962613 4.01608964,9.31807341 4.6590367,9.31807341 C5.30198377,9.31807341 5.82379588,8.7962613 5.82379588,8.15331423 L5.82379588,5.78244693 L8.15331423,5.82379588 C8.7962613,5.82379588 9.31807341,5.30198377 9.31807341,4.6590367 C9.31807341,4.01608964 8.7962613,3.49427753 8.15331423,3.49427753 Z" id="Shape"></path>
                        </g>
                        <g id="if_plus_216373-copy-9" opacity="0.45" transform="translate(147.098003, 11.818807) scale(-1, 1) rotate(-2.000000) translate(-147.098003, -11.818807) translate(136.598003, 1.318807)" fill="#041C3F" fill-rule="nonzero">
                            <path d="M17.6712132,7.5733771 L12.6222952,7.5733771 L12.6222952,2.52445903 C12.6222952,1.13095765 11.4913375,0 10.0978361,0 C8.70433475,0 7.5733771,1.13095765 7.5733771,2.52445903 L7.6629954,7.5733771 L2.52445903,7.5733771 C1.13095765,7.5733771 0,8.70433475 0,10.0978361 C0,11.4913375 1.13095765,12.6222952 2.52445903,12.6222952 L7.6629954,12.5326769 L7.5733771,17.6712132 C7.5733771,19.0647146 8.70433475,20.1956723 10.0978361,20.1956723 C11.4913375,20.1956723 12.6222952,19.0647146 12.6222952,17.6712132 L12.6222952,12.5326769 L17.6712132,12.6222952 C19.0647146,12.6222952 20.1956723,11.4913375 20.1956723,10.0978361 C20.1956723,8.70433475 19.0647146,7.5733771 17.6712132,7.5733771 Z" id="Shape"></path>
                        </g>
                        <g id="if_plus_216373-copy-23" opacity="0.45" transform="translate(253.825013, 348.001402) scale(-1, 1) rotate(-56.000000) translate(-253.825013, -348.001402) translate(243.325013, 337.501402)" fill="#041C3F" fill-rule="nonzero">
                            <path d="M18.2193991,7.80831389 L13.0138565,7.80831389 L13.0138565,2.6027713 C13.0138565,1.16604154 11.8478149,0 10.4110852,0 C8.97435543,0 7.80831389,1.16604154 7.80831389,2.6027713 L7.90071227,7.80831389 L2.6027713,7.80831389 C1.16604154,7.80831389 0,8.97435543 0,10.4110852 C0,11.8478149 1.16604154,13.0138565 2.6027713,13.0138565 L7.90071227,12.9214581 L7.80831389,18.2193991 C7.80831389,19.6561288 8.97435543,20.8221704 10.4110852,20.8221704 C11.8478149,20.8221704 13.0138565,19.6561288 13.0138565,18.2193991 L13.0138565,12.9214581 L18.2193991,13.0138565 C19.6561288,13.0138565 20.8221704,11.8478149 20.8221704,10.4110852 C20.8221704,8.97435543 19.6561288,7.80831389 18.2193991,7.80831389 Z" id="Shape"></path>
                        </g>
                        <g id="if_plus_216373-copy-22" opacity="0.05" transform="translate(110.438386, 407.546258) scale(-1, 1) rotate(-330.000000) translate(-110.438386, -407.546258) translate(97.438386, 394.546258)" fill="#041C3F" fill-rule="nonzero">
                            <path d="M22.0174482,9.43604924 L15.7267487,9.43604924 L15.7267487,3.14534975 C15.7267487,1.40911669 14.3176321,0 12.581399,0 C10.8451659,0 9.43604924,1.40911669 9.43604924,3.14534975 L9.54770916,9.43604924 L3.14534975,9.43604924 C1.40911669,9.43604924 0,10.8451659 0,12.581399 C0,14.3176321 1.40911669,15.7267487 3.14534975,15.7267487 L9.54770916,15.6150888 L9.43604924,22.0174482 C9.43604924,23.7536813 10.8451659,25.162798 12.581399,25.162798 C14.3176321,25.162798 15.7267487,23.7536813 15.7267487,22.0174482 L15.7267487,15.6150888 L22.0174482,15.7267487 C23.7536813,15.7267487 25.162798,14.3176321 25.162798,12.581399 C25.162798,10.8451659 23.7536813,9.43604924 22.0174482,9.43604924 Z" id="Shape"></path>
                        </g>
                        <circle id="Oval-4-Copy" stroke="#041C3F" stroke-width="8" opacity="0.05" transform="translate(130.500000, 77.500000) scale(-1, 1) translate(-130.500000, -77.500000) " cx="130.5" cy="77.5" r="17.5"></circle>
                        <circle id="Oval-4-Copy-4" stroke="#041C3F" stroke-width="8" transform="translate(220.500000, 54.500000) scale(-1, 1) translate(-220.500000, -54.500000) " cx="220.5" cy="54.5" r="10.5"></circle>
                        <circle id="Oval-4-Copy-26" stroke="#041C3F" stroke-width="8" opacity="0.05" transform="translate(195.000000, 354.000000) scale(-1, 1) translate(-195.000000, -354.000000) " cx="195" cy="354" r="13"></circle>
                        <circle id="Oval-4-Copy-25" stroke="#041C3F" stroke-width="8" opacity="0.15" transform="translate(134.500000, 338.500000) scale(-1, 1) translate(-134.500000, -338.500000) " cx="134.5" cy="338.5" r="10.5"></circle>
                        <circle id="Oval-4-Copy-24" stroke="#041C3F" stroke-width="8" transform="translate(167.000000, 408.000000) scale(-1, 1) translate(-167.000000, -408.000000) " cx="167" cy="408" r="7"></circle>
                        <circle id="Oval-4-Copy-23" stroke="#041C3F" stroke-width="8" opacity="0.05" transform="translate(10.500000, 264.500000) scale(-1, 1) translate(-10.500000, -264.500000) " cx="10.5" cy="264.5" r="10.5"></circle>
                        <circle id="Oval-4-Copy-22" stroke="#00A8BD" stroke-width="8" transform="translate(83.500000, 258.500000) scale(-1, 1) translate(-83.500000, -258.500000) " cx="83.5" cy="258.5" r="21.5"></circle>
                        <circle id="Oval-4-Copy-21" stroke="#041C3F" stroke-width="8" transform="translate(53.000000, 182.000000) scale(-1, 1) translate(-53.000000, -182.000000) " cx="53" cy="182" r="13"></circle>
                    </g>
                </g>
                <g id="Group-4" transform="translate(151.000000, 125.000000)">
                    <g id="if_satellite_2120161" transform="translate(749.000000, 81.000000)">
                        <rect id="Rectangle-8" fill="#6CC7BA" transform="translate(45.500000, 54.000000) rotate(-315.000000) translate(-45.500000, -54.000000) " x="39" y="25" width="13" height="58" rx="6.5"></rect>
                        <path d="M90.9910305,72.2999936 C90.9302937,71.5896552 90.559621,70.9424778 89.9768802,70.5316121 L64.1373556,52.3012942 C63.1767965,51.6232381 61.8670012,51.7355244 61.0351887,52.5669533 L58.5101483,55.0923742 L54.554222,51.1368343 L71.4765477,34.2146517 C71.4765477,34.2138861 71.4773133,34.2138861 71.4773133,34.2138861 C73.4388801,32.2523211 74.5192539,29.6440891 74.5192539,26.8689589 C74.5192539,24.0939562 73.4388801,21.4855966 71.4765477,19.5233936 C67.4376826,15.4846598 60.8727562,15.4734311 56.8194725,19.4891974 C56.8074782,19.5002984 56.7963772,19.511527 56.7847658,19.5233936 L39.8626952,36.4451934 L35.9075344,32.4901639 L38.4323196,29.964743 C39.263877,29.1331865 39.3761633,27.8233924 38.6984894,26.8628342 L20.4684099,1.02346102 C20.0575438,0.441103468 19.4103658,0.0699207059 18.7000268,0.00892883227 C17.9903257,-0.0523182375 17.2891737,0.203771073 16.7851609,0.708038614 L0.707917887,16.7846288 C0.203649882,17.2892792 -0.051929271,17.9897925 0.0088074624,18.7001309 C0.0694165976,19.4104693 0.440982496,20.0572639 1.02372338,20.4685125 L26.8624823,38.6980648 C27.2830459,38.9951131 27.7699606,39.1399369 28.2552164,39.1399369 C28.8784059,39.1399369 29.4966191,38.9001801 29.964394,38.4325332 L32.4898172,35.9077504 L36.4448504,39.8629075 L29.6586688,46.6488276 C29.658286,46.6494656 29.657648,46.6502312 29.6566272,46.6511244 C29.6562444,46.6517624 29.6556064,46.652528 29.6548409,46.6529108 L21.2539043,55.0542224 C21.2428033,55.0651958 21.2322126,55.0761692 21.2214944,55.0870151 C17.2035553,59.1405503 17.2144012,65.7068742 21.2539043,69.7463736 C23.2791426,71.7716101 25.9387991,72.7846111 28.5994763,72.7843559 C31.2595156,72.7839731 33.9200652,71.7714825 35.9451759,69.7463736 C35.9500246,69.7416525 35.9541078,69.737059 35.9590841,69.7322102 L51.1365047,54.554676 L55.0923035,58.5105987 L52.5672631,61.0356367 C51.7355782,61.8674485 51.623547,63.1762218 52.3016037,64.1372904 L70.5316832,89.9767911 C70.9428045,90.5591487 71.5893445,90.9304591 72.2996836,90.9914509 C72.3685866,90.9973204 72.4376172,91 72.5058822,91 C73.1445111,91 73.7597895,90.747611 74.2151874,90.2923411 L90.2923029,74.2153681 C90.7965709,73.7105902 91.0524052,73.0099492 90.9910305,72.2999936 Z M6.15457377,18.1737889 L18.1736843,6.15430669 L22.887161,12.8355964 L12.8354868,22.8871337 L6.15457377,18.1737889 Z M27.9862395,33.576151 L16.8436009,25.7145792 L25.7143539,16.8430687 L33.5759329,27.9856971 L27.9862395,33.576151 Z M60.1722422,22.9709657 C60.1818121,22.9612682 60.1925303,22.9506776 60.2021002,22.9409801 C62.3684621,20.7752582 65.8932342,20.7752582 68.0587029,22.9409801 C69.1079427,23.9900914 69.6857073,25.3856314 69.6857073,26.8689589 C69.6857073,28.3530519 69.1079427,29.7478263 68.0587029,30.7969376 L59.6340331,39.2215996 L51.7776856,31.3657698 L60.1722422,22.9709657 Z M32.5275863,66.3282767 C32.5241411,66.3315943 32.5203132,66.3355498 32.5164852,66.3393778 C30.3493577,68.4943814 26.8333899,68.4902983 24.6717492,66.3282767 C22.5052597,64.1624272 22.5060253,60.6379136 24.6717492,58.4719365 C24.6808086,58.462239 24.6905061,58.4529243 24.6999484,58.4430993 L31.3655496,51.7773765 L39.2221523,59.633972 L32.5275863,66.3282767 Z M42.6398696,56.2158751 L34.7832669,48.3594073 L48.3599684,34.7833563 L56.2164435,42.6399517 L42.6398696,56.2158751 Z M57.4237774,63.0137895 L63.0135985,57.4235908 L74.1568751,65.2849074 L65.2854841,74.156035 L57.4237774,63.0137895 Z M72.8269193,84.8453075 L68.1130597,78.163635 L78.1642235,68.112608 L84.8455194,72.8260804 L72.8269193,84.8453075 Z" id="Shape" fill="#0B2D3F" fill-rule="nonzero"></path>
                    </g>
                    <g id="if_planet_2120155" fill-rule="nonzero">
                        <path d="M135,65.4994962 C135,91.7338901 113.284656,113 86.500669,113 C59.7133373,113 38,91.7335542 38,65.4994962 C38,39.2654381 59.7133373,18 86.500669,18 C113.284656,18 135,39.265774 135,65.4994962 Z" id="Shape" fill="#6CC7BA"></path>
                        <path d="M147.142921,23.2812402 C144.291774,16.9169373 138.281088,12.1916833 129.762328,9.61495758 C122.426567,7.39645962 113.163993,6.76170525 102.903538,7.76390489 C94.3895838,2.70241961 84.6487542,0 74.4913053,0 C59.5728198,0 45.5471201,5.82465696 34.9979151,16.4022206 C27.0228081,24.3978213 21.7590703,34.3860899 19.6640638,45.2475123 C12.0976367,52.2744318 6.41560796,59.6407248 3.19568724,66.6150623 C-0.541978189,74.7120561 -1.01041387,82.3552949 1.84010709,88.7189693 C6.35606105,98.7998324 18.4200558,104.474495 35.8096335,104.697601 C36.1675418,104.702001 36.5264947,104.704305 36.8871191,104.704305 C39.8611216,104.704305 42.9343689,104.547607 46.0857584,104.240285 C54.5974144,109.299256 64.3371993,112 74.4913053,112 C89.4095818,112 103.43549,106.174924 113.984695,95.5977794 C121.958549,87.6034356 127.22166,77.6157955 129.318756,66.7558395 C131.923776,64.3353933 134.325084,61.8640411 136.491755,59.3553996 C147.875871,46.1732481 151.658248,33.3616843 147.142921,23.2812402 Z M69.4279376,8.20257673 C69.7252543,9.1896931 69.8786137,10.2208023 69.8786137,11.2628051 C69.8786137,17.0824343 65.1566483,21.8175343 59.3526007,21.8175343 C54.9099834,21.8175343 51.0202122,19.0112077 49.5031242,14.9965434 C55.4237584,11.3562376 62.1878693,8.96826228 69.4279376,8.20257673 Z M35.9109677,96.7629622 C21.9822145,96.5838483 12.1950011,92.466534 9.05886389,85.4672672 C7.14939303,81.2031005 7.59212951,75.9815649 10.3778801,69.947837 C12.2104624,65.9784225 15.0210765,61.8091547 18.6638847,57.6227087 C19.0688037,71.9729758 24.831064,85.4048392 34.9977062,95.5975699 C35.3925962,95.9939248 35.7943811,96.3814811 36.199509,96.7642191 C36.1038161,96.7640096 36.0070785,96.7646381 35.9109677,96.7629622 Z M74.4913053,104.06578 C69.5756557,104.06578 64.8307073,103.31832 60.3625998,101.933173 C70.1890934,99.7559443 80.4221774,96.3326699 90.521333,91.7840159 C100.614012,87.2389232 109.960787,81.8485388 118.108476,75.9340107 C110.53975,92.5168116 93.8361109,104.06578 74.4913053,104.06578 Z M121.956251,62.7386614 C112.618668,70.9709856 100.667499,78.5163926 87.2786382,84.5461401 C73.8993881,90.5719074 60.345467,94.5134597 48.0113174,96.0465068 C35.0881757,87.4276736 26.5531188,72.6950875 26.5531188,56 C26.5531188,41.5730596 32.9267274,28.611082 42.9976766,19.7932335 C46.1018465,25.7465172 52.3317068,29.7532209 59.3526007,29.7532209 C69.5202876,29.7532209 77.7922934,21.4582591 77.7922934,11.2630146 C77.7922934,10.176181 77.6951379,9.09479418 77.507095,8.03288991 C102.540615,9.59945533 122.42991,30.5124123 122.42991,56 C122.42991,58.2872106 122.265685,60.5360846 121.956251,62.7386614 Z M130.507813,54.1602598 C130.446177,54.2323243 130.381407,54.3041793 130.318726,54.3760344 C129.914434,40.0263957 124.151129,26.5951608 113.984695,16.4020111 C113.589805,16.0054467 113.189065,15.6180999 112.784146,15.2351524 C118.324516,15.28543 123.299921,15.948675 127.476353,17.212318 C133.825099,19.1322929 138.013022,22.2679376 139.923329,26.5321043 C143.058839,33.5315806 139.626848,43.6021787 130.507813,54.1602598 Z" id="Shape" fill="#041C3F"></path>
                        <path d="M59.500416,43 C51.5044474,43 45,49.5052114 45,57.5007281 C45,65.4952046 51.5044474,72 59.500416,72 C67.4951366,72 74,65.4947886 74,57.5007281 C74,49.5050034 67.4951366,43 59.500416,43 Z M59.500416,64.1209784 C55.8496213,64.1209784 52.8801001,61.1507693 52.8801001,57.5005201 C52.8801001,53.8496467 55.8496213,50.8800617 59.500416,50.8800617 C63.1505868,50.8800617 66.1201079,53.8494387 66.1201079,57.5005201 C66.1201079,61.1507693 63.1505868,64.1209784 59.500416,64.1209784 Z" id="Shape" fill="#041C3F"></path>
                        <path d="M101.50086,44 C94.6076956,44 89,49.6073842 89,56.5 C89,63.3926158 94.6076956,69 101.50086,69 C108.393164,69 114,63.3926158 114,56.5 C114,49.6073842 108.393164,44 101.50086,44 Z M101.50086,60.8574057 C99.0982373,60.8574057 97.1429493,58.9023663 97.1429493,56.5 C97.1429493,54.0972038 99.0984523,52.1425943 101.50086,52.1425943 C103.903267,52.1425943 105.857696,54.0974188 105.857696,56.5 C105.857696,58.9025812 103.903482,60.8574057 101.50086,60.8574057 Z" id="Shape" fill="#041C3F"></path>
                    </g>
                </g>
            </g>
        </g>
    </g>
</svg>