<?xml version="1.0" encoding="UTF-8" standalone="no"?>
<svg width="150px" height="230px" viewBox="0 0 150 230" version="1.1" xmlns="http://www.w3.org/2000/svg" xmlns:xlink="http://www.w3.org/1999/xlink">
    <!-- Generator: Sketch 39.1 (31720) - http://www.bohemiancoding.com/sketch -->
    <title>Artboard</title>
    <desc>Created with Sketch.</desc>
    <defs></defs>
    <g id="Page-1" stroke="none" stroke-width="1" fill="none" fill-rule="evenodd">
        <g id="Artboard" fill="#FFFFFF">
            <g id="Group-5">
                <path d="M10.0108696,0.346236559 L142.076087,0.346236559 C146.576087,0.346236559 149.413043,4.03942652 149.413043,8.58996416 C149.413043,13.1405018 146.576087,16.8336918 142.076087,16.8336918 L10.0108696,16.8336918 C5.50854824,16.8336918 1.85869565,13.1428492 1.85869565,8.58996416 C1.85869565,4.03707912 5.50854824,0.346236559 10.0108696,0.346236559 L10.0108696,0.346236559 Z" id="Shape"></path>
                <path d="M141.48913,229.340502 C137.117376,229.340502 133.57337,225.756694 133.57337,221.335842 L133.57337,8.35089606 C133.57337,3.93004469 137.117376,0.346236559 141.48913,0.346236559 L141.48913,0.346236559 C145.860884,0.346236559 149.404891,3.93004469 149.404891,8.35089606 L149.404891,221.327599 C149.404891,225.74845 145.860884,229.332258 141.48913,229.332258 L141.48913,229.332258 L141.48913,229.340502 Z" id="Shape"></path>
                <ellipse id="Oval" cx="74.1195652" cy="171.683871" rx="8.15217391" ry="8.2437276"></ellipse>
                <path d="M69.5625,164.396416 L4.63858696,214.097849 C2.16296942,215.654388 0.696585436,218.428247 0.791807664,221.374542 C0.887029892,224.320836 2.52939181,226.991954 5.10023158,228.38171 C7.67107134,229.771467 10.7798172,229.668725 13.2554348,228.112186 L78.1793478,178.394265 C80.6520529,176.837727 82.1157456,174.065439 82.0190671,171.121695 C81.9223887,168.177951 80.2800267,165.509976 77.7106432,164.12277 C75.1412597,162.735564 72.035205,162.839877 69.5625,164.396416 L69.5625,164.396416 Z" id="Shape"></path>
                <path d="M136.956522,228.095699 L72.0244565,178.394265 C69.548839,176.837727 68.082455,174.063867 68.1776772,171.117573 C68.2728995,168.171278 69.9152614,165.500161 72.4861011,164.110404 C75.0569409,162.720648 78.1656868,162.82339 80.6413043,164.379928 L145.565217,214.081362 C148.040835,215.636428 149.507996,218.408926 149.414035,221.354485 C149.320074,224.300043 147.679266,226.971161 145.109687,228.361653 C142.540108,229.752146 139.432139,229.650765 136.956522,228.095699 L136.956522,228.095699 Z" id="Shape"></path>
                <path d="M8.80434783,229.406452 C4.43259381,229.406452 0.888586957,225.822643 0.888586957,221.401792 L0.888586957,41.3917563 C0.888586957,36.9648746 4.43478261,31.7383513 8.80434783,31.7383513 L8.80434783,31.7383513 C13.1761018,31.7383513 16.7201087,35.3221594 16.7201087,39.7430108 L16.7201087,221.393548 C16.7201087,225.8144 13.1761018,229.398208 8.80434783,229.398208 L8.80434783,229.398208 L8.80434783,229.406452 Z" id="Shape"></path>
            </g>
        </g>
    </g>
</svg>