<svg xmlns="http://www.w3.org/2000/svg" width="100" height="100" viewBox="0 0 100 100">
  <g fill="none" fill-rule="evenodd">
    <ellipse cx="50" cy="50" fill="#D3A02A" rx="50" ry="50"/>
    <path fill="#FFFFFF" d="M58.9789084,30.5065086 C58.7781371,30.5792318 58.5836242,30.6613428 58.3921155,30.7475843 C58.4772305,30.7160417 58.5008874,30.7099084 58.5244192,30.7030241 C57.8883097,30.9454767 57.5598659,31.6539341 57.7906778,32.2975538 C58.0201128,32.9372932 58.7158028,33.2726213 59.3569192,33.0609603 C59.5048691,33.0113933 59.6538204,32.9489339 59.8072777,32.8937344 C60.3123352,32.7121139 60.8245273,32.6042181 61.3332147,32.5620361 C61.4913033,32.5571545 61.652396,32.5496444 61.815241,32.5506458 C65.0978017,32.5711735 67.706702,35.2355238 67.6724057,38.5321033 C67.6562588,40.1053542 67.022152,41.5251477 66.0027745,42.5711862 C65.9671013,42.5987234 65.9324295,42.6551747 65.8993848,42.687218 L41.1372995,67.4966173 L32.5033827,67.4966173 L32.5033827,58.3143345 L39.226843,65.0429266 C39.7156285,65.5317121 40.5055709,65.5317121 40.9943564,65.0429266 C41.4831418,64.5541412 41.4818902,63.7615702 40.9931047,63.2727847 L34.2948034,56.5751093 L55.250996,36.4919716 L56.5456203,37.8108788 L38.9271881,55.429311 C38.4384026,55.9180965 38.4384026,56.7106675 38.9271881,57.199453 C39.4159735,57.6882385 40.2085445,57.6882385 40.69733,57.199453 L58.2993651,39.5974179 L60.2508772,41.5852289 L42.6669915,59.1691145 C42.1782061,59.6580252 42.1780809,60.450471 42.6669915,60.9392565 C43.155777,61.4281671 43.948348,61.4281671 44.4371335,60.9392565 L62.8694155,42.5069745 C63.3766009,41.9835171 63.3766009,41.1869407 62.8898181,40.700158 L56.171615,33.8567857 C56.0784891,33.7636599 55.9740981,33.6888087 55.8626975,33.6312309 C55.3896834,33.3805171 54.7867436,33.4534907 54.3895819,33.8505272 L30.361864,56.8768921 C30.0589547,57.1798014 29.9499323,57.6027479 30.0241576,57.9964049 C30.0053823,58.0822709 30,58.171141 30,58.2625145 L30,68.3198547 C30,68.4065969 30.0038802,68.4913364 30.0209032,68.573197 C30.017023,68.6130008 30.0121414,68.680467 30.0121414,68.7212721 C30.0121414,69.4097023 30.572774,70 31.2610791,70 L41.3185444,70 C41.4939064,70 41.6610072,69.9360386 41.8129625,69.8700744 C42.1057331,69.8560555 42.3948738,69.7277571 42.6211796,69.5090866 L67.258972,44.8313653 C68.7703893,43.5438756 69.826191,41.7346809 70.1379873,39.6879151 C70.1517559,39.5941635 70.1581396,39.5503543 70.1637722,39.5071709 C70.3416375,38.2119207 70.2203486,36.8582164 69.7504637,35.5484466 C68.1840971,31.1844246 63.3479371,28.9204904 58.9789084,30.5065086 Z"/>
  </g>
</svg>
