<svg xmlns="http://www.w3.org/2000/svg" width="100" height="100" viewBox="0 0 100 100">
  <g fill="none" fill-rule="evenodd">
    <ellipse cx="50" cy="50" fill="#D3A02A" rx="50" ry="50"/>
    <path fill="#FFFFFF" d="M72.0083453,27.3909353 C72.0083453,26.6227338 71.3856115,26 70.6174101,26 C70.2336691,26 69.8861871,26.1555396 69.6345324,26.4069065 L69.6005755,26.3729496 L41.8374101,54.1051799 L35.3461871,47.86 C35.087482,47.462446 34.64,47.1991367 34.1303597,47.1991367 C33.3292086,47.1991367 32.6798561,47.8484892 32.6798561,48.6496403 C32.6798561,49.0064748 32.8092086,49.3328058 33.0228777,49.5854676 L33.0066187,49.6023022 L41.8751079,58.1346763 L71.6342446,28.4089209 L71.6004317,28.374964 C71.8523741,28.1231655 72.0083453,27.7752518 72.0083453,27.3909353"/>
    <path fill="#FFFFFF" d="M64.9100719,44.5966906 L64.9100719,46.6968345 L64.9100719,50.7664748 L64.9100719,54.2369784 L64.9100719,63.1223022 L30.3776978,63.1223022 L30.3776978,62.6302158 L30.3776978,60.9290647 L30.3776978,56.8594245 L30.3776978,46.754964 L30.3776978,34.057554 L59.1546763,34.057554 L59.1546763,31.1798561 L29.0040288,31.1798561 C28.554964,31.1798561 28.1430216,31.4145324 27.8791367,31.7368345 C27.6510791,31.9913669 27.5,32.3555396 27.5,32.7243165 L27.5,64.5228777 L27.5,64.5241727 L27.5,64.5254676 C27.5,65.3201439 28.1664748,66 28.9611511,66 L66.2273381,66 C66.267482,66 66.3069065,65.9794245 66.3463309,65.9761151 C66.3689209,65.9772662 66.3585612,65.9706475 66.3814388,65.9706475 C67.1761151,65.9706475 67.7877698,65.317554 67.7877698,64.5228777 L67.7877698,38.9496403 L64.9100719,38.9496403 L64.9100719,44.5966906 Z"/>
  </g>
</svg>
