<svg xmlns="http://www.w3.org/2000/svg" width="100" height="100" viewBox="0 0 100 100">
  <g fill="none" fill-rule="evenodd">
    <ellipse cx="50" cy="50" fill="#D3A02A" rx="50" ry="50"/>
    <path fill="#FFFFFF" fill-rule="nonzero" d="M27.8504,36.4710769 L23.2252,34.5913846 C23.064,34.5283077 22.8904,34.5030769 22.7292,34.5030769 C22.4068,34.5030769 22.0844,34.6166154 21.8364,34.8689231 L20.2988,36.4332308 L20.2864,30.1255385 C20.2864,30.012 20.274,29.9110769 20.2492,29.7975385 C21.5016,29.3686154 22.6796,28.7756923 23.746,28.044 L25.9284,34.112 C26.164,34.768 26.8708,35.096 27.5156,34.8563077 C28.1604,34.6166154 28.4828,33.8975385 28.2472,33.2415385 L25.7796,26.3661538 C28.6068,23.616 30.3676,19.7304615 30.3676,15.4412308 C30.3676,7.08984615 23.7088,0.315384615 15.5,0.315384615 C7.2912,0.315384615 0.6324,7.11507692 0.6324,15.4664615 C0.6324,19.8566154 2.4676,23.8052308 5.394,26.568 L2.9884,33.2667692 C2.7528,33.9227692 3.0876,34.6418462 3.72,34.8815385 C4.3648,35.1212308 5.0716,34.7806154 5.3072,34.1372308 L7.44,28.1953846 C8.4196,28.8387692 9.486,29.3686154 10.602,29.7723077 C10.5648,29.8858462 10.54,30.012 10.54,30.1507692 L10.5276,36.3953846 L9.0768,34.9193846 C8.8288,34.6670769 8.5064,34.5409231 8.184,34.5535385 C8.0228,34.5535385 7.8492,34.5787692 7.688,34.6418462 L3.0628,36.5215385 C2.4304,36.7738462 2.1204,37.5055385 2.3684,38.1615385 C2.6164,38.8049231 3.3356,39.1203077 3.9804,38.868 L7.8988,37.2784615 L10.8624,40.2935385 C11.1104,40.5458462 11.4328,40.6593846 11.7552,40.6593846 L11.7676,40.6593846 C12.4496,40.6593846 13.0076,40.1043077 13.0076,39.3978462 L13.02,30.4156923 C13.826,30.5544615 14.6444,30.6301538 15.4876,30.6301538 C16.2688,30.6301538 17.05,30.5670769 17.794,30.4535385 L17.8064,39.4104615 C17.8064,40.1043077 18.3644,40.672 19.0464,40.672 C19.1208,40.672 19.1952,40.6593846 19.2572,40.6467692 C19.5424,40.6215385 19.8152,40.508 20.0384,40.2809231 L23.002,37.2658462 L26.9204,38.8553846 C27.5528,39.1076923 28.272,38.8049231 28.5324,38.1489231 C28.7928,37.4676923 28.4828,36.736 27.8504,36.4710769 L27.8504,36.4710769 Z M15.5,28.0692308 C8.6552,28.0692308 3.1124,22.4301538 3.1124,15.4664615 C3.1124,8.50276923 8.6552,2.86369231 15.5,2.86369231 C22.3448,2.86369231 27.8876,8.50276923 27.8876,15.4664615 C27.8876,22.4301538 22.3448,28.0692308 15.5,28.0692308 Z M22.6672,10.9375385 L19.5548,10.1301538 L16.5664,6.54738462 C16.3184,6.25723077 15.9836,6.10584615 15.6364,6.10584615 L15.6116,6.10584615 L15.5868,6.10584615 C15.2396,6.10584615 14.8924,6.25723077 14.6568,6.54738462 L11.6684,10.1301538 L8.556,10.9375385 C8.2584,10.9501538 7.9732,11.0636923 7.75,11.2907692 C7.2664,11.7701538 7.254,12.5775385 7.7252,13.0695385 L10.726,16.1981538 L9.4984,20.8406154 C9.4736,20.9415385 9.4612,21.0550769 9.4488,21.156 C9.424,21.3956923 9.4736,21.6606154 9.61,21.8876923 C9.672,21.9886154 9.734,22.0769231 9.8208,22.1526154 L9.8332,22.1652308 C9.8456,22.1778462 9.858,22.1904615 9.8704,22.1904615 C10.0068,22.3166154 10.168,22.4175385 10.354,22.468 C10.4904,22.5058462 10.6392,22.5184615 10.7756,22.5058462 C10.9616,22.4932308 11.1476,22.4427692 11.3336,22.3292308 L15.4256,20.008 L19.7904,22.4049231 C20.1872,22.632 20.6584,22.6193846 21.0552,22.4049231 C21.6132,22.1526154 21.9108,21.4966154 21.7372,20.8406154 L20.5096,16.1981538 L23.5104,13.0695385 C23.9816,12.5775385 23.9816,11.7701538 23.4856,11.2907692 C23.25,11.0636923 22.9648,10.9501538 22.6672,10.9375385 L22.6672,10.9375385 Z M18.2404,14.9366154 C18.0048,15.1889231 17.8808,15.5169231 17.8932,15.8323077 C17.8932,15.9710769 17.9056,16.0972308 17.9428,16.236 L18.6,18.7464615 L16.2068,17.4344615 C16.0332,17.3335385 15.8472,17.2830769 15.6736,17.2704615 C15.4008,17.2326154 15.128,17.2830769 14.8676,17.4344615 L12.6232,18.7086154 L13.2804,16.236 C13.3176,16.0972308 13.33,15.9584615 13.33,15.8323077 C13.33,15.5043077 13.2184,15.1889231 12.9828,14.9366154 L11.0236,12.8929231 L12.6728,12.464 C12.896,12.4135385 13.082,12.3 13.2308,12.1486154 C13.268,12.1107692 13.3052,12.0729231 13.3424,12.0350769 L15.6364,9.28492308 L17.9304,12.0350769 C17.9676,12.0729231 18.0048,12.1107692 18.042,12.1486154 C18.1908,12.3 18.3768,12.4135385 18.6,12.464 L20.2492,12.8929231 L18.2404,14.9366154 L18.2404,14.9366154 Z" transform="translate(35 30)"/>
  </g>
</svg>
