<?xml version="1.0" encoding="utf-8"?>
<!-- Generator: Adobe Illustrator 20.1.0, SVG Export Plug-In . SVG Version: 6.00 Build 0)  -->
<svg version="1.1" id="Layer_1" xmlns="http://www.w3.org/2000/svg" xmlns:xlink="http://www.w3.org/1999/xlink" x="0px" y="0px"
	 width="400px" height="400px" viewBox="0 0 400 400" enable-background="new 0 0 400 400" xml:space="preserve">
<g id="Layer_x25_201107">
	<path fill="#127187" d="M114.6,249.9l-39.5-39.6H191c5.5,0,10-4.5,10-10c0-5.5-4.5-10-10-10H74.5l40.2-40.2
		c3.9-3.9,3.9-10.3,0-14.2c-3.9-3.9-10.2-3.9-14.1,0l-56.6,56.7c-2,2-3,4.7-2.9,7.4c0,0.1,0,0.2,0,0.3c0,0,0,0,0,0.1c0,0,0,0,0,0
		c0,0.3,0,0.6,0,1c0,0.1,0,0.3,0.1,0.4c0,0.2,0,0.4,0.1,0.5c0,0.2,0.1,0.3,0.1,0.5c0,0.2,0.1,0.3,0.1,0.5c0,0.2,0.1,0.3,0.2,0.5
		c0.1,0.2,0.1,0.3,0.2,0.5c0.1,0.1,0.1,0.3,0.2,0.4c0.1,0.2,0.1,0.3,0.2,0.5c0.1,0.1,0.1,0.2,0.2,0.4c0.1,0.2,0.2,0.3,0.3,0.5
		c0.1,0.1,0.2,0.3,0.3,0.4c0.1,0.1,0.2,0.3,0.3,0.4c0.2,0.2,0.3,0.4,0.5,0.6c0,0,0.1,0.1,0.1,0.1l56.6,56.7c3.9,3.9,10.2,3.9,14.1,0
		C118.5,260.2,118.5,253.8,114.6,249.9z"/>
	<path fill="#127187" d="M121,351c0.5,5.1,4.8,9,9.9,9h220c5.5,0,10-4.5,10-10V50c0-5.5-4.5-10-10-10H131c-5.5,0-10,4.5-10,10v40.3
		c0,5.5,4.5,10,10,10s10-4.5,10-10V60h200v280H141v-29.7h-0.1c0-0.3,0.1-0.7,0.1-1c0-5.5-4.5-10-10-10s-10,4.5-10,10
		c0,0.3,0,0.7,0.1,1H121V350C121,350.3,121,350.7,121,351z M121,351L121,351c0-0.3,0-0.7,0-1V351z"/>
</g>
</svg>
