<svg xmlns="http://www.w3.org/2000/svg" width="100" height="100" viewBox="0 0 100 100">
  <g fill="none" fill-rule="evenodd">
    <ellipse cx="50" cy="50" fill="#127187" rx="50" ry="50"/>
    <path fill="#FFFFFF" fill-rule="nonzero" d="M7.888,13.6666667 C3.84,13.6666667 0.554666667,16.952 0.554666667,21 C0.554666667,25.048 3.84,28.3333333 7.888,28.3333333 C11.936,28.3333333 15.2213333,25.048 15.2213333,21 C15.2213333,16.952 11.936,13.6666667 7.888,13.6666667 Z M7.888,25.4 C5.45333333,25.4 3.488,23.4346667 3.488,21 C3.488,18.5653333 5.45333333,16.6 7.888,16.6 C10.3226667,16.6 12.288,18.5653333 12.288,21 C12.288,23.4346667 10.308,25.4 7.888,25.4 Z M37.2066667,32.7773333 C34.772,32.7773333 32.8066667,34.7426667 32.8066667,37.1773333 C32.8066667,39.612 34.772,41.5773333 37.2066667,41.5773333 C39.6413333,41.5773333 41.6066667,39.612 41.6066667,37.1773333 C41.6066667,34.7426667 39.6413333,32.7773333 37.2066667,32.7773333 Z M37.2066667,38.644 C36.4,38.644 35.74,37.984 35.74,37.1773333 C35.74,36.3706667 36.4,35.7106667 37.2066667,35.7106667 C38.0133333,35.7106667 38.6733333,36.3706667 38.6733333,37.1773333 C38.6733333,37.984 38.028,38.644 37.2066667,38.644 Z M17.4506667,17.7733333 C17.5386667,17.7146667 17.612,17.656 17.6853333,17.5973333 L27.7906667,9.97066667 C28.48,9.54533333 28.7,8.65066667 28.2893333,7.96133333 C27.864,7.272 26.9693333,7.052 26.28,7.46266667 C26.192,7.52133333 26.1186667,7.58 26.0453333,7.63866667 L15.94,15.2653333 C15.2506667,15.6906667 15.0306667,16.5853333 15.4413333,17.2746667 C15.852,17.964 16.7613333,18.1986667 17.4506667,17.7733333 L17.4506667,17.7733333 Z M30.7386667,32.088 L17.4506667,24.2853333 C16.7613333,23.86 15.852,24.08 15.4413333,24.784 C15.0306667,25.488 15.236,26.3826667 15.94,26.7933333 L29.228,34.596 C29.9173333,35.0213333 30.8266667,34.8013333 31.2373333,34.0973333 C31.648,33.408 31.428,32.5133333 30.7386667,32.088 Z M34.2733333,9.252 C36.708,9.252 38.6733333,7.28666667 38.6733333,4.852 C38.6733333,2.41733333 36.708,0.452 34.2733333,0.452 C31.8386667,0.452 29.8733333,2.41733333 29.8733333,4.852 C29.8733333,7.28666667 31.8533333,9.252 34.2733333,9.252 Z M34.2733333,3.38533333 C35.08,3.38533333 35.74,4.04533333 35.74,4.852 C35.74,5.65866667 35.08,6.31866667 34.2733333,6.31866667 C33.4666667,6.31866667 32.8066667,5.65866667 32.8066667,4.852 C32.8066667,4.04533333 33.4666667,3.38533333 34.2733333,3.38533333 Z" transform="translate(29 29)"/>
  </g>
</svg>
