<?xml version="1.0" encoding="UTF-8"?>
<svg width="372px" height="215px" viewBox="0 0 372 215" version="1.1" xmlns="http://www.w3.org/2000/svg" xmlns:xlink="http://www.w3.org/1999/xlink">
    <!-- Generator: Sketch 44.1 (41455) - http://www.bohemiancoding.com/sketch -->
    <title>W Clip</title>
    <desc>Created with Sketch.</desc>
    <defs></defs>
    <g id="Page-1" stroke="none" stroke-width="1" fill="none" fill-rule="evenodd">
        <g id="W-Clip" fill="#459CAF">
            <path d="M0,-79 L372,-79 L372,293 L0,293 L0,-79 Z M219.29406,28.0492883 L202.479281,62.9876222 L186.986564,31.3444801 C183.359196,23.7642103 182.043777,19.8046653 182.043777,16.5094735 C182.043777,12.2243955 185.006792,10.9089762 196.546607,10.9089762 L208.744131,10.9089762 C219.626236,10.9089762 222.921428,12.5499286 222.921428,16.8416501 C222.921428,19.1469557 221.931542,22.7676805 219.29406,28.0492883 Z M48.535361,38.5992169 L128.968601,212.327574 L149.410748,212.327574 L192.919238,121.337762 L236.108839,212.327574 L257.202052,212.327574 L326.759831,46.1861302 C340.937128,12.2243955 346.537625,11.2411528 365,10.9089762 L365,2 L293.794626,2 L293.794626,10.9089762 C311.599291,10.9089762 317.857498,13.5464583 317.857498,20.8011951 C317.857498,23.4320337 316.874255,27.7237553 312.91471,36.9449775 L255.886633,173.097519 L211.381613,81.4433537 L232.807004,38.5992169 C245.004528,13.8786349 248.306363,11.2411528 271.047173,10.9089762 L271.047173,2 L116.445543,2 L116.445543,10.9089762 C138.20311,10.5767996 141.166125,11.8922189 153.695826,38.5992169 L184.016906,102.543211 L149.410748,174.080762 L92.0504946,52.4376937 C87.4332399,42.8909384 81.1750329,28.0492883 81.1750329,21.7910813 C81.1750329,13.5464583 85.785644,11.5733294 102.600423,10.9089762 L102.600423,2 L7,2 L7,10.9089762 C32.0527586,10.9089762 36.9955462,13.5464583 48.535361,38.5992169 Z" id="Combined-Shape"></path>
        </g>
    </g>
</svg>