<?xml version="1.0" standalone="no"?><!-- Generator: Adobe Fireworks CS6, Export SVG Extension by Aaron Beall (http://fireworks.abeall.com) . Version: 0.6.1  --><!DOCTYPE svg PUBLIC "-//W3C//DTD SVG 1.1//EN" "http://www.w3.org/Graphics/SVG/1.1/DTD/svg11.dtd"><svg id="Logo.fw-Page%202" viewBox="0 0 180 50" style="background-color:#ffffff00" version="1.1"	xmlns="http://www.w3.org/2000/svg" xmlns:xlink="http://www.w3.org/1999/xlink" xml:space="preserve"	x="0px" y="0px" width="180px" height="50px">	<path d="M 56.5543 27 C 55.2148 27 54.1456 26.5156 53.3466 25.5391 C 52.5476 24.5625 52.152 23.1758 52.152 21.375 C 52.152 19.5781 52.5476 18.1914 53.3466 17.2148 C 54.1456 16.2383 55.2148 15.75 56.5543 15.75 C 57.8938 15.75 58.9552 16.2422 59.7425 17.2188 C 60.5297 18.1992 60.9253 19.5859 60.9253 21.375 C 60.9253 23.1758 60.5297 24.5625 59.7425 25.5391 C 58.9552 26.5156 57.8938 27 56.5543 27 L 56.5543 27 ZM 64.184 21.375 C 64.184 18.4766 63.3772 16.3008 61.7713 14.8477 C 60.565 13.6172 58.8221 13 56.5426 13 C 54.2631 13 52.5202 13.6172 51.3177 14.8477 C 49.7002 16.3008 48.8933 18.4766 48.8933 21.375 C 48.8933 24.2188 49.7002 26.3945 51.3177 27.9023 C 52.5202 29.1367 54.2631 29.75 56.5426 29.75 C 58.8221 29.75 60.565 29.1367 61.7713 27.9023 C 63.3772 26.3945 64.184 24.2188 64.184 21.375 L 64.184 21.375 Z" fill="#ffffff"/>	<path d="M 72.3249 17.25 C 71.3692 17.25 70.5859 17.4805 69.967 17.9414 C 69.6224 18.2031 69.2542 18.625 68.8665 19.2109 L 68.8665 17.5 L 65.8585 17.5 L 65.8585 29.5 L 68.8665 29.5 L 68.8665 22.957 C 68.8665 22.2109 68.9683 21.5977 69.1759 21.1133 C 69.5675 20.207 70.2999 19.75 71.3653 19.75 C 72.227 19.75 72.8145 20.0625 73.1239 20.6836 C 73.2923 21.0234 73.3784 21.5117 73.3784 22.1445 L 73.3784 29.5 L 76.3865 29.5 L 76.3865 21.375 C 76.3865 19.8633 76.0065 18.7969 75.2467 18.1797 C 74.4869 17.5625 73.5155 17.25 72.3249 17.25 L 72.3249 17.25 Z" fill="#ffffff"/>	<path d="M 83.7087 19.75 C 84.4294 19.75 85.0326 19.9648 85.5182 20.3867 C 86.0039 20.8125 86.2781 21.4336 86.3329 22.25 L 81.0689 22.25 C 81.1786 21.4844 81.4488 20.875 81.8797 20.4258 C 82.3105 19.9766 82.9215 19.75 83.7087 19.75 L 83.7087 19.75 ZM 83.6852 17.25 C 82.0207 17.25 80.6655 17.7969 79.6236 18.8867 C 78.5818 19.9766 78.0609 21.543 78.0609 23.582 C 78.0609 25.7617 78.6327 27.332 79.7803 28.3008 C 80.9279 29.2695 82.2517 29.75 83.7557 29.75 C 85.5731 29.75 86.987 29.1914 87.9975 28.0742 C 88.6477 27.375 89.0119 26.6836 89.0902 26 L 86.2271 26 C 86.047 26.3203 85.8394 26.5703 85.6083 26.75 C 85.1775 27.0859 84.6174 27.25 83.9359 27.25 C 83.2857 27.25 82.7335 27.1016 82.2752 26.7969 C 81.5154 26.3125 81.1159 25.4609 81.0689 24.25 L 89.3174 24.25 C 89.3331 23.2422 89.2978 22.4727 89.2195 21.9336 C 89.0824 21.0195 88.7808 20.2188 88.3147 19.5234 C 87.7977 18.7383 87.1437 18.1641 86.3525 17.7969 C 85.5613 17.4336 84.6722 17.25 83.6852 17.25 L 83.6852 17.25 Z" fill="#ffffff"/>	<path d="M 90.514 21.4336 C 90.514 24.0195 91.1642 26.0508 92.4684 27.5352 C 93.7688 29.0117 95.5548 29.75 97.8343 29.75 C 99.6712 29.75 101.1791 29.2188 102.3541 28.1523 C 103.5291 27.0859 104.2615 25.7031 104.5514 24 L 101.2927 24 C 101.0655 24.8242 100.7796 25.4414 100.4389 25.8516 C 99.82 26.6172 98.9192 27 97.7403 27 C 96.5888 27 95.637 26.543 94.8929 25.6289 C 94.1448 24.7148 93.7727 23.3438 93.7727 21.5078 C 93.7727 19.6758 94.1252 18.2578 94.8302 17.2539 C 95.5352 16.2539 96.5026 15.75 97.7285 15.75 C 98.9309 15.75 99.8396 16.125 100.4506 16.875 C 100.7914 17.2969 101.0734 17.9219 101.2927 18.75 L 104.5514 18.75 C 104.5004 17.7344 104.1362 16.7188 103.4586 15.7031 C 102.2288 13.9023 100.29 13 97.6345 13 C 95.6488 13 94.0155 13.6602 92.7309 14.9766 C 91.2504 16.4922 90.514 18.6445 90.514 21.4336 L 90.514 21.4336 Z" fill="#ffffff"/>	<path d="M 113.2327 24.582 C 113.2092 25.5977 112.9194 26.293 112.3554 26.6758 C 111.7914 27.0586 111.1726 27.25 110.5028 27.25 C 110.0798 27.25 109.7195 27.1367 109.4257 26.9063 C 109.1281 26.6758 108.9831 26.3008 108.9831 25.7813 C 108.9831 25.2031 109.2221 24.7734 109.6999 24.4961 C 109.9819 24.332 110.4519 24.1953 111.1099 24.0781 L 111.811 23.9531 C 112.1596 23.8906 112.4337 23.8203 112.6374 23.7461 C 112.8372 23.6719 113.0369 23.5742 113.2327 23.4531 L 113.2327 24.582 L 113.2327 24.582 ZM 110.3305 22.3125 C 109.1476 22.4648 108.2507 22.7188 107.6436 23.0742 C 106.5313 23.7266 105.9751 24.7773 105.9751 26.2305 C 105.9751 27.3555 106.3159 28.2227 106.9974 28.832 C 107.6789 29.4453 108.5445 29.75 109.5941 29.75 C 110.4127 29.75 111.1491 29.5391 111.8031 29.125 C 112.3436 28.7734 112.8254 28.3438 113.2445 27.8359 C 113.2641 28.1563 113.2915 28.4453 113.3307 28.6953 C 113.3659 28.9453 113.4325 29.2148 113.5265 29.5 L 117.0045 29.5 L 117.0045 29 C 116.7656 28.9219 116.5854 28.8203 116.4679 28.6992 C 116.3504 28.5781 116.276 28.3438 116.2525 28 C 116.2368 27.4531 116.229 26.9883 116.229 26.6055 L 116.229 21.0625 C 116.229 19.6094 115.7276 18.6094 114.725 18.0625 C 113.7223 17.5234 112.5747 17.25 111.2861 17.25 C 109.3043 17.25 107.9061 17.7578 107.0914 18.7695 C 106.5783 19.418 106.2885 20.2461 106.2258 21.25 L 109.2338 21.25 C 109.3043 20.832 109.4531 20.5 109.6725 20.25 C 109.978 19.918 110.4989 19.75 111.2391 19.75 C 111.8971 19.75 112.3946 19.8438 112.7353 20.0273 C 113.0721 20.2148 113.2445 20.5469 113.2445 21.0313 C 113.2445 21.4297 113.0251 21.7227 112.5904 21.9102 C 112.3436 22.0195 111.9363 22.1133 111.3723 22.1836 L 110.3305 22.3125 L 110.3305 22.3125 Z" fill="#ffffff"/>	<path d="M 131.6196 17.25 C 130.8559 17.25 130.1665 17.4063 129.5477 17.7148 C 128.9602 18.0273 128.4706 18.5117 128.0789 19.168 C 127.8439 18.6211 127.5032 18.168 127.0567 17.8164 C 126.4966 17.4414 125.7642 17.25 124.8594 17.25 C 123.9038 17.25 123.1243 17.4727 122.5251 17.9102 C 122.1804 18.1602 121.8201 18.5742 121.4363 19.1563 L 121.4363 17.5 L 118.6789 17.5 L 118.6789 29.5 L 121.6869 29.5 L 121.6869 22.1406 C 121.6869 21.4766 121.7692 20.9727 121.9337 20.6367 C 122.2353 20.0469 122.8267 19.75 123.7079 19.75 C 124.4639 19.75 124.973 20.0469 125.2315 20.6367 C 125.3725 20.9648 125.4469 21.4922 125.4469 22.2188 L 125.4469 29.5 L 128.4549 29.5 L 128.4549 22.2422 C 128.4549 21.6992 128.5372 21.2344 128.7056 20.8477 C 129.0307 20.1172 129.6221 19.75 130.4759 19.75 C 131.2123 19.75 131.7214 20.0352 131.9995 20.6016 C 132.1405 20.8984 132.2149 21.2813 132.2149 21.7422 L 132.2149 29.5 L 135.2034 29.5 L 135.2229 21.8828 C 135.2229 21.1016 135.1877 20.5039 135.1172 20.0938 C 135.0036 19.4844 134.7843 18.9648 134.4631 18.543 C 134.0597 18.0664 133.6132 17.7305 133.1197 17.5391 C 132.6262 17.3477 132.1249 17.25 131.6196 17.25 L 131.6196 17.25 Z" fill="#ffffff"/>	<path d="M 146.1721 23.4023 C 146.1721 24.5664 145.941 25.5 145.4827 26.1992 C 145.0206 26.9023 144.3547 27.25 143.4774 27.25 C 142.8742 27.25 142.3494 27.0781 141.9107 26.7344 C 141.241 26.1484 140.9081 25.1328 140.9081 23.6875 C 140.9081 22.7734 141.0138 22.0195 141.2331 21.4258 C 141.6483 20.3086 142.416 19.75 143.5361 19.75 C 144.4644 19.75 145.1341 20.1211 145.5493 20.8594 C 145.9645 21.5977 146.1721 22.4453 146.1721 23.4023 L 146.1721 23.4023 ZM 144.343 17.25 C 143.4186 17.25 142.6196 17.4961 141.946 17.9844 C 141.5778 18.2578 141.2331 18.6328 140.9081 19.1094 L 140.9081 17.5 L 137.9001 17.5 L 137.9001 34 L 140.9081 34 L 140.9081 27.9727 C 141.2292 28.457 141.5582 28.8203 141.8951 29.0703 C 142.51 29.5234 143.2816 29.75 144.2137 29.75 C 145.6707 29.75 146.8653 29.2031 147.7896 28.1016 C 148.714 27.0039 149.1801 25.4063 149.1801 23.3086 C 149.1801 21.3242 148.7101 19.8164 147.774 18.7891 C 146.834 17.7656 145.6903 17.25 144.343 17.25 L 144.343 17.25 Z" fill="#ffffff"/>	<path d="M 151.1052 17.5 L 151.1052 24.7656 C 151.1052 26.1445 151.2775 27.1875 151.6222 27.8945 C 152.2371 29.1328 153.4317 29.75 155.2059 29.75 C 155.8169 29.75 156.3535 29.6719 156.8118 29.5156 C 157.27 29.3594 157.7439 29.0703 158.2374 28.6406 C 158.398 28.5078 158.539 28.3516 158.6565 28.1719 C 158.774 27.9961 158.8445 27.8906 158.8758 27.8516 L 158.8758 29.5 L 161.6332 29.5 L 161.6332 17.5 L 158.6252 17.5 L 158.6252 24.0703 C 158.6252 24.8477 158.5194 25.4727 158.3118 25.9414 C 157.9084 26.8164 157.1603 27.25 156.0715 27.25 C 155.2177 27.25 154.6498 26.9453 154.3599 26.332 C 154.1954 25.9844 154.1132 25.4648 154.1132 24.7773 L 154.1132 17.5 L 151.1052 17.5 L 151.1052 17.5 Z" fill="#ffffff"/>	<path d="M 163.5583 25.5 C 163.5583 26.7383 164.0009 27.7578 164.886 28.5547 C 165.7712 29.3516 167.1381 29.75 168.9946 29.75 C 170.812 29.75 172.1593 29.3828 173.0288 28.6484 C 173.8983 27.9141 174.337 26.9648 174.337 25.8008 C 174.337 24.918 174.0471 24.1836 173.4753 23.5938 C 172.8917 23.0156 171.9595 22.5859 170.6827 22.3086 C 168.7635 21.9219 167.6395 21.6484 167.3105 21.4883 C 166.9815 21.3398 166.817 21.0938 166.817 20.7539 C 166.817 20.4883 166.9697 20.2539 167.2791 20.0508 C 167.5885 19.8516 168.1095 19.75 168.838 19.75 C 169.7192 19.75 170.3459 19.9531 170.7141 20.3516 C 170.9099 20.5703 171.0313 20.8711 171.0783 21.25 L 174.0863 21.25 C 173.9453 19.7813 173.4048 18.75 172.4609 18.1484 C 171.513 17.5508 170.291 17.25 168.7949 17.25 C 167.2125 17.25 165.9827 17.6406 165.1132 18.4141 C 164.2437 19.1914 163.809 20.1211 163.809 21.2031 C 163.809 22.1172 164.0792 22.8203 164.6275 23.3047 C 165.172 23.8008 166.1433 24.207 167.5415 24.5234 C 169.4842 24.9453 170.6005 25.2461 170.8942 25.4219 C 171.1841 25.5977 171.329 25.8555 171.329 26.1914 C 171.329 26.5469 171.141 26.8125 170.765 26.9883 C 170.389 27.1641 169.8798 27.25 169.2453 27.25 C 168.1565 27.25 167.4123 27.0508 167.0089 26.6445 C 166.7817 26.418 166.6329 26.0391 166.5663 25.5 L 163.5583 25.5 L 163.5583 25.5 Z" fill="#ffffff"/>	<path d="M 173.2553 16.5586 L 173.2553 16.8164 L 173.6901 16.8164 L 173.6901 18 L 173.9956 18 L 173.9956 16.8164 L 174.4264 16.8164 L 174.4264 16.5586 L 173.2553 16.5586 L 173.2553 16.5586 Z" fill="#ffffff"/>	<path d="M 175.2972 17.6914 L 175.0348 16.5586 L 174.5961 16.5586 L 174.5961 18 L 174.8781 18 L 174.8781 17.0273 C 174.8781 17 174.8742 16.9609 174.8742 16.9102 L 174.8742 16.793 L 175.1444 18 L 175.4382 18 L 175.7123 16.793 C 175.7123 16.8203 175.7084 16.8594 175.7084 16.9102 L 175.7084 17.0273 L 175.7084 18 L 175.9904 18 L 175.9904 16.5586 L 175.5557 16.5586 L 175.2972 17.6914 L 175.2972 17.6914 Z" fill="#ffffff"/>	<path d="M 139.3488 39 C 139.1686 39 139.0197 39.0352 138.9023 39.1016 C 138.8004 39.1563 138.7103 39.2305 138.632 39.332 L 138.632 38.25 L 138.1307 38.25 L 138.1307 41.25 L 138.632 41.25 L 138.632 40.918 C 138.7182 41.0273 138.7965 41.1016 138.8709 41.1406 C 138.9923 41.2148 139.1568 41.25 139.3605 41.25 C 139.6817 41.25 139.9362 41.1406 140.1164 40.9219 C 140.2966 40.7031 140.3867 40.4297 140.3867 40.0938 C 140.3867 39.7734 140.2927 39.5078 140.1086 39.3047 C 139.9245 39.1016 139.6699 39 139.3488 39 L 139.3488 39 ZM 139.2822 40.75 C 139.0628 40.75 138.8983 40.6953 138.7926 40.5781 C 138.6829 40.4609 138.632 40.3164 138.632 40.1367 C 138.632 39.9883 138.6555 39.8633 138.7103 39.7656 C 138.8082 39.5898 138.9923 39.5 139.2626 39.5 C 139.525 39.5 139.7052 39.5938 139.807 39.7734 C 139.8579 39.8711 139.8853 39.9922 139.8853 40.1367 C 139.8853 40.3242 139.8305 40.4727 139.7247 40.582 C 139.619 40.6953 139.4702 40.75 139.2822 40.75 L 139.2822 40.75 Z" fill="#ffffff"/>	<path d="M 140.5734 42.25 L 140.7653 42.25 L 140.9337 42.25 C 141.2862 42.25 141.5173 42.1914 141.6348 42.082 C 141.7523 41.9688 141.8894 41.6797 142.05 41.2109 L 142.755 39 L 142.2654 39 L 141.7014 40.6602 L 141.1335 39 L 140.6439 39 L 141.3724 41.25 C 141.5447 41.2734 141.6035 41.3398 141.5408 41.4492 C 141.4782 41.5586 141.4155 41.6289 141.345 41.6641 C 141.2667 41.6992 141.1766 41.7227 141.0669 41.7344 C 140.9572 41.7422 140.8437 41.75 140.7262 41.75 L 140.5734 41.75 L 140.5734 42.25 L 140.5734 42.25 Z" fill="#ffffff"/>	<path d="M 144.648 42 L 147.656 42 L 147.656 41.25 L 145.4 41.25 L 145.4 38.25 L 144.648 38.25 L 144.648 42 L 144.648 42 Z" fill="#ffffff"/>	<path d="M 150.1677 39.1055 L 150.6729 40.5 L 149.6507 40.5 L 150.1677 39.1055 L 150.1677 39.1055 ZM 148.2955 42 L 149.0906 42 L 149.3687 41.25 L 150.9432 41.25 L 151.2134 42 L 152.0046 42 L 150.5084 38.25 L 149.8074 38.25 L 148.2955 42 L 148.2955 42 Z" fill="#ffffff"/>	<path d="M 152.4287 40.4961 C 152.4287 40.8867 152.4992 41.1875 152.6441 41.4063 C 152.9144 41.8047 153.4274 42 154.1833 42 C 154.9393 42 155.4524 41.8047 155.7226 41.4063 C 155.8636 41.1875 155.938 40.8867 155.938 40.4961 L 155.938 38.25 L 155.186 38.25 L 155.186 40.4219 C 155.186 40.6641 155.1429 40.8438 155.0568 40.9531 C 154.9236 41.1523 154.6299 41.25 154.1833 41.25 C 153.7329 41.25 153.4431 41.1523 153.3099 40.9531 C 153.2238 40.8438 153.1807 40.6641 153.1807 40.4219 L 153.1807 38.25 L 152.4287 38.25 L 152.4287 40.4961 L 152.4287 40.4961 Z" fill="#ffffff"/>	<path d="M 158.5241 39 C 158.7474 39 158.9158 39.0234 159.0294 39.0664 C 159.2252 39.1445 159.327 39.2969 159.327 39.5195 C 159.327 39.7305 159.2213 39.8672 159.0176 39.9375 C 158.9001 39.9805 158.7278 40 158.4928 40 L 157.3217 40 L 157.3217 39 L 158.5241 39 L 158.5241 39 ZM 158.673 38.25 L 156.5697 38.25 L 156.5697 42 L 157.3217 42 L 157.3217 40.75 L 158.4693 40.75 C 158.7983 40.75 159.0215 40.7852 159.139 40.8516 C 159.2565 40.9219 159.3192 41.0547 159.327 41.2578 L 159.327 41.5547 L 159.327 41.8281 L 159.327 42 L 160.079 42 L 160.079 41.9219 L 160.079 41.7383 L 160.079 41.4414 L 160.079 41.2305 C 160.079 41.0078 160.0359 40.8281 159.9576 40.6875 C 159.8793 40.5469 159.7422 40.4414 159.5542 40.3633 C 159.7422 40.2852 159.8754 40.1563 159.9576 39.9688 C 160.0359 39.7852 160.079 39.5977 160.079 39.4023 C 160.079 39.2461 160.0516 39.1016 159.9968 38.9766 C 159.942 38.8516 159.8675 38.7383 159.7775 38.6367 C 159.6639 38.5117 159.5268 38.418 159.3662 38.3555 C 159.2017 38.293 158.9706 38.2578 158.673 38.25 L 158.673 38.25 Z" fill="#ffffff"/>	<path d="M 164.0046 38.25 L 160.7107 38.25 L 160.7107 42 L 164.1104 42 L 164.1104 41.25 L 161.7134 41.25 L 161.7134 40.5 L 163.8166 40.5 L 163.8166 39.75 L 161.7134 39.75 L 161.7134 39 L 164.0046 39 L 164.0046 38.25 L 164.0046 38.25 Z" fill="#ffffff"/>	<path d="M 166.4811 39.1055 L 166.9863 40.5 L 165.9641 40.5 L 166.4811 39.1055 L 166.4811 39.1055 ZM 164.6089 42 L 165.404 42 L 165.6821 41.25 L 167.2566 41.25 L 167.5268 42 L 168.318 42 L 166.8218 38.25 L 166.1207 38.25 L 164.6089 42 L 164.6089 42 Z" fill="#ffffff"/>	<path d="M 168.4914 38.25 L 168.4914 39 L 169.7448 39 L 169.7448 42 L 170.4967 42 L 170.4967 39 L 171.7501 39 L 171.7501 38.25 L 168.4914 38.25 L 168.4914 38.25 Z" fill="#ffffff"/>	<path d="M 175.6757 38.25 L 172.3818 38.25 L 172.3818 42 L 175.7814 42 L 175.7814 41.25 L 173.3844 41.25 L 173.3844 40.5 L 175.4877 40.5 L 175.4877 39.75 L 173.3844 39.75 L 173.3844 39 L 175.6757 39 L 175.6757 38.25 L 175.6757 38.25 Z" fill="#ffffff"/>	<path d="M 0.6787 23.4223 C 0.6787 23.676 0.8657 24.4892 1.1176 25.4354 C 1.1885 25.7017 1.2647 25.9789 1.3431 26.2567 C 1.5542 27.0046 1.7826 27.7596 1.9753 28.3362 C 6.3836 37.6465 13.9036 40.75 20.6457 40.75 C 31.5368 40.75 40.872 32.2155 40.872 20.5775 C 40.872 13.1097 36.827 6.4974 30.5071 3.0942 C 27.5858 1.4427 24.2091 0.5 20.6113 0.5 C 9.5121 0.5 0.5147 9.4735 0.5147 20.5432 C 0.5147 21.415 0.5705 22.2736 0.6787 23.1161 L 0.6787 23.4223 ZM 11.8291 13.8533 L 5.3463 13.8533 C 6.9022 9.1981 12.607 4.8016 16.756 4.2843 C 14.4222 6.8705 12.607 11.0085 11.8291 13.8533 ZM 22.2016 6.8705 C 23.7574 8.9395 25.054 11.5257 25.8319 13.8533 C 23.7574 14.3706 22.4609 17.474 20.6457 19.2844 L 15.4595 13.8533 C 15.9781 12.043 18.5712 5.3188 20.6457 5.3188 C 21.4236 5.3188 21.9423 6.3533 22.2016 6.8705 ZM 26.8692 25.7499 L 14.4222 25.7499 C 14.1629 24.7154 14.4222 18.7671 14.4222 17.7327 C 15.2002 18.5085 19.6085 23.4223 20.6457 23.4223 C 22.2016 23.4223 26.3506 17.7327 26.8692 17.2154 C 26.8692 19.543 27.9064 22.3879 26.8692 25.7499 ZM 26.0912 29.112 C 25.3133 30.4051 22.7202 36.0948 20.6457 36.0948 C 18.8305 36.0948 15.4595 29.3706 15.4595 29.112 L 26.0912 29.112 ZM 16.1761 36.8093 C 11.9892 35.6765 8.448 32.9784 6.2229 29.3843 C 6.1876 29.2939 6.1548 29.2033 6.1243 29.112 L 11.8291 29.112 C 12.6009 31.6778 13.6278 34.2435 16.1761 36.8093 ZM 35.1646 29.1119 C 34.0977 30.9104 32.7053 32.4943 31.0681 33.7823 C 30.902 33.913 30.7331 34.0407 30.562 34.1652 C 28.99 35.3094 27.2126 36.1892 25.2951 36.7397 C 27.2305 33.623 28.476 31.8451 29.7216 29.112 L 35.1646 29.1119 ZM 37.1791 17.2152 C 37.3952 18.291 37.5089 19.404 37.5089 20.5432 C 37.5089 22.3603 37.2206 24.1106 36.687 25.7503 L 30.4995 25.7499 C 30.4995 25.4913 30.7589 24.9741 30.7589 19.8016 C 30.7589 18.7671 30.4995 17.9913 30.2402 17.2154 L 37.1791 17.2152 ZM 26.3729 4.6952 C 26.669 4.8023 26.9608 4.9175 27.2489 5.0404 C 29.0302 5.8205 30.9915 7.1371 32.6512 8.7185 C 34.1055 10.1913 35.2898 11.9294 36.1251 13.8537 L 29.4623 13.8533 C 28.425 11.0085 27.1285 6.8705 24.5354 4.2843 C 25.0904 4.3239 25.7123 4.4658 26.3729 4.6952 ZM 3.8975 18.0488 C 3.9391 17.7687 3.9873 17.4906 4.0427 17.2152 L 10.7919 17.2154 C 10.7919 19.8016 10.5326 22.1292 10.7919 25.7499 L 4.5684 25.7499 C 4.3091 24.1982 3.7905 21.3534 3.7905 20.5775 C 3.7905 20.1821 3.9419 19.0313 3.8975 18.0488 ZM 1.1176 25.4354 C 1.187 25.7114 1.2624 25.9854 1.3431 26.2567 C 1.2647 25.9789 1.1885 25.7017 1.1176 25.4354 Z" fill="#ffffff"/></svg>