<?xml version="1.0" encoding="UTF-8"?>
<svg width="80px" height="80px" viewBox="0 0 80 80" version="1.1" xmlns="http://www.w3.org/2000/svg" xmlns:xlink="http://www.w3.org/1999/xlink">
    <!-- Generator: Sketch 52.2 (67145) - http://www.bohemiancoding.com/sketch -->
    <title>icon-bullseye-scale</title>
    <desc>Created with Sketch.</desc>
    <g id="icon-bullseye-scale" stroke="none" stroke-width="1" fill="none" fill-rule="evenodd">
        <path d="M54.8206395,38.3935334 L62.8912639,20.3990922 L70.9604887,38.3935334 L54.8206395,38.3935334 Z M25.1331707,38.3935334 L8.99332147,38.3935334 L17.0625462,20.3990922 L25.1331707,38.3935334 Z M74.6696727,39.5902701 L64.3861351,16.5947292 L64.3861351,16.5933295 L64.3427446,16.5653356 C64.3063526,16.4869529 64.2503649,16.4141689 64.2055748,16.345584 C64.1929775,16.327388 64.1719822,16.3105917 64.1579852,16.2923957 C64.1173942,16.236408 64.0698046,16.1832197 64.0208154,16.1328308 C64.0040191,16.1132351 63.9844234,16.0936394 63.963428,16.0754434 C63.9102397,16.0250545 63.8542521,15.9788646 63.7968647,15.9382736 C63.7814681,15.9284757 63.7660715,15.9144788 63.7506749,15.9032813 C63.6778909,15.8542921 63.5981084,15.813701 63.518326,15.777309 C63.4945312,15.7675111 63.4707364,15.7605127 63.4483414,15.7521145 C63.3839555,15.7269201 63.31817,15.7073244 63.2523845,15.6905281 C63.2257903,15.6849293 63.1977965,15.8542921 63.1712023,15.850093 C63.0788227,15.831897 62.9878427,15.9984603 62.8912639,15.9984603 L44.6966667,15.9984603 C44.3845354,14.5987683 43.390754,13.8401352 43.390754,13.2340685 L43.390754,10.9735658 C43.390754,10.1141549 42.2905961,9 41.4311851,9 L38.522625,9 C37.6646138,9 36.3922937,10.1141549 36.3922937,10.9735658 L36.3922937,13.2732599 C36.3922937,13.8751275 35.6126652,14.5987683 35.3075323,15.9984603 L17.0625462,15.9984603 C16.9673672,15.9984603 16.8749875,15.8332967 16.7826078,15.850093 C16.7560137,15.8542921 16.7280198,15.7731099 16.7014257,15.7787087 C16.6342405,15.795505 16.5712543,15.7703105 16.5068685,15.795505 C16.4830737,15.8039031 16.459279,15.7899062 16.4368839,15.8011038 C16.3557017,15.8360961 16.277319,15.8654896 16.2031353,15.9158785 C16.186339,15.927076 16.1737418,15.9340745 16.1583452,15.9438723 C16.1009578,15.9872628 16.0449701,16.0278539 15.9931815,16.0782428 C15.9721861,16.0978385 15.9539901,16.1146348 15.9357941,16.1342305 C15.8882046,16.1846194 15.8434144,16.236408 15.8028234,16.2923957 C15.7902262,16.3119914 15.7748295,16.327388 15.763632,16.3469837 C15.7174422,16.4155686 15.6754514,16.4869529 15.6432585,16.5653356 L15.6292616,16.5933295 L15.6278619,16.5975285 L5.27993841,39.6714523 C5.10497691,39.9233969 5,40.2285297 5,40.5588571 C5,47.2101938 10.4112095,52.6200036 17.0625462,52.6200036 C23.7138829,52.6200036 29.1250925,47.2101938 29.1250925,40.5588571 C29.1250925,40.2285297 29.0201156,39.9429925 28.8451541,39.691048 L19.4672172,18.7978445 L35.345324,18.7978445 C35.6588551,20.1975365 36.3922937,20.4466817 36.3922937,21.0275539 L36.3922937,59.3889144 L23.1582052,59.3889144 C22.5759333,59.3889144 22.0412509,60.0565676 21.7739097,60.5744536 L17.4922517,69.0509888 C17.2417068,69.5338825 17.2627022,70.4436824 17.54544,70.9069805 C17.8267781,71.3716782 18.3320669,71.986143 18.8751475,71.986143 L61.0786627,71.986143 L61.0856612,71.986143 C61.9436724,71.986143 62.6421187,71.0427506 62.6421187,70.18194 C62.6421187,69.8768071 62.5539381,69.4694967 62.4027714,69.2287497 L58.1785007,60.6360401 C57.9111595,60.118154 57.3778769,59.3889144 56.795605,59.3889144 L43.390754,59.3889144 L43.390754,21.0639459 C43.390754,20.481674 44.3369459,20.1975365 44.6574754,18.7978445 L60.4851933,18.7978445 L50.9966807,39.9401932 C50.9938813,39.9457919 50.9924817,39.9415928 50.9896823,39.9485913 C50.9826838,39.9653876 50.977085,39.9765852 50.9700866,39.9933815 C50.9420927,40.0647658 50.9196977,40.13615 50.9029014,40.2103337 C50.8973026,40.2285297 50.8917038,40.2467257 50.8889044,40.2649217 C50.8735078,40.354502 50.86371,40.4440823 50.8623103,40.5350623 C50.8623103,40.5420607 50.8595109,40.5504589 50.8595109,40.5588571 C50.8595109,47.2101938 56.2707204,52.6200036 62.9220571,52.6200036 C69.5733939,52.6200036 75,47.2101938 75,40.5588571 C75,40.190738 74.8824259,39.8562116 74.6696727,39.5902701 L74.6696727,39.5902701 Z" id="Fill-1" fill="#00667D"></path>
    </g>
</svg>