<svg xmlns="http://www.w3.org/2000/svg" viewBox="0 0 595.815 80.518"><defs><style>.cls-1{fill:none;stroke:#fff;stroke-linecap:round;stroke-linejoin:round;stroke-width:1.342px;}.cls-2{fill:#fff;}</style></defs><title>UoL_logo_white_transparent</title><g id="Layer_1" data-name="Layer 1"><path class="cls-1" d="M73.929,11.989a174.78,174.78,0,0,0-25.311-1.577h0a174.838,174.838,0,0,0-25.313,1.577S18.032,50.715,33.327,73.951c5.185,7.878,15.258,15.61,15.29,15.635h0l0,0v0l0,0v0h0c.032-.025,10.105-7.757,15.29-15.635C79.2,50.715,73.929,11.989,73.929,11.989Z" transform="translate(-21.757 -9.741)"/><path class="cls-2" d="M31.4,20.011a.42.42,0,0,1-.322.156c-.174,0-.285-.037-.3-.174a.427.427,0,0,0-.191,0c-.129.025-.749.243-.794.226a6.318,6.318,0,0,1,1.185-.506,2.625,2.625,0,0,1,.652.146l.57.134c.032.017-.035.052-.149.069a1.772,1.772,0,0,1-.657-.052m3.5,13.83a1.056,1.056,0,0,0-.25-.583l-.03-.037c-.032-.045-.069-.084-.1-.124s-.084-.094-.134-.141a.2.2,0,0,0-.032-.032c-.079-.077-.171-.159-.273-.245l.823.208ZM46.923,20.088c-2.661,1.981-8.131,1.887-9,2.118s-.6.836-.6.836c-1.21,3.157-3.372,1.6-3.372,1.6-1.652-1.022-1.356.064-.707,1.329-2.581-.322-.444-3.9.464-4.588a10.845,10.845,0,0,0,2.038-2.767c-.312.347-1.242,1-3.762.481a2.32,2.32,0,0,0-1.9.469c-4.865-.431-3.623,1.686-3.623,1.686.521-.821,1.964-.432,1.964-.432a.57.57,0,0,0,.335.541,5.26,5.26,0,0,1-.268,1.188,4.809,4.809,0,0,0-.749-.2c-.382.06-.337.615-.754.774a.642.642,0,0,0,.429.263.9.9,0,0,0-.164.593c.007.156.112.2.117.27.01.1-.012.2-.007.238.119-.045.238-.129.322-.114a.928.928,0,0,0,.439-.077.882.882,0,0,0,.32-.4.179.179,0,0,1,.077.055,1.318,1.318,0,0,1,.184.3c.045,0,.057-.2.144-.308a3.189,3.189,0,0,0,.308-.615.417.417,0,0,0-.087-.417c-.057-.064-.156-.146-.213-.218a4.79,4.79,0,0,0,.275-1.237s.027-.37.017-.568a.309.309,0,0,0-.117-.26c.181-.144.315.141.315.141l.008.667a2.316,2.316,0,0,0,.446-.087s1.562-.154,1.8.233.141,1.406-1.242,3.925c-1.513,2.76.1,5.423,2.341,6.581.754.553,2.328,1.947,2.128,3.821,0,0-2.879.583-2.986,1.88a4.545,4.545,0,0,1,1.726-.709,19.345,19.345,0,0,1,4.409.184,9.495,9.495,0,0,0-2.405-.922,6.131,6.131,0,0,1,.223-3.712c.03-.007.06-.01.087-.015a5.291,5.291,0,0,1,2.619.732l-.379-.992c1.763.26,2.624,2.331,2.624,2.331-.055-1.746-1.205-3.5-2.557-4.979.193.032.382.057.568.069a5.9,5.9,0,0,0,1.384-.057l-.613-2.4,1.21,2.267a6.208,6.208,0,0,0,3.013-2L42.462,26.3l1.627.885a12.513,12.513,0,0,0,1.56-2.735l-1.689-.759,1.882.285a19.667,19.667,0,0,0,1.081-3.891" transform="translate(-21.757 -9.741)"/><path class="cls-2" d="M55.854,20.011a.42.42,0,0,1-.322.156c-.174,0-.285-.037-.3-.174a.436.436,0,0,0-.193,0c-.126.025-.746.243-.794.226a6.352,6.352,0,0,1,1.188-.506,2.625,2.625,0,0,1,.652.146c.174.042.536.126.57.134s-.035.052-.149.069a1.772,1.772,0,0,1-.657-.052m3.5,13.83a1.051,1.051,0,0,0-.248-.583l-.03-.037c-.032-.045-.069-.084-.1-.124a1.807,1.807,0,0,0-.136-.141.192.192,0,0,0-.03-.032c-.079-.077-.169-.159-.273-.245l.821.208ZM71.375,20.088c-2.661,1.981-8.131,1.887-9,2.118s-.6.836-.6.836c-1.21,3.157-3.372,1.6-3.372,1.6-1.652-1.022-1.356.064-.707,1.329-2.581-.322-.444-3.9.464-4.588A10.845,10.845,0,0,0,60.2,18.612c-.312.347-1.242,1-3.762.481a2.32,2.32,0,0,0-1.9.469c-4.865-.431-3.623,1.686-3.623,1.686.521-.821,1.964-.432,1.964-.432a.57.57,0,0,0,.335.541,5.131,5.131,0,0,1-.268,1.188,4.884,4.884,0,0,0-.749-.2c-.382.06-.337.615-.754.774a.642.642,0,0,0,.429.263.937.937,0,0,0-.166.593c.01.156.117.2.119.27.01.1-.012.2-.007.238.117-.045.238-.129.322-.114a.928.928,0,0,0,.439-.077.883.883,0,0,0,.32-.4.18.18,0,0,1,.077.055,1.319,1.319,0,0,1,.183.3c.045,0,.057-.2.144-.308a3.187,3.187,0,0,0,.307-.615.423.423,0,0,0-.087-.417c-.057-.064-.159-.146-.213-.218a4.79,4.79,0,0,0,.275-1.237s.027-.37.017-.568a.309.309,0,0,0-.117-.26c.179-.144.315.141.315.141l.007.667a2.266,2.266,0,0,0,.446-.087s1.562-.154,1.8.233.141,1.406-1.242,3.925c-1.513,2.76.1,5.423,2.341,6.581.754.553,2.328,1.947,2.125,3.821,0,0-2.877.583-2.983,1.88a4.547,4.547,0,0,1,1.723-.709,19.361,19.361,0,0,1,4.411.184,9.487,9.487,0,0,0-2.408-.922,6.12,6.12,0,0,1,.226-3.712c.03-.007.06-.01.087-.015a5.291,5.291,0,0,1,2.619.732l-.379-.992c1.763.26,2.624,2.331,2.624,2.331-.055-1.746-1.208-3.5-2.559-4.979.2.032.384.057.57.069a5.869,5.869,0,0,0,1.381-.057l-.61-2.4,1.21,2.267a6.208,6.208,0,0,0,3.013-2L66.914,26.3l1.627.885a12.612,12.612,0,0,0,1.56-2.735l-1.689-.759,1.882.285a19.666,19.666,0,0,0,1.081-3.891" transform="translate(-21.757 -9.741)"/><path class="cls-2" d="M38.95,64.29a.33.33,0,0,0,.216.134.923.923,0,0,1-.213-.139l0,0" transform="translate(-21.757 -9.741)"/><path class="cls-2" d="M42.874,59.546a.528.528,0,0,1-.4.193c-.216,0-.357-.047-.369-.218a.69.69,0,0,0-.243,0c-.159.035-.94.308-.994.285a7.985,7.985,0,0,1,1.488-.635,3.219,3.219,0,0,1,.821.186c.218.052.672.159.717.164.037.025-.045.067-.189.087a2.272,2.272,0,0,1-.826-.062m4.394,17.368a1.324,1.324,0,0,0-.312-.732l-.037-.047a2.037,2.037,0,0,0-.134-.156c-.05-.06-.1-.117-.166-.179-.015-.015-.027-.03-.04-.04-.1-.1-.213-.2-.345-.305l1.034.26Zm15.1-17.274c-3.343,2.49-10.214,2.371-11.305,2.661s-.749,1.049-.749,1.049c-1.52,3.965-4.235,2.006-4.235,2.006-2.073-1.282-1.706.082-.885,1.669-3.244-.4-.56-4.9.58-5.763a13.6,13.6,0,0,0,2.559-3.477c-.389.439-1.56,1.262-4.724.605a2.916,2.916,0,0,0-2.383.59c-6.11-.541-4.55,2.115-4.55,2.115.652-1.027,2.467-.541,2.467-.541a.709.709,0,0,0,.422.679,6.573,6.573,0,0,1-.34,1.493,5.635,5.635,0,0,0-.94-.246c-.479.074-.424.771-.945.972a.8.8,0,0,0,.538.33,1.164,1.164,0,0,0-.208.741c.01.2.144.25.149.34.015.126-.017.25-.007.3.146-.055.3-.161.4-.144a.85.85,0,0,0,.952-.6.269.269,0,0,1,.1.067,1.811,1.811,0,0,1,.231.382c.055,0,.072-.255.179-.384a4.079,4.079,0,0,0,.387-.771.536.536,0,0,0-.107-.526c-.074-.079-.2-.183-.27-.275a5.986,5.986,0,0,0,.347-1.552s.032-.464.022-.714a.389.389,0,0,0-.149-.327c.228-.181.4.181.4.181l.01.836a2.8,2.8,0,0,0,.56-.109s1.961-.193,2.261.29.176,1.768-1.562,4.935c-1.9,3.464.124,6.809,2.941,8.265.947.7,2.924,2.445,2.671,4.8,0,0-3.615.734-3.747,2.363a5.707,5.707,0,0,1,2.165-.89,24.163,24.163,0,0,1,5.54.228,11.914,11.914,0,0,0-3.023-1.161A7.685,7.685,0,0,1,48.4,75.4c.035-.007.072-.01.109-.017,1.2-.248,3.288.92,3.288.92l-.476-1.247c2.214.327,3.3,2.929,3.3,2.929-.069-2.195-1.515-4.4-3.214-6.254.243.04.481.072.714.087a7.381,7.381,0,0,0,1.736-.072l-.769-3.013,1.523,2.849a7.835,7.835,0,0,0,3.784-2.514l-1.624-1.619,2.041,1.111a15.86,15.86,0,0,0,1.961-3.434l-2.12-.955,2.363.36a24.816,24.816,0,0,0,1.357-4.888" transform="translate(-21.757 -9.741)"/><path class="cls-2" d="M111.913,72.849c-.563,0-2.033,4.456-12.029,4.456-3.633,0-3.286-1.039-3.286-3.591V52.686c0-3.762,3.159-2.681,3.159-3.675,0-.521-.26-.605-.823-.605-.65,0-1.689.171-4.154.171-2.12,0-3.462-.171-4.369-.171-.563,0-.868.084-.868.563,0,.863,3.635.56,3.635,2.81V73.714c0,2.033-.087,3.246-1.21,3.764-1.386.692-1.818.605-1.9,1.126,0,.345.26.429.65.429,1.728,0,3.546-.129,5.277-.171,3.288-.087,6.576.171,9.865.171,1.9,0,2.857.089,4.24-1.468,1.039-1.126,2.162-2.638,2.162-4.2,0-.087-.042-.518-.345-.518" transform="translate(-21.757 -9.741)"/><path class="cls-2" d="M120.615,75.358V52.125c0-3.246,3.115-2.249,3.115-3.288,0-.345-.129-.432-.821-.432-1.342,0-2.683.174-4.025.174-1.6,0-3.159-.174-4.759-.174-.347,0-.432.087-.432.474,0,.952,3.459.087,3.5,3.246V74.276c0,4.283-3.375,2.857-3.375,4.111,0,.432.129.647.908.647.608,0,1.515-.174,4.154-.174,1.86,0,3.722.174,4.717.174.734,0,.865-.129.865-.431,0-1.3-3.851-.3-3.851-3.246" transform="translate(-21.757 -9.741)"/><path class="cls-2" d="M155.225,48.4c-.605,0-1.255.174-3.333.174-.952,0-1.9-.174-2.854-.174-.434,0-.65.129-.65.563,0,.994,2.77.171,2.77,2.162a6.373,6.373,0,0,1-.608,2.941l-7.526,18.564c-.218.518-.347,1.21-.779,1.21-.476,0-.779-.994-1.731-3.288l-7.571-17.825a4.6,4.6,0,0,1-.392-1.689c0-1.557,1.82-1.6,1.776-2.207,0-.258-.347-.431-.605-.431-.605,0-2.252.174-3.42.174-1.3,0-2.638-.174-3.98-.174a.547.547,0,0,0-.605.605c0,.952,2.249.129,3.33,2.725L139.736,77c.389.91.908,2.728,1.6,2.728.65,0,.952-1.428,1.428-2.51l10.772-25.485c1.213-2.9,2.423-1.815,2.423-2.767,0-.389-.258-.563-.734-.563" transform="translate(-21.757 -9.741)"/><path class="cls-2" d="M180.288,72.849c-.563,0-2.033,4.456-12.029,4.456-3.633,0-3.288-1.039-3.288-3.591v-7.96c0-.65-.129-1.384.781-1.384h6.4c3.633,0,2.162,3.806,3.5,3.806.3,0,.476-.174.476-.563,0-1.168-.087-2.294-.087-3.42,0-1.384.087-2.854.087-4.369,0-.345-.131-.821-.476-.821-1.039,0,.129,3.462-4.369,3.462h-4.672c-1.731,0-1.647,0-1.647-1.473V52.946c0-2.9-.084-2.725,4.067-2.725,1.733,0,6.232-.258,7.355,1.213.694.994,0,3.07,1.042,3.07.258,0,.863-.345.863-5.148,0-.518-.087-.952-.434-.952-1.339,0-5.319.174-6.185.174-1.818,0-4.067-.174-12.243-.174-1.255,0-1.515.174-1.515.521,0,.518.952.605,1.3.692,2.336.347,2.336,2.423,2.336,4.369V73.714c0,2.033-.087,3.246-1.21,3.764-1.386.692-1.818.605-1.9,1.126,0,.345.26.429.65.429,1.731,0,3.546-.129,5.277-.171,3.288-.087,6.579.171,9.865.171,1.9,0,2.857.089,4.24-1.468,1.039-1.126,2.162-2.638,2.162-4.2,0-.087-.042-.518-.345-.518" transform="translate(-21.757 -9.741)"/><path class="cls-2" d="M252.292,48.013c-8.868,0-15.876,6.534-15.876,15.533,0,9.128,5.753,15.794,15.142,15.794,9.649,0,16.356-6.276,16.356-16.009,0-8.957-6.795-15.318-15.622-15.318m1.084,30.028c-8.568,0-13.8-7.744-13.8-15.749,0-6.837,4.154-12.85,11.422-12.85,8.439,0,13.758,7.66,13.758,15.533,0,8-5.061,13.066-11.377,13.066" transform="translate(-21.757 -9.741)"/><path class="cls-2" d="M287.041,48.013c-8.868,0-15.878,6.534-15.878,15.533,0,9.128,5.753,15.794,15.144,15.794,9.646,0,16.352-6.276,16.352-16.009,0-8.957-6.792-15.318-15.618-15.318m1.081,30.028c-8.565,0-13.8-7.744-13.8-15.749,0-6.837,4.154-12.85,11.422-12.85,8.436,0,13.758,7.66,13.758,15.533,0,8-5.064,13.066-11.38,13.066" transform="translate(-21.757 -9.741)"/><path class="cls-2" d="M326.6,72.849c-.563,0-2.033,4.456-12.027,4.456-3.635,0-3.288-1.039-3.288-3.591V52.686c0-3.762,3.157-2.681,3.157-3.675,0-.521-.258-.605-.821-.605-.647,0-1.686.171-4.154.171-2.12,0-3.462-.171-4.369-.171-.565,0-.865.084-.865.563,0,.863,3.633.56,3.633,2.81V73.714c0,2.033-.087,3.246-1.213,3.764-1.384.692-1.815.605-1.9,1.126,0,.345.26.429.647.429,1.733,0,3.551-.129,5.282-.171,3.286-.087,6.576.171,9.862.171,1.9,0,2.857.089,4.24-1.468,1.037-1.126,2.165-2.638,2.165-4.2,0-.087-.045-.518-.347-.518" transform="translate(-21.757 -9.741)"/><rect class="cls-2" x="58.044" y="31.669" width="252.773" height="0.657"/><rect class="cls-2" x="112.1" y="10.266" width="1.887" height="15.164"/><polygon class="cls-2" points="154.193 23.747 146.146 23.747 146.146 18.519 154.034 18.519 154.034 16.836 146.146 16.836 146.146 11.948 154.193 11.948 154.193 10.267 144.259 10.267 144.259 25.428 154.193 25.428 154.193 23.747"/><polygon class="cls-2" points="130.306 25.428 136.398 10.267 134.239 10.267 129.123 23.36 124.01 10.267 121.85 10.267 127.965 25.428 130.306 25.428"/><polygon class="cls-2" points="92.005 13.335 100.848 25.429 102.668 25.429 102.668 10.268 100.781 10.268 100.781 22.111 92.05 10.268 90.118 10.268 90.118 25.429 92.005 25.429 92.005 13.335"/><path class="cls-2" d="M96.236,35.443c4.116,0,6.207-2.41,6.207-6.185v-9.25h-1.912v9.227c0,2.775-1.5,4.523-4.295,4.523s-4.275-1.748-4.275-4.523V20.009H90.051v9.274c0,3.727,2.093,6.16,6.185,6.16" transform="translate(-21.757 -9.741)"/><polygon class="cls-2" points="289.534 18.518 297.422 18.518 297.422 16.835 289.534 16.835 289.534 11.949 297.581 11.949 297.581 10.266 287.647 10.266 287.647 25.427 289.534 25.427 289.534 18.518"/><polygon class="cls-2" points="238.459 25.428 240.346 25.428 240.346 19.018 246.302 10.267 244.098 10.267 239.391 17.312 234.685 10.267 232.48 10.267 238.459 19.018 238.459 25.428"/><polygon class="cls-2" points="217.912 25.428 219.799 25.428 219.799 11.948 224.617 11.948 224.617 10.267 213.114 10.267 213.114 11.948 217.912 11.948 217.912 25.428"/><path class="cls-2" d="M187.27,29.146h3.048l3.841,6.023h2.227l-4.092-6.182a4.208,4.208,0,0,0,3.955-4.412,4.432,4.432,0,0,0-4.774-4.568h-6.093V35.169h1.887Zm0-7.457h3.977a2.825,2.825,0,0,1,3.048,2.886,2.855,2.855,0,0,1-3.048,2.911H187.27Z" transform="translate(-21.757 -9.741)"/><path class="cls-2" d="M293.014,35.444c4.478,0,7.546-3.365,7.546-7.844s-3.067-7.843-7.546-7.843-7.526,3.365-7.526,7.843,3.048,7.844,7.526,7.844m0-14.006c3.387,0,5.592,2.616,5.592,6.162,0,3.524-2.2,6.16-5.592,6.16-3.41,0-5.57-2.636-5.57-6.16,0-3.546,2.16-6.162,5.57-6.162" transform="translate(-21.757 -9.741)"/><rect class="cls-2" x="202.391" y="10.266" width="1.887" height="15.164"/><path class="cls-2" d="M210.068,33.76a6.251,6.251,0,0,1-4.751-2.182l-1.136,1.456a7.548,7.548,0,0,0,5.82,2.41c4.092,0,5.592-2.274,5.592-4.456,0-5.661-8.979-3.7-8.979-7.117,0-1.431,1.319-2.408,3.115-2.408a5.722,5.722,0,0,1,4.387,1.818l1.138-1.386a7.129,7.129,0,0,0-5.366-2.138c-3,0-5.23,1.728-5.23,4.228,0,5.411,8.982,3.229,8.982,7.139,0,1.18-.865,2.636-3.571,2.636" transform="translate(-21.757 -9.741)"/><path class="cls-2" d="M219.017,51.217c0-1.3.952-1.3,2.336-1.3,4.977,0,9,2.77,9,8,0,3.893-2.6,6.013-7.01,6.013a21.411,21.411,0,0,1-2.812-.26c-.216,0-.432.087-.432.389,0,.781,2.507,1,2.941,1,9.215,0,10.512-6.576,10.512-8.307,0-6.447-6.1-8.349-11.6-8.349-2.076,0-2.767.174-4.93.174-2.512,0-4.027-.174-4.414-.174a.6.6,0,0,0-.563.647c0,1.56,3.548-1.081,3.548,4.111V73.887c0,4.8-3.375,3.462-3.375,4.63,0,.389.432.518.692.518,1.255,0,2.683-.171,4.717-.171,2.552,0,3.2.171,4.672.171,1.081,0,1.255-.216,1.255-.518,0-1.471-4.543.779-4.543-5.451Z" transform="translate(-21.757 -9.741)"/><path class="cls-2" d="M198.254,63.373a8.374,8.374,0,0,0,5.451-7.484c0-8.349-9.559-7.484-10.254-7.484-2.249,0-4.714.174-7.224.174a24.555,24.555,0,0,1-2.77-.174c-.518,0-.865.26-.865.518,0,1.473,3.722-.3,3.722,3.851V74.8c0,3.286-3.159,2.681-3.159,3.764a.444.444,0,0,0,.431.474c1.647,0,3.291-.171,4.935-.171,3.588,0,4.585.171,4.974.171.347,0,.736.087.736-.345,0-1.473-4.5-.129-4.5-3.851v-9.13c0-.432-.26-1.21,1.123-1.21,4.845,0,4.2-.129,5.756,2.294l4.8,7.571c1.644,2.467,3.33,4.672,6.49,4.672.389,0,2.812,0,2.812-.518,0-1.039-2.12.563-5.237-4.2Zm-8.523-11.94c0-1.686.908-1.6,2.467-1.6,4.238,0,8.263,1.773,8.263,7.05,0,5.366-4.154,6.145-6.013,6.145-2.033,0-4.716.216-4.716-.605Z" transform="translate(-21.757 -9.741)"/><rect class="cls-2" x="340.616" y="0.672" width="1.089" height="79.174"/><path class="cls-2" d="M403.106,41.8a11.029,11.029,0,0,0,8.171-3.244,11.353,11.353,0,0,0,3.2-8.285,10.458,10.458,0,0,0-3.177-7.836,11.263,11.263,0,0,0-8.111-3.06,12.7,12.7,0,0,0-4.652.89,10.669,10.669,0,0,0-3.767,2.415,10.473,10.473,0,0,0-2.242,3.583,11.881,11.881,0,0,0-.828,4.315,10.909,10.909,0,0,0,3.159,8.119,11.312,11.312,0,0,0,8.25,3.1m.6-1.443a8.1,8.1,0,0,1-6.408-3.107,11.6,11.6,0,0,1-2.631-7.695,9.293,9.293,0,0,1,2.041-6.311,6.95,6.95,0,0,1,5.485-2.319,8.8,8.8,0,0,1,6.76,2.986,10.761,10.761,0,0,1,2.725,7.494,9.342,9.342,0,0,1-2.262,6.433,7.358,7.358,0,0,1-5.711,2.519" transform="translate(-21.757 -9.741)"/><path class="cls-2" d="M417.592,20.78a2.905,2.905,0,0,1,2.249,1.614,8.527,8.527,0,0,1,.816,4.074v10.5a4.637,4.637,0,0,1-.417,2.276,2.912,2.912,0,0,1-1.6,1.079c-.429.144-.635.365-.615.665.012.124.1.531.7.531a4.877,4.877,0,0,0,.607-.057,8.29,8.29,0,0,1,1.116-.069l.717-.027,1.575.077c1,.052,1.25.079,1.322.092a4.485,4.485,0,0,0,.5.032.544.544,0,0,0,.6-.575c0-.174-.074-.583-.741-.662a2.886,2.886,0,0,1-1.49-.5,1.958,1.958,0,0,1-.436-1.215l-.047-1.079.015-11.124a1.557,1.557,0,0,1,.042-.412L435.64,41.018l.355.419a.8.8,0,0,0,.536.218l.037,0a.66.66,0,0,0,.674-.583,13.486,13.486,0,0,0,.084-2.177V25.98l.03-1.029V23.287a4.213,4.213,0,0,1,.265-1.887,1.6,1.6,0,0,1,1.076-.642c.489-.139.518-.451.508-.583a.632.632,0,0,0-.7-.573,4.61,4.61,0,0,0-.8.1,9.653,9.653,0,0,1-1.483.089c-1.175,0-2.125-.037-2.829-.112-.307-.027-.533-.042-.672-.042-.67,0-.722.429-.722.56,0,.159.067.543.677.647a4.22,4.22,0,0,1,2.061.744,2.627,2.627,0,0,1,.672,1.669l.186,3.531-.015,2.083v7.516c-.035-.037-.077-.082-.124-.136L421.262,20.178a1.326,1.326,0,0,0-.98-.543c-.136,0-.33,0-.588.015l-.223.015-1.649-.045c-.124-.01-.216-.017-.27-.017a.545.545,0,0,0-.612.56c0,.159.062.533.652.617m18.975,20.6h0v0Z" transform="translate(-21.757 -9.741)"/><path class="cls-2" d="M443.606,20.855l.692.139c.975.2,1.448.9,1.448,2.128v13.8l-.015.717a4.259,4.259,0,0,1-.327,1.971,2.119,2.119,0,0,1-1.277.826c-.511.146-.617.422-.617.625a.513.513,0,0,0,.191.419.674.674,0,0,0,.429.126l.052,0c.223-.01.516-.04.89-.094a22.583,22.583,0,0,1,3.142-.184c1.076,0,2.113.037,3.085.109l1.669.124c.431.03.823.045,1.16.045a5.449,5.449,0,0,0,4.526-1.78,4.489,4.489,0,0,0,1.061-2.383.587.587,0,0,0-.139-.449.5.5,0,0,0-.367-.146c-.382,0-.6.426-.674.565a4.177,4.177,0,0,1-2.552,1.679,16.2,16.2,0,0,1-4.93.672c-1.718,0-2.063-.2-2.128-.263s-.273-.384-.273-2l-.015-13.961c0-1.488.387-2.306,1.178-2.5l.541-.124c.573-.134.657-.5.657-.7,0-.119-.047-.5-.642-.5-.052,0-.278.01-.68.032-.761.05-1.619.074-2.554.074-.858,0-1.642-.03-2.329-.089-.414-.042-.749-.064-1-.064-.739,0-.8.476-.8.62,0,.169.077.466.59.57m.523,20.478h0v0Z" transform="translate(-21.757 -9.741)"/><path class="cls-2" d="M462.443,20.825a2.447,2.447,0,0,1,1.689.776,4.733,4.733,0,0,1,.4,2.43V37.259a5.737,5.737,0,0,1-.3,2.438,1.771,1.771,0,0,1-1.317.674c-.617.1-.709.429-.709.617,0,.139.05.59.689.59.208,0,.466-.017.756-.047l1.8-.107,2.242.035a12.942,12.942,0,0,1,1.6.064,4.341,4.341,0,0,0,.625.055c.7,0,.751-.486.751-.637,0-.511-.732-.61-1.007-.647a3.1,3.1,0,0,1-1.307-.417,2.148,2.148,0,0,1-.667-.987,9.786,9.786,0,0,1-.243-2.765V24.56c0-2.539.526-3.271.965-3.439l.794-.305c.484-.164.585-.454.585-.667,0-.131-.049-.56-.689-.56-.064,0-.2,0-.409.02l-1.027.084c-.538.032-1.19.05-1.942.05a26.067,26.067,0,0,1-2.963-.134c-.439-.05-.712,0-.883.179a.548.548,0,0,0-.146.422c.012.223.146.508.724.617" transform="translate(-21.757 -9.741)"/><path class="cls-2" d="M480.736,40.326a2.886,2.886,0,0,1-1.49-.5,1.957,1.957,0,0,1-.436-1.215l-.047-1.079.015-11.124a1.562,1.562,0,0,1,.042-.412l13.145,15.025.355.419a.8.8,0,0,0,.536.218l.037,0a.66.66,0,0,0,.674-.583,13.5,13.5,0,0,0,.084-2.177V25.98l.03-1.029V23.287a4.212,4.212,0,0,1,.265-1.887,1.6,1.6,0,0,1,1.076-.642c.489-.139.518-.451.508-.583a.632.632,0,0,0-.7-.573,4.609,4.609,0,0,0-.8.1,9.653,9.653,0,0,1-1.483.089c-1.175,0-2.125-.037-2.829-.112-.307-.027-.533-.042-.672-.042-.67,0-.722.429-.722.56,0,.159.067.543.677.647a4.22,4.22,0,0,1,2.061.744,2.626,2.626,0,0,1,.672,1.669l.186,3.531-.015,2.083v7.516c-.035-.037-.077-.082-.124-.136L477.587,20.178a1.33,1.33,0,0,0-.979-.543c-.136,0-.33,0-.588.015l-.223.015-1.649-.045c-.124-.01-.216-.017-.27-.017a.545.545,0,0,0-.613.56c0,.159.062.533.652.617a2.905,2.905,0,0,1,2.249,1.614,8.527,8.527,0,0,1,.816,4.074v10.5a4.636,4.636,0,0,1-.417,2.276,2.912,2.912,0,0,1-1.6,1.079c-.429.144-.635.365-.615.665.012.124.1.531.7.531a4.875,4.875,0,0,0,.608-.057,8.29,8.29,0,0,1,1.116-.069l.717-.027,1.572.077c1.007.052,1.252.079,1.324.092a4.486,4.486,0,0,0,.5.032.544.544,0,0,0,.6-.575c0-.174-.074-.583-.741-.662m12.156,1.054h0v0Z" transform="translate(-21.757 -9.741)"/><path class="cls-2" d="M499.954,20.8a1.838,1.838,0,0,1,1.659.637,5.982,5.982,0,0,1,.444,2.829V37.316l-.015,1.007c0,1.108-.3,1.731-.912,1.9l-.583.166c-.526.139-.6.454-.6.627,0,.141.054.605.766.605a5.284,5.284,0,0,0,.848-.112,26.731,26.731,0,0,1,3.764-.181c1.267,0,2.9.092,4.853.278.5.04.915.062,1.225.062a4.518,4.518,0,0,0,3.635-1.761,4.274,4.274,0,0,0,1.188-2.557c0-.625-.429-.679-.58-.672a.764.764,0,0,0-.555.4c-1.091,1.728-3.63,2.6-7.548,2.6a4.762,4.762,0,0,1-2.224-.275c-.132-.092-.352-.4-.352-1.413V32.3l-.015-.5c0-.141.022-.325.124-.384a1.873,1.873,0,0,1,.865-.114h3.4a3.34,3.34,0,0,1,1.726.322,1.8,1.8,0,0,1,.623,1.235l.092.424a.635.635,0,0,0,.662.563c.278,0,.573-.174.573-.657a4.309,4.309,0,0,0-.032-.474c-.06-.608-.089-1.225-.089-1.835,0-.816.045-1.726.136-2.7.012-.164.017-.283.017-.36,0-.612-.429-.682-.6-.689a.641.641,0,0,0-.64.59,2.782,2.782,0,0,1-.382,1.168,1.771,1.771,0,0,1-.927.36,13.562,13.562,0,0,1-2.51.181h-2.376a2.667,2.667,0,0,1-.585-.05,1.9,1.9,0,0,1-.067-.684V22.472c0-.627.129-.806.184-.853s.283-.174,1.051-.174h2.42a15.093,15.093,0,0,1,3.209.223,1.356,1.356,0,0,1,1,.766,2.172,2.172,0,0,1,.164.836v.4a.925.925,0,0,0,.112.489.517.517,0,0,0,.474.248h0a.624.624,0,0,0,.588-.422,5.347,5.347,0,0,0,.171-1.188l.062-.9c.064-.826.1-1.106.119-1.2a1.983,1.983,0,0,0,.052-.409.692.692,0,0,0-.784-.719,4.723,4.723,0,0,0-.657.064c-.087.012-.342.032-1.084.06l-2.187.107c-.967.04-2.085.062-3.323.062a48.349,48.349,0,0,1-5.274-.245,9.736,9.736,0,0,0-1.066-.079c-.87,0-.965.488-.965.7,0,.131.05.56.719.56" transform="translate(-21.757 -9.741)"/><path class="cls-2" d="M404.854,59.092a8.647,8.647,0,0,0-5.4-1.607c-.417,0-.96.027-1.614.077-1.242.114-2.2.169-2.844.169a11.508,11.508,0,0,1-1.562-.134,5.532,5.532,0,0,0-.828-.082c-.769,0-.868.439-.875.622-.008.129.017.555.645.6.92.1,1.5.392,1.709.865a12.034,12.034,0,0,1,.362,3.98v9.356a13.566,13.566,0,0,1-.424,4.129,1.7,1.7,0,0,1-1.426,1.18c-.647.1-.744.439-.744.635,0,.278.179.573.675.573a7.7,7.7,0,0,0,.917-.079,10.952,10.952,0,0,1,1.339-.06l1.193-.015,1.1.032c.751,0,1.27.01,1.582.03.526.042.87.062,1.054.062a.868.868,0,0,0,.667-.226.583.583,0,0,0,.146-.456c-.01-.159-.1-.528-.751-.528A5.161,5.161,0,0,1,398.561,78c-.694-.176-1.081-.811-1.183-1.922l-.045-1.285.015-14.368.015-.456c0-.484.107-.64.151-.687s.216-.151.652-.151a6.283,6.283,0,0,1,4.27,1.466,4.616,4.616,0,0,1,1.661,3.663,3.908,3.908,0,0,1-1.242,3.048,4.8,4.8,0,0,1-3.365,1.151,4.075,4.075,0,0,1-1.071-.1c-.769-.191-.915.236-.937.367-.064.481.67.672.982.754a7.333,7.333,0,0,0,1.85.221,7.017,7.017,0,0,0,4.077-1.347,5.812,5.812,0,0,0,2.584-4.989,5.16,5.16,0,0,0-2.12-4.268" transform="translate(-21.757 -9.741)"/><path class="cls-2" d="M430.527,78.234l-.494-.03c-1.017-.067-2.172-1.037-3.432-2.881l-4.578-6.762c2.445-1.3,3.685-3.144,3.685-5.475a4.908,4.908,0,0,0-1.917-4.2,9.239,9.239,0,0,0-5.518-1.389c-.625,0-1.341.025-2.19.077-1.153.072-1.939.109-2.405.109-.531,0-.984-.017-1.356-.047-.647-.042-1.014-.062-1.1-.062-.722,0-.8.412-.8.59,0,.228.124.521.727.632l.722.107c.977.164,1.453.955,1.453,2.425l.03,1.6V74.026a10.2,10.2,0,0,1-.362,3.39,1.752,1.752,0,0,1-1.423.962c-.526.1-.6.4-.6.57a.58.58,0,0,0,.66.588c.164,0,.444-.02.86-.062a11.7,11.7,0,0,1,1.242-.077l.794-.015,1.483.017c.873,0,1.523.022,1.932.067.466.047.784.069.94.069a.854.854,0,0,0,.66-.213.484.484,0,0,0,.122-.377c-.015-.236-.166-.531-.818-.6a3.694,3.694,0,0,1-1.909-.61A1.393,1.393,0,0,1,416.4,77a8.073,8.073,0,0,1-.121-1.753l-.017-5.443a.526.526,0,0,1,.04-.241l.213-.042h2.051a1.03,1.03,0,0,1,.972.506l4.059,6.2a9.365,9.365,0,0,0,2.319,2.567,4.568,4.568,0,0,0,2.646.813,5.843,5.843,0,0,0,1.594-.2c.4-.112.858-.288.885-.665a.462.462,0,0,0-.107-.342.577.577,0,0,0-.412-.174M416.251,60.216a1.174,1.174,0,0,1,.255-.885,1.667,1.667,0,0,1,1.079-.236,5.484,5.484,0,0,1,3.836,1.376,4.489,4.489,0,0,1,1.488,3.492,3.778,3.778,0,0,1-1.076,2.849,4.159,4.159,0,0,1-3,1.039h-1.746c-.583,0-.7-.1-.712-.114s-.114-.119-.114-.727V60.72Z" transform="translate(-21.757 -9.741)"/><path class="cls-2" d="M442.964,57.284a12.694,12.694,0,0,0-4.65.89,10.625,10.625,0,0,0-3.767,2.415,10.473,10.473,0,0,0-2.242,3.583,11.881,11.881,0,0,0-.828,4.315,10.909,10.909,0,0,0,3.159,8.119,11.311,11.311,0,0,0,8.25,3.1,11.033,11.033,0,0,0,8.171-3.241,11.353,11.353,0,0,0,3.2-8.285,10.451,10.451,0,0,0-3.179-7.836,11.248,11.248,0,0,0-8.111-3.06m.518,20.981a8.11,8.11,0,0,1-6.408-3.107,11.611,11.611,0,0,1-2.629-7.695,9.292,9.292,0,0,1,2.038-6.311,6.947,6.947,0,0,1,5.485-2.319,8.8,8.8,0,0,1,6.76,2.986,10.762,10.762,0,0,1,2.725,7.494,9.346,9.346,0,0,1-2.262,6.433,7.361,7.361,0,0,1-5.711,2.519" transform="translate(-21.757 -9.741)"/><path class="cls-2" d="M479.192,67.636c-.077,0-.29.007-1.26.079-.243.017-1.168.027-2.743.027l-1.781-.03a.881.881,0,0,0-.67.208.487.487,0,0,0-.129.365c.01.258.169.583.868.652a2.816,2.816,0,0,1,1.49.369,1.4,1.4,0,0,1,.31,1.071V73.85a3.23,3.23,0,0,1-.434,1.942,6.54,6.54,0,0,1-5.386,2.425,7.663,7.663,0,0,1-6.078-2.926,11.114,11.114,0,0,1-2.472-7.35,10.119,10.119,0,0,1,2.143-6.663,6.845,6.845,0,0,1,5.49-2.552,9.729,9.729,0,0,1,5.151,1.5,9.4,9.4,0,0,1,3.606,3.891.629.629,0,0,0,.593.412h0a.585.585,0,0,0,.568-.66,1.912,1.912,0,0,0-.084-.508c-.089-.377-.159-.764-.211-1.141l-.154-1.456a8.9,8.9,0,0,1-.089-1.014c0-.662-.186-1-.553-1a.585.585,0,0,0-.379.146l-.36.27c-.072.047-.117.067-.122.074a1.211,1.211,0,0,1-.131-.077,11.44,11.44,0,0,0-3.345-1.347c-4.984-1.277-9.031-.26-11.987,2.79a11.478,11.478,0,0,0-3.216,8.287,10.425,10.425,0,0,0,10.827,10.842,13.005,13.005,0,0,0,6.6-1.78l1.014-.6a3.936,3.936,0,0,1,1.18-.521,1.126,1.126,0,0,0,.585-.186l.054-.042.141-.355-.035-.538V70.758l-.015-.486c0-.821.307-1.277.97-1.436.55-.141.667-.427.667-.64a.552.552,0,0,0-.63-.56" transform="translate(-21.757 -9.741)"/><path class="cls-2" d="M503.524,78.408a.577.577,0,0,0-.412-.174l-.493-.03c-1.017-.067-2.172-1.037-3.432-2.881l-4.578-6.762c2.445-1.3,3.685-3.144,3.685-5.475a4.908,4.908,0,0,0-1.917-4.2A9.238,9.238,0,0,0,490.86,57.5c-.627,0-1.342.025-2.19.077-1.153.072-1.942.109-2.405.109-.531,0-.984-.017-1.356-.047-.647-.042-1.014-.062-1.1-.062-.722,0-.8.412-.8.59,0,.228.124.521.726.632l.722.107c.977.164,1.451.955,1.451,2.425l.032,1.6V74.026a10.2,10.2,0,0,1-.362,3.39,1.756,1.756,0,0,1-1.423.962c-.526.1-.6.4-.6.57a.58.58,0,0,0,.66.588c.164,0,.444-.02.86-.062a11.7,11.7,0,0,1,1.24-.077l.8-.015,1.483.017c.873,0,1.523.022,1.932.067.466.047.784.069.94.069a.854.854,0,0,0,.66-.213.485.485,0,0,0,.122-.377c-.015-.236-.166-.531-.818-.6a3.694,3.694,0,0,1-1.909-.61A1.394,1.394,0,0,1,488.99,77a8.077,8.077,0,0,1-.121-1.753l-.017-5.443a.527.527,0,0,1,.04-.241l.213-.042h2.051a1.029,1.029,0,0,1,.972.506l4.059,6.2A9.364,9.364,0,0,0,498.5,78.8a4.567,4.567,0,0,0,2.646.813,5.856,5.856,0,0,0,1.594-.2c.4-.112.858-.288.885-.665a.462.462,0,0,0-.107-.342M488.836,60.216a1.175,1.175,0,0,1,.255-.885,1.668,1.668,0,0,1,1.079-.236,5.484,5.484,0,0,1,3.836,1.376,4.489,4.489,0,0,1,1.488,3.492,3.778,3.778,0,0,1-1.076,2.849,4.159,4.159,0,0,1-3,1.039h-1.746c-.583,0-.7-.1-.712-.114s-.114-.119-.114-.727V60.72Z" transform="translate(-21.757 -9.741)"/><path class="cls-2" d="M525.841,78.239a3.655,3.655,0,0,1-1.8-.647A6.943,6.943,0,0,1,522.9,75.36l-6.971-17.822c-.159-.414-.384-.622-.672-.622s-.518.211-.7.622l-7.93,17.616-.444,1.012a6.829,6.829,0,0,1-.831,1.314c-.427.531-.63.637-.7.657l-.573.169a.6.6,0,0,0-.456.6c0,.129.05.558.689.558.032,0,.092,0,.885-.087.156-.015.379-.02.667-.02.64,0,1.21.01,1.694.035l1.478.087c.243.01.422.017.538.017a.747.747,0,0,0,.578-.191.456.456,0,0,0,.127-.355c-.012-.221-.146-.506-.694-.613a3.008,3.008,0,0,1-1.3-.493,1.1,1.1,0,0,1-.273-.848,6.424,6.424,0,0,1,.662-2.207l1.012-2.274c.4-.908.593-1.086.642-1.118a2.88,2.88,0,0,1,1.267-.141h5.584a2.485,2.485,0,0,1,.89.079,2.768,2.768,0,0,1,.412.858l.774,2.043a11.089,11.089,0,0,1,.922,3.162c0,.6-.295.732-.558.786l-.471.1c-.526.1-.605.412-.605.585a.587.587,0,0,0,.675.59,3.143,3.143,0,0,0,.523-.064,20.308,20.308,0,0,1,2.638-.089c1.352,0,2.3.025,2.834.077.308.02.511.03.605.03.608,0,.7-.357.707-.516.01-.2-.067-.541-.689-.657m-8.59-9.111c0,.047-.154.112-.5.112h-4.647l-.426-.015c-.074,0-.436-.007-.436-.124a1.652,1.652,0,0,1,.176-.461l3.008-6.681c.01-.02.017-.037.025-.052a1.377,1.377,0,0,1,.119.253l2.537,6.41.079.285a1.072,1.072,0,0,1,.064.273" transform="translate(-21.757 -9.741)"/><path class="cls-2" d="M552.034,78.252a2.256,2.256,0,0,1-1.4-.585,2.4,2.4,0,0,1-.369-1.518l-.369-10.333L549.8,62.1a7.253,7.253,0,0,1,.295-2.455,1.255,1.255,0,0,1,.92-.8l.657-.169a.618.618,0,0,0,.518-.627.538.538,0,0,0-.6-.575h0c-.109.012-.255.022-.449.032-.377.04-.893.062-1.53.062-.2,0-.359,0-.479-.015-.508-.057-.647-.062-.709-.062a.815.815,0,0,0-.6.193,2.473,2.473,0,0,0-.4.689l-7.246,15.536-.29.65-.017-.04-.784-1.582-6.43-13.874-.169-.35c-.347-.751-.8-1.131-1.359-1.131a4.512,4.512,0,0,0-.6.047c-.151.015-.548.03-1.58.03a9.25,9.25,0,0,1-1.024-.03c-.258-.022-.436-.032-.533-.032a.586.586,0,0,0-.657.605c0,.2.089.551.687.647a2.975,2.975,0,0,1,2.232,1.49,8.6,8.6,0,0,1,.689,3.938c0,.846-.077,2.909-.231,6.132l-.216,4.476a6.294,6.294,0,0,1-.5,2.564,2.017,2.017,0,0,1-1.391.917c-.533.109-.59.456-.59.6s.054.605.736.605a3.616,3.616,0,0,0,.513-.05,16.079,16.079,0,0,1,2.118-.136c.615,0,1.5.052,2.634.151a5.274,5.274,0,0,0,.6.035c.667,0,.719-.476.719-.622,0-.474-.625-.637-1.173-.724-1.131-.174-1.681-1.069-1.681-2.738,0-1.862.015-3.124.047-3.752l.3-6.522,5.331,11.5.313.657c.243.464.384.739.424.831.1.228.407.917.952.917s.816-.67.905-.885c.052-.112.144-.3.275-.573.241-.474.523-1.074.838-1.785.784-1.748,1.218-2.713,1.294-2.889l1.58-3.241,1.376-2.939c.228-.474.652-1.26,1.265-2.346l.362,8.848.062,2.509a4.1,4.1,0,0,1-.275,1.813,1.62,1.62,0,0,1-1.049.675c-.511.136-.588.441-.588.61,0,.126.052.543.719.543.166,0,.756-.027,1.865-.087.675-.045,1.175-.067,1.49-.067a12.448,12.448,0,0,1,1.265.06l1.21.124c.151.01.285.015.4.015.734,0,.843-.36.843-.573,0-.523-.764-.637-1.051-.679" transform="translate(-21.757 -9.741)"/><path class="cls-2" d="M580.1,78.252a2.264,2.264,0,0,1-1.406-.585,2.38,2.38,0,0,1-.367-1.518l-.372-10.333-.092-3.717a7.185,7.185,0,0,1,.3-2.455,1.259,1.259,0,0,1,.92-.8l.66-.169a.616.616,0,0,0,.516-.627.536.536,0,0,0-.6-.575h0c-.109.012-.258.022-.449.032-.377.04-.893.062-1.533.062q-.294,0-.476-.015c-.508-.057-.645-.062-.709-.062a.811.811,0,0,0-.6.193,2.541,2.541,0,0,0-.4.689l-7.246,15.536-.29.65a.291.291,0,0,0-.017-.04l-.784-1.582-6.43-13.874-.169-.35c-.345-.751-.8-1.131-1.359-1.131a4.446,4.446,0,0,0-.593.047c-.154.015-.551.03-1.58.03a9.279,9.279,0,0,1-1.027-.03c-.258-.022-.434-.032-.531-.032a.587.587,0,0,0-.66.605c0,.2.089.551.687.647a2.971,2.971,0,0,1,2.232,1.49,8.567,8.567,0,0,1,.692,3.938c0,.846-.079,2.909-.231,6.132l-.216,4.476a6.283,6.283,0,0,1-.506,2.564,2.016,2.016,0,0,1-1.391.917c-.531.109-.588.456-.588.6s.052.605.734.605a3.677,3.677,0,0,0,.516-.05,16.05,16.05,0,0,1,2.118-.136c.615,0,1.5.052,2.631.151a5.272,5.272,0,0,0,.6.035c.667,0,.719-.476.719-.622,0-.474-.625-.637-1.173-.724-1.131-.174-1.681-1.069-1.681-2.738,0-1.862.017-3.124.047-3.752l.3-6.522,5.332,11.5.312.657c.243.464.384.739.427.831.1.228.407.917.95.917s.816-.67.905-.885c.052-.112.144-.3.275-.573.24-.474.523-1.074.841-1.785q1.176-2.622,1.292-2.889l1.58-3.241,1.374-2.939c.231-.474.657-1.26,1.27-2.346l.362,8.848.06,2.509a4.183,4.183,0,0,1-.273,1.813,1.632,1.632,0,0,1-1.051.675c-.508.136-.585.441-.585.61,0,.126.05.543.717.543.169,0,.761-.027,1.865-.087.674-.045,1.175-.067,1.493-.067a12.483,12.483,0,0,1,1.265.06l1.21.124c.151.01.283.015.4.015.731,0,.843-.36.843-.573,0-.523-.766-.637-1.051-.679" transform="translate(-21.757 -9.741)"/><path class="cls-2" d="M600.011,74.6H600a.774.774,0,0,0-.558.4c-1.089,1.726-3.628,2.6-7.546,2.6a4.694,4.694,0,0,1-2.224-.275c-.132-.092-.352-.394-.352-1.413V70.218l-.015-.5c0-.144.02-.325.119-.384a1.862,1.862,0,0,1,.87-.117h3.4a3.306,3.306,0,0,1,1.723.325,1.788,1.788,0,0,1,.625,1.232l.092.424a.635.635,0,0,0,.662.565c.28,0,.575-.174.575-.66,0-.1-.012-.255-.035-.474-.06-.608-.092-1.225-.092-1.835,0-.816.05-1.723.136-2.7a3.169,3.169,0,0,0,.017-.36.6.6,0,0,0-.6-.689.638.638,0,0,0-.635.593,2.873,2.873,0,0,1-.382,1.168,1.8,1.8,0,0,1-.93.36,13.753,13.753,0,0,1-2.512.181h-2.373a3.034,3.034,0,0,1-.585-.05,1.861,1.861,0,0,1-.067-.684V60.386c0-.627.127-.806.181-.853s.285-.174,1.056-.174h2.418a15.172,15.172,0,0,1,3.211.223,1.383,1.383,0,0,1,1,.764,2.2,2.2,0,0,1,.164.838v.4a.9.9,0,0,0,.109.489.517.517,0,0,0,.476.245.626.626,0,0,0,.59-.419,5.347,5.347,0,0,0,.171-1.188l.064-.905c.06-.826.1-1.106.114-1.193a2,2,0,0,0,.055-.412.693.693,0,0,0-.781-.719,4.7,4.7,0,0,0-.662.067c-.082.012-.34.032-1.084.057l-2.187.109c-.957.04-2.073.06-3.32.06a49.02,49.02,0,0,1-5.274-.243,9.086,9.086,0,0,0-1.066-.079c-.87,0-.97.486-.97.7,0,.131.055.56.722.56a1.832,1.832,0,0,1,1.659.637,5.971,5.971,0,0,1,.444,2.827V75.227l-.012,1.009c0,1.108-.3,1.728-.913,1.9l-.58.169c-.526.136-.608.451-.608.627,0,.141.055.605.766.605a5.488,5.488,0,0,0,.848-.112,26.477,26.477,0,0,1,3.769-.181c1.262,0,2.894.092,4.853.275.518.045.922.064,1.225.064a4.509,4.509,0,0,0,3.633-1.763,4.271,4.271,0,0,0,1.185-2.554c0-.617-.4-.672-.568-.672" transform="translate(-21.757 -9.741)"/><path class="cls-2" d="M611.685,66.5a38.2,38.2,0,0,1-3.638-1.329,3.852,3.852,0,0,1-1.285-1.1A3.308,3.308,0,0,1,606.093,62a2.838,2.838,0,0,1,1.024-2.242,3.8,3.8,0,0,1,2.594-.913,6.684,6.684,0,0,1,3.648,1.041A4.967,4.967,0,0,1,615.5,62.5c.146.431.365.93.759.93.144,0,.608-.055.608-.751a5.581,5.581,0,0,0-.082-.675l-.245-1.59c-.164-1.056-.2-1.409-.2-1.518,0-.848-.35-1.029-.662-1.029a.413.413,0,0,0-.36.144l-.2.169a.3.3,0,0,1-.364.05l-1.069-.449a7.57,7.57,0,0,0-2.9-.5,7.474,7.474,0,0,0-4.967,1.637,5.369,5.369,0,0,0-1.954,4.28,5.185,5.185,0,0,0,1.505,3.831,13.247,13.247,0,0,0,4.952,2.624,14.409,14.409,0,0,1,3.915,1.661A3.384,3.384,0,0,1,615.5,74a3.561,3.561,0,0,1-1.374,2.834,5.114,5.114,0,0,1-3.415,1.185A6.2,6.2,0,0,1,607,76.771a5.731,5.731,0,0,1-2.237-3.075c-.119-.4-.327-.93-.789-.955-.131,0-.568.052-.568.722a8.573,8.573,0,0,0,.409,2.048c.236.851.367,1.317.384,1.389a6.253,6.253,0,0,0,.3,1.123,1.228,1.228,0,0,0,.471.511,6.739,6.739,0,0,0,2.177.826,11.68,11.68,0,0,0,2.681.347,8.178,8.178,0,0,0,5.562-1.9,6.281,6.281,0,0,0,2.19-4.925c0-2.953-1.981-5.1-5.887-6.378" transform="translate(-21.757 -9.741)"/><path class="cls-2" d="M42.811,44.836s.151.007.33.022c.211.022.4.052.4.052l-.223-1.128Z" transform="translate(-21.757 -9.741)"/><path class="cls-2" d="M62.316,51.339l.533.233L59.217,42c-4.535-4.791-10.985-.2-10.985-.2s-5.986-4.392-11.226.245l-3.829,9.51s.206-.1.573-.25l-.35.781s.35-.2.942-.466l-.424,1.037s.221-.144.61-.35l-.2.511.357.236s6.69-4.741,12.409,1.126c.868.89.962.662,1.656,0,6.5-6.2,12.178-1.183,12.389-1.23a2.438,2.438,0,0,0,.533-.236l-.161-.449c.4.216.625.365.625.365l-.327-.856.865.414ZM39.195,43.589c-.337.069-.4.087-.488.459l-.171.635.188-.032c.208-.042.32-.186.441-.573l.151-.022c-.042.213-.084.426-.122.637s-.057.407-.089.613l-.156.02c.027-.3-.022-.508-.293-.461l-.166.025-.27.838c-.092.347.012.355.432.27l-.04.181c-.27.057-.588.122-.915.188-.285.057-.449.1-.9.171l.069-.156c.459-.092.5-.246.613-.6l.486-1.488c.129-.419.112-.583-.251-.56l.047-.149a9.463,9.463,0,0,0,1.069-.139,13.016,13.016,0,0,0,1.351-.347l-.072.784-.213.04c0-.541-.184-.449-.7-.337m2.3.136-.374,1.483c-.082.479-.109.6.283.6l-.03.191c-.238,0-.479,0-.746,0-.228,0-.57.045-.8.067l.06-.186c.407-.045.469-.2.578-.637l.412-1.4c.074-.372.124-.518-.251-.476l.042-.191c.216-.037.392-.047.65-.077s.444-.074.712-.1l-.022.193c-.367.045-.461.181-.513.531m3.085,2.758c-.243-.074-.382-.121-.632-.181-.2-.042-.434-.087-.687-.119l.032-.193c.149.022.384.01.369-.213,0-.079-.03-.312-.042-.387l-.042-.191a4.134,4.134,0,0,0-.459-.077,3.52,3.52,0,0,0-.409-.03l-.072.151c-.055.121-.092.183-.171.36-.112.241.149.275.3.3l-.027.184c-.166-.017-.335-.042-.5-.055s-.3-.012-.461-.02l.027-.188c.345,0,.521-.409.662-.722.422-.908.972-2.128.972-2.128l.33.037s.4,1.959.461,2.388a5.272,5.272,0,0,0,.114.613.516.516,0,0,0,.27.28ZM46.766,45.1l-.166-.064c.008-.427.017-.8-.231-.927s-.283.01-.317.4l-.169,1.622c-.05.441-.008.622.31.811l-.022.193c-.253-.131-.471-.233-.67-.317-.216-.084-.444-.154-.7-.245l.037-.181c.389.107.407-.022.451-.461l.186-1.617c.035-.352.089-.523-.176-.617-.32-.117-.355.206-.456.613l-.171-.057L44.8,43.3a7.314,7.314,0,0,1,1.118.35,5.051,5.051,0,0,1,.927.516Zm4.486,1.855c-.213.1-.481.218-.7.342l-.01-.188c.352-.208.347-.372.322-.779l-.092-1.654c-.02-.412.01-.63-.389-.479l-.012-.2a5.7,5.7,0,0,1,.578-.26,6.576,6.576,0,0,1,.784-.246l.01.211c-.367.117-.332.327-.312.739l.082,1.344c.025.506.079.784.533.632a1.054,1.054,0,0,0,.878-1.029l.166-.022.02,1.014a13.3,13.3,0,0,0-1.852.57m4.354-2.5.06.446c.107.905.2,1.361-.853,1.4a1.274,1.274,0,0,1-1.461-1.277L53.26,44.2c-.042-.414-.042-.625-.426-.622l-.012-.179c.33-.027.553-.025.756-.035.236-.012.456-.01.754-.01l.015.179c-.364.007-.362.253-.322.662l.084.789c.062.64.28,1.014.851.989.61-.025.593-.347.531-.95l-.089-.679a1.474,1.474,0,0,0-.144-.56.407.407,0,0,0-.322-.218l-.02-.179c.176.012.322.04.486.06s.245.02.436.04l.02.176a.275.275,0,0,0-.265.226,1.519,1.519,0,0,0,.015.568m2.847,2.353c-.211-.037-.459-.062-.692-.107l-.02-.174a.737.737,0,0,0,.233-.01.11.11,0,0,0,.06-.114,1.338,1.338,0,0,0-.213-.389l-.4-.6-.208.32a.869.869,0,0,0-.174.446c.015.188.159.226.3.258l.015.179c-.216-.04-.352-.072-.526-.107s-.307-.052-.459-.072l-.012-.186c.216.027.35-.151.464-.335l.474-.724-.553-.836a2.055,2.055,0,0,0-.206-.317.677.677,0,0,0-.275-.211l-.007-.183c.191.057.4.107.62.154s.422.062.61.084l.02.2c-.107-.007-.255-.037-.243.112a.475.475,0,0,0,.1.258l.25.374.179-.25a1.912,1.912,0,0,0,.161-.238c.079-.119-.109-.218-.28-.243l-.015-.191a4.226,4.226,0,0,0,.424.05c.149.007.238,0,.374,0l.062.186c-.206,0-.288.136-.422.342l-.36.538.908,1.334c.151.2.28.365.474.4l.027.174c-.293-.045-.429-.079-.694-.119" transform="translate(-21.757 -9.741)"/></g></svg>