<?xml version="1.0" encoding="utf-8"?>
<!-- Generator: Adobe Illustrator 19.1.0, SVG Export Plug-In . SVG Version: 6.00 Build 0)  -->
<svg version="1.1" id="Layer_1" xmlns="http://www.w3.org/2000/svg" xmlns:xlink="http://www.w3.org/1999/xlink" x="0px" y="0px"
	 width="400px" height="400px" viewBox="0 0 400 400" enable-background="new 0 0 400 400" xml:space="preserve">
<path fill="#333333" d="M152.194,47.311C67.864,73.713,20.906,163.478,47.309,247.808c0.993,3.171,2.092,6.279,3.263,9.342
	c-0.041-0.128-0.065-0.259-0.1-0.387c0.035,0.129,0.06,0.26,0.1,0.389c0.063,0.201,0.143,0.392,0.216,0.586
	c0.055,0.142,0.109,0.284,0.164,0.426c2.014,4.625,7.228,7.084,12.15,5.543c5.273-1.65,8.206-7.26,6.556-12.532
	c-0.104-0.336-0.227-0.662-0.363-0.979c-1.05-2.738-2.02-5.524-2.909-8.361C43.281,168.042,84.372,89.49,158.165,66.386
	c73.794-23.105,152.345,17.985,175.45,91.78c23.105,73.795-17.987,152.345-91.78,175.449c-51.08,15.993-104.436,1.222-140.106-33.86
	c-0.26-0.256-0.519-0.514-0.776-0.771c-2.539-2.264-6.163-3.185-9.646-2.094c-5.271,1.65-8.205,7.261-6.556,12.531
	c0.555,1.773,1.565,3.273,2.853,4.433c-0.001-0.002-0.002-0.003-0.004-0.004c-0.007,0.006-0.012,0.013-0.018,0.02
	c40.763,40.181,101.793,57.119,160.226,38.823c84.33-26.403,131.287-116.168,104.884-200.498
	C326.288,67.863,236.522,20.906,152.194,47.311z"/>
<path fill-rule="evenodd" clip-rule="evenodd" fill="#333333" d="M279.876,200.049c0.001,5.523-4.478,10-10.001,9.999
	l-159.999,0.001c-5.523,0-10-4.477-10-10l0,0c-0.001-5.523,4.477-10,10-9.999l160-0.001
	C275.399,190.05,279.876,194.527,279.876,200.049L279.876,200.049z"/>
<path fill-rule="evenodd" clip-rule="evenodd" fill="#333333" d="M276.948,207.12c-3.905,3.906-10.237,3.905-14.143-0.001
	l-56.568-56.568c-3.905-3.906-3.905-10.237,0-14.142l0,0c3.905-3.906,10.236-3.906,14.142,0.001l56.569,56.568
	C280.852,196.884,280.853,203.215,276.948,207.12L276.948,207.12z"/>
<path fill-rule="evenodd" clip-rule="evenodd" fill="#333333" d="M206.237,264.356c3.905,3.906,10.237,3.905,14.143-0.001
	l56.568-56.568c3.905-3.906,3.905-10.237,0-14.142l0,0c-3.905-3.906-10.236-3.906-14.142,0l-56.569,56.568
	C202.333,254.119,202.332,260.45,206.237,264.356L206.237,264.356z"/>
</svg>
