<svg id="Layer_1" data-name="Layer 1" xmlns="http://www.w3.org/2000/svg" viewBox="0 0 400 400"><defs><style>.cls-1{fill:#333;}</style></defs><title>icon</title><circle class="cls-1" cx="70.23" cy="189.95" r="10"/><rect class="cls-1" x="60.23" y="131.24" width="20" height="61.72"/><circle class="cls-1" cx="70.39" cy="130.56" r="10"/><circle class="cls-1" cx="210.03" cy="70.56" r="10"/><polygon class="cls-1" points="65.77 121.7 208.04 60.56 210.03 80.56 76.98 140.42 65.77 121.7"/><circle class="cls-1" cx="349.79" cy="130.56" r="10"/><circle class="cls-1" cx="210.15" cy="70.56" r="10"/><polygon class="cls-1" points="354.41 121.7 212.15 60.56 210.16 80.56 343.21 140.42 354.41 121.7"/><path class="cls-1" d="M209.54,250.62L136.6,217.81a10.45,10.45,0,0,0-6-2.69,10.63,10.63,0,0,0-1.09-.06,10.5,10.5,0,0,0-10.5,10.5c0,5.15,3.85,8.12,8.59,10.32h0c0,0.12,77.43,33.67,77.43,33.67a9.93,9.93,0,0,0,1.08.46l1.44,0.41h0A10,10,0,1,0,209.54,250.62Z"/><circle class="cls-1" cx="349.79" cy="130.43" r="10"/><circle class="cls-1" cx="210.15" cy="190.43" r="10"/><polygon class="cls-1" points="353.03 139.89 212.15 200.44 210.16 180.44 343.21 120.58 353.03 139.89"/><path class="cls-1" d="M67.09,139.87l-1.32-.57A9.92,9.92,0,0,0,67.09,139.87Z"/><path class="cls-1" d="M206.62,199.83l-1.07-.46A9.92,9.92,0,0,0,206.62,199.83Z"/><path class="cls-1" d="M208,200.43l0-.2a9.88,9.88,0,0,1-1.44-.41Z"/><path class="cls-1" d="M131.7,145.2l4,1.82A10.43,10.43,0,0,0,131.7,145.2Z"/><path class="cls-1" d="M127.22,165.71l-3.55-1.52A10.44,10.44,0,0,0,127.22,165.71Z"/><path class="cls-1" d="M210,180.43L135.74,147l-4-1.82a10.5,10.5,0,0,0-8,19l3.55,1.52,78.32,33.66,1.07,0.46a9.88,9.88,0,0,0,1.44.41A10,10,0,1,0,210,180.43Z"/><path class="cls-1" d="M213.56,269a9.92,9.92,0,0,0,1.07-.46Z"/><path class="cls-1" d="M212.15,269.62l1.42-.61a9.88,9.88,0,0,1-1.44.41Z"/><path class="cls-1" d="M300,224.64V191.72c0-.05,0-0.1,0-0.15a10,10,0,0,0-20,0v27.65l-69.81,31.41a10,10,0,1,0,2,19.8,9.88,9.88,0,0,0,1.44-.41l1.07-.46,77-33.07c5-2.15,8.35-5.34,8.36-9.85C300,225.5,300,224.64,300,224.64Z"/><polygon class="cls-1" points="139.69 227.18 119.04 225.21 119.04 154.71 139.69 154.71 139.69 227.18"/><path class="cls-1" d="M70,180.88c-6.93,0-29.19,19.58-29.19,59.53,0,50.15,29.28,59.59,29.28,59.59s29.29-9.12,29.29-59.59C99.35,200.46,76.9,180.88,70,180.88Zm0,19.6S79.89,206,83,222.94L70,231.62l-13.05-8.69C60.08,206,70,200.48,70,200.48Zm0.24,79.67h-0.1s-4.32-2-8.37-8.78a42.46,42.46,0,0,1-4-9.14q-0.58-1.87-1.07-4a80.35,80.35,0,0,1-1.88-18.14,19,19,0,0,1,.13-2c0-.34.07-0.68,0.12-1l15,9.77h0.17l15-9.77a22.1,22.1,0,0,1,.25,3.06C85.53,273.14,70.23,280.15,70.23,280.15Z"/></svg>