<svg xmlns="http://www.w3.org/2000/svg" width="100" height="100" viewBox="0 0 100 100">
  <g fill="none" fill-rule="evenodd">
    <ellipse cx="50" cy="50" fill="#D3A02A" rx="50" ry="50"/>
    <path fill="#FFFFFF" fill-rule="nonzero" d="M38.556,20.052 L31.776,11.088 L38.556,2.124 C38.676,1.92 38.736,1.704 38.736,1.476 L38.736,1.452 C38.736,0.804 38.22,0.288 37.572,0.288 L6.576,0.288 C5.928,0.288 5.412,0.804 5.412,1.452 C5.412,2.1 5.928,2.616 6.576,2.616 L35.184,2.616 L29.28,10.404 C29.148,10.62 29.088,10.848 29.1,11.088 C29.088,11.316 29.148,11.544 29.28,11.76 L35.184,19.548 L7.572,19.548 L7.572,6.288 C7.572,5.628 7.032,5.088 6.372,5.088 C5.712,5.088 5.172,5.628 5.172,6.288 L5.172,36.3 L1.572,36.3 C0.912,36.3 0.372,36.84 0.372,37.5 C0.372,38.16 0.912,38.7 1.572,38.7 L11.172,38.7 C11.832,38.7 12.372,38.16 12.372,37.5 C12.372,36.84 11.832,36.3 11.172,36.3 L7.572,36.3 L7.572,21.888 L37.584,21.888 C38.22,21.888 38.748,21.372 38.748,20.724 L38.748,20.7 C38.736,20.484 38.688,20.256 38.556,20.052 L38.556,20.052 Z" transform="translate(31 31)"/>
  </g>
</svg>
