<svg id="Layer_1" data-name="Layer 1" xmlns="http://www.w3.org/2000/svg" viewBox="0 0 400 400"><defs><style>.cls-1{fill:#231f20;}</style></defs><title>icons-interests</title><path d="M196.22,359.49a440.08,440.08,0,0,1-60.87-4.25c-17-2.37-26.93-12.33-27.29-27.32-1.34-54.66-2.25-114.77-2.88-189.15,0-5.28,6.48-11.79,11.19-12.63,17.36-3.06,34.73-5.59,53.13-8.27q8.85-1.29,18-2.64l5.05-.75-14.12,148.4h53.08L217,114.52l4.92,0.56L238.65,117c18.82,2.11,36.6,4.1,54.38,6.61,5.24,0.74,8.93,8.52,9.36,12.31,7.86,69.87,7.88,132,.07,189.94-1.94,14.38-10.16,23.07-24.45,25.83A430.17,430.17,0,0,1,196.22,359.49Zm-83-220.7c0.63,74.3,1.54,134.33,2.87,188.93,0.34,13.89,11.28,18.32,20.4,19.59a425.77,425.77,0,0,0,140-3.51c11-2.13,16.55-8,18-19,7.72-57.28,7.69-118.77-.09-188a10.9,10.9,0,0,0-2.88-5.33C274,129,256.4,127,237.76,124.92l-11.86-1.33,14.47,147.3h-70.7l14-147-13,1.9C152.32,128.47,135,131,117.76,134,116.43,134.32,113.47,137.4,113.18,138.79Zm0-.08h0Z"/><path class="cls-1" d="M163,303.78c14.89,22.22,34.72,16.82,52.18,16.74,10.85-.05,23.12-1.16,28-16.74H163Z"/><path class="cls-1" d="M244.66,144.77v33.68H278.4C276.63,157.16,267,147.47,244.66,144.77Z"/><path class="cls-1" d="M160.72,145.22c-19.85-1.74-33.57,11.86-33.2,32.55h33.2V145.22Z"/><path d="M110.87,103.39l0.35-5.27c2.2-32.73,36.53-57.61,83.49-60.51C246.64,34.39,283.34,54.94,295.36,94l1.89,6.12-6.33-1C229.34,89.45,172.14,90.5,116,102.31ZM205,45.29q-4.79,0-9.8.31c-21,1.3-40.21,7.48-54,17.4-11.51,8.28-18.92,18.9-21.27,30.35,53.27-10.53,107.58-11.57,165.6-3.16C273.73,61.3,245,45.29,205,45.29Z"/></svg>