<?xml version="1.0" encoding="utf-8"?>
<!-- Generator: Adobe Illustrator 19.1.0, SVG Export Plug-In . SVG Version: 6.00 Build 0)  -->
<svg version="1.1" id="Layer_1" xmlns="http://www.w3.org/2000/svg" xmlns:xlink="http://www.w3.org/1999/xlink" x="0px" y="0px"
	 width="400px" height="400px" viewBox="0 0 400 400" enable-background="new 0 0 400 400" xml:space="preserve">
<g id="Layer_x25_201113">
	<path fill="#323232" d="M199.979,60.16c-55.186,0-99.922,44.736-99.922,99.922c0,55.186,44.736,99.922,99.922,99.922
		c55.185,0,99.922-44.736,99.922-99.922C299.901,104.897,255.165,60.16,199.979,60.16z M199.979,280.004
		c-66.231,0-119.922-53.691-119.922-119.922c0-66.231,53.691-119.922,119.922-119.922s119.922,53.691,119.922,119.922
		C319.901,226.313,266.21,280.004,199.979,280.004z"/>
	<path fill="#323232" d="M117.794,308.029c-1.891,5.175-7.619,7.836-12.795,5.945l0,0c-5.174-1.892-7.836-7.621-5.944-12.795
		l20.668-56.538c1.892-5.175,7.621-7.836,12.796-5.945l0,0c5.175,1.892,7.836,7.621,5.943,12.795L117.794,308.029z"/>
	<path fill="#323232" d="M179.922,349.568c-0.013,5.509-4.488,9.966-9.999,9.954l0,0c-5.508-0.012-9.966-4.489-9.953-9.999
		l0.133-73.197c0.012-5.51,4.49-9.967,10.001-9.954l0,0c5.509,0.012,9.966,4.489,9.954,9.999L179.922,349.568z"/>
	<path fill="#323232" d="M284.068,308.029c1.892,5.175,7.62,7.836,12.796,5.945l0,0c5.174-1.892,7.836-7.621,5.944-12.795
		l-20.668-56.538c-1.892-5.175-7.621-7.836-12.796-5.945l0,0c-5.175,1.892-7.836,7.621-5.944,12.795L284.068,308.029z"/>
	<path fill="#323232" d="M218.754,349.568c0.013,5.509,4.488,9.966,9.999,9.954l0,0c5.508-0.012,9.966-4.489,9.953-9.999
		l-0.133-73.197c-0.013-5.51-4.49-9.967-10.001-9.954l0,0c-5.51,0.012-9.966,4.489-9.954,9.999L218.754,349.568z"/>
	<path fill="#323232" d="M176.721,342.491c3.895,3.896,3.895,10.213,0,14.109l0,0c-3.896,3.896-10.213,3.896-14.109,0
		l-28.424-28.424c-3.895-3.896-3.895-10.213,0-14.109l0,0c3.896-3.896,10.213-3.896,14.109,0L176.721,342.491z"/>
	<path fill="#323232" d="M137.085,311.859c5.117-2.043,10.922,0.448,12.967,5.564l0,0c2.043,5.117-0.448,10.921-5.564,12.966
		l-37.33,14.911c-5.117,2.043-10.922-0.448-12.966-5.564l0,0c-2.044-5.117,0.448-10.922,5.564-12.966L137.085,311.859z"/>
	<path fill="#323232" d="M222.63,342.366c-3.895,3.896-3.895,10.213,0,14.109l0,0c3.896,3.896,10.213,3.896,14.109,0l28.424-28.424
		c3.896-3.896,3.896-10.213,0-14.109l0,0c-3.896-3.896-10.213-3.896-14.109,0L222.63,342.366z"/>
	<path fill="#323232" d="M262.265,311.734c-5.117-2.043-10.921,0.448-12.967,5.564l0,0c-2.042,5.117,0.449,10.921,5.565,12.966
		l37.33,14.911c5.117,2.043,10.921-0.448,12.966-5.564l0,0c2.043-5.117-0.449-10.922-5.565-12.966L262.265,311.734z"/>
	<path fill="#323232" d="M182.401,132.942c-3.564,4.201-9.859,4.718-14.062,1.155l0,0c-4.201-3.564-4.718-9.861-1.154-14.062
		l26.002-30.655c3.565-4.202,9.859-4.718,14.062-1.155l0,0c4.202,3.564,4.719,9.86,1.155,14.062L182.401,132.942z"/>
	<path fill="#323232" d="M147.793,143.773c-5.34,1.356-10.77-1.872-12.127-7.212l0,0c-1.355-5.34,1.874-10.77,7.214-12.126
		l29.268-7.436c5.341-1.356,10.768,1.872,12.126,7.213l0,0c1.355,5.34-1.873,10.769-7.213,12.126L147.793,143.773z"/>
	<path fill="#323232" d="M182.063,166.255c1.531-5.708-1.538-11.496-6.86-12.924l0,0c-5.32-1.43-10.878,2.041-12.41,7.749
		l-11.188,41.652c-1.533,5.709,1.537,11.497,6.859,12.926l0,0c5.321,1.428,10.879-2.041,12.411-7.751L182.063,166.255z"/>
	<path fill="#323232" d="M165.339,169.858c3.847,3.942,10.163,4.023,14.107,0.174l0,0c3.944-3.847,4.022-10.164,0.176-14.107
		l-28.068-28.775c-3.848-3.945-10.163-4.023-14.109-0.176l0,0c-3.942,3.848-4.021,10.164-0.174,14.108L165.339,169.858z"/>
	<path fill="#323232" d="M219.364,132.942c3.564,4.201,9.859,4.718,14.062,1.155l0,0c4.201-3.564,4.718-9.861,1.154-14.062
		L208.579,89.38c-3.564-4.202-9.859-4.718-14.062-1.155l0,0c-4.202,3.564-4.72,9.86-1.155,14.062L219.364,132.942z"/>
	<path fill="#323232" d="M253.973,143.773c5.34,1.356,10.769-1.872,12.127-7.212l0,0c1.355-5.34-1.874-10.77-7.214-12.126
		l-29.268-7.436c-5.341-1.356-10.769,1.872-12.126,7.213l0,0c-1.355,5.34,1.872,10.769,7.213,12.126L253.973,143.773z"/>
	<path fill="#323232" d="M194.97,193.83c-4.986-2.783-6.625-9.083-3.653-14.073l0,0c2.97-4.989,9.425-6.778,14.412-3.995
		l39.548,21.294c4.99,2.784,6.627,9.083,3.656,14.073l0,0c-2.971,4.989-9.424,6.778-14.414,3.995L194.97,193.83z"/>
	<path fill="#323232" d="M204.87,193.06c4.865-2.807,6.583-8.951,3.83-13.725l0,0c-2.752-4.773-8.932-6.368-13.797-3.561
		l-38.568,21.508c-4.869,2.807-6.584,8.951-3.832,13.726l0,0c2.752,4.773,8.93,6.367,13.799,3.561L204.87,193.06z"/>
	<path fill="#323232" d="M219.702,166.255c-1.531-5.708,1.538-11.496,6.86-12.924l0,0c5.32-1.43,10.878,2.041,12.41,7.749
		l11.188,41.652c1.533,5.709-1.537,11.497-6.859,12.926l0,0c-5.321,1.428-10.879-2.041-12.411-7.751L219.702,166.255z"/>
	<path fill="#323232" d="M236.427,169.858c-3.847,3.942-10.164,4.023-14.107,0.174l0,0c-3.944-3.847-4.022-10.164-0.176-14.107
		l28.068-28.775c3.848-3.945,10.163-4.023,14.108-0.176l0,0c3.942,3.848,4.022,10.164,0.175,14.108L236.427,169.858z"/>
</g>
</svg>
