<svg id="Layer_1" data-name="Layer 1" xmlns="http://www.w3.org/2000/svg" viewBox="0 0 400 400"><defs><style>.cls-1{fill:#333;}</style></defs><title>icon</title><path class="cls-1" d="M360.54,91a10.54,10.54,0,0,0-10.4-10.19H249a50,50,0,0,0-30-36.17q-2-.82-4.14-1.47a10.15,10.15,0,0,0-1.19-.08,10,10,0,0,0-4.17,19.08c0.54,0.17,1.07.37,1.6,0.57a30.2,30.2,0,0,1,17.62,18.06,29.83,29.83,0,0,1,1.71,9.91s0,0.08,0,.13,0,0,0,.07a10,10,0,0,0,9.38,9.9H340.54V341h-280V100.78h99.33c0.21,0,.41,0,0.62,0s0.41,0,.62,0a10.07,10.07,0,0,0,7.08-3.58c2-2.4,2.17-5.42,2.53-8.37a37.71,37.71,0,0,1,1.54-8,30.18,30.18,0,0,1,18-18.19h0a10,10,0,0,0-4.87-19.35c-1,.3-1.93.64-2.87,1a49.75,49.75,0,0,0-31.26,36.55H50.15a10,10,0,0,0-9.6,12.76V350c0,0.16,0,.32,0,0.49s0,0.32,0,.49a10,10,0,0,0,10,10h300a10,10,0,0,0,10-10c0-.16,0-0.32,0-0.49s0-.32,0-0.49V91Z"/><path class="cls-1" d="M230,190.42h80a10,10,0,0,0,0-20H230A10,10,0,0,0,230,190.42Z"/><path class="cls-1" d="M230,230h80a10,10,0,0,0,0-20H230A10,10,0,0,0,230,230Z"/><path class="cls-1" d="M230,270.42h80a10,10,0,0,0,0-20H230A10,10,0,0,0,230,270.42Z"/><path class="cls-1" d="M101.38,288.82a10,10,0,0,0-.75-3.81,39.68,39.68,0,0,0,.72,4.57C101.36,289.33,101.38,289.07,101.38,288.82Z"/><path class="cls-1" d="M200.18,289.72A60,60,0,0,0,144.84,221a39.85,39.85,0,1,0-8.64.05,59.87,59.87,0,0,0-54.78,67.6c0.2,1.53.44,3,.75,4.53a10,10,0,0,0,9.21,6.11,9.67,9.67,0,0,0,8-4.16c2.1-3.13,1.57-6.13,1.23-9.65-0.13-1.29-.19-2.6-0.19-3.93A40,40,0,1,1,180,288.26l0.1,0A10,10,0,1,0,200,289.31c0,0.16,0,.31,0,0.47ZM120.46,181.41a19.85,19.85,0,1,1,19.85,19.85A19.85,19.85,0,0,1,120.46,181.41Z"/></svg>