<?xml version="1.0" encoding="utf-8"?>
<!-- Generator: Adobe Illustrator 19.1.0, SVG Export Plug-In . SVG Version: 6.00 Build 0)  -->
<svg version="1.1" id="Layer_1" xmlns="http://www.w3.org/2000/svg" xmlns:xlink="http://www.w3.org/1999/xlink" x="0px" y="0px"
	 width="400px" height="400px" viewBox="0 0 400 400" enable-background="new 0 0 400 400" xml:space="preserve">
<g id="Layer_x25_201119">
	<path fill="#323232" d="M349.443,39.619c5.522,0.002,9.997,4.484,9.995,10.006l0,0c-0.002,5.523-4.485,9.996-10.009,9.994
		L50.43,59.58c-5.522-0.007-9.994-4.487-9.994-10.009l0,0c0.003-5.522,4.484-9.997,10.008-9.993L349.443,39.619z"/>
	<path fill="#323232" d="M349.443,339.619c5.522,0.002,9.997,4.484,9.995,10.006l0,0c-0.002,5.523-4.485,9.996-10.009,9.994
		L50.43,359.58c-5.522-0.007-9.994-4.487-9.994-10.009l0,0c0.003-5.522,4.484-9.997,10.008-9.993L349.443,339.619z"/>
	<path fill="#323232" d="M61.213,329.341c0,6.853,0.502,13.587,1.452,20.177h20.033c-1.107-6.562-1.693-13.301-1.693-20.177
		c0-66.477,53.891-120.367,120.367-120.367c66.476,0,120.367,53.89,120.367,120.367c0,6.876-0.585,13.616-1.693,20.177h20.032
		c0.951-6.59,1.452-13.324,1.452-20.177c0-59.053-36.522-109.571-88.21-130.21c51.953-20.512,88.71-71.171,88.71-130.415
		c0-7.83-0.652-15.506-1.887-22.986h-20.106c1.439,7.441,2.202,15.124,2.202,22.986c0,66.476-53.891,120.367-120.367,120.367
		c-66.477,0-120.367-53.891-120.367-120.367c0-7.862,0.762-15.544,2.202-22.986H63.599c-1.234,7.48-1.886,15.156-1.886,22.986
		c0,59.053,36.523,109.571,88.211,130.211C97.971,219.439,61.213,270.098,61.213,329.341z"/>
</g>
</svg>
