<?xml version="1.0" encoding="utf-8"?>
<!-- Generator: Adobe Illustrator 19.1.0, SVG Export Plug-In . SVG Version: 6.00 Build 0)  -->
<svg version="1.1" id="Layer_1" xmlns="http://www.w3.org/2000/svg" xmlns:xlink="http://www.w3.org/1999/xlink" x="0px" y="0px"
	 width="400px" height="400px" viewBox="0 0 400 400" enable-background="new 0 0 400 400" xml:space="preserve">
<g id="Layer_x25_201115">
	<path fill="#323232" d="M179.991,140.036l0.104,149.348c0.004,5.482-4.478,9.971-9.959,9.974l0,0
		c-5.48,0.005-9.972-4.476-9.973-9.959l-0.106-149.348c-0.003-5.483,4.478-9.97,9.959-9.975l0,0
		C175.498,130.072,179.986,134.555,179.991,140.036z"/>
	<path fill="#323232" d="M239.768,110.096l0.104,149.345c0.004,5.483-4.478,9.971-9.96,9.975l0,0
		c-5.48,0.004-9.969-4.476-9.972-9.956l-0.106-149.351c-0.003-5.482,4.479-9.967,9.96-9.974l0,0
		C235.276,100.131,239.764,104.614,239.768,110.096z"/>
	<path fill="#323232" d="M179.876,70.299c0.004,5.471-4.425,9.905-9.895,9.908c-5.468,0.004-9.903-4.424-9.906-9.893
		c-0.005-5.468,4.425-9.904,9.894-9.907C175.436,60.402,179.873,64.832,179.876,70.299z"/>
	<path fill="#323232" d="M239.675,70.259c0.004,5.467-4.425,9.903-9.895,9.905c-5.467,0.005-9.903-4.424-9.907-9.891
		c-0.003-5.468,4.425-9.904,9.894-9.908C235.235,60.36,239.67,64.79,239.675,70.259z"/>
	<path fill="#323232" d="M210.12,110.097c0.003,5.466-4.426,9.901-9.896,9.906c-5.466,0.003-9.903-4.425-9.906-9.895
		c-0.004-5.468,4.426-9.901,9.894-9.908C205.68,100.198,210.115,104.627,210.12,110.097z"/>
	<path fill="#323232" d="M229.635,40.468c-0.489,0.002-0.971,0.022-1.457,0.04c0.002,0.029,0,0.057,0.001,0.086
		C228.654,40.52,229.14,40.471,229.635,40.468z"/>
	<path fill="#323232" d="M229.664,40.466c-0.011,0.001-0.019,0.002-0.029,0.001c0.013,0.001,0.026,0,0.038-0.001
		C229.672,40.468,229.667,40.466,229.664,40.466z"/>
	<path fill="#323232" d="M229.693,40.466c-0.006,0.001-0.014,0.002-0.02,0c-0.013,0.001-0.026,0.002-0.038,0.001
		c-5.455,0.021-9.869,4.448-9.863,9.907c0.003,5.436,4.389,9.841,9.812,9.889c0,0.045,0.001,0.09,0,0.136
		c0.043,0,0.083-0.007,0.123-0.006c10.95-0.009,19.833,8.862,19.842,19.812c0.006,10.949-8.864,19.833-19.814,19.841
		c-0.109,0.001-0.213-0.014-0.322-0.016c0.001,0.042,0.001,0.085,0,0.126c-5.305,0.208-9.583,4.6-9.579,9.953l0.007,8.625
		c3.167,0.811,6.487,1.239,9.909,1.238c3.462-0.004,6.821-0.451,10.023-1.285c17.098-4.457,29.714-20.005,29.701-38.496
		C269.459,58.237,251.648,40.451,229.693,40.466z"/>
	<path fill="#323232" d="M169.985,40.509c0.004,0,0.013,0,0.02,0.001c0.012,0,0.026,0.001,0.04,0.001
		c5.454,0.012,9.872,4.435,9.877,9.89c0.002,5.437-4.376,9.85-9.8,9.904c0.001,0.046,0,0.091,0,0.138
		c-0.043-0.002-0.082-0.008-0.123-0.008c-10.95,0.009-19.821,8.891-19.813,19.842c0.009,10.949,8.892,19.819,19.841,19.811
		c0.108,0.001,0.213-0.014,0.321-0.015c0.002,0.042,0.001,0.084,0.002,0.126c5.304,0.198,9.587,4.586,9.591,9.941l0.006,8.623
		c-3.167,0.814-6.485,1.251-9.907,1.252c-3.465,0.002-6.823-0.441-10.026-1.271c-17.104-4.432-29.742-19.963-29.755-38.454
		C130.244,58.336,148.032,40.522,169.985,40.509z"/>
	<path fill="#323232" d="M239.675,70.259l-19.891,0.014l-0.012-19.898l19.889-0.015L239.675,70.259z"/>
	<path fill="#323232" d="M179.919,70.299l-19.89,0.015l-0.013-19.899l19.889-0.012L179.919,70.299z"/>
	<path fill="#323232" d="M170.002,80.251l-0.015-19.889l60.394-0.042l0.015,19.889L170.002,80.251z"/>
	<path fill="#323232" d="M170.028,120.067l-0.013-19.889l30.197-0.021l0.013,19.889L170.028,120.067z"/>
	<path fill="#323232" d="M189.582,289.464c-0.006-5.468,4.423-9.902,9.893-9.907c5.468-0.004,9.902,4.428,9.906,9.894
		c0.006,5.469-4.425,9.904-9.892,9.908C194.022,299.362,189.585,294.934,189.582,289.464z"/>
	<path fill="#323232" d="M229.673,279.492l0.014,19.888l-30.197,0.023l-0.015-19.89L229.673,279.492z"/>
	<path fill="#323232" d="M220.025,329.314c-0.004-5.466,4.428-9.901,9.894-9.908c5.467,0.001,9.904,4.428,9.908,9.896
		c0.003,5.468-4.427,9.905-9.894,9.906C224.466,339.211,220.029,334.783,220.025,329.314z"/>
	<path fill="#323232" d="M160.227,329.356c-0.003-5.468,4.426-9.902,9.892-9.908c5.47-0.001,9.906,4.429,9.91,9.896
		c0.003,5.468-4.426,9.903-9.894,9.909C164.667,339.253,160.23,334.825,160.227,329.356z"/>
	<path fill="#323232" d="M169.511,329.351c-0.004-5.47,4.426-9.903,9.893-9.907c5.467-0.006,9.905,4.424,9.906,9.894
		c0.006,5.468-4.424,9.905-9.889,9.905C173.949,339.248,169.514,334.819,169.511,329.351z"/>
	<path fill="#323232" d="M170.265,359.145c0.488,0,0.973-0.018,1.456-0.036c0.001-0.031,0.001-0.058,0.001-0.086
		C171.246,359.094,170.764,359.145,170.265,359.145z"/>
	<path fill="#323232" d="M170.238,359.149c0.008,0,0.017,0.001,0.028-0.004c-0.015,0.003-0.026,0.001-0.038,0.001
		C170.232,359.148,170.232,359.148,170.238,359.149z"/>
	<path fill="#323232" d="M170.211,359.148c0.002,0.002,0.009,0,0.017-0.002c0.012,0,0.023,0.002,0.038-0.001
		c5.455-0.016,9.868-4.446,9.864-9.903c-0.004-5.437-4.39-9.842-9.812-9.889c-0.001-0.044-0.003-0.089-0.001-0.136
		c-0.043,0-0.081,0.004-0.125,0.006c-10.951,0.008-19.834-8.863-19.841-19.814c-0.005-10.952,8.865-19.833,19.815-19.84
		c0.108,0.001,0.212,0.013,0.323,0.016c-0.001-0.041-0.001-0.082-0.001-0.124c5.304-0.209,9.581-4.6,9.578-9.957l-0.006-8.624
		c-3.167-0.811-6.488-1.239-9.908-1.235c-3.462,0-6.822,0.447-10.023,1.281c-17.098,4.456-29.713,20.007-29.702,38.496
		C130.442,341.377,148.254,359.165,170.211,359.148z"/>
	<path fill="#323232" d="M229.916,359.107c-0.005,0-0.012-0.003-0.02-0.002c-0.012,0-0.026,0.002-0.04,0
		c-5.453-0.012-9.872-4.435-9.879-9.891c0-5.438,4.376-9.847,9.802-9.905c0.002-0.045,0.003-0.088,0.003-0.135
		c0.04,0,0.078,0.009,0.121,0.005c10.947-0.005,19.819-8.889,19.813-19.841c-0.01-10.948-8.894-19.82-19.842-19.812
		c-0.107,0-0.212,0.014-0.321,0.014c0.001-0.041-0.001-0.082,0.002-0.125c-5.31-0.198-9.592-4.587-9.596-9.941l-0.006-8.622
		c3.168-0.817,6.488-1.25,9.908-1.251c3.464-0.007,6.822,0.438,10.026,1.267c17.104,4.432,29.743,19.967,29.755,38.457
		C269.658,341.278,251.87,359.092,229.916,359.107z"/>
	<path fill="#323232" d="M160.227,329.356l19.889-0.012l0.014,19.897l-19.891,0.013L160.227,329.356z"/>
	<path fill="#323232" d="M219.981,329.315l19.89-0.015l0.013,19.896l-19.887,0.017L219.981,329.315z"/>
	<path fill="#323232" d="M229.901,319.365l0.012,19.889l-60.392,0.043l-0.015-19.89L229.901,319.365z"/>
</g>
</svg>
