<?xml version="1.0" encoding="UTF-8"?>
<svg width="410px" height="361px" viewBox="0 0 410 361" version="1.1" xmlns="http://www.w3.org/2000/svg" xmlns:xlink="http://www.w3.org/1999/xlink">
    <!-- Generator: Sketch 43.2 (39069) - http://www.bohemiancoding.com/sketch -->
    <title>Group</title>
    <desc>Created with Sketch.</desc>
    <defs></defs>
    <g id="Page-1" stroke="none" stroke-width="1" fill="none" fill-rule="evenodd" stroke-linecap="round" stroke-linejoin="round">
        <g id="Group" transform="translate(5.000000, 5.000000)" stroke="#423500" stroke-width="10">
            <polyline id="XMLID_45_" points="285 71.3333333 400 71.3333333 400 350.916667 0 350.916667 0 71.3333333 115 71.3333333"></polyline>
            <rect id="XMLID_38_" x="39.75" y="116.583333" width="143.083333" height="143.083333"></rect>
            <path d="M221.5,142.833333 L360.25,142.833333" id="XMLID_39_"></path>
            <path d="M221.5,195.416667 L360.25,195.416667" id="XMLID_41_"></path>
            <path d="M221.5,248 L360.25,248" id="XMLID_42_"></path>
            <path d="M221.5,300.5 L360.25,300.5" id="XMLID_43_"></path>
            <path d="M39.75,300.5 L182.833333,300.5" id="XMLID_44_"></path>
            <path d="M233.5,34.25 C233.5,15.75 218.5,0.75 200,0.75 C181.5,0.75 166.5,15.75 166.5,34.25 L115,34.25 L115,88.3333333 L285,88.3333333 L285,34.25 L233.5,34.25 Z" id="XMLID_46_"></path>
            <path d="M56.3333333,259.666667 C56.3333333,229.25 81,204.666667 111.333333,204.666667 C141.666667,204.666667 166.333333,229.333333 166.333333,259.666667" id="XMLID_388_"></path>
            <circle id="XMLID_372_" cx="111.333333" cy="172" r="32.5833333"></circle>
        </g>
    </g>
</svg>