<?xml version="1.0" encoding="utf-8"?>
<!-- Generator: Adobe Illustrator 17.0.0, SVG Export Plug-In . SVG Version: 6.00 Build 0)  -->
<!DOCTYPE svg PUBLIC "-//W3C//DTD SVG 1.1//EN" "http://www.w3.org/Graphics/SVG/1.1/DTD/svg11.dtd">
<svg version="1.1" id="Layer_1" xmlns="http://www.w3.org/2000/svg" xmlns:xlink="http://www.w3.org/1999/xlink" x="0px" y="0px"
	 width="400px" height="400px" viewBox="0 0 400 400" enable-background="new 0 0 400 400" xml:space="preserve">
<path fill-rule="evenodd" clip-rule="evenodd" fill="#333333" d="M279.93,199.667c0.001,5.523-4.477,10-10.001,9.999l-159.999,0.001
	c-5.523,0-10-4.477-10-10l0,0c-0.001-5.523,4.477-10,10-9.999l160-0.001C275.453,189.667,279.93,194.144,279.93,199.667
	L279.93,199.667z"/>
<path fill-rule="evenodd" clip-rule="evenodd" fill="#333333" d="M277.001,206.738c-3.905,3.906-10.237,3.905-14.143-0.001
	l-56.568-56.568c-3.905-3.906-3.905-10.237,0-14.142l0,0c3.905-3.906,10.236-3.906,14.142,0l56.569,56.568
	C280.906,196.501,280.907,202.833,277.001,206.738L277.001,206.738z"/>
<path fill-rule="evenodd" clip-rule="evenodd" fill="#333333" d="M206.29,263.974c3.905,3.906,10.237,3.905,14.143-0.001
	l56.568-56.568c3.905-3.906,3.905-10.237,0-14.142l0,0c-3.905-3.906-10.236-3.906-14.142,0l-56.569,56.568
	C202.386,253.737,202.385,260.068,206.29,263.974L206.29,263.974z"/>
</svg>
