<svg xmlns="http://www.w3.org/2000/svg" width="100" height="100" viewBox="0 0 100 100">
  <g fill="none" fill-rule="evenodd">
    <ellipse cx="50" cy="50" fill="#D3A02A" rx="50" ry="50"/>
    <path fill="#FFFFFF" fill-rule="nonzero" d="M41.6252308,1.82 C41.6252308,1.131 41.0695385,0.559 40.3716923,0.559 C40.32,0.559 40.2683077,0.559 40.2166154,0.572 L1.74461538,0.572 C1.69292308,0.572 1.64123077,0.559 1.58953846,0.559 C0.904615385,0.559 0.336,1.118 0.336,1.82 L0.336,37.18 L0.374769231,37.18 C0.374769231,37.869 0.917538462,38.428 1.60246154,38.441 L1.60246154,38.441 L33.9101538,38.428 C34.5175385,38.337 34.9827692,37.817 34.9827692,37.18 C34.9827692,36.543 34.5175385,36.023 33.9101538,35.932 L33.9101538,35.88 L10.6744615,35.88 L10.6744615,3.133 L39.0793846,3.133 L39.0793846,37.18 L39.1181538,37.18 C39.1181538,37.869 39.6738462,38.441 40.3716923,38.441 C41.0566154,38.441 41.6252308,37.882 41.6252308,37.18 L41.664,37.18 L41.664,1.82 L41.6252308,1.82 L41.6252308,1.82 Z M8.08984615,35.88 L2.92061538,35.88 L2.92061538,3.133 L8.08984615,3.133 L8.08984615,35.88 Z M13.2590769,11.063 L36.4947692,11.063 L36.4947692,13.624 L13.2590769,13.624 L13.2590769,11.063 L13.2590769,11.063 Z M13.2590769,18.434 L36.4947692,18.434 L36.4947692,20.995 L13.2590769,20.995 L13.2590769,18.434 L13.2590769,18.434 Z M13.2590769,25.792 L36.4947692,25.792 L36.4947692,28.353 L13.2590769,28.353 L13.2590769,25.792 L13.2590769,25.792 Z" transform="translate(29 31)"/>
  </g>
</svg>
