<svg xmlns="http://www.w3.org/2000/svg" viewBox="0 0 400 400"><defs><style>.a{fill:#323232;}.b{fill:#333;}.c{fill:none;}</style></defs><title>icon-trophee</title><path class="a" d="M278.17,346l-63.67-.12a8.71,8.71,0,0,0-1.16.08L168,345.89a8.79,8.79,0,0,0-1.16.08l-44.95-.08a8.68,8.68,0,0,0,0,17.37l63.67,0.12a8.81,8.81,0,0,0,1.14-.08l45,0.08a8.75,8.75,0,0,0,1.15-.08l45.38,0.08A8.68,8.68,0,0,0,278.17,346Z"/><path class="b" d="M158.83,346a10,10,0,1,0,20,0V236a10,10,0,0,0-20,0V346Z"/><polygon class="c" points="60.02 49.8 60.02 49.8 60.02 49.8 60.02 49.8"/><path class="b" d="M354.92,74.15a163.49,163.49,0,0,0,2.5-18.65,10.13,10.13,0,0,0,.38-7.23,10,10,0,0,0-9.44-7H338l-278.4,0H50.26a10,10,0,0,0-9.82,8.53h0L39.82,50a162.3,162.3,0,0,0,2.9,24.67,60.58,60.58,0,0,0-22.43,47.21c0,33.36,26.68,60.4,59.59,60.4a58.66,58.66,0,0,0,27.55-6.85,157.87,157.87,0,0,0,48.16,23.15c3.18,0.91,6.36,1.69,9.54,2.39h0l0.61,0.14,0.44,0.1A9.94,9.94,0,0,0,177.4,194a10.09,10.09,0,0,0-6.87-12.44,9.91,9.91,0,0,0-1-.23q-4.28-.93-8.54-2.15a138.22,138.22,0,0,1-52.89-28.75A142.35,142.35,0,0,1,61.15,64.57c-0.16-1-.32-2.09-0.46-3.14l276.15,0c-0.12.95-.28,1.89-0.42,2.84a143.58,143.58,0,0,1-3.68,17.44c-0.2.73-.43,1.44-0.64,2.16A139.76,139.76,0,0,1,274,162.12a138.71,138.71,0,0,1-45.61,19.2l-1.06.23a10,10,0,0,0-6.1,4.84,10.11,10.11,0,0,0-2,6.08l0,156.17a9.94,9.94,0,1,0,19.88,0l0-149.25a158.9,158.9,0,0,0,51.34-24.2,58.67,58.67,0,0,0,28,7.1c32.91,0,59.59-27,59.59-60.4A60.57,60.57,0,0,0,354.92,74.15ZM89.92,161a39.42,39.42,0,0,1-10,1.3c-22,0-39.88-18.1-39.88-40.43a40.59,40.59,0,0,1,8.68-25.16A162.21,162.21,0,0,0,89.92,161Zm255.15-9a39.45,39.45,0,0,1-37.29,8.83A160.46,160.46,0,0,0,349.11,96,40.82,40.82,0,0,1,345.07,152Z"/></svg>