<?xml version="1.0" encoding="utf-8"?>
<!-- Generator: Adobe Illustrator 19.1.0, SVG Export Plug-In . SVG Version: 6.00 Build 0)  -->
<svg version="1.1" id="Layer_1" xmlns="http://www.w3.org/2000/svg" xmlns:xlink="http://www.w3.org/1999/xlink" x="0px" y="0px"
	 width="400px" height="400px" viewBox="0 0 400 400" enable-background="new 0 0 400 400" xml:space="preserve">
<g>
	<path fill-rule="evenodd" clip-rule="evenodd" fill="#333333" d="M176.938,227.109c1.849-5.19,7.556-7.899,12.746-6.05l0,0
		c5.19,1.849,7.899,7.556,6.05,12.746l-19.932,37.95c-1.849,5.19-7.556,7.899-12.746,6.05l0,0c-5.19-1.849-7.899-7.556-6.05-12.746
		L176.938,227.109z"/>
	<path fill-rule="evenodd" clip-rule="evenodd" fill="#333333" d="M350.167,320.037c5.51,0,9.977,4.467,9.977,9.977l0,0
		c0,5.51-4.467,9.977-9.977,9.977l-150.269,20c-5.51,0-9.977-4.467-9.977-9.977l0,0c0-5.51,4.467-9.977,9.977-9.977L350.167,320.037
		z"/>
	<path fill-rule="evenodd" clip-rule="evenodd" fill="#333333" d="M49.834,319.078c-5.51,0-9.976,4.467-9.976,9.977l0,0
		c0,5.51,4.467,9.977,9.976,9.977l150.269,20c5.51,0,9.977-4.467,9.977-9.977l0,0c0-5.51-4.467-9.977-9.977-9.977L49.834,319.078z"
		/>
	<path fill="#333333" d="M239.555,188.45c23.357-13.929,39.012-39.435,39.012-68.607c0-44.091-35.744-79.833-79.834-79.833
		c-44.092,0-79.832,35.742-79.832,79.833c0,29.03,15.496,54.435,38.664,68.408C122.09,203.92,97.33,239.404,97.33,280.678
		c0,10.741,1.695,21.082,4.801,30.792c0.172,0.919,0.471,1.792,0.875,2.604c1.635,3.292,5.023,5.561,8.949,5.561
		c5.523,0,10-4.477,10-10c0-0.368-0.021-0.731-0.061-1.089c-0.158-1.453-0.633-2.807-1.344-4.005
		c-2.314-7.546-3.564-15.557-3.564-23.862c0-43.303,33.838-78.688,76.51-81.191c1.732,0.112,3.475,0.189,5.236,0.189
		c1.625,0,3.234-0.063,4.834-0.159c42.482,2.701,76.109,37.993,76.109,81.16c0,8.803-1.402,17.278-3.99,25.216
		c-0.113,0.346-0.232,0.689-0.35,1.033c-0.242,0.862-0.381,1.767-0.381,2.707c0,5.523,4.479,10,10,10
		c3.449,0,6.491-1.747,8.288-4.403c0.981-1.451,1.581-3.176,1.685-5.033c2.85-9.339,4.402-19.247,4.402-29.52
		C299.33,239.58,274.783,204.221,239.555,188.45z M138.854,119.843c0-33.071,26.809-59.88,59.879-59.88
		c33.07,0,59.881,26.809,59.881,59.88c0,32.712-26.232,59.277-58.805,59.854c-0.492-0.007-0.984-0.019-1.479-0.019
		c-0.314,0-0.627,0.009-0.941,0.012C164.942,178.973,138.854,152.465,138.854,119.843z"/>
	<path fill="#333333" d="M229.974,271.711c0-14.407-11.152-25.241-24.733-25.241c-1.877,0.042-3.946-0.042-5.377-0.042
		c-1.306,0-2.477-0.196-3.625,0.248c-3.844,1.486-6.576,5.208-6.576,9.577c0,4.852,3.368,8.908,7.89,9.985
		c0.766,0.182,1.562,0.289,2.384,0.289c0.935,0,1.856,0.234,2.717,0c3.854,0.758,6.447,3.387,7.334,7.192
		c-0.262,0.892,0.164,1.807,0.164,2.784l-0.133,39.99c0,5.51,4.467,9.977,9.977,9.977s9.977-4.467,9.977-9.977v-39.99
		C229.974,274.767,229.907,274.179,229.974,271.711z"/>
</g>
</svg>
