<?xml version="1.0" encoding="UTF-8"?>
<svg width="93px" height="95px" viewBox="0 0 93 95" version="1.1" xmlns="http://www.w3.org/2000/svg" xmlns:xlink="http://www.w3.org/1999/xlink">
    <!-- Generator: Sketch 50.2 (55047) - http://www.bohemiancoding.com/sketch -->
    <title>Group</title>
    <desc>Created with Sketch.</desc>
    <defs></defs>
    <g id="Page-1" stroke="none" stroke-width="1" fill="none" fill-rule="evenodd">
        <g id="Forgot-Password-2" transform="translate(-200.000000, -883.000000)">
            <g id="Group" transform="translate(200.000000, 883.000000)">
                <ellipse id="Oval-5-Copy" fill="#E6EFF2" cx="46.5" cy="47.5" rx="46.5" ry="47.5"></ellipse>
                <path d="M50.3137787,58.3293526 L47.2562732,55.2718472 C45.031298,56.4946017 42.4855849,57.1884975 39.7809585,57.1884975 C31.0653758,57.1884975 24,49.9828569 24,41.0942488 C24,32.2056406 31.0653758,25 39.7809585,25 C48.4965413,25 55.5619171,32.2056406 55.5619171,41.0942488 C55.5619171,43.9555312 54.8297854,46.6424203 53.5461533,48.970699 L70.0612742,65.4858199 L66.4303178,69.1167762 C66.170429,68.8951749 65.8036236,68.8124841 65.4570334,68.9310323 L62.4093977,69.9734498 C62.3684404,69.9874589 62.3285466,70.0040743 62.2899457,70.0231528 L62.6976685,68.8311251 C62.7694252,68.6213356 62.7694252,68.3936474 62.6976685,68.183858 C62.5189307,67.6612958 61.9504146,67.3825711 61.4278525,67.561309 L60.0254237,68.0409977 L59.1691717,67.1847456 L60.0115479,64.7219552 C60.0833046,64.5121657 60.0833046,64.2844775 60.0115479,64.0746881 C59.8328101,63.5521259 59.264294,63.2734012 58.7417319,63.4521391 L56.2789414,64.2945154 L52.2686096,60.2841836 L52.6247163,59.243062 C52.696473,59.0332725 52.696473,58.8055843 52.6247163,58.5957949 C52.4459784,58.0732327 51.8774624,57.7945081 51.3549002,57.9732459 L50.3137787,58.3293526 Z M33.065657,38.3548022 C35.1054743,38.3548022 36.7590729,36.6683756 36.7590729,34.5880631 C36.7590729,32.5077505 35.1054743,30.821324 33.065657,30.821324 C31.0258398,30.821324 29.3722412,32.5077505 29.3722412,34.5880631 C29.3722412,36.6683756 31.0258398,38.3548022 33.065657,38.3548022 Z" id="Combined-Shape" fill="#00667D" transform="translate(47.000000, 47.500000) rotate(-15.000000) translate(-47.000000, -47.500000) "></path>
            </g>
        </g>
    </g>
</svg>