<svg xmlns="http://www.w3.org/2000/svg" width="100" height="100" viewBox="0 0 100 100">
  <g fill="none" fill-rule="evenodd">
    <ellipse cx="50" cy="50" fill="#D3A02A" rx="50" ry="50"/>
    <path fill="#FFFFFF" fill-rule="nonzero" d="M34.1211015,31.4542609 C32.2642593,29.0036522 30.0095225,27.4234783 26.7865751,26.5128696 L23.7625751,37.1723478 C23.7625751,38.149913 22.9667857,38.9533913 21.985312,38.9533913 C21.0171015,38.9533913 20.2080488,38.149913 20.2080488,37.1723478 L20.2080488,28.6956522 C20.2080488,27.4636522 19.213312,26.4593043 17.9931015,26.4593043 C16.7728909,26.4593043 15.7781541,27.4636522 15.7781541,28.6956522 L15.7781541,37.1723478 C15.7781541,38.149913 14.9823646,38.9533913 14.0008909,38.9533913 C13.0326804,38.9533913 12.2236278,38.149913 12.2236278,37.1723478 L9.19962777,26.5128696 C5.9766804,27.4234783 3.72194356,29.0036522 1.86510145,31.4542609 C1.13562777,32.4184348 0.724469872,34.3601739 0.711206714,35.3913043 C0.724469872,35.6591304 0.711206714,35.9671304 0.711206714,36.2885217 L0.711206714,39.8506087 C0.711206714,41.8191304 2.30278566,43.426087 4.25246987,43.426087 L31.6939436,43.426087 C33.6568909,43.426087 35.2352067,41.8325217 35.2352067,39.8506087 L35.2352067,36.2885217 C35.2352067,35.9805217 35.2219436,35.6591304 35.2352067,35.3913043 C35.261733,34.3601739 34.8638383,32.4184348 34.1211015,31.4542609 L34.1211015,31.4542609 L34.1211015,31.4542609 L34.1211015,31.4542609 Z M8.72215408,10.0147826 C8.72215408,15.224 11.9451015,22.8838261 18.0196278,22.8838261 C23.9880488,22.8838261 27.3171015,15.224 27.3171015,10.0147826 C27.3171015,4.80556522 23.1524699,0.573913043 18.0196278,0.573913043 C12.8867857,0.573913043 8.72215408,4.80556522 8.72215408,10.0147826 L8.72215408,10.0147826 L8.72215408,10.0147826 Z" transform="translate(32 28)"/>
  </g>
</svg>
