<?xml version="1.0" encoding="utf-8"?>
<!-- Generator: Adobe Illustrator 19.1.0, SVG Export Plug-In . SVG Version: 6.00 Build 0)  -->
<svg version="1.1" id="Layer_1" xmlns="http://www.w3.org/2000/svg" xmlns:xlink="http://www.w3.org/1999/xlink" x="0px" y="0px"
	 width="400px" height="400px" viewBox="0 0 400 400" enable-background="new 0 0 400 400" xml:space="preserve">
<g>
	<rect x="60.144" y="144.25" fill="#333333" width="20" height="195"/>
	<rect x="68.644" y="329.583" fill="#333333" width="223.343" height="19.333"/>
	<circle fill="#333333" cx="70.144" cy="339.25" r="9.667"/>
	<circle fill="#333333" cx="45.13" cy="160.132" r="9.215"/>
	<circle fill="#333333" cx="357.63" cy="161.132" r="9.215"/>
	<rect x="319.973" y="147.25" fill="#333333" width="20" height="192"/>
	<circle fill="#333333" cx="329.973" cy="339.25" r="9.667"/>
	<circle fill="#333333" cx="289.987" cy="339.25" r="9.667"/>
	<polygon fill="#333333" points="208.858,79.622 47.4,169.013 39.384,152.711 200.842,63.32 	"/>
	<polygon fill="#333333" points="192.384,79.622 353.842,169.013 361.858,152.711 200.4,63.32 	"/>
	<g>
		<path fill="#333333" d="M200.098,305.431c-37.243,0-67.542-30.299-67.542-67.542c0-37.243,30.299-67.542,67.542-67.542
			s67.542,30.299,67.542,67.542C267.64,275.132,237.34,305.431,200.098,305.431z M200.098,190.347
			c-26.215,0-47.542,21.327-47.542,47.542c0,26.215,21.327,47.542,47.542,47.542c26.215,0,47.542-21.327,47.542-47.542
			C247.64,211.674,226.312,190.347,200.098,190.347z"/>
	</g>
</g>
</svg>
