<svg id="Layer_1" data-name="Layer 1" xmlns="http://www.w3.org/2000/svg" viewBox="0 0 400 400"><defs><style>.cls-1{fill:#231f20;}</style></defs><title>icons-interests</title><path d="M352.51,73.8c-1.78,6.27-2.3,13.3-5.55,18.68-16.93,28-72.9,86.95-100.76,107.18l-17.26-18.76c34.74-39.26,71.8-78.52,118.73-107.09h4.84Z"/><path d="M249.3,360.72a159.76,159.76,0,0,1-44.85-6.59c-40.05-11.68-72.9-29.45-97.62-52.8C80,276,61.86,243.25,53,204.07,46.29,174.75,50.23,142.9,64,114.4,77.7,86.2,99.8,63.65,126.26,50.92,186.49,21.94,264,35,302.7,80.71L305,83.37,287.6,102.7q-21.23,23.64-42.54,47.4l-2.51,2.78c-3.18,3.51-6.46,7.13-9.33,10.87l-2.08,2.73c-8,10.56-16.32,21.47-32.71,24.94-5.61,1.18-12.52,7-19,16-9.47,13.2-20.16,28.68-27.11,45.33-3.07,7.36-2.12,20,1.88,25,4.88,6.11,17.35,11,24.25,9.54,6.72-1.43,15.82-10.62,18.74-18.91s5.53-15.7,16.7-19.55c14.64-5,23.7-14.65,26.91-28.57,0.77-3.34,2.38-7.9,5.64-10.68,20.72-17.6,41.92-35.31,62.42-52.44l16.56-13.84,1.4-1.17,10,1.61-0.53,3.87c-0.77,5.62-1.49,11.35-2.2,16.89-1.67,13.14-3.4,26.73-5.77,40A118.12,118.12,0,0,1,324.08,220c-2.17,6.71-4.22,13-4.54,19.41-0.63,12.47,1.47,24.39,5.75,32.71,8.61,16.7,9.7,35.23,3,50.86-6.58,15.34-19.86,26.61-37.38,31.73A147.79,147.79,0,0,1,249.3,360.72ZM195.12,43.55a151.37,151.37,0,0,0-65.39,14.58c-24.84,12-45.62,33.18-58.5,59.77-13,26.87-16.74,56.85-10.47,84.41,8.55,37.6,25.9,69,51.57,93.21,23.79,22.48,55.54,39.62,94.36,50.94,27.93,8.14,55.51,8.35,82,.62,15.19-4.44,26.65-14.1,32.27-27.21,5.84-13.62,4.87-29.26-2.75-44-6.73-13.05-7-28.64-6.63-36.78,0.37-7.42,2.69-14.56,4.92-21.47a110.49,110.49,0,0,0,4-14.5c2.33-13.1,4-26.59,5.71-39.64,0.49-3.81,1-7.72,1.49-11.62L314,163.24c-20.49,17.12-41.68,34.82-62.37,52.4-1.19,1-2.35,3.46-3,6.38-3.88,16.79-14.68,28.34-32.1,34.33-7.23,2.49-8.74,6.06-11.75,14.64-3.46,9.83-14.18,21.85-24.61,24.08-9.78,2.08-25.41-3.92-32.17-12.36-6.32-7.9-6.8-24-3-33,7.27-17.43,18.26-33.35,28-46.92,4.47-6.22,13.5-17,23.82-19.17,13.48-2.85,20.21-11.7,28-21.95l2.11-2.77c3.07-4,6.46-7.74,9.75-11.36l2.48-2.75q21.28-23.74,42.55-47.4L294.3,83.26c-17.57-19.32-43.49-32.62-73.4-37.59A157.22,157.22,0,0,0,195.12,43.55Z"/><path d="M169.54,264.93c-4.57-26.24,4.94-41.8,30.76-51.34,4.24-1.57,7.1-7.12,10.37-11,3.86-4.61,7.47-9.42,11.24-14.21l18.24,18c-4.08,3.24-8.35,6.82-12.82,10.14-7,5.17-13.54,9.56-15.48,19.82-1,5.45-9.24,10.2-15.06,13.92C188.25,255.68,178.95,259.93,169.54,264.93Z"/><path class="cls-1" d="M192.18,99.82a28.78,28.78,0,0,0-57.53-1.37c-0.57,16.78,12.17,30,28.87,29.87A28.49,28.49,0,0,0,192.18,99.82Z"/><path class="cls-1" d="M105.89,150.93c-16.16-.12-28.51,12-28.77,28.23s11.7,28.86,27.73,29.33A28.79,28.79,0,1,0,105.89,150.93Z"/><path class="cls-1" d="M285.14,296.29C284.83,280.71,271.72,268,255.93,268a28.78,28.78,0,1,0,1,57.54C272.47,325.12,285.45,311.66,285.14,296.29Z"/></svg>