<?xml version="1.0" encoding="utf-8"?>
<!-- Generator: Adobe Illustrator 19.1.0, SVG Export Plug-In . SVG Version: 6.00 Build 0)  -->
<svg version="1.1" id="Layer_1" xmlns="http://www.w3.org/2000/svg" xmlns:xlink="http://www.w3.org/1999/xlink" x="0px" y="0px"
	 width="400px" height="400px" viewBox="0 0 400 400" enable-background="new 0 0 400 400" xml:space="preserve">
<path fill-rule="evenodd" clip-rule="evenodd" fill="#333333" d="M130.551,340.974h-80c-5.523,0-10,4.477-10,10
	c0,5.523,4.477,10,10,10h80c5.521,0,10-4.477,10-10C140.551,345.45,136.072,340.974,130.551,340.974z"/>
<path fill-rule="evenodd" clip-rule="evenodd" fill="#333333" d="M80.551,345.917v-255c0-5.523,4.477-10,10-10s10,4.477,10,10v255
	c0,5.521-4.477,10-10,10S80.551,351.438,80.551,345.917z"/>
<path fill-rule="evenodd" clip-rule="evenodd" fill="#333333" d="M360.334,50.689c0,5.365-4.35,9.715-9.715,9.715H92.266
	c-5.365,0-9.715-4.35-9.715-9.715l0,0c0-5.365,4.35-9.715,9.715-9.715h258.354C355.984,40.974,360.334,45.323,360.334,50.689
	L360.334,50.689z"/>
<path fill-rule="evenodd" clip-rule="evenodd" fill="#333333" d="M360.334,211.202c0,5.365-4.35,9.715-9.715,9.715H92.266
	c-5.365,0-9.715-4.35-9.715-9.715l0,0c0-5.365,4.35-9.715,9.715-9.715h258.354C355.984,201.487,360.334,205.836,360.334,211.202
	L360.334,211.202z"/>
<circle fill-rule="evenodd" clip-rule="evenodd" fill="#333333" cx="290.397" cy="130.974" r="10"/>
<path fill-rule="evenodd" clip-rule="evenodd" fill="#333333" d="M281.555,136.562l60.29,79.64c2.92,4.689,9.087,6.122,13.774,3.201
	c4.689-2.919,6.123-9.085,3.202-13.774l-60.29-79.64c-2.921-4.688-9.087-6.123-13.775-3.202
	C280.066,125.706,278.635,131.875,281.555,136.562z"/>
<path fill-rule="evenodd" clip-rule="evenodd" fill="#333333" d="M358.82,56.262l-60.29,79.64c-2.92,4.689-9.087,6.122-13.774,3.201
	c-4.69-2.919-6.123-9.085-3.202-13.774l60.29-79.64c2.921-4.688,9.087-6.123,13.775-3.202
	C360.309,45.407,361.74,51.575,358.82,56.262z"/>
</svg>
