<svg id="Layer_1" data-name="Layer 1" xmlns="http://www.w3.org/2000/svg" viewBox="0 0 400 400"><defs><style>.cls-1{fill:#333;}.cls-2{fill:#323232;}</style></defs><title>icon</title><g id="Layer_20159" data-name="Layer%20159"><path class="cls-1" d="M357.07,330.8L300.5,274.23a10.28,10.28,0,0,0-14.31-.13l-39.62,39.62H60.77V174h185.8l39.62,39.62,0.16,0.14h0a10,10,0,0,0,14.14,0l56.57-56.57a10,10,0,1,0-14.14-14.14l-49.5,49.5L258.55,157.7a10,10,0,0,0-7.76-3.7h-200a10,10,0,0,0-10,10V323c0,0.19,0,.38,0,0.57s0,0.1,0,.15a10,10,0,0,0,10,10h200a10,10,0,0,0,7.76-3.7l34.73-34.73,49.65,49.65A10,10,0,0,0,357.07,330.8Z"/></g><path class="cls-2" d="M99.95,129.82a44.83,44.83,0,1,1,44.77-44.87A44.94,44.94,0,0,1,99.95,129.82Zm-25.69-45A25,25,0,1,0,99.28,60,25,25,0,0,0,74.26,84.83Z"/><path class="cls-2" d="M215.95,129.82a44.83,44.83,0,1,1,44.77-44.87A44.94,44.94,0,0,1,215.95,129.82Zm-25.69-45a25,25,0,1,0,25-24.87A25,25,0,0,0,190.26,84.83Z"/></svg>