<svg xmlns="http://www.w3.org/2000/svg" width="100" height="100" viewBox="0 0 100 100">
  <g fill="none" fill-rule="evenodd">
    <ellipse cx="50" cy="50" fill="#127187" rx="50" ry="50"/>
    <path fill="#FFFFFF" fill-rule="nonzero" d="M4.22615385,24.3529412 C4.22615385,25.0517647 4.79384615,25.6235294 5.48769231,25.6235294 C6.18153846,25.6235294 6.74923077,25.0517647 6.74923077,24.3529412 L6.74923077,16.7294118 C6.74923077,16.0305882 6.18153846,15.4588235 5.48769231,15.4588235 C4.79384615,15.4588235 4.22615385,16.0305882 4.22615385,16.7294118 L4.22615385,24.3529412 Z M21.8876923,16.7294118 C21.8876923,16.0305882 21.32,15.4588235 20.6261538,15.4588235 C19.9323077,15.4588235 19.3646154,16.0305882 19.3646154,16.7294118 L19.3646154,24.3529412 C19.3646154,25.0517647 19.9323077,25.6235294 20.6261538,25.6235294 C21.32,25.6235294 21.8876923,25.0517647 21.8876923,24.3529412 L21.8876923,16.7294118 Z M11.7953846,24.3529412 C11.7953846,25.0517647 12.3630769,25.6235294 13.0569231,25.6235294 C13.7507692,25.6235294 14.3184615,25.0517647 14.3184615,24.3529412 L14.3184615,16.7294118 C14.3184615,16.0305882 13.7507692,15.4588235 13.0569231,15.4588235 C12.3630769,15.4588235 11.7953846,16.0305882 11.7953846,16.7294118 L11.7953846,24.3529412 Z M26.9338462,24.3529412 C26.9338462,25.0517647 27.5015385,25.6235294 28.1953846,25.6235294 C28.8892308,25.6235294 29.4569231,25.0517647 29.4569231,24.3529412 L29.4569231,16.7294118 C29.4569231,16.0305882 28.8892308,15.4588235 28.1953846,15.4588235 C27.5015385,15.4588235 26.9338462,16.0305882 26.9338462,16.7294118 L26.9338462,24.3529412 Z M37.0261538,16.7294118 C37.0261538,16.0305882 36.4584615,15.4588235 35.7646154,15.4588235 C35.0707692,15.4588235 34.5030769,16.0305882 34.5030769,16.7294118 L34.5030769,24.3529412 C34.5030769,25.0517647 35.0707692,25.6235294 35.7646154,25.6235294 C36.4584615,25.6235294 37.0261538,25.0517647 37.0261538,24.3529412 L37.0261538,16.7294118 Z M20.6261538,0.211764706 C19.8313846,0.211764706 19.3646154,0.72 19.3646154,0.72 L1.19846154,9.23294118 C1.19846154,9.23294118 0.189230769,9.576 0.567692308,10.7576471 C0.971384615,12.0028235 2.20769231,11.3929412 2.20769231,11.3929412 L20.6261538,2.75294118 L37.1523077,10.3764706 L9.44892308,10.3764706 L9.42369231,10.3764706 L9.32276923,10.3764706 C8.62892308,10.3764706 8.06123077,10.9482353 8.06123077,11.6470588 C8.06123077,12.3458824 8.62892308,12.9176471 9.32276923,12.9176471 L9.43630769,12.9176471 L38.6661538,12.9176471 C39.6375385,12.9176471 40.5584615,12.0663529 40.5584615,10.8847059 C40.5584615,9.70305882 39.8015385,9.23294118 39.8015385,9.23294118 L22.2661538,0.847058824 C22.2661538,0.847058824 21.3830769,0.211764706 20.6261538,0.211764706 L20.6261538,0.211764706 Z M9.184,35.7882353 L9.184,35.7882353 L9.31015385,35.7882353 L9.184,35.7882353 Z M9.184,33.2597647 C8.54061538,33.3232941 8.04861538,33.8696471 8.04861538,34.5176471 C8.04861538,35.1783529 8.54061538,35.712 9.184,35.7882353 L9.31015385,35.7882353 L39.5492308,35.7882353 C40.2430769,35.7882353 40.8107692,35.2164706 40.8107692,34.5176471 L40.8107692,29.4352941 C40.8107692,28.7364706 40.2430769,28.1647059 39.5492308,28.1647059 L1.70307692,28.1647059 C1.00923077,28.1647059 0.441538462,28.7364706 0.441538462,29.4352941 L0.441538462,34.5176471 C0.441538462,35.2164706 1.00923077,35.7882353 1.70307692,35.7882353 C2.39692308,35.7882353 2.96461538,35.2164706 2.96461538,34.5176471 L2.96461538,30.7058824 L38.2876923,30.7058824 L38.2876923,33.2470588 L9.31015385,33.2470588 C9.27230769,33.2470588 9.23446154,33.2597647 9.184,33.2597647 L9.184,33.2597647 Z M9.184,33.2470588 L9.184,33.2470588 L9.31015385,33.2470588 L9.184,33.2470588 Z" transform="translate(30 32)"/>
  </g>
</svg>
