<?xml version="1.0" encoding="UTF-8" standalone="no"?>
<svg width="400px" height="280px" viewBox="0 0 400 280" version="1.1" xmlns="http://www.w3.org/2000/svg" xmlns:xlink="http://www.w3.org/1999/xlink">
    <!-- Generator: Sketch 3.7.2 (28276) - http://www.bohemiancoding.com/sketch -->
    <title>icon-feedback-feedforward</title>
    <desc>Created with Sketch.</desc>
    <defs>
        <path d="M8.59017447,95.0379598 C3.80569171,99.8089943 3.80569171,107.534512 8.57569171,112.304512 C13.3467262,117.074512 21.0722434,117.091063 25.8587952,112.321063 L111.370174,26.8686494 C116.141209,22.0986494 116.141209,14.3731322 111.384657,9.60313219 C106.614657,4.83313219 98.88914,4.81658047 94.1181055,9.58658047 L8.59017447,95.0379598 L8.59017447,95.0379598 Z" id="path-1"></path>
    </defs>
    <g id="Page-1" stroke="none" stroke-width="1" fill="none" fill-rule="evenodd">
        <g id="icon-feedback-feedforward">
            <path d="M390.40845,167.078305 C395.192933,171.849339 395.192933,179.573822 390.43845,184.344856 C385.667416,189.114856 377.925347,189.131408 373.155347,184.359339 L287.643968,98.9079598 C282.859485,94.1379598 282.859485,86.4124425 287.613968,81.6393391 C292.383968,76.8693391 300.126037,76.8548563 304.897071,81.6248563 L390.40845,167.078305 L390.40845,167.078305 Z" id="SVGID_41_" fill="#333332"></path>
            <path d="M114.761209,18.2100287 C114.761209,11.475546 109.300174,6.00002875 102.54914,6.00002875 C95.79914,5.98554599 90.337071,11.445546 90.337071,18.197615 L90.2781055,67.0427874 C90.2781055,73.7948563 95.7381055,79.2548563 102.490174,79.2714081 C109.240174,79.2714081 114.700174,73.8093391 114.700174,67.0583046 L114.761209,18.2100287 L114.761209,18.2100287 Z" id="SVGID_5_" fill="#333332"></path>
            <path d="M187.760519,199.82796 C181.010519,199.811408 175.535002,205.286925 175.535002,212.023477 C175.520519,218.771408 180.980519,224.23658 187.730519,224.24796 L296.421554,224.292443 C303.171554,224.292443 308.632588,218.833477 308.648106,212.084512 C308.648106,205.346925 303.186037,199.871408 296.435002,199.871408 L187.760519,199.82796 L187.760519,199.82796 Z" id="SVGID_13_" fill="#333332"></path>
            <path d="M102.42914,55.1017529 C95.6925883,55.1017529 90.217071,60.5617529 90.217071,67.3148563 C90.217071,74.0514081 95.67914,79.5269253 102.42914,79.5269253 L211.104657,79.5858908 C217.854657,79.5858908 223.314657,74.1248563 223.330174,67.3758908 C223.330174,60.6393391 217.86914,55.1638218 211.118106,55.1638218 L102.42914,55.1017529 L102.42914,55.1017529 Z" id="SVGID_9_" fill="#333332"></path>
            <mask id="mask-2" fill="white">
                <use xlink:href="#path-1"></use>
            </mask>
            <g id="SVGID_1_"></g>
            <path d="M8.59017447,112.048994 C3.80569171,107.278994 3.80569171,99.553477 8.57569171,94.783477 C13.3467262,89.9969253 21.0722434,89.9969253 25.8587952,94.7669253 L111.370174,180.219339 C116.141209,184.990374 116.141209,192.715891 111.384657,197.485891 C106.614657,202.255891 98.88914,202.272443 94.1181055,197.502443 L8.59017447,112.048994 L8.59017447,112.048994 Z" id="SVGID_25_" fill="#333332"></path>
            <path d="M114.761209,139.607615 C114.761209,132.857615 109.300174,127.382098 102.54914,127.382098 C95.79914,127.382098 90.337071,132.841063 90.337071,139.594167 L90.2781055,188.439339 C90.2781055,195.175891 95.7381055,200.651408 102.490174,200.651408 C109.240174,200.66796 114.700174,195.192443 114.700174,188.455891 L114.761209,139.607615 L114.761209,139.607615 Z" id="SVGID_21_" fill="#333332"></path>
            <path d="M102.42914,127.398649 C95.6925883,127.398649 90.217071,132.857615 90.217071,139.608649 C90.217071,146.344167 95.67914,151.819684 102.42914,151.819684 L296.586037,151.880718 C303.336037,151.880718 308.798106,146.421753 308.811554,139.668649 C308.828106,132.919684 303.352588,127.457615 296.616037,127.444167 L102.42914,127.398649 L102.42914,127.398649 Z" id="SVGID_17_" fill="#333332"></path>
            <path d="M284.253968,139.517615 C284.253968,146.269684 289.712933,151.730718 296.466037,151.730718 C303.203623,151.74727 308.67914,146.284167 308.67914,139.534167 L308.723623,90.6879598 C308.738106,83.9369253 303.276037,78.4769253 296.526037,78.4614081 C289.775002,78.4614081 284.315002,83.9203736 284.299485,90.6745115 L284.253968,139.517615 L284.253968,139.517615 Z" id="SVGID_37_" fill="#333332"></path>
            <path d="M390.40845,184.090374 C395.192933,179.320374 395.192933,171.594856 390.43845,166.823822 C385.667416,162.03727 377.925347,162.03727 373.155347,166.80727 L287.643968,252.259684 C282.859485,257.030718 282.859485,264.755201 287.613968,269.526236 C292.383968,274.296236 300.126037,274.312787 304.897071,269.542787 L390.40845,184.090374 L390.40845,184.090374 Z" id="SVGID_33_" fill="#333332"></path>
            <path d="M284.253968,260.913132 C284.253968,267.649684 289.712933,273.126236 296.466037,273.126236 C303.203623,273.142787 308.67914,267.666236 308.67914,260.929684 L308.723623,212.068994 C308.738106,205.332443 303.276037,199.856925 296.526037,199.856925 C289.775002,199.856925 284.315002,205.315891 284.299485,212.068994 L284.253968,260.913132 L284.253968,260.913132 Z" id="SVGID_29_" fill="#333332"></path>
            <path d="M8.59017447,95.0379598 C3.80569171,99.8089943 3.80569171,107.534512 8.57569171,112.304512 C13.3467262,117.074512 21.0722434,117.091063 25.8587952,112.321063 L111.370174,26.8686494 C116.141209,22.0986494 116.141209,14.3731322 111.384657,9.60313219 C106.614657,4.83313219 98.88914,4.81658047 94.1181055,9.58658047 L8.59017447,95.0379598 L8.59017447,95.0379598 Z" id="SVGID_1_" fill="#333332"></path>
        </g>
    </g>
</svg>