<?xml version="1.0" encoding="UTF-8"?>
<svg width="72px" height="72px" viewBox="0 0 72 72" version="1.1" xmlns="http://www.w3.org/2000/svg" xmlns:xlink="http://www.w3.org/1999/xlink">
    <!-- Generator: Sketch 48.2 (47327) - http://www.bohemiancoding.com/sketch -->
    <title>Shape</title>
    <desc>Created with Sketch.</desc>
    <defs></defs>
    <g id="icon-help" stroke="none" stroke-width="1" fill="none" fill-rule="evenodd" transform="translate(-4.000000, -4.000000)">
        <path d="M40,5 C20.671875,5 5,20.671875 5,40 C5,59.328125 20.671875,75 40,75 C59.328125,75 75,59.328125 75,40 C75,20.671875 59.328125,5 40,5 Z M43.15625,56.046875 C43.078125,58.828125 41.015625,60.546875 38.34375,60.46875 C35.78125,60.390625 33.765625,58.5625 33.84375,55.765625 C33.921875,52.984375 36.046875,51.21875 38.609375,51.296875 C41.296875,51.375 43.25,53.265625 43.15625,56.046875 Z M50.765625,36.15625 C50.109375,37.078125 48.640625,38.265625 46.796875,39.703125 L44.75,41.109375 C43.75,41.875 43.125,42.78125 42.796875,43.8125 C42.625,44.359375 42.5,45.78125 42.46875,46.734375 C42.453125,46.921875 42.34375,47.34375 41.765625,47.34375 L35.65625,47.34375 C35.015625,47.34375 34.9375,46.96875 34.953125,46.78125 C35.046875,44.1875 35.421875,42.046875 36.5,40.328125 C37.953125,38.015625 42.046875,35.578125 42.046875,35.578125 C42.671875,35.109375 43.15625,34.609375 43.53125,34.0625 C44.21875,33.125 44.78125,32.078125 44.78125,30.953125 C44.78125,29.65625 44.46875,28.421875 43.640625,27.390625 C42.671875,26.1875 41.625,25.609375 39.609375,25.609375 C37.625,25.609375 36.46875,26.609375 35.640625,27.921875 C34.8125,29.234375 34.953125,30.78125 34.953125,32.1875 L27.34375,32.1875 C27.34375,26.875 28.734375,23.484375 31.671875,21.484375 C33.65625,20.125 36.1875,19.53125 39.140625,19.53125 C43.015625,19.53125 46.09375,20.25 48.8125,22.3125 C51.328125,24.21875 52.65625,26.90625 52.65625,30.53125 C52.65625,32.765625 51.875,34.640625 50.765625,36.15625 Z" id="Shape" stroke="#4A3D0B" stroke-width="2"></path>
    </g>
</svg>