<?xml version="1.0" encoding="utf-8"?>
<!-- Generator: Adobe Illustrator 20.1.0, SVG Export Plug-In . SVG Version: 6.00 Build 0)  -->
<svg version="1.1" id="Layer_1" xmlns="http://www.w3.org/2000/svg" xmlns:xlink="http://www.w3.org/1999/xlink" x="0px" y="0px"
	 width="400px" height="400px" viewBox="0 0 400 400" enable-background="new 0 0 400 400" xml:space="preserve">
<path fill="none" d="M60.2,177v134c0,0,27-12,60-12s59.7,10.7,69,18V183c0,0-29.7-24-69-24S60.2,177,60.2,177z"/>
<g>
	<path fill="#127187" d="M289,310v0.3v0c5.1-0.5,9-4.8,9-9.9v-220V79l0,0v0c-1-4.7-4.4-8-9.1-9h0.1l0,0h-1.2H158V59h-0.2
		c-0.5-10-9.2-19-19.9-19H125v0.6C116,42,108.4,50,107.9,59h0.1v61.3c0,8.3,6.7,15,15,15s15-6.7,15-15V77h-0.6
		c0.3,0,0.4-1.1,0.4-1.8c0-2.8-2.2-4.9-5-4.9s-5,2.1-5,4.9c0,0.7,0.2,1.9,0.4,1.9H128v43.3c0,2.8-2.2,5-5,5s-5-2.2-5-5v-60
		c0-5.5,4.3-10.3,9.8-10.3h10c5.5,0,10.2,4.8,10.2,10.3v20c0,5.5,4.3,9.7,9.8,9.7H278v200H78V90h10v0.3c0,0,0.6,0.1,0.9,0.1
		c5.5,0,10-4.5,10-10s-4.4-10-9.9-10c-0.3,0-0.9,0-0.9,0.1V70H67.8c-5.5,0-9.8,4.8-9.8,10.3v220c0,5.5,4.3,9.7,9.8,9.7h220H289z"/>
	<path fill="#127187" d="M342.1,321.7l-26.7-217.8l0-0.1c0-0.3-0.1-0.7-0.2-1c-1-4.6-5.2-7.9-10-7.8c-0.3,0-0.7,0-1,0.1l0,0
		l-1.3,0.2v70.5l18.1,148.4L123,338.4l-2.9-23.4H100l4.4,35.7l0,0.1c0.7,5.5,5.7,9.4,11.1,8.7l217.9-26.7c0.3,0,0.7-0.1,1-0.2
		C339.3,331.5,342.7,326.8,342.1,321.7z"/>
	<path fill="#127187" d="M300.2,90l-1,0.1C299.5,90,299.9,90,300.2,90L300.2,90z"/>
</g>
</svg>
