<?xml version="1.0" encoding="utf-8"?>
<!-- Generator: Adobe Illustrator 19.1.0, SVG Export Plug-In . SVG Version: 6.00 Build 0)  -->
<svg version="1.1" id="Layer_1" xmlns="http://www.w3.org/2000/svg" xmlns:xlink="http://www.w3.org/1999/xlink" x="0px" y="0px"
	 width="400px" height="400px" viewBox="0 0 400 400" enable-background="new 0 0 400 400" xml:space="preserve">
<path fill-rule="evenodd" clip-rule="evenodd" fill="#333333" d="M59.982,269.87c0-5.51-4.467-9.977-9.977-9.977l0,0
	c-5.51,0-9.976,4.467-9.976,9.977v19.418c0,5.51,4.467,9.977,9.976,9.977l0,0c5.51,0,9.977-4.467,9.977-9.977V269.87z"/>
<path fill-rule="evenodd" clip-rule="evenodd" fill="#333333" d="M210.081,257.112c0-5.51-4.467-9.977-9.977-9.977l0,0
	c-5.51,0-9.977,4.467-9.977,9.977v51.84c0,5.51,4.467,9.977,9.977,9.977l0,0c5.51,0,9.977-4.467,9.977-9.977V257.112z"/>
<path fill-rule="evenodd" clip-rule="evenodd" fill="#333333" d="M362.193,232.447c0-5.51-4.467-9.977-9.977-9.977l0,0
	c-5.51,0-9.977,4.467-9.977,9.977v51.84c0,5.51,4.467,9.977,9.977,9.977l0,0c5.51,0,9.977-4.467,9.977-9.977V232.447z"/>
<path fill-rule="evenodd" clip-rule="evenodd" fill="#333333" d="M49.883,219.94c-5.51,0-9.977,4.467-9.977,9.977l0,0
	c0,5.51,4.467,9.977,9.977,9.977l150.269,20c5.51,0,9.977-4.467,9.977-9.977l0,0c0-5.51-4.467-9.977-9.977-9.977L49.883,219.94z"/>
<path fill-rule="evenodd" clip-rule="evenodd" fill="#333333" d="M49.883,279.997c-5.51,0-9.977,4.467-9.977,9.977l0,0
	c0,5.51,4.467,9.977,9.977,9.977l150.269,20c5.51,0,9.977-4.467,9.977-9.977l0,0c0-5.51-4.467-9.977-9.977-9.977L49.883,279.997z"/>
<path fill-rule="evenodd" clip-rule="evenodd" fill="#333333" d="M350.216,219.94c5.51,0,9.977,4.467,9.977,9.977l0,0
	c0,5.51-4.467,9.977-9.977,9.977l-150.269,20c-5.51,0-9.977-4.467-9.977-9.977l0,0c0-5.51,4.467-9.977,9.977-9.977L350.216,219.94z"
	/>
<path fill-rule="evenodd" clip-rule="evenodd" fill="#333333" d="M350.216,279.038c5.51,0,9.977,4.467,9.977,9.977l0,0
	c0,5.51-4.467,9.976-9.977,9.976l-150.269,20c-5.51,0-9.977-4.467-9.977-9.976l0,0c0-5.51,4.467-9.977,9.977-9.977L350.216,279.038z
	"/>
<path fill-rule="evenodd" clip-rule="evenodd" fill="#333333" d="M350.216,320.476c5.51,0,9.977,4.467,9.977,9.977l0,0
	c0,5.51-4.467,9.977-9.977,9.977l-150.269,20c-5.51,0-9.977-4.467-9.977-9.977l0,0c0-5.51,4.467-9.977,9.977-9.977L350.216,320.476z
	"/>
<path fill-rule="evenodd" clip-rule="evenodd" fill="#333333" d="M49.883,319.517c-5.51,0-9.977,4.467-9.977,9.977l0,0
	c0,5.51,4.467,9.977,9.977,9.977l150.269,20c5.51,0,9.977-4.467,9.977-9.977l0,0c0-5.51-4.467-9.977-9.977-9.977L49.883,319.517z"/>
<path fill="#333333" d="M209.972,80.974c-6.972,0-13.7,1.034-20.055,2.932c-6.354-1.898-13.083-2.932-20.054-2.932
	c-38.644,0-69.972,31.327-69.972,69.971c0,6.47,0.886,12.73,2.531,18.675c0.417-0.077,2.734,11.547,11.151,11.547
	c5.403,0,9.799-4.262,10.039-9.606c0.007-0.153,0.023-0.303,0.023-0.457c0-2.601-2.994-7.567-2.842-7.636
	c-1.02-4.006-1.57-8.199-1.57-12.523c0-24.891,17.965-45.573,41.633-49.824c2.924-0.525,5.93-0.814,9.005-0.814
	c3.585,0,7.083,0.376,10.457,1.086c-0.306,0.962-0.473,1.985-0.473,3.048c0,5.562,4.509,10.07,10.07,10.07s10.07-4.509,10.07-10.07
	c0-1.063-0.167-2.086-0.473-3.048c3.374-0.71,6.871-1.086,10.457-1.086c3.075,0,6.081,0.289,9.005,0.814
	c23.667,4.251,41.633,24.932,41.633,49.824s-17.965,45.573-41.633,49.824c-2.924,0.525-5.93,0.814-9.005,0.814
	c-3.425,0-6.768-0.35-10.001-1c-0.177-5.406-4.604-9.737-10.053-9.737s-9.876,4.331-10.053,9.737c-3.234,0.65-6.576,1-10.001,1
	c-3.075,0-6.081-0.289-9.005-0.814c-4.113-0.739-13.555-4.216-14.322-4.889c-1.006-0.884-5.531-2.505-6.628-2.505
	c-5.557,0-10.062,4.505-10.062,10.062c0,2.462,0.887,4.715,2.355,6.464c1.502,1.79,7.146,3.83,7.058,3.954
	c9.248,4.509,19.625,7.061,30.605,7.061c6.972,0,13.7-1.034,20.054-2.932c6.355,1.898,13.083,2.932,20.055,2.932
	c38.644,0,69.971-31.327,69.971-69.971S248.616,80.974,209.972,80.974z"/>
<path fill="#333333" d="M179.891,70.974c0,0.019,0.002,0.036,0.003,0.055c0-0.025-0.002-0.049-0.002-0.073
	C179.892,70.962,179.891,70.967,179.891,70.974z"/>
<path fill="#333333" d="M199.222,67.4c-0.132,1.156-0.206,2.328-0.206,3.519c0,1.219,0.079,2.418,0.216,3.6
	c0.419-1.103,0.659-2.295,0.659-3.545C199.891,69.713,199.648,68.511,199.222,67.4z"/>
<polygon fill="#333333" points="229.844,20.974 229.842,20.974 229.852,20.974 "/>
<path fill="#333333" d="M226.283,40.309c1.108,0.423,2.305,0.665,3.562,0.665c1.255,0,2.451-0.241,3.558-0.663
	c-1.17-0.135-2.359-0.212-3.565-0.212C228.634,40.099,227.449,40.175,226.283,40.309z"/>
<path fill="#333333" d="M229.852,20.974c-0.003,0-0.007,0-0.007,0c-0.005,0-0.007,0-0.007,0c-27.586,0-49.947,22.361-49.947,49.945
	c0,0.012,0.001,0.024,0.001,0.036c0,0.025,0.002,0.049,0.002,0.073c0.03,5.497,4.493,9.945,9.997,9.945
	c4.272,0,7.909-2.684,9.341-6.455c-0.138-1.182-0.216-2.381-0.216-3.6c0-1.191,0.074-2.364,0.206-3.519
	c1.614-14.196,12.869-25.461,27.061-27.091c1.167-0.134,2.351-0.21,3.554-0.21c1.207,0,2.395,0.077,3.565,0.212
	c3.764-1.435,6.442-5.069,6.442-9.337C239.844,25.453,235.371,20.978,229.852,20.974z"/>
<path fill="#333333" d="M207.003,56.632c1.109-0.743,2.172-1.547,3.174-2.424C208.961,54.799,207.883,55.625,207.003,56.632z"/>
<path fill="#333333" d="M239.843,30.992c0-0.025-0.002-0.049-0.002-0.073c-0.03-5.497-4.493-9.945-9.997-9.945
	c-4.272,0-7.909,2.684-9.341,6.455c0.138,1.182,0.216,2.381,0.216,3.6c0,1.191-0.074,2.364-0.206,3.519
	c-0.889,7.821-4.715,14.74-10.336,19.661c-1.001,0.877-2.064,1.681-3.174,2.424c-1.535,1.758-2.472,4.051-2.472,6.568
	c0,5.523,4.477,10,10,10c0.939,0,2.458,0,8.579-4.88c10.264-9.147,16.734-22.461,16.734-37.292
	C239.844,31.016,239.843,31.004,239.843,30.992z"/>
</svg>
