<?xml version="1.0" encoding="utf-8"?>
<!-- Generator: Adobe Illustrator 17.0.0, SVG Export Plug-In . SVG Version: 6.00 Build 0)  -->
<!DOCTYPE svg PUBLIC "-//W3C//DTD SVG 1.1//EN" "http://www.w3.org/Graphics/SVG/1.1/DTD/svg11.dtd">
<svg version="1.1" id="Layer_1" xmlns="http://www.w3.org/2000/svg" xmlns:xlink="http://www.w3.org/1999/xlink" x="0px" y="0px"
	 width="400px" height="400px" viewBox="0 0 400 400" enable-background="new 0 0 400 400" xml:space="preserve">
<path fill-rule="evenodd" clip-rule="evenodd" fill="#333333" d="M123.485,200.333c-0.001-5.523,4.478-10,10.001-9.999
	l159.999-0.001c5.523,0,10,4.477,10,10l0,0c0.001,5.523-4.477,10-10,10l-160,0.001C127.963,210.333,123.485,205.856,123.485,200.333
	L123.485,200.333z"/>
<path fill-rule="evenodd" clip-rule="evenodd" fill="#333333" d="M126.414,193.262c3.905-3.906,10.237-3.905,14.143,0.001
	l56.568,56.568c3.905,3.906,3.905,10.237,0,14.142l0,0c-3.905,3.906-10.236,3.906-14.142-0.001l-56.569-56.568
	C122.51,203.499,122.509,197.167,126.414,193.262L126.414,193.262z"/>
<path fill-rule="evenodd" clip-rule="evenodd" fill="#333333" d="M197.125,136.027c-3.905-3.906-10.237-3.905-14.143,0.001
	l-56.568,56.568c-3.905,3.906-3.905,10.237,0,14.142l0,0c3.905,3.906,10.236,3.906,14.142,0l56.569-56.568
	C201.029,146.263,201.03,139.932,197.125,136.027L197.125,136.027z"/>
</svg>
