<svg id="Layer_1" data-name="Layer 1" xmlns="http://www.w3.org/2000/svg" viewBox="0 0 400 400"><defs><style>.cls-1{fill:#333;fill-rule:evenodd;}</style></defs><title>icon</title><path class="cls-1" d="M99.88,200.72a10,10,0,0,1,10-10h160a10,10,0,0,1,10,10h0a10,10,0,0,1-10,10h-160a10,10,0,0,1-10-10h0Z"/><path class="cls-1" d="M102.81,193.64a10,10,0,0,1,14.14,0l56.57,56.57a10,10,0,0,1,0,14.14h0a10,10,0,0,1-14.14,0l-56.57-56.57a10,10,0,0,1,0-14.14h0Z"/><path class="cls-1" d="M173.52,136.41a10,10,0,0,0-14.14,0L102.81,193a10,10,0,0,0,0,14.14h0a10,10,0,0,0,14.14,0l56.57-56.57a10,10,0,0,0,0-14.14h0Z"/></svg>