<svg id="Layer_1" data-name="Layer 1" xmlns="http://www.w3.org/2000/svg" viewBox="0 0 400 400"><defs><style>.cls-1{fill:#231f20;}</style></defs><title>icon-performingarts</title><path d="M216.55,364.69c-1,0-1.92,0-2.89,0-14.39-.42-25.95-6.55-35.33-18.76-13.74-17.87-20.49-40.28-20-66.62,1.21-37.75,12.46-69.12,22.12-92.24,2.78-6.64,5.8-13.29,8.73-19.72,1.72-3.77,3.49-7.67,5.2-11.52,4.12-9.32,10.81-9.63,15.71-8.25,5.07,1.43,10.27,2.82,15.3,4.16,23,6.14,46.72,12.48,67.71,25.13,15.36,9.25,30.2,19.84,44.55,30.09,5.65,4,11.49,8.2,17.27,12.22h0c5.47,3.8,6.8,9.52,3.65,15.67-18.33,35.84-37.28,70.25-67.27,97.24C266.56,354.27,242.75,364.69,216.55,364.69ZM205.92,151.93c-3.07,0-5.25,1.87-7,5.88s-3.5,7.79-5.22,11.57c-2.91,6.39-5.92,13-8.67,19.58-9.5,22.72-20.55,53.54-21.74,90.44-0.42,25.14,6,46.5,19,63.45,8.41,10.94,18.72,16.44,31.51,16.81,26,0.75,49.52-9.2,74.08-31.31,29.36-26.43,48.05-60.4,66.17-95.8,2-4,1.37-6.91-2-9.29-5.81-4-11.66-8.22-17.32-12.26-14.27-10.19-29-20.72-44.22-29.87-20.38-12.28-43.79-18.53-66.42-24.58-5-1.35-10.26-2.74-15.37-4.18A10.21,10.21,0,0,0,205.92,151.93Z"/><path class="cls-1" d="M196.08,270.84l-2.33,1.58c1.24,9,1.78,18.11,3.85,26.89,5.87,24.93,23.92,35.4,48.43,28.39,10.89-3.11,20.32-9,28.81-17.35C238.29,317.85,212,305,196.08,270.84Z"/><path d="M152.88,254.18l-2.64-1.27c-2.69-1.29-5.51-2.55-8.23-3.77a160.5,160.5,0,0,1-18.45-9.22c-23.53-14.4-42.19-35.79-57.06-65.38-7.75-15.43-14.41-31.69-20.85-47.4-2.7-6.6-5.5-13.43-8.33-20.08-3.74-8.79,0-13.34,3.79-15.62,4.62-2.77,9.3-5.68,13.83-8.49C75.6,70.1,97,56.82,121.52,51c18.22-4.31,37-7.34,55.19-10.28,6.9-1.11,14-2.26,21-3.47,6.1-1,10.9,1.88,12.84,7.83,10.29,31.68,19,60.42,21.64,91.27a7.43,7.43,0,0,1-.15,2c0,0.23-.08.48-0.12,0.77l-0.37,3-2.86-.9c-1.29-.41-2.56-0.86-3.78-1.3a38.51,38.51,0,0,0-7.36-2.13c-13-1.87-22.08,3.61-28.5,17.25-2.38,5.07-4.73,10.23-7,15.22L179,177l-0.68,1.47-1.62,0c-14.6-.17-26.81,4.4-35.44,13.13-6.85,6.94-10.9,16.07-11.89,26.68,10.8-11.4,21.53-21.74,37.84-25.45l4.17-.95ZM200.12,42.06a9,9,0,0,0-1.53.14c-7,1.21-14.17,2.36-21.08,3.48-18.09,2.92-36.8,5.93-54.84,10.21C98.92,61.5,77.89,74.56,57.56,87.19,53,90,48.33,92.93,43.67,95.72c-2.27,1.36-4.25,3.54-1.76,9.37,2.85,6.69,5.65,13.53,8.36,20.15,6.4,15.63,13,31.79,20.69,47.06,14.44,28.74,32.5,49.47,55.21,63.36A156.59,156.59,0,0,0,144,244.58c1.88,0.84,3.8,1.7,5.71,2.58l14.34-48.27c-13.89,4.55-23.6,14.88-33.84,25.76l-6,6.33-0.13-6.1c-0.32-14.76,4.36-27.48,13.55-36.78s22.37-14.4,37.41-14.61l2.43-5.33c2.28-5,4.63-10.18,7-15.28,7.28-15.49,18.64-22.25,33.73-20.08a42.74,42.74,0,0,1,8.34,2.37l0.47,0.17c-2.72-29.78-11.26-57.81-21.29-88.69C204.83,43.59,202.91,42.06,200.12,42.06ZM92.77,156.52a45.42,45.42,0,0,1-9.26-1l-2.25-.47,0.27-2.28C83,140.63,88.16,131,96.43,124.91s18.67-8,30.37-5.83l2.31,0.43-0.29,2.34c-1.51,12.19-7,22.24-15.47,28.29A34.79,34.79,0,0,1,92.77,156.52Zm-5.93-5.47c9,1.37,17.11-.33,23.61-5,6.77-4.84,11.35-12.76,13.06-22.46-9.35-1.25-17.64.57-24.12,5.33S88.47,141.42,86.84,151.06Z"/><path class="cls-1" d="M84,153.09c22.2,4.62,39.45-8.42,42.32-31.55C103.8,117.35,86.83,129.85,84,153.09Z"/><path class="cls-1" d="M202.83,109c-16.06-15.91-37.56-15.36-51.82,1.33C166.75,126.35,188.82,125.78,202.83,109Z"/><path class="cls-1" d="M202.83,212.75c12.91,18.64,34.4,21.07,52.42,6.29C241.79,200.47,220.87,197.84,202.83,212.75Z"/><path class="cls-1" d="M319.32,262.64c-0.68-22.59-16.65-37-38.48-34.74C281.21,250.36,297.6,265.15,319.32,262.64Z"/></svg>