<?xml version="1.0" encoding="utf-8"?>
<!-- Generator: Adobe Illustrator 19.1.0, SVG Export Plug-In . SVG Version: 6.00 Build 0)  -->
<svg version="1.1" id="Layer_1" xmlns="http://www.w3.org/2000/svg" xmlns:xlink="http://www.w3.org/1999/xlink" x="0px" y="0px"
	 width="400px" height="400px" viewBox="0 0 400 400" enable-background="new 0 0 400 400" xml:space="preserve">
<g id="Layer_x25_20142">
	<path fill="#333333" d="M59.074,330.495c0,5.522-4.477,10-10,10l0,0c-5.523,0-10-4.478-10-10v-219c0-5.523,4.477-10,10-10l0,0
		c5.523,0,10,4.477,10,10V330.495z"/>
	<path fill="#333333" d="M360.844,110.069c0.005-0.133,0.02-0.263,0.02-0.398c0-5.523-4.478-10-10-10h-30V69.505
		c0-5.523-4.477-10-10-10c-0.284,0-0.564,0.02-0.843,0.043h-98.196c-0.744,0-1.467,0.088-2.165,0.242
		c-4.831,0.707-8.544,4.855-8.544,9.882v30.167H51.408c-5.522,0-10,4.477-10,10s4.478,10,10,10h158.938
		c0.863,0,1.695-0.121,2.495-0.326c4.699-0.819,8.274-4.908,8.274-9.841V79.547h79.748v29.957c0,0.028,0.004,0.055,0.004,0.084
		c0,0.028-0.004,0.055-0.004,0.083c0,5.523,4.478,10,10,10h30.062v209.623c0,5.523,4.479,10,10,10c5.524,0,10-4.477,10-10v-218
		C360.926,110.879,360.893,110.472,360.844,110.069z"/>
	<path fill="#333333" d="M310.865,319.922h-260c-5.523,0-10,4.477-10,10s4.477,10,10,10h260c5.522,0,10-4.477,10-10
		S316.387,319.922,310.865,319.922z"/>
</g>
</svg>
