<?xml version="1.0" encoding="utf-8"?>
<!-- Generator: Adobe Illustrator 19.1.0, SVG Export Plug-In . SVG Version: 6.00 Build 0)  -->
<svg version="1.1" id="Layer_1" xmlns="http://www.w3.org/2000/svg" xmlns:xlink="http://www.w3.org/1999/xlink" x="0px" y="0px"
	 width="400px" height="400px" viewBox="0 0 400 400" enable-background="new 0 0 400 400" xml:space="preserve">
<path fill-rule="evenodd" clip-rule="evenodd" fill="#333333" d="M201.828,360.798c-5.426,1.023-10.656-2.548-11.678-7.975
	l-30.332-118.887c-1.024-5.427,2.549-10.656,7.975-11.679l0,0c5.427-1.023,10.656,2.548,11.68,7.975l30.33,118.887
	C210.827,354.546,207.256,359.776,201.828,360.798L201.828,360.798z"/>
<path fill-rule="evenodd" clip-rule="evenodd" fill="#333333" d="M198.377,360.798c5.427,1.023,10.656-2.548,11.679-7.975
	l29.332-119.887c1.023-5.427-2.549-10.656-7.976-11.679l0,0c-5.427-1.023-10.656,2.548-11.679,7.975L190.403,349.12
	C189.379,354.546,192.951,359.776,198.377,360.798L198.377,360.798z"/>
<g>
	<path fill="#333333" d="M304.379,200.859c-4.028-11.407-14.764-19.645-27.472-19.979c-0.267-0.007-0.532-0.021-0.801-0.021h-16.332
		l-8.842-79.976c12.552-0.477,23.128-8.656,27.118-19.957c1.102-3.121,1.705-6.478,1.705-9.977s-0.604-6.855-1.705-9.977
		c-4.027-11.407-14.763-19.646-27.471-19.979c-0.267-0.007-0.532-0.021-0.801-0.021h-99.582c-0.022,0-0.045,0.002-0.067,0.002
		c-13.027,0.028-24.098,8.369-28.202,19.998c-1.101,3.122-1.707,6.478-1.707,9.977s0.606,6.854,1.707,9.977
		c3.983,11.284,14.53,19.448,27.054,19.95l-8.842,79.982h-17.75c-0.023,0-0.044,0.002-0.067,0.002
		c-13.027,0.028-24.097,8.369-28.201,19.998c-1.102,3.122-1.707,6.478-1.707,9.977c0,3.499,0.605,6.855,1.707,9.977
		c4.105,11.629,15.174,19.97,28.201,19.998c0.023,0,0.045,0.002,0.067,0.002h153.717c0.268,0,0.534-0.013,0.801-0.021
		c12.708-0.334,23.443-8.572,27.472-19.979c1.102-3.121,1.705-6.478,1.705-9.977C306.084,207.337,305.481,203.98,304.379,200.859z
		 M277.022,220.812c-0.05,0.005-0.099,0.015-0.149,0.018c-0.253,0.019-0.507,0.039-0.766,0.039c-0.358,0-0.712-0.021-1.061-0.057
		H123.452c-0.35,0.037-0.702,0.057-1.062,0.057c-0.196,0-0.388-0.018-0.582-0.029c-0.088-0.005-0.173-0.021-0.261-0.028
		c-5.145-0.431-9.19-4.721-9.19-9.977c0-5.256,4.046-9.546,9.19-9.977c0.088-0.007,0.173-0.022,0.261-0.027
		c0.194-0.012,0.386-0.03,0.582-0.03c0.359,0,0.712,0.02,1.062,0.057h24.458c0.42,0.054,0.845,0.091,1.278,0.091
		c0.435,0,0.858-0.037,1.278-0.091c4.825-0.62,8.565-4.687,8.669-9.656c0.021,0.008,0.042,0.019,0.063,0.027l1.137-10.371h-0.016
		l8.837-79.933l0.744-8.012c0.13-0.643,0.199-1.307,0.199-1.988c0-5.499-4.458-9.957-9.957-9.957c-0.118,0-0.232,0.014-0.349,0.018
		c0-0.021-0.001,0.007,0-0.014l-8.536-0.047c-0.023,0.003-0.048,0.002-0.071,0.004c-0.325,0.032-0.655,0.053-0.989,0.053
		c0.358,0,0.712-0.021,1.061-0.057h-1.903c-5.145-0.431-9.19-4.721-9.19-9.977c0-5.255,4.046-9.546,9.19-9.977h1.903h27.209h43.043
		h27.209h1.975c5.11,0.464,9.119,4.745,9.119,9.977c0,5.231-4.009,9.513-9.119,9.977h-1.975c0.349,0.037,0.702,0.057,1.061,0.057
		c-0.355,0-0.706-0.021-1.053-0.057c-0.003-0.001-0.005-0.001-0.008-0.001h-8.968c-0.004,0.015-0.01,0.029-0.014,0.045
		c0.012,0,0.023-0.002,0.035-0.002c-5.499,0-9.957,4.458-9.957,9.957c0,0.103,0.012,0.202,0.015,0.303l0.141,1.315
		c-0.014-0.103-0.03-0.207-0.032-0.304l0.059,0.557l0.761,8.129l8.837,79.933h-0.077l1.1,10.317c0.017,0.54,0.07,1.07,0.17,1.586
		c0.883,4.595,4.92,8.068,9.773,8.068c0.181,0,0.356-0.018,0.534-0.027c0.012,0.019,0.025,0.037,0.036,0.056h23.916
		c0.349-0.037,0.702-0.057,1.061-0.057c0.259,0,0.513,0.02,0.766,0.039c0.051,0.004,0.1,0.014,0.149,0.019
		c5.111,0.464,9.119,4.745,9.119,9.977C286.141,216.067,282.133,220.348,277.022,220.812z M241.207,187.483
		C241.207,187.483,241.207,187.484,241.207,187.483C241.207,187.484,241.207,187.484,241.207,187.483L241.207,187.483z"/>
</g>
<path fill-rule="evenodd" clip-rule="evenodd" fill="#333333" d="M189.227,100.973h-28.018c-5.513,0-10.023-4.51-10.023-10.021l0,0
	c0-5.512,4.51-10.021,10.023-10.021h28.018c5.513,0,10.022,4.51,10.022,10.021l0,0C199.249,96.463,194.74,100.973,189.227,100.973z"
	/>
</svg>
