<svg xmlns="http://www.w3.org/2000/svg" width="100" height="100" viewBox="0 0 100 100">
  <g fill="none" fill-rule="evenodd">
    <ellipse cx="50" cy="50" fill="#127187" rx="50" ry="50"/>
    <path fill="#FFFFFF" fill-rule="nonzero" d="M20.5933333,30.57 C20.5933333,29.8183333 19.9783333,29.2033333 19.2266667,29.2033333 L2.82666667,29.2033333 L2.82666667,3.23666667 L30.16,3.23666667 L30.16,29.2033333 L28.7933333,29.2033333 L28.7933333,29.217 C28.7523333,29.217 28.6976667,29.2033333 28.6566667,29.2033333 C27.905,29.2033333 27.29,29.8183333 27.29,30.57 C27.29,31.3216667 27.905,31.9366667 28.6566667,31.9366667 C28.6976667,31.9366667 28.7523333,31.9366667 28.7933333,31.923 L28.7933333,31.9366667 L31.5266667,31.9366667 C32.2783333,31.9366667 32.8933333,31.39 32.8933333,30.57 L32.8933333,30.57 L32.8933333,1.73333333 C32.825,1.03633333 32.2373333,0.503333333 31.5403333,0.503333333 L1.32333333,0.517 C0.681,0.585333333 0.161666667,1.091 0.107,1.73333333 L0.0933333333,1.73333333 L0.0933333333,30.7066667 L0.107,30.7066667 C0.175333333,31.349 0.681,31.8683333 1.32333333,31.923 L1.32333333,31.9366667 L19.2266667,31.9366667 C19.9783333,31.9366667 20.5933333,31.3216667 20.5933333,30.57 L20.5933333,30.57 Z M25.1033333,8.17033333 L25.1033333,8.17033333 L7.2,8.15666667 C6.44833333,8.15666667 5.83333333,8.77166667 5.83333333,9.52333333 C5.83333333,10.275 6.44833333,10.89 7.2,10.89 L25.1033333,10.8763333 C25.8003333,10.808 26.3333333,10.2203333 26.3333333,9.52333333 C26.3333333,8.82633333 25.8003333,8.23866667 25.1033333,8.17033333 L25.1033333,8.17033333 Z M25.1033333,13.5003333 L25.1033333,13.5003333 L7.2,13.5003333 C6.503,13.5686667 5.97,14.1563333 5.97,14.8533333 C5.97,15.5503333 6.503,16.138 7.2,16.2063333 L7.2,16.22 L25.1033333,16.2063333 C25.8003333,16.138 26.3333333,15.5503333 26.3333333,14.8533333 C26.3333333,14.1563333 25.8003333,13.5686667 25.1033333,13.5003333 Z M7.2,18.9533333 C6.44833333,18.9533333 5.83333333,19.5683333 5.83333333,20.32 C5.83333333,21.0716667 6.44833333,21.6866667 7.2,21.6866667 L25.1033333,21.673 C25.8003333,21.6046667 26.3333333,21.017 26.3333333,20.32 C26.3333333,19.623 25.8003333,19.0353333 25.1033333,18.967 L25.1033333,18.9533333 L7.2,18.9533333 Z M31.6633333,0.503333333 L31.5266667,0.503333333 L31.6633333,0.503333333 L31.6633333,0.503333333 Z M31.6633333,31.923 C31.6223333,31.923 31.5676667,31.9366667 31.5266667,31.9366667 L31.6633333,31.923 Z M38.9476667,33.4946667 L35.285,3.715 L35.285,3.70133333 C35.285,3.66033333 35.2713333,3.60566667 35.2576667,3.56466667 C35.121,2.936 34.547,2.485 33.891,2.49866667 C33.85,2.49866667 33.7953333,2.49866667 33.7543333,2.51233333 L33.7543333,2.51233333 L33.5766667,2.53966667 L33.5766667,12.1746667 L36.064,32.456 L8.99033333,35.777 L8.60766667,32.6063333 L5.86066667,32.6063333 L6.462,37.458 C6.55766667,38.2096667 7.241,38.7426667 7.979,38.647 L37.7586667,34.9843333 C37.7996667,34.9843333 37.8543333,34.9706667 37.8953333,34.957 C38.565,34.834 39.0296667,34.1916667 38.9476667,33.4946667 Z M33.2213333,3.182 L33.0846667,3.19566667 C33.1256667,3.19566667 33.1666667,3.19566667 33.2213333,3.182 L33.2213333,3.182 Z" transform="translate(31 31)"/>
  </g>
</svg>
