<?xml version="1.0" encoding="utf-8"?>
<!-- Generator: Adobe Illustrator 19.2.1, SVG Export Plug-In . SVG Version: 6.00 Build 0)  -->
<svg version="1.1" id="Layer_1" xmlns="http://www.w3.org/2000/svg" xmlns:xlink="http://www.w3.org/1999/xlink" x="0px" y="0px"
	 viewBox="0 0 500 500" enable-background="new 0 0 500 500" xml:space="preserve">
<path fill="#333333" d="M409.502,137.139c-0.463-0.064-0.931-0.108-1.412-0.108c-0.368,0-0.732,0.021-1.09,0.059h-49.542V85.565
	c0-5.692-4.614-10.306-10.306-10.306s-10.306,4.614-10.306,10.306v51.525H172.639V85.565c0-5.692-4.614-10.306-10.306-10.306
	c-5.692,0-10.306,4.614-10.306,10.306v51.525h-51.642c-0.358-0.038-0.722-0.059-1.09-0.059c-5.692,0-10.306,4.614-10.306,10.306
	v48.383v20.722v157.625c0,5.692,4.614,10.306,10.306,10.306c0.486,0,0.96-0.045,1.428-0.11h122.357v0.11h187.454v-0.303
	c4.51-1.099,7.863-5.154,7.863-10.003V150.373c0.284-0.943,0.441-1.941,0.441-2.978
	C418.837,142.032,414.738,137.629,409.502,137.139z M109.6,157.701h42.427v11.341c0,5.691,4.614,10.306,10.306,10.306
	c5.692,0,10.306-4.614,10.306-10.306v-11.341h164.207v11.341c0,5.691,4.614,10.306,10.306,10.306s10.306-4.614,10.306-10.306
	v-11.341h40.327v38.018H109.6V157.701z M109.6,363.65V216.441h288.185V363.65h-50.118H223.079H109.6z"/>
</svg>
