<?xml version="1.0" encoding="utf-8"?>
<!-- Generator: Adobe Illustrator 19.2.1, SVG Export Plug-In . SVG Version: 6.00 Build 0)  -->
<svg version="1.1" id="Layer_1" xmlns="http://www.w3.org/2000/svg" xmlns:xlink="http://www.w3.org/1999/xlink" x="0px" y="0px"
	 viewBox="0 0 400 400" style="enable-background:new 0 0 400 400;" xml:space="preserve">
<style type="text/css">
	.st0{fill:#231F20;}
</style>
<g>
	<path d="M219.1,363.5c-0.3,0-0.5,0-0.8,0c-4.5-0.2-9.1-0.1-13.5-0.1c-4.4,0-8.9,0-13.4-0.1c-2.6-0.1-7.4-1.5-9.3-4.9
		c-22.6-40.7-50.5-95.2-66.3-154.9c-2.5-9.4-4-19-5.6-28.3c-0.8-4.7-1.6-9.6-2.4-14.3c-0.4-2-0.8-2.5-0.8-2.5
		c-22.6-19-32.2-44.5-29.2-77.7C78.8,70.9,82.2,61.9,88,54c9.3-12.6,25.1-16,37.6-8.3c6.1,3.8,11.3,8.6,16.7,13.6
		c1.7,1.6,3.5,3.2,5.3,4.8c0.4-0.2,0.8-0.4,1.2-0.5c3.3-1.5,7.1-3.1,10.2-5.4c0.4-0.5,0.7-2.2,1-3.3c-6-1.1-7.8-5.4-7.5-9.3
		c0.2-3,1.9-7.9,10.1-7.9c0,0,0,0,0,0c8,0,16.1,0,24.1,0c4.2,0,8.4,0,12.5,0c3.6,0,7.2,0,10.8,0c12.1,0,24.5,0,36.8,0.1
		c2.5,0,7.1,0.5,10,3.1c2.1,2,3,4.6,2.3,7.2c-0.8,2.9-3.4,5.2-7.4,6.7c-0.3,1.2-0.5,2.3-0.4,2.8c0.6,0.6,2.9,1.7,4.1,2.3
		c2.9,1.4,5.6,2.9,8.5,4.4c0.3,0.2,0.6,0.3,0.9,0.5c1.3-2,2.7-4,4.6-5.7c1-0.9,2-1.8,3.1-2.8c4.5-4.1,9.2-8.4,14.8-11.2
		c12.9-6.6,27.2-3,36.3,9.2c7.5,10,11,21.9,10.7,36.5c-0.6,29.5-10.3,51.6-29.8,67.6c-0.3,0.3-0.7,1-0.8,1.4
		c-3.6,34.9-13.9,71.1-31.6,110.7c-8.3,18.6-17.4,37.2-26.2,55.2c-4.8,9.9-9.8,20.1-14.7,30.2C228.8,361,224.9,363.5,219.1,363.5z
		 M209.6,355.4c3,0,6.1,0,9.1,0.1c3.1,0.1,4.2-0.5,5.4-3.1c4.8-10.1,9.8-20.4,14.7-30.3c8.8-17.9,17.9-36.5,26.1-54.9
		c17.3-38.7,27.5-74.1,31-108.2c0.3-2.5,1.7-5.2,3.7-6.8c17.8-14.6,26.3-34.2,26.9-61.6c0.2-12.8-2.7-23.1-9.1-31.6
		c-6.7-9-16.8-11.7-26.2-6.9c-4.7,2.4-8.8,6.1-13.1,10c-1.1,1-2.1,1.9-3.2,2.8c-1.3,1.1-2.4,2.8-3.6,4.5c-0.6,0.9-1.2,1.8-1.9,2.7
		l-2,2.7l-3-1.6c-1.4-0.7-2.8-1.5-4.1-2.2c-2.8-1.5-5.5-3-8.2-4.3c-8.8-4.2-9.9-6.7-7.4-16.5l0.6-2.3l2.4-0.6
		c1.6-0.4,2.6-0.8,3.3-1.2c-0.7-0.3-2.1-0.6-3.9-0.6c-12.2-0.1-24.7-0.1-36.7-0.1c-3.6,0-7.2,0-10.8,0c-4.2,0-8.4,0-12.5,0
		c-8,0-16.1,0-24.1,0c-1.4,0-1.9,0.2-2.1,0.2c0,0.1,0,0.2,0,0.3c0,0.3,0,0.4,0,0.5c0.1,0.1,0.6,0.3,1.7,0.4c1.2,0.1,2,0.5,2.9,1
		c0.3,0.2,0.8,0.4,1.3,0.6l3.4,1.5l-1.2,3.5c-0.3,0.8-0.5,1.7-0.7,2.8c-0.6,2.9-1.3,6.3-4.1,8.2c-3.8,2.8-8.2,4.7-11.7,6.3
		c-1.2,0.5-2.4,1.1-3.4,1.5l-2.4,1.2l-2-1.7c-2.6-2.2-5.1-4.5-7.5-6.7c-5.2-4.8-10.1-9.3-15.5-12.7c-8.9-5.5-20.2-2.9-27,6.3
		c-4.9,6.7-7.8,14.3-8.6,22.6c-2.7,30.5,5.9,53.7,26.4,71c2.2,1.9,3,5,3.4,7.1c0.9,4.8,1.7,9.7,2.5,14.5c1.5,9.1,3,18.6,5.4,27.5
		c15.5,58.8,43.1,112.5,65.4,152.9c0.4,0.4,1.7,0.9,2.6,0.9c4.3,0.1,8.8,0.1,13.1,0.1C206.4,355.4,208,355.4,209.6,355.4z
		 M189,354.3L189,354.3L189,354.3z"/>
</g>
<g>
	<path class="st0" d="M233.2,266.1c1,0.3,2,0.7,3,1c1.6-2.5,3.7-4.9,4.7-7.7c5.8-14.8,11.8-29.6,16.9-44.7
		c8.3-24.4,14.7-49.3,14-75.3c-0.4-15.6-3.8-30.5-15.9-42c-4.1-3.9-9.1-4.1-12.7-0.7c-3.8,3.5-3.5,7.9,0.1,12.4
		c3.2,4.1,7.2,8.2,8.4,12.9c2.6,10.1,5.2,20.6,5.2,30.9c0.1,34.9-8.8,68.2-20.9,100.9C234.6,257.7,234.1,262,233.2,266.1z"/>
</g>
<g>
	<path class="st0" d="M276.2,75.1c6.4,11.1,13.4,20.5,17.5,30.9c4.1,10.4,5.4,21.9,7.9,33.2c1-1.1,2.2-2.4,3.3-3.9
		c10-13.7,13.7-29.1,11.7-45.6c-0.7-5.9-3-11.9-6.1-17c-5.2-8.8-14.8-11.2-23.6-6.2C282.6,69.2,278.9,73,276.2,75.1z"/>
</g>
<g>
	<path class="st0" d="M110.5,139.9c8.3-40.3,8.3-40.3,25.7-63.3c-5.9-7-12.3-13.6-22.7-12.2c-10.3,1.3-15.1,9.2-17,18
		c-1.6,7.6-2.1,15.8-1.4,23.5C96.3,118.4,101,129.7,110.5,139.9z"/>
</g>
</svg>
