<?xml version="1.0" encoding="utf-8"?>
<!-- Generator: Adobe Illustrator 19.1.0, SVG Export Plug-In . SVG Version: 6.00 Build 0)  -->
<svg version="1.1" id="Layer_1" xmlns="http://www.w3.org/2000/svg" xmlns:xlink="http://www.w3.org/1999/xlink" x="0px" y="0px"
	 width="400px" height="400px" viewBox="0 0 400 400" enable-background="new 0 0 400 400" xml:space="preserve">
<path fill-rule="evenodd" clip-rule="evenodd" fill="#333333" d="M60.776,309.11c0,5.51-4.467,9.977-9.977,9.977l0,0
	c-5.51,0-9.977-4.467-9.977-9.977V90.021c0-5.51,4.467-9.977,9.977-9.977l0,0c5.51,0,9.977,4.467,9.977,9.977V309.11z"/>
<path fill-rule="evenodd" clip-rule="evenodd" fill="#333333" d="M160.876,329.445c0,5.51-4.467,9.977-9.977,9.977l0,0
	c-5.51,0-9.977-4.467-9.977-9.977V70.356c0-5.51,4.467-9.977,9.977-9.977l0,0c5.51,0,9.977,4.467,9.977,9.977V329.445z"/>
<path fill-rule="evenodd" clip-rule="evenodd" fill="#333333" d="M50.677,359.991c-5.51,0-9.977-4.467-9.977-9.977l0,0
	c0-5.51,4.467-9.977,9.977-9.977l100.269-20c5.51,0,9.977,4.467,9.977,9.977l0,0c0,5.51-4.467,9.977-9.977,9.977L50.677,359.991z"/>
<path fill-rule="evenodd" clip-rule="evenodd" fill="#333333" d="M50.677,100.271c-5.51,0-9.977-4.467-9.977-9.977l0,0
	c0-5.51,4.467-9.976,9.977-9.976l100.269-20c5.51,0,9.977,4.467,9.977,9.976l0,0c0,5.51-4.467,9.977-9.977,9.977L50.677,100.271z"/>
<path fill-rule="evenodd" clip-rule="evenodd" fill="#333333" d="M240.912,349.11c0,5.51,4.467,9.977,9.977,9.977l0,0
	c5.51,0,9.976-4.467,9.976-9.977V90.021c0-5.51-4.467-9.977-9.976-9.977l0,0c-5.51,0-9.977,4.467-9.977,9.977V349.11z"/>
<path fill-rule="evenodd" clip-rule="evenodd" fill="#333333" d="M140.812,329.445c0,5.51,4.467,9.977,9.977,9.977l0,0
	c5.51,0,9.977-4.467,9.977-9.977V70.356c0-5.51-4.467-9.977-9.977-9.977l0,0c-5.51,0-9.977,4.467-9.977,9.977V329.445z"/>
<path fill-rule="evenodd" clip-rule="evenodd" fill="#333333" d="M261.037,349.11c0,5.51-4.467,9.977-9.977,9.977l0,0
	c-5.51,0-9.977-4.467-9.977-9.977V90.021c0-5.51,4.467-9.977,9.977-9.977l0,0c5.51,0,9.977,4.467,9.977,9.977V349.11z"/>
<path fill-rule="evenodd" clip-rule="evenodd" fill="#333333" d="M250.938,359.991c-5.51,0-9.977-4.467-9.977-9.977l0,0
	c0-5.51,4.467-9.977,9.977-9.977l100.269-20c5.51,0,9.977,4.467,9.977,9.977l0,0c0,5.51-4.467,9.977-9.977,9.977L250.938,359.991z"
	/>
<path fill-rule="evenodd" clip-rule="evenodd" fill="#333333" d="M250.938,100.271c-5.51,0-9.977-4.467-9.977-9.977l0,0
	c0-5.51,4.467-9.976,9.977-9.976l100.269-20c5.51,0,9.977,4.467,9.977,9.976l0,0c0,5.51-4.467,9.977-9.977,9.977L250.938,100.271z"
	/>
<path fill-rule="evenodd" clip-rule="evenodd" fill="#333333" d="M341.073,329.445c0,5.51,4.467,9.977,9.977,9.977l0,0
	c5.51,0,9.977-4.467,9.977-9.977V109.356c0-5.51-4.467-9.977-9.977-9.977l0,0c-5.51,0-9.977,4.467-9.977,9.977V329.445z"/>
<path fill-rule="evenodd" clip-rule="evenodd" fill="#333333" d="M251.01,359.991c5.51,0,9.976-4.467,9.976-9.977l0,0
	c0-5.51-4.467-9.977-9.976-9.977l-100.269-20c-5.51,0-9.977,4.467-9.977,9.977l0,0c0,5.51,4.467,9.977,9.977,9.977L251.01,359.991z"
	/>
<path fill-rule="evenodd" clip-rule="evenodd" fill="#333333" d="M251.01,100.271c5.51,0,9.976-4.467,9.976-9.977l0,0
	c0-5.51-4.467-9.976-9.976-9.976l-100.269-20c-5.51,0-9.977,4.467-9.977,9.976l0,0c0,5.51,4.467,9.977,9.977,9.977L251.01,100.271z"
	/>
</svg>
