<?xml version="1.0" encoding="UTF-8"?>
<svg width="410px" height="409px" viewBox="0 0 410 409" version="1.1" xmlns="http://www.w3.org/2000/svg" xmlns:xlink="http://www.w3.org/1999/xlink">
    <!-- Generator: Sketch 43.2 (39069) - http://www.bohemiancoding.com/sketch -->
    <title>Group</title>
    <desc>Created with Sketch.</desc>
    <defs></defs>
    <g id="Page-1" stroke="none" stroke-width="1" fill="none" fill-rule="evenodd">
        <g id="Group" transform="translate(5.000000, 5.000000)" fill-rule="nonzero" fill="#423500">
            <path d="M339.450457,55.3952142 L339.450457,207.901049 C339.450457,210.662472 341.689034,212.901049 344.450457,212.901049 C347.211881,212.901049 349.450457,210.662472 349.450457,207.901049 L349.450457,50.3952142 C349.450457,47.6337904 347.211881,45.3952142 344.450457,45.3952142 L54.719556,45.3952142 C51.9581323,45.3952142 49.719556,47.6337904 49.719556,50.3952142 L49.719556,209.647417 C49.719556,212.408841 51.9581323,214.647417 54.719556,214.647417 C57.4809798,214.647417 59.719556,212.408841 59.719556,209.647417 L59.719556,55.3952142 L339.450457,55.3952142 Z" id="XMLID_165_"></path>
            <path d="M56.8790814,108.849525 C59.1254426,107.243498 59.6445359,104.12052 58.0385088,101.874159 C56.4324818,99.6277982 53.3095041,99.1087049 51.063143,100.714732 L-2.90796921,139.301167 C-4.22091202,140.23985 -5,141.754579 -5,143.368563 L-5,170.229379 C-5,172.990802 -2.76142375,175.229379 0,175.229379 C2.76142375,175.229379 5,172.990802 5,170.229379 L5,145.940271 L56.8790814,108.849525 Z" id="XMLID_170_"></path>
            <path d="M266.201387,54.4642104 C268.448631,56.0690011 271.571323,55.5481893 273.176114,53.3009447 C274.780904,51.0537002 274.260092,47.9310087 272.012848,46.326218 L202.490737,-3.32055242 C200.752448,-4.56189083 198.417566,-4.56189083 196.679276,-3.32055242 L127.157166,46.326218 C124.909921,47.9310087 124.389109,51.0537002 125.9939,53.3009447 C127.598691,55.5481893 130.721382,56.0690011 132.968627,54.4642104 L199.585007,6.89246525 L266.201387,54.4642104 Z" id="XMLID_152_"></path>
            <path d="M394.170013,170.229379 C394.170013,172.990802 396.40859,175.229379 399.170013,175.229379 C401.931437,175.229379 404.170013,172.990802 404.170013,170.229379 L404.170013,143.368563 C404.170013,141.753808 403.390185,140.238453 402.076204,139.299896 L347.356648,100.214499 C345.109585,98.6094537 341.986835,99.1299121 340.38179,101.376975 C338.776745,103.624038 339.297204,106.746788 341.544266,108.351833 L394.170013,145.941653 L394.170013,170.229379 Z" id="XMLID_167_"></path>
            <path d="M-5,355.677114 L-5,374.138727 C-5,390.288978 8.1325912,403.42157 24.2828425,403.42157 L374.970331,403.42157 C391.120583,403.42157 404.253174,390.288978 404.253174,374.138727 L404.253174,355.677114 C404.253174,352.91569 402.014598,350.677114 399.253174,350.677114 C396.49175,350.677114 394.253174,352.91569 394.253174,355.677114 L394.253174,374.138727 C394.253174,384.766131 385.597735,393.42157 374.970331,393.42157 L24.2828425,393.42157 C13.6554387,393.42157 5,384.766131 5,374.138727 L5,355.677114 C5,352.91569 2.76142375,350.677114 0,350.677114 C-2.76142375,350.677114 -5,352.91569 -5,355.677114 Z" id="XMLID_166_"></path>
            <path d="M394.170013,179.447771 L274.384092,265.030481 L394.170013,350.538511 L394.170013,179.447771 Z M396.265023,364.320461 L262.87571,269.101781 C260.083073,267.108284 260.082216,262.958582 262.87403,260.963932 L396.263343,165.662092 C399.572626,163.297728 404.170013,165.663284 404.170013,169.730416 L404.170013,360.250937 C404.170013,364.317125 399.574513,366.682909 396.265023,364.320461 Z" id="XMLID_164_"></path>
            <path d="M2.90499086,364.320461 C-0.404499597,366.682909 -5,364.317125 -5,360.250937 L-5,169.730416 C-5,165.663284 -0.402612221,163.297728 2.9066708,165.662092 L136.295984,260.963932 C139.087797,262.958582 139.086941,267.108284 136.294304,269.101781 L2.90499086,364.320461 Z M124.785922,265.030481 L5,179.447771 L5,350.538511 L124.785922,265.030481 Z" id="XMLID_163_"></path>
            <path d="M268.691315,260.032257 L130.312377,260.032257 C127.550954,260.032257 125.312377,262.270833 125.312377,265.032257 C125.312377,267.793681 127.550954,270.032257 130.312377,270.032257 L268.691315,270.032257 C271.452739,270.032257 273.691315,267.793681 273.691315,265.032257 C273.691315,262.270833 271.452739,260.032257 268.691315,260.032257 Z" id="XMLID_168_"></path>
        </g>
    </g>
</svg>