<svg id="Layer_1" data-name="Layer 1" xmlns="http://www.w3.org/2000/svg" viewBox="0 0 400 400"><defs><style>.cls-1{fill:#323232;}</style></defs><title>icon</title><g id="Layer_201102" data-name="Layer%201102"><path class="cls-1" d="M298.21,340.87a10,10,0,0,0,11.68-8L343.22,114a10,10,0,0,0-8-11.68h0a10,10,0,0,0-11.68,8L290.24,329.2a10,10,0,0,0,8,11.68h0Z"/><path class="cls-1" d="M101.91,340.87a10,10,0,0,1-11.68-8L56.9,153a10,10,0,0,1,8-11.68h0a10,10,0,0,1,11.68,8L109.89,329.2a10,10,0,0,1-8,11.68h0Z"/><path class="cls-1" d="M170.91,340.87a10,10,0,0,1-11.68-8L125.9,153a10,10,0,0,1,8-11.68h0a10,10,0,0,1,11.68,8L178.89,329.2a10,10,0,0,1-8,11.68h0Z"/><path class="cls-1" d="M223.31,340.87a10,10,0,0,0,11.68-8L268.33,153a10,10,0,0,0-8-11.68h0a10,10,0,0,0-11.68,8L215.34,329.2a10,10,0,0,0,8,11.68h0Z"/><path class="cls-1" d="M310.1,330.92a10,10,0,0,1-10,10h-200a10,10,0,0,1-10-10h0a10,10,0,0,1,10-10h200a10,10,0,0,1,10,10h0Z"/><path class="cls-1" d="M266.43,121a10,10,0,0,1-10-10V71a10,10,0,0,1,10-10h0a10,10,0,0,1,10,10v40a10,10,0,0,1-10,10h0Z"/><path class="cls-1" d="M343.35,111a10,10,0,0,1-10,10h-67a10,10,0,0,1-10-10h0a10,10,0,0,1,10-10h67a10,10,0,0,1,10,10h0Z"/><path class="cls-1" d="M143.52,111a10,10,0,0,1-10,10h-67a10,10,0,0,1-10-10h0a10,10,0,0,1,10-10h67a10,10,0,0,1,10,10h0Z"/><path class="cls-1" d="M276.35,70.83a10,10,0,0,1-10,10h-133a10,10,0,0,1-10-10h0a10,10,0,0,1,10-10h133a10,10,0,0,1,10,10h0Z"/><path class="cls-1" d="M133.43,121a10,10,0,0,1-10-10V71a10,10,0,0,1,10-10h0a10,10,0,0,1,10,10v40a10,10,0,0,1-10,10h0Z"/></g></svg>