<?xml version="1.0" encoding="utf-8"?>
<!-- Generator: Adobe Illustrator 17.0.0, SVG Export Plug-In . SVG Version: 6.00 Build 0)  -->
<!DOCTYPE svg PUBLIC "-//W3C//DTD SVG 1.1//EN" "http://www.w3.org/Graphics/SVG/1.1/DTD/svg11.dtd">
<svg version="1.1" id="Layer_1" xmlns="http://www.w3.org/2000/svg" xmlns:xlink="http://www.w3.org/1999/xlink" x="0px" y="0px"
	 width="400px" height="400px" viewBox="0 0 400 400" enable-background="new 0 0 400 400" xml:space="preserve">
<g>
	<g id="Layer_x25_20152">
		<path fill="#231F20" d="M243.182,207.824c26.833-15.999,44.815-45.299,44.815-78.811c0-50.649-41.06-91.706-91.708-91.706
			c-50.65,0-91.706,41.058-91.706,91.706c0,33.348,17.801,62.531,44.416,78.582c-40.751,17.999-69.192,58.761-69.192,106.175
			c0,12.339,1.946,24.217,5.515,35.372c0.198,1.056,0.541,2.059,1.004,2.991c1.879,3.783,5.771,6.388,10.281,6.388
			c6.344,0,11.487-5.143,11.487-11.487c0-0.423-0.025-0.84-0.07-1.251c-0.181-1.669-0.727-3.224-1.545-4.601
			c-2.657-8.668-4.093-17.871-4.093-27.411c0-49.743,38.87-90.391,87.889-93.266c1.99,0.129,3.992,0.217,6.015,0.217
			c1.867,0,3.714-0.074,5.553-0.183c48.8,3.103,87.429,43.644,87.429,93.231c0,10.112-1.611,19.848-4.583,28.966
			c-0.13,0.397-0.268,0.791-0.402,1.187c-0.278,0.99-0.438,2.03-0.438,3.11c0,6.344,5.143,11.487,11.487,11.487
			c3.962,0,7.456-2.007,9.522-5.058c1.126-1.667,1.814-3.648,1.934-5.782c3.276-10.728,5.057-22.11,5.057-33.91
			C311.85,266.559,283.652,225.941,243.182,207.824z M127.504,129.014c0-37.99,30.797-68.786,68.786-68.786
			s68.787,30.796,68.787,68.786c0,37.577-30.133,68.093-67.551,68.756c-0.565-0.008-1.13-0.022-1.699-0.022
			c-0.361,0-0.72,0.01-1.081,0.014C157.473,196.938,127.504,166.487,127.504,129.014z"/>
	</g>
	<g>
		<path d="M253.167,355.865H139.414c-3.762,0-6.821-3.06-6.821-6.821v-72.548c0-3.762,3.06-6.821,6.821-6.821h113.753
			c3.762,0,6.821,3.06,6.821,6.821v72.548C259.988,352.805,256.929,355.865,253.167,355.865z M139.414,275.674
			c-0.453,0-0.821,0.368-0.821,0.821v72.548c0,0.453,0.368,0.821,0.821,0.821h113.753c0.453,0,0.821-0.368,0.821-0.821v-72.548
			c0-0.453-0.368-0.821-0.821-0.821H139.414z"/>
	</g>
	<circle fill="#231F20" cx="196.291" cy="315.297" r="19.804"/>
	<path fill="#231F20" d="M194.903,258.967H160.41c-0.763,0-1.388,0.624-1.388,1.388v10.933c0,0.763,0.624,1.388,1.388,1.388h34.493
		c0.763,0,1.388-0.624,1.388-1.388v-10.933C196.291,259.591,195.666,258.967,194.903,258.967z"/>
</g>
</svg>
