<svg id="Layer_1" data-name="Layer 1" xmlns="http://www.w3.org/2000/svg" viewBox="0 0 400 400"><defs><style>.cls-1{fill:#333;fill-rule:evenodd;}</style></defs><title>icon</title><path class="cls-1" d="M279.88,200a10,10,0,0,1-10,10h-160a10,10,0,0,1-10-10h0a10,10,0,0,1,10-10h160a10,10,0,0,1,10,10h0Z"/><path class="cls-1" d="M276.95,207.12a10,10,0,0,1-14.14,0l-56.57-56.57a10,10,0,0,1,0-14.14h0a10,10,0,0,1,14.14,0L276.95,193a10,10,0,0,1,0,14.14h0Z"/><path class="cls-1" d="M206.24,264.36a10,10,0,0,0,14.14,0l56.57-56.57a10,10,0,0,0,0-14.14h0a10,10,0,0,0-14.14,0l-56.57,56.57a10,10,0,0,0,0,14.14h0Z"/></svg>