<svg id="Layer_1" data-name="Layer 1" xmlns="http://www.w3.org/2000/svg" viewBox="0 0 400 400"><defs><style>.cls-1{fill:#333;}</style></defs><title>icon</title><g id="Layer_20172" data-name="Layer%20172"><path class="cls-1" d="M351.38,240.78V354.55h-66V248.38c0-26.68-9.54-44.87-33.42-44.87-18.24,0-29.08,12.27-33.86,24.14-1.73,4.24-2.19,10.13-2.19,16.08V354.55H150s0.88-179.82,0-198.44h66v28.14c-0.13.21-.3,0.44-0.44,0.64H216v-0.64c8.76-13.52,24.42-32.79,59.46-32.79,43.43,0,76,28.36,76,89.31h0ZM81,60.45c-22.58,0-37.34,14.82-37.34,34.29C43.64,113.77,58,129,80.1,129h0.44c23,0,37.31-15.26,37.31-34.29C117.41,75.28,103.53,60.45,81,60.45h0ZM47.56,354.56h66V156.12h-66V354.56Z"/></g></svg>