<?xml version="1.0" encoding="utf-8"?>
<!-- Generator: Adobe Illustrator 19.1.0, SVG Export Plug-In . SVG Version: 6.00 Build 0)  -->
<svg version="1.1" id="Layer_1" xmlns="http://www.w3.org/2000/svg" xmlns:xlink="http://www.w3.org/1999/xlink" x="0px" y="0px"
	 width="400px" height="400px" viewBox="0 0 400 400" enable-background="new 0 0 400 400" xml:space="preserve">
<g id="Layer_x25_201101">
	<path fill="#323232" d="M249.257,85.742L57.295,269.704c-3.889,3.889-10.253,3.889-14.142,0l0,0
		c-3.889-3.889-3.889-10.253-0.001-14.142L235.114,71.6c3.89-3.889,10.253-3.889,14.142,0l0,0
		C253.145,75.489,253.146,81.853,249.257,85.742z"/>
	<path fill="#323232" d="M249.351,71.649l53.674,54.674c3.889,3.889,3.889,10.253,0,14.142l0,0
		c-3.889,3.889-10.253,3.889-14.142,0.001l-53.674-54.674c-3.889-3.889-3.889-10.253,0-14.142l0,0
		C239.098,67.76,245.462,67.76,249.351,71.649z"/>
	<path fill="#323232" d="M357.835,85.165c-12.514-34.865-51.151-52.952-86.056-40.281c-1.604,0.581-3.158,1.237-4.688,1.926
		c0.006,0.007,0.012,0.013,0.019,0.02c0.157-0.068,0.309-0.145,0.472-0.204c0.188-0.068,0.378-0.117,0.566-0.173
		c-5.082,1.938-7.706,7.598-5.862,12.74c1.833,5.111,7.391,7.79,12.513,6.099c0.006,0.045,0.013,0.09,0.018,0.134
		c1.165-0.53,2.354-1.028,3.579-1.47c4.035-1.451,8.128-2.313,12.192-2.65c-0.005,0.019-0.009,0.038-0.013,0.057
		c1.275-0.096,2.562-0.156,3.864-0.148c26.225,0.164,47.068,21.45,46.794,47.787c-0.13,12.569-5.196,23.912-13.339,32.269
		c-0.285,0.221-0.562,0.456-0.826,0.712l-199.836,200c-3.957,3.824-4.076,10.192-0.264,14.15c3.812,3.958,10.169,4.067,14.126,0.243
		l196.835-197.1c12.076-10.286,20.51-24.714,23.002-41.065c0.021-0.131,0.039-0.262,0.059-0.391c0.05-0.344,0.102-0.687,0.146-1.032
		C362.558,106.437,361.59,95.628,357.835,85.165z"/>
	<path fill="#323232" d="M130.687,359.973h-80.35c-5.5,0-10-4.5-10-10l0,0c0-5.5,4.5-10,10-10h80.35c5.5,0,10,4.5,10,10l0,0
		C140.687,355.473,136.187,359.973,130.687,359.973z"/>
	<path fill="#323232" d="M60.179,266.632v80.35c0,5.5-4.5,10-10,10l0,0c-5.5,0-10-4.5-10-10v-80.35c0-5.5,4.5-10,10-10l0,0
		C55.679,256.632,60.179,261.132,60.179,266.632z"/>
</g>
</svg>
