<?xml version="1.0" encoding="UTF-8"?>
<svg width="90px" height="99px" viewBox="0 0 90 99" version="1.1" xmlns="http://www.w3.org/2000/svg" xmlns:xlink="http://www.w3.org/1999/xlink">
    <!-- Generator: Sketch 52.2 (67145) - http://www.bohemiancoding.com/sketch -->
    <title>charlotte</title>
    <desc>Created with Sketch.</desc>
    <defs>
        <filter x="-26.7%" y="-23.8%" width="153.3%" height="147.6%" filterUnits="objectBoundingBox" id="filter-1">
            <feOffset dx="0" dy="2" in="SourceAlpha" result="shadowOffsetOuter1"></feOffset>
            <feGaussianBlur stdDeviation="4" in="shadowOffsetOuter1" result="shadowBlurOuter1"></feGaussianBlur>
            <feColorMatrix values="0 0 0 0 0   0 0 0 0 0   0 0 0 0 0  0 0 0 0.25 0" type="matrix" in="shadowBlurOuter1" result="shadowMatrixOuter1"></feColorMatrix>
            <feMerge>
                <feMergeNode in="shadowMatrixOuter1"></feMergeNode>
                <feMergeNode in="SourceGraphic"></feMergeNode>
            </feMerge>
        </filter>
        <path d="M37.1848507,0 C16.6482906,0 0.0702525544,16.6839885 0.000234507337,37.2639341 C-0.0670861785,57.051062 14.3608647,73.4857991 42.2303224,74.1046072 C45.9722617,77.0632432 62.8353618,84.5821956 62.3468237,83.6363713 C59.6772614,78.468019 56.7459053,75.6591512 60.0535466,68.5919914 C60.1595369,68.3655309 60.2014018,68.1005785 60.2836635,67.8479767 C68.6114548,57.7024155 73.0277988,53.7428171 74.1808385,40.1413221 C74.2583202,39.227332 74.3210663,38.2698036 74.3692735,37.2639341 C74.3692735,14.2950843 57.7212174,0 37.1848507,0 Z" id="path-2"></path>
    </defs>
    <g id="Modules" stroke="none" stroke-width="1" fill="none" fill-rule="evenodd">
        <g id="Dropdown/help" transform="translate(-11.000000, -14.000000)">
            <g id="charlotte">
                <g filter="url(#filter-1)" transform="translate(18.750000, 19.960714)">
                    <g id="Group-12">
                        <g id="shutterstock_146045183">
                            <mask id="mask-3" fill="white">
                                <use xlink:href="#path-2"></use>
                            </mask>
                            <use id="Mask" fill="#0A6F86" transform="translate(37.184637, 41.859033) scale(-1, 1) translate(-37.184637, -41.859033) " xlink:href="#path-2"></use>
                        </g>
                        <g id="Group-9" transform="translate(6.622222, 17.722444)">
                            <path d="M58.5282947,7.107695 C59.3677026,8.60741408 59.9330691,10.2786274 60.1566039,12.0546005 C60.672616,14.2551265 60.9453132,16.5482441 60.9453132,18.9044838 C60.9453132,21.8138019 60.3484481,24.6381976 59.7218248,27.3940193 C58.5282947,32.6430361 55.6535316,37.4316225 51.542255,40.6988928 C43.8761999,46.7911791 33.8105389,50.7014493 21.1637942,48.0523768 C13.0881928,46.3608068 6.9979462,39.7214516 3.33516278,32.6430361 C1.20294004,28.5226112 0,23.8527202 0,18.9044838 C0,16.5490046 0.272697135,14.2564574 0.788325169,12.0565018 C1.01186,10.2788175 1.57761054,8.60646345 2.41817065,7.10579373 C4.79121185,2.86825077 9.35504805,0 14.5960181,0 C22.2812763,0 28.5114457,6.16789893 28.5114457,13.7763875 C28.5114457,17.3363191 27.1475759,20.5806404 24.9091549,23.0256692 C27.6080884,24.8299712 29.6335368,27.5470713 30.5330532,30.7296014 C31.424696,27.5765409 33.4207623,24.8803548 36.0822479,23.0758627 C33.8163651,20.6253202 32.4338675,17.3608454 32.4338675,13.7763875 C32.4338675,6.16789893 38.6638448,0 46.349103,0 C51.5906492,0 56.1554456,2.86901128 58.5282947,7.107695 Z" id="Path" fill="#FFFFFF"></path>
                            <g id="Eyes-1" transform="translate(2.897222, 11.128046)" fill="#0A6F86">
                                <g id="Group-6" transform="translate(32.697222, 0.000000)">
                                    <path d="M0.212262035,-1.73050463e-11 C2.73996153,2.78874057 6.62303661,4.45264123 10.9774066,4.45264123 C15.3317767,4.45264123 19.2148518,2.78874057 21.7425513,3.50608431e-13 C20.3017947,4.38570199 16.0269118,7.56599968 10.9774066,7.56599968 C5.9279015,7.56599968 1.65301856,4.38570199 0.212262035,-9.836576e-14 Z" id="Combined-Shape" transform="translate(10.977407, 3.783000) scale(1, -1) translate(-10.977407, -3.783000) "></path>
                                </g>
                                <g id="Group-11">
                                    <path d="M0.193559849,-1.728373e-11 C2.72125934,2.78874057 6.60433442,4.45264123 10.9587045,4.45264123 C15.3130745,4.45264123 19.1961496,2.78874057 21.7238491,3.11750625e-13 C20.2830926,4.38570199 16.0082096,7.56599968 10.9587045,7.56599968 C5.90919931,7.56599968 1.63431637,4.38570199 0.193559849,-7.62723218e-14 Z" id="Combined-Shape" transform="translate(10.958704, 3.783000) scale(-1, -1) translate(-10.958704, -3.783000) "></path>
                                </g>
                            </g>
                        </g>
                    </g>
                </g>
            </g>
        </g>
    </g>
</svg>