<svg id="Layer_1" data-name="Layer 1" xmlns="http://www.w3.org/2000/svg" viewBox="0 0 467.672 37.971"><defs><style>.cls-1{fill:#423500;}</style></defs><title>logo-walden-brown</title><path class="cls-1" d="M52.317,12.637a5.026,5.026,0,0,0,.632-2c0-.763-.576-1.056-2.472-1.056H48.35c-2.013,0-2.531.235-2.531,1a6.711,6.711,0,0,0,.862,2.64l2.7,5.634ZM22.531,14.515c-2.013-4.461-2.875-4.929-7.245-4.929V8H31.962V9.586c-2.933.117-3.737.468-3.737,1.937,0,1.114,1.092,3.755,1.9,5.457L40.127,38.634,46.163,25.9,40.874,14.515c-2.184-4.754-2.7-4.987-6.5-4.929V8H61.343V9.586c-3.968.059-4.543.529-6.67,4.929l-3.737,7.629L58.7,38.458l9.947-24.236a8.315,8.315,0,0,0,.862-2.876c0-1.291-1.093-1.76-4.2-1.76V8H77.733V9.586c-3.222.059-4.2.235-6.67,6.279L58.929,45.442h-3.68l-7.532-16.2-7.589,16.2H36.562L22.531,14.515Z" transform="translate(-15.286 -8.001)"/><path class="cls-1" d="M52.317,12.637a5.026,5.026,0,0,0,.632-2c0-.763-.576-1.056-2.472-1.056H48.35c-2.013,0-2.531.235-2.531,1a6.711,6.711,0,0,0,.862,2.64l2.7,5.634ZM22.531,14.515c-2.013-4.461-2.875-4.929-7.245-4.929V8H31.962V9.586c-2.933.117-3.737.468-3.737,1.937,0,1.114,1.092,3.755,1.9,5.457L40.127,38.634,46.163,25.9,40.874,14.515c-2.184-4.754-2.7-4.987-6.5-4.929V8H61.343V9.586c-3.968.059-4.543.529-6.67,4.929l-3.737,7.629L58.7,38.458l9.947-24.236a8.315,8.315,0,0,0,.862-2.876c0-1.291-1.093-1.76-4.2-1.76V8H77.733V9.586c-3.222.059-4.2.235-6.67,6.279L58.929,45.442h-3.68l-7.532-16.2-7.589,16.2H36.562Z" transform="translate(-15.286 -8.001)"/><path class="cls-1" d="M83.826,31.695,79.685,20.56l-4.1,11.135ZM66.015,43.314c2.889-.044,3.45-.529,4.658-3.961l7.8-21.831-.343-1.1h4.829l8.411,22.931c1.249,3.432,1.681,3.961,4.4,3.961V44.5H82.962V43.314c3.407,0,4.355-.352,4.355-1.629a7.6,7.6,0,0,0-.6-2.332L84.645,33.9H74.77L72.656,39.75a5.756,5.756,0,0,0-.432,1.849c0,1.275.864,1.849,4.314,1.716V44.5H66.015V43.314Z" transform="translate(-15.286 -8.001)"/><path class="cls-1" d="M83.826,31.695,79.685,20.56l-4.1,11.135ZM66.015,43.314c2.889-.044,3.45-.529,4.658-3.961l7.8-21.831-.343-1.1h4.829l8.411,22.931c1.249,3.432,1.681,3.961,4.4,3.961V44.5H82.962V43.314c3.407,0,4.355-.352,4.355-1.629a7.6,7.6,0,0,0-.6-2.332L84.645,33.9H74.77L72.656,39.75a5.756,5.756,0,0,0-.432,1.849c0,1.275.864,1.849,4.314,1.716V44.5H66.015Z" transform="translate(-15.286 -8.001)"/><path class="cls-1" d="M95.338,44.5V43.314c3.452,0,4.184-.307,4.184-3.786V22.1c0-2.993-.3-3.874-4.184-3.786V17.126h14.146v1.189c-4.657,0-5.174.175-5.174,3.476V40.365c0,1.806.344,2.158,2.329,2.158h4.441c3.666,0,3.925-.177,7.159-4.667h1.294l-3.32,6.645H95.338" transform="translate(-15.286 -8.001)"/><path class="cls-1" d="M95.338,44.5V43.314c3.452,0,4.184-.307,4.184-3.786V22.1c0-2.993-.3-3.874-4.184-3.786V17.126h14.146v1.189c-4.657,0-5.174.175-5.174,3.476V40.365c0,1.806.344,2.158,2.329,2.158h4.441c3.666,0,3.925-.177,7.159-4.667h1.294l-3.32,6.645Z" transform="translate(-15.286 -8.001)"/><path class="cls-1" d="M128.067,40.1c0,2.771.387,3.168,3.19,3.168,5.176,0,7.85-1.145,9.833-3.168,2.631-2.686,3.364-6.383,3.364-9.464,0-3.17-.691-6.734-3.321-9.419-2.155-2.2-4.873-3.213-9.919-3.213-.732,0-2.068,0-3.146.089Zm-4.788-17.914c0-3.213-.819-3.917-4.1-3.873V17.126c1.249,0,4.96-.177,6.77-.265,2.33-.088,4.529-.088,6.168-.088,6.511,0,11.213,1.189,13.844,3.873a13.065,13.065,0,0,1,3.708,9.375c0,6.47-4.442,14.479-17.077,14.479H119.182V43.314c3.664,0,4.1-.616,4.1-3.565V22.188Z" transform="translate(-15.286 -8.001)"/><path class="cls-1" d="M128.067,40.1c0,2.771.387,3.168,3.19,3.168,5.176,0,7.85-1.145,9.833-3.168,2.631-2.686,3.364-6.383,3.364-9.464,0-3.17-.691-6.734-3.321-9.419-2.155-2.2-4.873-3.213-9.919-3.213-.732,0-2.068,0-3.146.089Zm-4.788-17.914c0-3.213-.819-3.917-4.1-3.873V17.126c1.249,0,4.96-.177,6.77-.265,2.33-.088,4.529-.088,6.168-.088,6.511,0,11.213,1.189,13.844,3.873a13.065,13.065,0,0,1,3.708,9.375c0,6.47-4.442,14.479-17.077,14.479H119.182V43.314c3.664,0,4.1-.616,4.1-3.565Z" transform="translate(-15.286 -8.001)"/><path class="cls-1" d="M149.806,44.5V43.314c3.493,0,4.356-.572,4.356-3.037V21.308c0-2.906-1.425-2.993-4.356-2.993V17.126h22.037l.387,6.6h-1.163l-.217-.925c-.861-3.61-1.552-3.7-4.312-3.7h-7.59V29.362h6.685c2.5,0,2.976-.309,3.234-3.346h1.165v8.848h-1.165c-.3-3.126-.863-3.522-3.234-3.522h-6.685v8.011c0,2.728.346,3.17,2.544,3.17h4.788c4.356,0,5.217-.617,6.383-4.929h1.165l-.647,6.908H149.806" transform="translate(-15.286 -8.001)"/><path class="cls-1" d="M149.806,44.5V43.314c3.493,0,4.356-.572,4.356-3.037V21.308c0-2.906-1.425-2.993-4.356-2.993V17.126h22.037l.387,6.6h-1.163l-.217-.925c-.861-3.61-1.552-3.7-4.312-3.7h-7.59V29.362h6.685c2.5,0,2.976-.309,3.234-3.346h1.165v8.848h-1.165c-.3-3.126-.863-3.522-3.234-3.522h-6.685v8.011c0,2.728.346,3.17,2.544,3.17h4.788c4.356,0,5.217-.617,6.383-4.929h1.165l-.647,6.908Z" transform="translate(-15.286 -8.001)"/><path class="cls-1" d="M182.454,22.1V39c0,3.433.432,4.533,4.314,4.313V44.5H176.459V43.314c3.106.089,3.622-.924,3.622-3.786V19.724a5.42,5.42,0,0,0-3.622-1.409V17.126h7.807L203.5,37.856V22.1c0-3.3-.517-3.829-4.269-3.786V17.126h10.435v1.189c-2.888,0-3.794.529-3.794,3.873V44.767h-2.329L182.454,22.1" transform="translate(-15.286 -8.001)"/><path class="cls-1" d="M182.454,22.1V39c0,3.433.432,4.533,4.314,4.313V44.5H176.459V43.314c3.106.089,3.622-.924,3.622-3.786V19.724a5.42,5.42,0,0,0-3.622-1.409V17.126h7.807L203.5,37.856V22.1c0-3.3-.517-3.829-4.269-3.786V17.126h10.435v1.189c-2.888,0-3.794.529-3.794,3.873V44.767h-2.329Z" transform="translate(-15.286 -8.001)"/><path class="cls-1" d="M217.131,8.531H233.46v1.585c-4.254,0-5.059.939-5.059,5.048V30.949c0,7.806,5.117,11.384,12.3,11.384,6.383,0,12.362-2.817,12.362-11.5V15.164c0-4.578-.862-5.048-5.519-5.048V8.531h13.915v1.585c-4.37,0-5.232.939-5.232,5.048V31.477c0,9.213-6.958,14.495-17.423,14.495-10.925,0-16.789-5.34-16.789-14.905V14.577c0-3.581-.921-4.461-4.888-4.461V8.531" transform="translate(-15.286 -8.001)"/><path class="cls-1" d="M217.131,8.531H233.46v1.585c-4.254,0-5.059.939-5.059,5.048V30.949c0,7.806,5.117,11.384,12.3,11.384,6.383,0,12.362-2.817,12.362-11.5V15.164c0-4.578-.862-5.048-5.519-5.048V8.531h13.915v1.585c-4.37,0-5.232.939-5.232,5.048V31.477c0,9.213-6.958,14.495-17.423,14.495-10.925,0-16.789-5.34-16.789-14.905V14.577c0-3.581-.921-4.461-4.888-4.461Z" transform="translate(-15.286 -8.001)"/><path class="cls-1" d="M265.954,22.537v16.9c0,3.433.431,4.533,4.313,4.314v1.186H259.96V43.752c3.106.088,3.622-.925,3.622-3.787V20.16a5.422,5.422,0,0,0-3.622-1.409V17.563h7.8L287,38.293V22.537c0-3.3-.518-3.829-4.27-3.786V17.563h10.436v1.189c-2.888,0-3.794.529-3.794,3.873V45.2h-2.328L265.954,22.537" transform="translate(-15.286 -8.001)"/><path class="cls-1" d="M265.954,22.537v16.9c0,3.433.431,4.533,4.313,4.314v1.186H259.96V43.752c3.106.088,3.622-.925,3.622-3.787V20.16a5.422,5.422,0,0,0-3.622-1.409V17.563h7.8L287,38.293V22.537c0-3.3-.518-3.829-4.27-3.786V17.563h10.436v1.189c-2.888,0-3.794.529-3.794,3.873V45.2h-2.328Z" transform="translate(-15.286 -8.001)"/><path class="cls-1" d="M295.476,17.563h12.032v1.189c-2.89,0-3.709.66-3.709,3.786V39.659c0,3.3.6,4.181,3.709,4.093v1.186H295.476V43.752c3.407.088,3.536-1.277,3.536-3.787V22.052c0-2.377-.559-3.345-3.536-3.3V17.563" transform="translate(-15.286 -8.001)"/><path class="cls-1" d="M295.476,17.563h12.032v1.189c-2.89,0-3.709.66-3.709,3.786V39.659c0,3.3.6,4.181,3.709,4.093v1.186H295.476V43.752c3.407.088,3.536-1.277,3.536-3.787V22.052c0-2.377-.559-3.345-3.536-3.3Z" transform="translate(-15.286 -8.001)"/><path class="cls-1" d="M311.41,22.14c-1.209-3.036-1.684-3.388-4.443-3.388V17.563h13.283v1.189c-3.538.044-4.142.967-4.142,1.892a7.971,7.971,0,0,0,.69,2.641l6.514,16.33,6.34-15.582a9.647,9.647,0,0,0,.992-3.39c0-1.452-1.123-1.892-3.882-1.892V17.563h10.479v1.189c-3.063,0-3.621,1.629-5,5.017l-8.927,21.875H320.68l-9.271-23.5" transform="translate(-15.286 -8.001)"/><path class="cls-1" d="M311.41,22.14c-1.209-3.036-1.684-3.388-4.443-3.388V17.563h13.283v1.189c-3.538.044-4.142.967-4.142,1.892a7.971,7.971,0,0,0,.69,2.641l6.514,16.33,6.34-15.582a9.647,9.647,0,0,0,.992-3.39c0-1.452-1.123-1.892-3.882-1.892V17.563h10.479v1.189c-3.063,0-3.621,1.629-5,5.017l-8.927,21.875H320.68Z" transform="translate(-15.286 -8.001)"/><path class="cls-1" d="M335.694,44.938V43.752c3.493,0,4.355-.574,4.355-3.038V21.745c0-2.906-1.423-2.993-4.355-2.993V17.563H357.73l.389,6.6h-1.166l-.216-.925c-.862-3.61-1.552-3.7-4.311-3.7h-7.591V29.8h6.684c2.5,0,2.976-.309,3.234-3.345h1.165V35.3h-1.165c-.3-3.125-.863-3.521-3.234-3.521h-6.684v8.01c0,2.728.344,3.17,2.544,3.17h4.787c4.357,0,5.219-.617,6.383-4.929h1.166l-.648,6.908H335.694" transform="translate(-15.286 -8.001)"/><path class="cls-1" d="M335.694,44.938V43.752c3.493,0,4.355-.574,4.355-3.038V21.745c0-2.906-1.423-2.993-4.355-2.993V17.563H357.73l.389,6.6h-1.166l-.216-.925c-.862-3.61-1.552-3.7-4.311-3.7h-7.591V29.8h6.684c2.5,0,2.976-.309,3.234-3.345h1.165V35.3h-1.165c-.3-3.125-.863-3.521-3.234-3.521h-6.684v8.01c0,2.728.344,3.17,2.544,3.17h4.787c4.357,0,5.219-.617,6.383-4.929h1.166l-.648,6.908Z" transform="translate(-15.286 -8.001)"/><path class="cls-1" d="M369.561,32.217c.3.044,1.123.131,1.38.131,5.735-.264,7.72-2.508,7.72-7,0-4.443-2.328-7.085-7.031-7.085a12.95,12.95,0,0,0-2.07.177Zm0,7.042c0,3.785.475,4.489,4.4,4.358V44.8h-13.2V43.617c3.622.131,4.011-.881,4.011-3.787V22.182c0-2.861-.474-3.566-4.011-3.566V17.428c.991,0,3.19-.176,6.167-.309,2.285-.088,4.4-.088,5.26-.088,8.713,0,11.688,3.874,11.688,7.879,0,3.257-1.81,5.634-5.434,7.174a41.3,41.3,0,0,1,3.234,3.036l2.8,2.862c3.837,3.917,6.769,5.678,10.348,6.073v1.234c-8.5.219-10.609-1.321-14.491-5.283l-2.284-2.332a33.578,33.578,0,0,0-4.658-4.226,22.229,22.229,0,0,1-3.838,0v5.81Z" transform="translate(-15.286 -8.001)"/><path class="cls-1" d="M369.561,32.217c.3.044,1.123.131,1.38.131,5.735-.264,7.72-2.508,7.72-7,0-4.443-2.328-7.085-7.031-7.085a12.95,12.95,0,0,0-2.07.177Zm0,7.042c0,3.785.475,4.489,4.4,4.358V44.8h-13.2V43.617c3.622.131,4.011-.881,4.011-3.787V22.182c0-2.861-.474-3.566-4.011-3.566V17.428c.991,0,3.19-.176,6.167-.309,2.285-.088,4.4-.088,5.26-.088,8.713,0,11.688,3.874,11.688,7.879,0,3.257-1.81,5.634-5.434,7.174a41.3,41.3,0,0,1,3.234,3.036l2.8,2.862c3.837,3.917,6.769,5.678,10.348,6.073v1.234c-8.5.219-10.609-1.321-14.491-5.283l-2.284-2.332a33.578,33.578,0,0,0-4.658-4.226,22.229,22.229,0,0,1-3.838,0Z" transform="translate(-15.286 -8.001)"/><path class="cls-1" d="M390.013,37.893h1.293c1.08,4.049,3.753,6.338,7.462,6.338,3.148,0,5.347-1.891,5.347-4.533,0-6.162-13.584-8.583-13.584-16.24,0-3.785,3.276-6.425,7.892-6.425a15.764,15.764,0,0,1,3.321.351,11.52,11.52,0,0,0,2.284.352,1.369,1.369,0,0,0,1.207-.527h1.08l.948,6.82h-1.294c-1.293-3.476-3.968-5.588-7.029-5.588-2.759,0-4.226,1.672-4.226,3.608,0,5.9,13.628,7.658,13.628,16.154,0,4.532-3.752,7.613-9.272,7.613-3.235,0-4.572-.792-5.779-.792a1.377,1.377,0,0,0-1.165.485h-1.034l-1.079-7.615" transform="translate(-15.286 -8.001)"/><path class="cls-1" d="M390.013,37.893h1.293c1.08,4.049,3.753,6.338,7.462,6.338,3.148,0,5.347-1.891,5.347-4.533,0-6.162-13.584-8.583-13.584-16.24,0-3.785,3.276-6.425,7.892-6.425a15.764,15.764,0,0,1,3.321.351,11.52,11.52,0,0,0,2.284.352,1.369,1.369,0,0,0,1.207-.527h1.08l.948,6.82h-1.294c-1.293-3.476-3.968-5.588-7.029-5.588-2.759,0-4.226,1.672-4.226,3.608,0,5.9,13.628,7.658,13.628,16.154,0,4.532-3.752,7.613-9.272,7.613-3.235,0-4.572-.792-5.779-.792a1.377,1.377,0,0,0-1.165.485h-1.034Z" transform="translate(-15.286 -8.001)"/><path class="cls-1" d="M410.905,17.563h12.032v1.189c-2.889,0-3.708.66-3.708,3.786V39.659c0,3.3.6,4.181,3.708,4.093v1.186H410.905V43.752c3.408.088,3.536-1.277,3.536-3.787V22.052c0-2.377-.56-3.345-3.536-3.3V17.563" transform="translate(-15.286 -8.001)"/><path class="cls-1" d="M410.905,17.563h12.032v1.189c-2.889,0-3.708.66-3.708,3.786V39.659c0,3.3.6,4.181,3.708,4.093v1.186H410.905V43.752c3.408.088,3.536-1.277,3.536-3.787V22.052c0-2.377-.56-3.345-3.536-3.3Z" transform="translate(-15.286 -8.001)"/><path class="cls-1" d="M426.306,17.032h1.165c.172.309.3.529.689.617a10.545,10.545,0,0,0,2.115.131h18.241c2.2,0,2.545-.088,2.8-.749h1.163l.775,7.571h-1.25c-.6-4.578-1.465-4.842-4.054-4.842h-6.166v20.73c0,2.992.474,3.478,5,3.478v1.186H432V43.969c4.313,0,5-.574,5-3.478V19.761h-6.166c-2.545,0-3.407.264-4.055,4.842h-1.25l.776-7.571" transform="translate(-15.286 -8.001)"/><path class="cls-1" d="M426.306,17.032h1.165c.172.309.3.529.689.617a10.545,10.545,0,0,0,2.115.131h18.241c2.2,0,2.545-.088,2.8-.749h1.163l.775,7.571h-1.25c-.6-4.578-1.465-4.842-4.054-4.842h-6.166v20.73c0,2.992.474,3.478,5,3.478v1.186H432V43.969c4.313,0,5-.574,5-3.478V19.761h-6.166c-2.545,0-3.407.264-4.055,4.842h-1.25Z" transform="translate(-15.286 -8.001)"/><path class="cls-1" d="M457.557,22.317c-2.155-3.17-2.716-3.434-5.39-3.566V17.563h12.98v1.189c-2.329,0-3.02.484-3.02,1.276,0,.571.346,1.32,1.468,2.948l5.649,8.23,4.916-7.965c.992-1.629,1.424-2.508,1.424-3.125,0-.969-.82-1.365-2.761-1.365V17.563h10.135v1.189c-3.148.352-3.925.924-6.684,5.458L470.452,33.8v6.118c0,3.257.517,3.831,4.1,3.831v1.186H461.525V43.752c3.278,0,4.14-.309,4.14-3.962V34.2l-8.108-11.882" transform="translate(-15.286 -8.001)"/><path class="cls-1" d="M457.557,22.317c-2.155-3.17-2.716-3.434-5.39-3.566V17.563h12.98v1.189c-2.329,0-3.02.484-3.02,1.276,0,.571.346,1.32,1.468,2.948l5.649,8.23,4.916-7.965c.992-1.629,1.424-2.508,1.424-3.125,0-.969-.82-1.365-2.761-1.365V17.563h10.135v1.189c-3.148.352-3.925.924-6.684,5.458L470.452,33.8v6.118c0,3.257.517,3.831,4.1,3.831v1.186H461.525V43.752c3.278,0,4.14-.309,4.14-3.962V34.2Z" transform="translate(-15.286 -8.001)"/></svg>