<svg xmlns="http://www.w3.org/2000/svg" width="500" height="100" viewBox="0 0 500 100">
  <g fill="none" fill-rule="evenodd" transform="translate(15 8)">
    <g transform="translate(46.07 56.83)">
      <path fill="#FFFFFF" d="M15.9811032,11.726616 L15.9811032,3.50529246 L15.9183117,3.50529246 L10.0893907,11.726616 L15.9811032,11.726616 Z M0.498323982,20.3572321 C2.10151106,20.3572321 3.18099035,19.6014051 4.69199417,17.4908197 L16.4112917,1.11365952 L19.0939581,1.11365952 L19.0939581,18.1511451 C19.0939581,19.9793186 19.5575463,20.3572321 21.7779604,20.3572321 L21.6243217,21.2071963 L12.649146,21.2071963 L12.8041208,20.3572321 C15.5175149,20.3572321 15.9811032,19.6014051 15.9811032,17.018769 L15.9811032,13.2082551 L9.00991136,13.2082551 L6.5116115,16.7022494 C5.49358771,18.119766 5.1849742,18.8428495 5.1849742,19.1293543 C5.1849742,20.104835 6.04935923,20.3572321 7.65388229,20.3572321 L7.49890754,21.2071963 L0.343349232,21.2071963 L0.498323982,20.3572321 L0.498323982,20.3572321 Z"/>
      <path stroke="#FFFFFF" stroke-width=".428" d="M15.9811032,11.726616 L15.9811032,3.50529246 L15.9183117,3.50529246 L10.0893907,11.726616 L15.9811032,11.726616 Z M0.498323982,20.3572321 C2.10151106,20.3572321 3.18099035,19.6014051 4.69199417,17.4908197 L16.4112917,1.11365952 L19.0939581,1.11365952 L19.0939581,18.1511451 C19.0939581,19.9793186 19.5575463,20.3572321 21.7779604,20.3572321 L21.6243217,21.2071963 L12.649146,21.2071963 L12.8041208,20.3572321 C15.5175149,20.3572321 15.9811032,19.6014051 15.9811032,17.018769 L15.9811032,13.2082551 L9.00991136,13.2082551 L6.5116115,16.7022494 C5.49358771,18.119766 5.1849742,18.8428495 5.1849742,19.1293543 C5.1849742,20.104835 6.04935923,20.3572321 7.65388229,20.3572321 L7.49890754,21.2071963 L0.343349232,21.2071963 L0.498323982,20.3572321 Z"/>
      <path fill="#FFFFFF" d="M30.7811918,21.5523664 L34.481882,3.09599989 C34.604793,2.53117613 34.5740653,2.53117613 34.5740653,2.40293113 C34.5740653,2.08914015 34.4511543,1.89950126 34.2654517,1.89950126 C34.0196297,1.89950126 33.0937892,2.40293113 32.5700814,2.7808446 L32.2307402,2.18464175 C33.741744,1.14231 36.3322271,0.0726920667 36.9187264,0.0726920667 C37.2580676,0.0726920667 37.4117064,0.293710057 37.4117064,0.734381729 C37.4117064,1.1750534 37.3502509,1.55296688 37.0416374,3.09599989 L34.6983123,14.719909 L34.7597678,14.7826672 C38.3990024,10.0266875 40.3722585,8.19851398 41.6067126,8.19851398 C42.4697616,8.19851398 42.9320139,8.86020365 42.9320139,9.99530839 C42.9320139,10.5001026 42.9012861,10.9407742 42.6541281,11.854861 L40.8358468,19.0652318 C40.7129358,19.5686617 40.803783,19.8538022 41.0816688,19.8538022 C41.4210101,19.8538022 42.0382371,19.2535064 43.4557217,17.4580763 L43.9807654,17.9314914 C42.2226036,20.23308 40.556625,21.5523664 39.4170262,21.5523664 C38.6461604,21.5523664 38.1518444,21.0489365 38.1518444,20.2630948 C38.1518444,19.8538022 38.1518444,19.5059035 38.4911857,18.1511451 L39.9714617,12.2941683 C40.1264365,11.6652221 40.187892,11.1590636 40.187892,10.8766517 C40.187892,10.5628608 40.063645,10.3418428 39.8485507,10.3418428 C38.8919824,10.3418428 35.9621581,14.1523566 34.3896987,16.3257002 L33.3409472,21.5523664 L30.7811918,21.5523664"/>
      <path stroke="#FFFFFF" stroke-width=".428" d="M30.7811918,21.5523664 L34.481882,3.09599989 C34.604793,2.53117613 34.5740653,2.53117613 34.5740653,2.40293113 C34.5740653,2.08914015 34.4511543,1.89950126 34.2654517,1.89950126 C34.0196297,1.89950126 33.0937892,2.40293113 32.5700814,2.7808446 L32.2307402,2.18464175 C33.741744,1.14231 36.3322271,0.0726920667 36.9187264,0.0726920667 C37.2580676,0.0726920667 37.4117064,0.293710057 37.4117064,0.734381729 C37.4117064,1.1750534 37.3502509,1.55296688 37.0416374,3.09599989 L34.6983123,14.719909 L34.7597678,14.7826672 C38.3990024,10.0266875 40.3722585,8.19851398 41.6067126,8.19851398 C42.4697616,8.19851398 42.9320139,8.86020365 42.9320139,9.99530839 C42.9320139,10.5001026 42.9012861,10.9407742 42.6541281,11.854861 L40.8358468,19.0652318 C40.7129358,19.5686617 40.803783,19.8538022 41.0816688,19.8538022 C41.4210101,19.8538022 42.0382371,19.2535064 43.4557217,17.4580763 L43.9807654,17.9314914 C42.2226036,20.23308 40.556625,21.5523664 39.4170262,21.5523664 C38.6461604,21.5523664 38.1518444,21.0489365 38.1518444,20.2630948 C38.1518444,19.8538022 38.1518444,19.5059035 38.4911857,18.1511451 L39.9714617,12.2941683 C40.1264365,11.6652221 40.187892,11.1590636 40.187892,10.8766517 C40.187892,10.5628608 40.063645,10.3418428 39.8485507,10.3418428 C38.8919824,10.3418428 35.9621581,14.1523566 34.3896987,16.3257002 L33.3409472,21.5523664 L30.7811918,21.5523664 Z"/>
      <path fill="#FFFFFF" d="M51.8764618,2.75082981 C51.8764618,4.23110463 51.0428045,5.52310485 50.0875722,5.52310485 C49.3781619,5.52310485 48.8838459,4.92280908 48.8838459,4.07284483 C48.8838459,2.65532821 49.8096864,1.3333132 50.7662547,1.3333132 C51.4436013,1.3333132 51.8764618,1.89950126 51.8764618,2.75082981 Z M51.3821458,18.340784 C49.4396174,20.4199903 48.0528606,21.5523664 47.0027731,21.5523664 C46.2933628,21.5523664 45.893902,21.1144233 45.893902,20.2944739 C45.893902,20.0106977 45.9540215,19.4117662 46.0462048,19.0024736 L47.5585446,11.4769475 C47.6200001,11.1304131 47.6814556,10.6883771 47.4035698,10.6883771 C47.1256841,10.6883771 46.632704,11.1304131 45.7081995,12.1058938 L45.2138835,11.4769475 C47.6814556,9.17535893 48.8223904,8.19851398 49.6253199,8.19851398 C50.1797554,8.19851398 50.488369,8.54504836 50.488369,9.14534414 C50.488369,9.39501261 50.4576412,9.7742904 50.3654579,10.2463412 L48.6994794,18.5918168 C48.6380239,18.9083364 48.6072961,19.0024736 48.6072961,19.1293543 C48.6072961,19.349008 48.7302071,19.5059035 48.8838459,19.5059035 C49.2552509,19.5059035 50.0568444,18.6573036 50.8891657,17.7732316 L51.3821458,18.340784 L51.3821458,18.340784 Z"/>
      <path stroke="#FFFFFF" stroke-width=".428" d="M51.8764618,2.75082981 C51.8764618,4.23110463 51.0428045,5.52310485 50.0875722,5.52310485 C49.3781619,5.52310485 48.8838459,4.92280908 48.8838459,4.07284483 C48.8838459,2.65532821 49.8096864,1.3333132 50.7662547,1.3333132 C51.4436013,1.3333132 51.8764618,1.89950126 51.8764618,2.75082981 Z M51.3821458,18.340784 C49.4396174,20.4199903 48.0528606,21.5523664 47.0027731,21.5523664 C46.2933628,21.5523664 45.893902,21.1144233 45.893902,20.2944739 C45.893902,20.0106977 45.9540215,19.4117662 46.0462048,19.0024736 L47.5585446,11.4769475 C47.6200001,11.1304131 47.6814556,10.6883771 47.4035698,10.6883771 C47.1256841,10.6883771 46.632704,11.1304131 45.7081995,12.1058938 L45.2138835,11.4769475 C47.6814556,9.17535893 48.8223904,8.19851398 49.6253199,8.19851398 C50.1797554,8.19851398 50.488369,8.54504836 50.488369,9.14534414 C50.488369,9.39501261 50.4576412,9.7742904 50.3654579,10.2463412 L48.6994794,18.5918168 C48.6380239,18.9083364 48.6072961,19.0024736 48.6072961,19.1293543 C48.6072961,19.349008 48.7302071,19.5059035 48.8838459,19.5059035 C49.2552509,19.5059035 50.0568444,18.6573036 50.8891657,17.7732316 L51.3821458,18.340784 Z"/>
      <path fill="#FFFFFF" d="M60.3573214,12.1672877 C60.3573214,10.2163264 59.8643414,9.17535893 58.8770453,9.17535893 C57.057428,9.17535893 55.7628544,13.0199805 55.7628544,15.3802344 C55.7628544,17.018769 56.4094732,18.0583721 57.427497,18.0583721 C58.7848621,18.0583721 60.3573214,16.1674404 60.3573214,12.1672877 Z M51.5063928,25.6780355 C51.5063928,27.0027792 53.0173966,27.8186357 55.5464242,27.8186357 C57.9525408,27.8186357 59.6799749,27.2524476 59.6799749,26.4352268 C59.6799749,26.2142088 59.5864556,26.0259342 59.3085698,25.7435224 C58.5991596,25.0177102 57.2110668,24.4829012 54.8062861,22.4364384 C52.6152638,23.411919 51.5063928,24.5142803 51.5063928,25.6780355 Z M62.3626412,9.89844248 C62.8248935,10.8766517 63.010596,11.6652221 63.010596,12.513822 C63.010596,13.5234104 62.640527,15.2233389 61.3753452,16.5139748 C59.4020891,18.5304229 56.1329235,19.1293543 56.1329235,19.9138318 C56.1329235,20.8934053 59.7093666,22.4364384 61.1909787,23.946728 C61.899053,24.6725401 62.0233,25.17597 62.0233,25.489761 C62.0233,27.3179345 59.3406336,28.5130688 55.2378107,28.5130688 C51.5063928,28.5130688 49.1002761,27.5389524 49.1002761,26.0259342 C49.1002761,24.7653131 50.5805522,23.8512264 54.3747616,21.8975365 C54.1276036,21.5851098 54.0648121,21.3654561 54.0648121,21.0816799 C54.0648121,20.4513694 54.5898559,19.8865456 55.9164932,19.0966109 C55.0534442,18.78282 54.3440339,18.2152676 53.8804456,17.5221988 C53.3874656,16.797751 53.1109158,15.9477867 53.1109158,15.0036852 C53.1109158,11.6952369 56.7795422,8.19851398 60.2958659,8.19851398 C60.7273904,8.19851398 61.1281872,8.22989308 61.8068697,8.35813809 L64.1208031,8.35813809 L64.1208031,10.0894457 L62.3626412,9.89844248 L62.3626412,9.89844248 Z"/>
      <path stroke="#FFFFFF" stroke-width=".428" d="M60.3573214,12.1672877 C60.3573214,10.2163264 59.8643414,9.17535893 58.8770453,9.17535893 C57.057428,9.17535893 55.7628544,13.0199805 55.7628544,15.3802344 C55.7628544,17.018769 56.4094732,18.0583721 57.427497,18.0583721 C58.7848621,18.0583721 60.3573214,16.1674404 60.3573214,12.1672877 Z M51.5063928,25.6780355 C51.5063928,27.0027792 53.0173966,27.8186357 55.5464242,27.8186357 C57.9525408,27.8186357 59.6799749,27.2524476 59.6799749,26.4352268 C59.6799749,26.2142088 59.5864556,26.0259342 59.3085698,25.7435224 C58.5991596,25.0177102 57.2110668,24.4829012 54.8062861,22.4364384 C52.6152638,23.411919 51.5063928,24.5142803 51.5063928,25.6780355 Z M62.3626412,9.89844248 C62.8248935,10.8766517 63.010596,11.6652221 63.010596,12.513822 C63.010596,13.5234104 62.640527,15.2233389 61.3753452,16.5139748 C59.4020891,18.5304229 56.1329235,19.1293543 56.1329235,19.9138318 C56.1329235,20.8934053 59.7093666,22.4364384 61.1909787,23.946728 C61.899053,24.6725401 62.0233,25.17597 62.0233,25.489761 C62.0233,27.3179345 59.3406336,28.5130688 55.2378107,28.5130688 C51.5063928,28.5130688 49.1002761,27.5389524 49.1002761,26.0259342 C49.1002761,24.7653131 50.5805522,23.8512264 54.3747616,21.8975365 C54.1276036,21.5851098 54.0648121,21.3654561 54.0648121,21.0816799 C54.0648121,20.4513694 54.5898559,19.8865456 55.9164932,19.0966109 C55.0534442,18.78282 54.3440339,18.2152676 53.8804456,17.5221988 C53.3874656,16.797751 53.1109158,15.9477867 53.1109158,15.0036852 C53.1109158,11.6952369 56.7795422,8.19851398 60.2958659,8.19851398 C60.7273904,8.19851398 61.1281872,8.22989308 61.8068697,8.35813809 L64.1208031,8.35813809 L64.1208031,10.0894457 L62.3626412,9.89844248 Z"/>
      <path fill="#FFFFFF" d="M64.6752386,21.5523664 L68.3759287,3.09599989 C68.4988398,2.53117613 68.468112,2.53117613 68.468112,2.40293113 C68.468112,2.08914015 68.345201,1.89950126 68.1594985,1.89950126 C67.9123405,1.89950126 66.9878359,2.40293113 66.4641282,2.7808446 L66.1247869,2.18464175 C67.6357907,1.14231 70.2262738,0.0726920667 70.8114371,0.0726920667 C71.1507784,0.0726920667 71.3057531,0.293710057 71.3057531,0.734381729 C71.3057531,1.1750534 71.2442976,1.55296688 70.9356841,3.09599989 L68.591023,14.719909 L68.6538145,14.7826672 C72.2917132,10.0266875 74.2663053,8.19851398 75.4994233,8.19851398 C76.3638083,8.19851398 76.8260606,8.86020365 76.8260606,9.99530839 C76.8260606,10.5001026 76.7953329,10.9407742 76.5481749,11.854861 L74.7298935,19.0652318 C74.6056465,19.5686617 74.6978298,19.8538022 74.9757155,19.8538022 C75.3150568,19.8538022 75.9322838,19.2535064 77.3511044,17.4580763 L77.8748122,17.9314914 C76.1166503,20.23308 74.4520078,21.5523664 73.311073,21.5523664 C72.5388712,21.5523664 72.0458912,21.0489365 72.0458912,20.2630948 C72.0458912,19.8538022 72.0458912,19.5059035 72.3852324,18.1511451 L73.8655085,12.2941683 C74.0204832,11.6652221 74.0819387,11.1590636 74.0819387,10.8766517 C74.0819387,10.5628608 73.9576917,10.3418428 73.7425975,10.3418428 C72.7860292,10.3418428 69.8562048,14.1523566 68.2824095,16.3257002 L67.2349939,21.5523664 L64.6752386,21.5523664"/>
      <path stroke="#FFFFFF" stroke-width=".428" d="M64.6752386,21.5523664 L68.3759287,3.09599989 C68.4988398,2.53117613 68.468112,2.53117613 68.468112,2.40293113 C68.468112,2.08914015 68.345201,1.89950126 68.1594985,1.89950126 C67.9123405,1.89950126 66.9878359,2.40293113 66.4641282,2.7808446 L66.1247869,2.18464175 C67.6357907,1.14231 70.2262738,0.0726920667 70.8114371,0.0726920667 C71.1507784,0.0726920667 71.3057531,0.293710057 71.3057531,0.734381729 C71.3057531,1.1750534 71.2442976,1.55296688 70.9356841,3.09599989 L68.591023,14.719909 L68.6538145,14.7826672 C72.2917132,10.0266875 74.2663053,8.19851398 75.4994233,8.19851398 C76.3638083,8.19851398 76.8260606,8.86020365 76.8260606,9.99530839 C76.8260606,10.5001026 76.7953329,10.9407742 76.5481749,11.854861 L74.7298935,19.0652318 C74.6056465,19.5686617 74.6978298,19.8538022 74.9757155,19.8538022 C75.3150568,19.8538022 75.9322838,19.2535064 77.3511044,17.4580763 L77.8748122,17.9314914 C76.1166503,20.23308 74.4520078,21.5523664 73.311073,21.5523664 C72.5388712,21.5523664 72.0458912,21.0489365 72.0458912,20.2630948 C72.0458912,19.8538022 72.0458912,19.5059035 72.3852324,18.1511451 L73.8655085,12.2941683 C74.0204832,11.6652221 74.0819387,11.1590636 74.0819387,10.8766517 C74.0819387,10.5628608 73.9576917,10.3418428 73.7425975,10.3418428 C72.7860292,10.3418428 69.8562048,14.1523566 68.2824095,16.3257002 L67.2349939,21.5523664 L64.6752386,21.5523664 Z"/>
      <path fill="#FFFFFF" d="M86.9101073,10.404601 C86.9101073,9.5519081 86.572102,9.01982775 86.0176665,9.01982775 C84.6295737,9.01982775 83.3643919,11.0021681 82.3770959,14.6557865 C85.460559,13.6475625 86.9101073,12.2941683 86.9101073,10.404601 Z M88.2060169,19.2221273 C86.5106465,20.671023 84.4131435,21.5523664 82.7471649,21.5523664 C80.5895423,21.5523664 79.2014495,19.9138318 79.2014495,17.3966824 C79.2014495,12.6720818 82.8700759,8.19851398 86.7564686,8.19851398 C88.3917194,8.19851398 89.4391349,8.98708434 89.4391349,10.2163264 C89.4391349,12.4838072 86.6335576,14.0895984 82.2234571,15.4116135 C82.0377546,15.9477867 81.9455713,16.6081121 81.9455713,17.2370583 C81.9455713,19.0652318 82.9021396,20.2630948 84.3196242,20.2630948 C85.2454647,20.2630948 86.3556718,19.7282858 87.8372838,18.6573036 L88.2060169,19.2221273 L88.2060169,19.2221273 Z"/>
      <path stroke="#FFFFFF" stroke-width=".428" d="M86.9101073,10.404601 C86.9101073,9.5519081 86.572102,9.01982775 86.0176665,9.01982775 C84.6295737,9.01982775 83.3643919,11.0021681 82.3770959,14.6557865 C85.460559,13.6475625 86.9101073,12.2941683 86.9101073,10.404601 Z M88.2060169,19.2221273 C86.5106465,20.671023 84.4131435,21.5523664 82.7471649,21.5523664 C80.5895423,21.5523664 79.2014495,19.9138318 79.2014495,17.3966824 C79.2014495,12.6720818 82.8700759,8.19851398 86.7564686,8.19851398 C88.3917194,8.19851398 89.4391349,8.98708434 89.4391349,10.2163264 C89.4391349,12.4838072 86.6335576,14.0895984 82.2234571,15.4116135 C82.0377546,15.9477867 81.9455713,16.6081121 81.9455713,17.2370583 C81.9455713,19.0652318 82.9021396,20.2630948 84.3196242,20.2630948 C85.2454647,20.2630948 86.3556718,19.7282858 87.8372838,18.6573036 L88.2060169,19.2221273 Z"/>
      <path fill="#FFFFFF" d="M90.8606275,11.3487025 C92.6815808,9.23811712 94.0068821,8.19851398 94.8699311,8.19851398 C95.4564304,8.19851398 95.7957717,8.63918566 95.7957717,9.33498303 C95.7957717,10.3732219 95.3949749,12.3269118 95.1478169,13.3023924 L94.1925846,16.9873899 L94.4998621,16.9873899 L95.7957717,13.4879384 C97.0288897,10.1522039 98.3875908,8.19851398 99.7436199,8.19851398 C100.391575,8.19851398 100.760308,8.63918566 100.760308,9.42912033 C100.760308,10.3732219 100.235264,11.1304131 99.5899811,11.1304131 C99.2506398,11.1304131 98.8485071,10.9407742 98.5398936,10.9407742 C97.8318193,10.9407742 97.0609535,11.7579951 96.1351129,14.3733746 L94.2233124,19.7569363 C93.6982686,21.2713188 94.0376099,21.5523664 93.3589273,21.5523664 L91.786468,21.5523664 C91.293488,21.5523664 91.1999687,21.334077 91.3549435,20.6109935 L93.2052886,11.3487025 C93.2974718,10.8452726 93.2360163,10.5301174 92.9581306,10.5301174 C92.7430363,10.5301174 92.0643538,11.1304131 91.3843353,11.8835115 L90.8606275,11.3487025"/>
      <path stroke="#FFFFFF" stroke-width=".428" d="M90.8606275,11.3487025 C92.6815808,9.23811712 94.0068821,8.19851398 94.8699311,8.19851398 C95.4564304,8.19851398 95.7957717,8.63918566 95.7957717,9.33498303 C95.7957717,10.3732219 95.3949749,12.3269118 95.1478169,13.3023924 L94.1925846,16.9873899 L94.4998621,16.9873899 L95.7957717,13.4879384 C97.0288897,10.1522039 98.3875908,8.19851398 99.7436199,8.19851398 C100.391575,8.19851398 100.760308,8.63918566 100.760308,9.42912033 C100.760308,10.3732219 100.235264,11.1304131 99.5899811,11.1304131 C99.2506398,11.1304131 98.8485071,10.9407742 98.5398936,10.9407742 C97.8318193,10.9407742 97.0609535,11.7579951 96.1351129,14.3733746 L94.2233124,19.7569363 C93.6982686,21.2713188 94.0376099,21.5523664 93.3589273,21.5523664 L91.786468,21.5523664 C91.293488,21.5523664 91.1999687,21.334077 91.3549435,20.6109935 L93.2052886,11.3487025 C93.2974718,10.8452726 93.2360163,10.5301174 92.9581306,10.5301174 C92.7430363,10.5301174 92.0643538,11.1304131 91.3843353,11.8835115 L90.8606275,11.3487025 Z"/>
      <path fill="#FFFFFF" d="M116.022649,11.2231861 C115.529669,9.93118588 114.911106,9.30223963 114.110848,9.30223963 C113.740779,9.30223963 113.247799,9.52325762 112.876394,9.89844248 C111.519029,11.2873086 110.502341,14.6898942 110.502341,17.3653033 C110.502341,18.7186975 110.780227,19.5686617 111.273207,19.5686617 C111.735459,19.5686617 113.432165,17.8046107 115.250447,15.0964582 L116.022649,11.2231861 Z M119.414725,18.1838885 C117.871658,20.2944739 116.331262,21.5523664 115.345302,21.5523664 C114.697347,21.5523664 114.296551,21.1444381 114.296551,20.3886112 C114.296551,19.7896797 114.697347,17.9014766 114.911106,16.890524 L114.84965,16.8291301 C112.538389,20.1362141 110.965929,21.5523664 109.607228,21.5523664 C108.558477,21.5523664 107.756883,19.9793186 107.756883,17.9014766 C107.756883,12.3582909 112.383414,8.19851398 114.635892,8.19851398 C115.345302,8.19851398 115.838282,8.45091107 116.454173,9.11260073 L117.595108,3.38114038 C117.842266,2.12051925 117.78081,1.86812216 117.441469,1.86812216 C117.194311,1.86812216 116.269807,2.40293113 115.345302,3.0659851 L115.06608,2.40293113 C117.0714,1.04953701 119.168903,0.0726920667 120.031952,0.0726920667 C120.403357,0.0726920667 120.556996,0.293710057 120.556996,0.734381729 C120.556996,1.01952222 120.524932,1.48884438 120.371294,2.21329223 L117.257103,17.8046107 C117.163583,18.3080406 117.008609,18.9397155 117.008609,19.1293543 C117.008609,19.2862498 117.132856,19.4758887 117.257103,19.4758887 C117.472197,19.4758887 118.305854,18.5918168 118.889681,17.7118377 L119.414725,18.1838885 L119.414725,18.1838885 Z"/>
      <path stroke="#FFFFFF" stroke-width=".428" d="M116.022649,11.2231861 C115.529669,9.93118588 114.911106,9.30223963 114.110848,9.30223963 C113.740779,9.30223963 113.247799,9.52325762 112.876394,9.89844248 C111.519029,11.2873086 110.502341,14.6898942 110.502341,17.3653033 C110.502341,18.7186975 110.780227,19.5686617 111.273207,19.5686617 C111.735459,19.5686617 113.432165,17.8046107 115.250447,15.0964582 L116.022649,11.2231861 Z M119.414725,18.1838885 C117.871658,20.2944739 116.331262,21.5523664 115.345302,21.5523664 C114.697347,21.5523664 114.296551,21.1444381 114.296551,20.3886112 C114.296551,19.7896797 114.697347,17.9014766 114.911106,16.890524 L114.84965,16.8291301 C112.538389,20.1362141 110.965929,21.5523664 109.607228,21.5523664 C108.558477,21.5523664 107.756883,19.9793186 107.756883,17.9014766 C107.756883,12.3582909 112.383414,8.19851398 114.635892,8.19851398 C115.345302,8.19851398 115.838282,8.45091107 116.454173,9.11260073 L117.595108,3.38114038 C117.842266,2.12051925 117.78081,1.86812216 117.441469,1.86812216 C117.194311,1.86812216 116.269807,2.40293113 115.345302,3.0659851 L115.06608,2.40293113 C117.0714,1.04953701 119.168903,0.0726920667 120.031952,0.0726920667 C120.403357,0.0726920667 120.556996,0.293710057 120.556996,0.734381729 C120.556996,1.01952222 120.524932,1.48884438 120.371294,2.21329223 L117.257103,17.8046107 C117.163583,18.3080406 117.008609,18.9397155 117.008609,19.1293543 C117.008609,19.2862498 117.132856,19.4758887 117.257103,19.4758887 C117.472197,19.4758887 118.305854,18.5918168 118.889681,17.7118377 L119.414725,18.1838885 Z"/>
      <path fill="#FFFFFF" d="M128.914945,10.404601 C128.914945,9.5519081 128.574267,9.01982775 128.019832,9.01982775 C126.631739,9.01982775 125.366557,11.0021681 124.380597,14.6557865 C127.46406,13.6475625 128.914945,12.2941683 128.914945,10.404601 Z M130.209518,19.2221273 C128.512812,20.671023 126.415309,21.5523664 124.750666,21.5523664 C122.591708,21.5523664 121.203615,19.9138318 121.203615,17.3966824 C121.203615,12.6720818 124.873577,8.19851398 128.75997,8.19851398 C130.395221,8.19851398 131.443972,8.98708434 131.443972,10.2163264 C131.443972,12.4838072 128.637059,14.0895984 124.226958,15.4116135 C124.041256,15.9477867 123.950409,16.6081121 123.950409,17.2370583 C123.950409,19.0652318 124.904305,20.2630948 126.324462,20.2630948 C127.250302,20.2630948 128.357837,19.7282858 129.840785,18.6573036 L130.209518,19.2221273 L130.209518,19.2221273 Z"/>
      <path stroke="#FFFFFF" stroke-width=".428" d="M128.914945,10.404601 C128.914945,9.5519081 128.574267,9.01982775 128.019832,9.01982775 C126.631739,9.01982775 125.366557,11.0021681 124.380597,14.6557865 C127.46406,13.6475625 128.914945,12.2941683 128.914945,10.404601 Z M130.209518,19.2221273 C128.512812,20.671023 126.415309,21.5523664 124.750666,21.5523664 C122.591708,21.5523664 121.203615,19.9138318 121.203615,17.3966824 C121.203615,12.6720818 124.873577,8.19851398 128.75997,8.19851398 C130.395221,8.19851398 131.443972,8.98708434 131.443972,10.2163264 C131.443972,12.4838072 128.637059,14.0895984 124.226958,15.4116135 C124.041256,15.9477867 123.950409,16.6081121 123.950409,17.2370583 C123.950409,19.0652318 124.904305,20.2630948 126.324462,20.2630948 C127.250302,20.2630948 128.357837,19.7282858 129.840785,18.6573036 L130.209518,19.2221273 Z"/>
      <path fill="#FFFFFF" d="M139.585491,12.1672877 C139.585491,10.2163264 139.092511,9.17535893 138.103879,9.17535893 C136.285597,9.17535893 134.989688,13.0199805 134.989688,15.3802344 C134.989688,17.018769 135.638978,18.0583721 136.657002,18.0583721 C138.013031,18.0583721 139.585491,16.1674404 139.585491,12.1672877 Z M130.734562,25.6780355 C130.734562,27.0027792 132.24423,27.8186357 134.775929,27.8186357 C137.18071,27.8186357 138.906808,27.2524476 138.906808,26.4352268 C138.906808,26.2142088 138.813289,26.0259342 138.536739,25.7435224 C137.827329,25.0177102 136.439236,24.4829012 134.034455,22.4364384 C131.843433,23.411919 130.734562,24.5142803 130.734562,25.6780355 Z M141.59081,9.89844248 C142.053063,10.8766517 142.238765,11.6652221 142.238765,12.513822 C142.238765,13.5234104 141.86736,15.2233389 140.603514,16.5139748 C138.628922,18.5304229 135.359757,19.1293543 135.359757,19.9138318 C135.359757,20.8934053 138.938872,22.4364384 140.417812,23.946728 C141.127222,24.6725401 141.252805,25.17597 141.252805,25.489761 C141.252805,27.3179345 138.568803,28.5130688 134.464644,28.5130688 C130.734562,28.5130688 128.327109,27.5389524 128.327109,26.0259342 C128.327109,24.7653131 129.808721,23.8512264 133.601595,21.8975365 C133.355773,21.5851098 133.292981,21.3654561 133.292981,21.0816799 C133.292981,20.4513694 133.818025,19.8865456 135.143326,19.0966109 C134.280277,18.78282 133.570867,18.2152676 133.108615,17.5221988 C132.615635,16.797751 132.336413,15.9477867 132.336413,15.0036852 C132.336413,11.6952369 136.006376,8.19851398 139.524035,8.19851398 C139.95556,8.19851398 140.357692,8.22989308 141.035039,8.35813809 L143.348972,8.35813809 L143.348972,10.0894457 L141.59081,9.89844248 L141.59081,9.89844248 Z"/>
      <path stroke="#FFFFFF" stroke-width=".428" d="M139.585491,12.1672877 C139.585491,10.2163264 139.092511,9.17535893 138.103879,9.17535893 C136.285597,9.17535893 134.989688,13.0199805 134.989688,15.3802344 C134.989688,17.018769 135.638978,18.0583721 136.657002,18.0583721 C138.013031,18.0583721 139.585491,16.1674404 139.585491,12.1672877 Z M130.734562,25.6780355 C130.734562,27.0027792 132.24423,27.8186357 134.775929,27.8186357 C137.18071,27.8186357 138.906808,27.2524476 138.906808,26.4352268 C138.906808,26.2142088 138.813289,26.0259342 138.536739,25.7435224 C137.827329,25.0177102 136.439236,24.4829012 134.034455,22.4364384 C131.843433,23.411919 130.734562,24.5142803 130.734562,25.6780355 Z M141.59081,9.89844248 C142.053063,10.8766517 142.238765,11.6652221 142.238765,12.513822 C142.238765,13.5234104 141.86736,15.2233389 140.603514,16.5139748 C138.628922,18.5304229 135.359757,19.1293543 135.359757,19.9138318 C135.359757,20.8934053 138.938872,22.4364384 140.417812,23.946728 C141.127222,24.6725401 141.252805,25.17597 141.252805,25.489761 C141.252805,27.3179345 138.568803,28.5130688 134.464644,28.5130688 C130.734562,28.5130688 128.327109,27.5389524 128.327109,26.0259342 C128.327109,24.7653131 129.808721,23.8512264 133.601595,21.8975365 C133.355773,21.5851098 133.292981,21.3654561 133.292981,21.0816799 C133.292981,20.4513694 133.818025,19.8865456 135.143326,19.0966109 C134.280277,18.78282 133.570867,18.2152676 133.108615,17.5221988 C132.615635,16.797751 132.336413,15.9477867 132.336413,15.0036852 C132.336413,11.6952369 136.006376,8.19851398 139.524035,8.19851398 C139.95556,8.19851398 140.357692,8.22989308 141.035039,8.35813809 L143.348972,8.35813809 L143.348972,10.0894457 L141.59081,9.89844248 Z"/>
      <path fill="#FFFFFF" d="M143.685642,11.3487025 C145.506595,9.23811712 146.831896,8.19851398 147.697617,8.19851398 C148.281445,8.19851398 148.620786,8.63918566 148.620786,9.33498303 C148.620786,10.3732219 148.221325,12.3269118 147.974167,13.3023924 L147.016263,16.9873899 L147.326212,16.9873899 L148.620786,13.4879384 C149.853904,10.1522039 151.211269,8.19851398 152.56997,8.19851398 C153.216589,8.19851398 153.586658,8.63918566 153.586658,9.42912033 C153.586658,10.3732219 153.06295,11.1304131 152.414995,11.1304131 C152.07699,11.1304131 151.674857,10.9407742 151.36758,10.9407742 C150.658169,10.9407742 149.885968,11.7579951 148.960127,14.3733746 L147.048326,19.7569363 C146.523283,21.2713188 146.862624,21.5523664 146.183941,21.5523664 L144.611482,21.5523664 C144.119838,21.5523664 144.024983,21.334077 144.181294,20.6109935 L146.031639,11.3487025 C146.125158,10.8452726 146.062366,10.5301174 145.783145,10.5301174 C145.569386,10.5301174 144.890704,11.1304131 144.210685,11.8835115 L143.685642,11.3487025"/>
      <path stroke="#FFFFFF" stroke-width=".428" d="M143.685642,11.3487025 C145.506595,9.23811712 146.831896,8.19851398 147.697617,8.19851398 C148.281445,8.19851398 148.620786,8.63918566 148.620786,9.33498303 C148.620786,10.3732219 148.221325,12.3269118 147.974167,13.3023924 L147.016263,16.9873899 L147.326212,16.9873899 L148.620786,13.4879384 C149.853904,10.1522039 151.211269,8.19851398 152.56997,8.19851398 C153.216589,8.19851398 153.586658,8.63918566 153.586658,9.42912033 C153.586658,10.3732219 153.06295,11.1304131 152.414995,11.1304131 C152.07699,11.1304131 151.674857,10.9407742 151.36758,10.9407742 C150.658169,10.9407742 149.885968,11.7579951 148.960127,14.3733746 L147.048326,19.7569363 C146.523283,21.2713188 146.862624,21.5523664 146.183941,21.5523664 L144.611482,21.5523664 C144.119838,21.5523664 144.024983,21.334077 144.181294,20.6109935 L146.031639,11.3487025 C146.125158,10.8452726 146.062366,10.5301174 145.783145,10.5301174 C145.569386,10.5301174 144.890704,11.1304131 144.210685,11.8835115 L143.685642,11.3487025 Z"/>
      <path fill="#FFFFFF" d="M160.865127,10.404601 C160.865127,9.5519081 160.525786,9.01982775 159.972686,9.01982775 C158.581921,9.01982775 157.319412,11.0021681 156.332116,14.6557865 C159.416915,13.6475625 160.865127,12.2941683 160.865127,10.404601 Z M162.159701,19.2221273 C160.465666,20.671023 158.368163,21.5523664 156.702185,21.5523664 C154.54189,21.5523664 153.155133,19.9138318 153.155133,17.3966824 C153.155133,12.6720818 156.825096,8.19851398 160.710152,8.19851398 C162.346739,8.19851398 163.395491,8.98708434 163.395491,10.2163264 C163.395491,12.4838072 160.588577,14.0895984 156.177141,15.4116135 C155.992774,15.9477867 155.900591,16.6081121 155.900591,17.2370583 C155.900591,19.0652318 156.855823,20.2630948 158.274644,20.2630948 C159.200485,20.2630948 160.310692,19.7282858 161.790968,18.6573036 L162.159701,19.2221273 L162.159701,19.2221273 Z"/>
      <path stroke="#FFFFFF" stroke-width=".428" d="M160.865127,10.404601 C160.865127,9.5519081 160.525786,9.01982775 159.972686,9.01982775 C158.581921,9.01982775 157.319412,11.0021681 156.332116,14.6557865 C159.416915,13.6475625 160.865127,12.2941683 160.865127,10.404601 Z M162.159701,19.2221273 C160.465666,20.671023 158.368163,21.5523664 156.702185,21.5523664 C154.54189,21.5523664 153.155133,19.9138318 153.155133,17.3966824 C153.155133,12.6720818 156.825096,8.19851398 160.710152,8.19851398 C162.346739,8.19851398 163.395491,8.98708434 163.395491,10.2163264 C163.395491,12.4838072 160.588577,14.0895984 156.177141,15.4116135 C155.992774,15.9477867 155.900591,16.6081121 155.900591,17.2370583 C155.900591,19.0652318 156.855823,20.2630948 158.274644,20.2630948 C159.200485,20.2630948 160.310692,19.7282858 161.790968,18.6573036 L162.159701,19.2221273 Z"/>
      <path fill="#FFFFFF" d="M171.689312,10.404601 C171.689312,9.5519081 171.349971,9.01982775 170.796871,9.01982775 C169.407442,9.01982775 168.143596,11.0021681 167.154964,14.6557865 C170.241099,13.6475625 171.689312,12.2941683 171.689312,10.404601 Z M172.985221,19.2221273 C171.289851,20.671023 169.193684,21.5523664 167.527705,21.5523664 C165.367411,21.5523664 163.979318,19.9138318 163.979318,17.3966824 C163.979318,12.6720818 167.647944,8.19851398 171.535673,8.19851398 C173.17226,8.19851398 174.219675,8.98708434 174.219675,10.2163264 C174.219675,12.4838072 171.412762,14.0895984 167.001326,15.4116135 C166.816959,15.9477867 166.724776,16.6081121 166.724776,17.2370583 C166.724776,19.0652318 167.681344,20.2630948 169.098829,20.2630948 C170.026005,20.2630948 171.134876,19.7282858 172.615152,18.6573036 L172.985221,19.2221273 L172.985221,19.2221273 Z"/>
      <path stroke="#FFFFFF" stroke-width=".428" d="M171.689312,10.404601 C171.689312,9.5519081 171.349971,9.01982775 170.796871,9.01982775 C169.407442,9.01982775 168.143596,11.0021681 167.154964,14.6557865 C170.241099,13.6475625 171.689312,12.2941683 171.689312,10.404601 Z M172.985221,19.2221273 C171.289851,20.671023 169.193684,21.5523664 167.527705,21.5523664 C165.367411,21.5523664 163.979318,19.9138318 163.979318,17.3966824 C163.979318,12.6720818 167.647944,8.19851398 171.535673,8.19851398 C173.17226,8.19851398 174.219675,8.98708434 174.219675,10.2163264 C174.219675,12.4838072 171.412762,14.0895984 167.001326,15.4116135 C166.816959,15.9477867 166.724776,16.6081121 166.724776,17.2370583 C166.724776,19.0652318 167.681344,20.2630948 169.098829,20.2630948 C170.026005,20.2630948 171.134876,19.7282858 172.615152,18.6573036 L172.985221,19.2221273 Z"/>
      <path fill="#FFFFFF" d="M178.815478,19.2535064 C178.815478,20.5141276 177.949757,21.5523664 176.901006,21.5523664 C176.037957,21.5523664 175.422066,20.8620262 175.422066,19.8538022 C175.422066,18.6259245 176.347906,17.5549422 177.36593,17.5549422 C178.196915,17.5549422 178.815478,18.2793901 178.815478,19.2535064"/>
      <path stroke="#FFFFFF" stroke-width=".428" d="M178.815478,19.2535064 C178.815478,20.5141276 177.949757,21.5523664 176.901006,21.5523664 C176.037957,21.5523664 175.422066,20.8620262 175.422066,19.8538022 C175.422066,18.6259245 176.347906,17.5549422 177.36593,17.5549422 C178.196915,17.5549422 178.815478,18.2793901 178.815478,19.2535064 Z"/>
      <path fill="#FFFFFF" d="M203.305497,11.726616 L203.305497,3.50529246 L203.240033,3.50529246 L197.41512,11.726616 L203.305497,11.726616 Z M187.820046,20.3572321 C189.425905,20.3572321 190.504048,19.6014051 192.015052,17.4908197 L203.735685,1.11365952 L206.418352,1.11365952 L206.418352,18.1511451 C206.418352,19.9793186 206.88194,20.3572321 209.10369,20.3572321 L208.948715,21.2071963 L199.97354,21.2071963 L200.125843,20.3572321 C202.840573,20.3572321 203.305497,19.6014051 203.305497,17.018769 L203.305497,13.2082551 L196.334305,13.2082551 L193.836005,16.7022494 C192.817981,18.119766 192.509368,18.8428495 192.509368,19.1293543 C192.509368,20.104835 193.375089,20.3572321 194.978276,20.3572321 L194.821965,21.2071963 L187.666407,21.2071963 L187.820046,20.3572321 L187.820046,20.3572321 Z"/>
      <path stroke="#FFFFFF" stroke-width=".428" d="M203.305497,11.726616 L203.305497,3.50529246 L203.240033,3.50529246 L197.41512,11.726616 L203.305497,11.726616 Z M187.820046,20.3572321 C189.425905,20.3572321 190.504048,19.6014051 192.015052,17.4908197 L203.735685,1.11365952 L206.418352,1.11365952 L206.418352,18.1511451 C206.418352,19.9793186 206.88194,20.3572321 209.10369,20.3572321 L208.948715,21.2071963 L199.97354,21.2071963 L200.125843,20.3572321 C202.840573,20.3572321 203.305497,19.6014051 203.305497,17.018769 L203.305497,13.2082551 L196.334305,13.2082551 L193.836005,16.7022494 C192.817981,18.119766 192.509368,18.8428495 192.509368,19.1293543 C192.509368,20.104835 193.375089,20.3572321 194.978276,20.3572321 L194.821965,21.2071963 L187.666407,21.2071963 L187.820046,20.3572321 Z"/>
      <path fill="#FFFFFF" d="M218.105586,21.5523664 L221.806276,3.09599989 C221.927851,2.53117613 221.898459,2.53117613 221.898459,2.40293113 C221.898459,2.08914015 221.774212,1.89950126 221.591182,1.89950126 C221.344024,1.89950126 220.418183,2.40293113 219.895811,2.7808446 L219.55647,2.18464175 C221.066138,1.14231 223.655285,0.0726920667 224.24312,0.0726920667 C224.581125,0.0726920667 224.7361,0.293710057 224.7361,0.734381729 C224.7361,1.1750534 224.673309,1.55296688 224.364695,3.09599989 L222.022706,14.719909 L222.08149,14.7826672 C225.720724,10.0266875 227.697988,8.19851398 228.931106,8.19851398 C229.792819,8.19851398 230.255072,8.86020365 230.255072,9.99530839 C230.255072,10.5001026 230.22568,10.9407742 229.979858,11.854861 L228.158905,19.0652318 C228.03733,19.5686617 228.128177,19.8538022 228.404727,19.8538022 C228.745404,19.8538022 229.362631,19.2535064 230.780115,17.4580763 L231.303823,17.9314914 C229.546997,20.23308 227.882355,21.5523664 226.742756,21.5523664 C225.969218,21.5523664 225.476238,21.0489365 225.476238,20.2630948 C225.476238,19.8538022 225.476238,19.5059035 225.814243,18.1511451 L227.295856,12.2941683 C227.45083,11.6652221 227.51095,11.1590636 227.51095,10.8766517 C227.51095,10.5628608 227.389375,10.3418428 227.170273,10.3418428 C226.216376,10.3418428 223.286552,14.1523566 221.711421,16.3257002 L220.664005,21.5523664 L218.105586,21.5523664"/>
      <path stroke="#FFFFFF" stroke-width=".428" d="M218.105586,21.5523664 L221.806276,3.09599989 C221.927851,2.53117613 221.898459,2.53117613 221.898459,2.40293113 C221.898459,2.08914015 221.774212,1.89950126 221.591182,1.89950126 C221.344024,1.89950126 220.418183,2.40293113 219.895811,2.7808446 L219.55647,2.18464175 C221.066138,1.14231 223.655285,0.0726920667 224.24312,0.0726920667 C224.581125,0.0726920667 224.7361,0.293710057 224.7361,0.734381729 C224.7361,1.1750534 224.673309,1.55296688 224.364695,3.09599989 L222.022706,14.719909 L222.08149,14.7826672 C225.720724,10.0266875 227.697988,8.19851398 228.931106,8.19851398 C229.792819,8.19851398 230.255072,8.86020365 230.255072,9.99530839 C230.255072,10.5001026 230.22568,10.9407742 229.979858,11.854861 L228.158905,19.0652318 C228.03733,19.5686617 228.128177,19.8538022 228.404727,19.8538022 C228.745404,19.8538022 229.362631,19.2535064 230.780115,17.4580763 L231.303823,17.9314914 C229.546997,20.23308 227.882355,21.5523664 226.742756,21.5523664 C225.969218,21.5523664 225.476238,21.0489365 225.476238,20.2630948 C225.476238,19.8538022 225.476238,19.5059035 225.814243,18.1511451 L227.295856,12.2941683 C227.45083,11.6652221 227.51095,11.1590636 227.51095,10.8766517 C227.51095,10.5628608 227.389375,10.3418428 227.170273,10.3418428 C226.216376,10.3418428 223.286552,14.1523566 221.711421,16.3257002 L220.664005,21.5523664 L218.105586,21.5523664 Z"/>
      <path fill="#FFFFFF" d="M239.293039,2.75082981 C239.293039,4.23110463 238.459382,5.52310485 237.502813,5.52310485 C236.793403,5.52310485 236.300423,4.92280908 236.300423,4.07284483 C236.300423,2.65532821 237.227599,1.3333132 238.181496,1.3333132 C238.858842,1.3333132 239.293039,1.89950126 239.293039,2.75082981 Z M238.800059,18.340784 C236.856194,20.4199903 235.468102,21.5523664 234.41935,21.5523664 C233.70994,21.5523664 233.309143,21.1144233 233.309143,20.2944739 C233.309143,20.0106977 233.370599,19.4117662 233.461446,19.0024736 L234.975122,11.4769475 C235.036577,11.1304131 235.098033,10.6883771 234.821483,10.6883771 C234.543597,10.6883771 234.049281,11.1304131 233.124777,12.1058938 L232.631796,11.4769475 C235.098033,9.17535893 236.237631,8.19851398 237.041897,8.19851398 C237.594996,8.19851398 237.904946,8.54504836 237.904946,9.14534414 C237.904946,9.39501261 237.874218,9.7742904 237.779363,10.2463412 L236.11472,18.5918168 C236.053265,18.9083364 236.023873,19.0024736 236.023873,19.1293543 C236.023873,19.349008 236.146784,19.5059035 236.300423,19.5059035 C236.671828,19.5059035 237.473421,18.6573036 238.304407,17.7732316 L238.800059,18.340784 L238.800059,18.340784 Z"/>
      <path stroke="#FFFFFF" stroke-width=".428" d="M239.293039,2.75082981 C239.293039,4.23110463 238.459382,5.52310485 237.502813,5.52310485 C236.793403,5.52310485 236.300423,4.92280908 236.300423,4.07284483 C236.300423,2.65532821 237.227599,1.3333132 238.181496,1.3333132 C238.858842,1.3333132 239.293039,1.89950126 239.293039,2.75082981 Z M238.800059,18.340784 C236.856194,20.4199903 235.468102,21.5523664 234.41935,21.5523664 C233.70994,21.5523664 233.309143,21.1144233 233.309143,20.2944739 C233.309143,20.0106977 233.370599,19.4117662 233.461446,19.0024736 L234.975122,11.4769475 C235.036577,11.1304131 235.098033,10.6883771 234.821483,10.6883771 C234.543597,10.6883771 234.049281,11.1304131 233.124777,12.1058938 L232.631796,11.4769475 C235.098033,9.17535893 236.237631,8.19851398 237.041897,8.19851398 C237.594996,8.19851398 237.904946,8.54504836 237.904946,9.14534414 C237.904946,9.39501261 237.874218,9.7742904 237.779363,10.2463412 L236.11472,18.5918168 C236.053265,18.9083364 236.023873,19.0024736 236.023873,19.1293543 C236.023873,19.349008 236.146784,19.5059035 236.300423,19.5059035 C236.671828,19.5059035 237.473421,18.6573036 238.304407,17.7732316 L238.800059,18.340784 Z"/>
      <path fill="#FFFFFF" d="M247.867418,12.1672877 C247.867418,10.2163264 247.371766,9.17535893 246.385806,9.17535893 C244.567524,9.17535893 243.271615,13.0199805 243.271615,15.3802344 C243.271615,17.018769 243.918234,18.0583721 244.934921,18.0583721 C246.293622,18.0583721 247.867418,16.1674404 247.867418,12.1672877 Z M239.013817,25.6780355 C239.013817,27.0027792 240.527493,27.8186357 243.053848,27.8186357 C245.459965,27.8186357 247.187399,27.2524476 247.187399,26.4352268 C247.187399,26.2142088 247.09388,26.0259342 246.818666,25.7435224 C246.109256,25.0177102 244.721163,24.4829012 242.315046,22.4364384 C240.12536,23.411919 239.013817,24.5142803 239.013817,25.6780355 Z M249.870066,9.89844248 C250.333654,10.8766517 250.519356,11.6652221 250.519356,12.513822 C250.519356,13.5234104 250.147951,15.2233389 248.882769,16.5139748 C246.909513,18.5304229 243.640348,19.1293543 243.640348,19.9138318 C243.640348,20.8934053 247.218127,22.4364384 248.697067,23.946728 C249.410485,24.6725401 249.529388,25.17597 249.529388,25.489761 C249.529388,27.3179345 246.846722,28.5130688 242.745235,28.5130688 C239.013817,28.5130688 236.609036,27.5389524 236.609036,26.0259342 C236.609036,24.7653131 238.087977,23.8512264 241.883522,21.8975365 C241.635028,21.5851098 241.576244,21.3654561 241.576244,21.0816799 C241.576244,20.4513694 242.098616,19.8865456 243.425253,19.0966109 C242.56354,18.78282 241.850122,18.2152676 241.390542,17.5221988 C240.89489,16.797751 240.61834,15.9477867 240.61834,15.0036852 C240.61834,11.6952369 244.288303,8.19851398 247.804626,8.19851398 C248.236151,8.19851398 248.634275,8.22989308 249.314294,8.35813809 L251.628227,8.35813809 L251.628227,10.0894457 L249.870066,9.89844248 L249.870066,9.89844248 Z"/>
      <path stroke="#FFFFFF" stroke-width=".428" d="M247.867418,12.1672877 C247.867418,10.2163264 247.371766,9.17535893 246.385806,9.17535893 C244.567524,9.17535893 243.271615,13.0199805 243.271615,15.3802344 C243.271615,17.018769 243.918234,18.0583721 244.934921,18.0583721 C246.293622,18.0583721 247.867418,16.1674404 247.867418,12.1672877 Z M239.013817,25.6780355 C239.013817,27.0027792 240.527493,27.8186357 243.053848,27.8186357 C245.459965,27.8186357 247.187399,27.2524476 247.187399,26.4352268 C247.187399,26.2142088 247.09388,26.0259342 246.818666,25.7435224 C246.109256,25.0177102 244.721163,24.4829012 242.315046,22.4364384 C240.12536,23.411919 239.013817,24.5142803 239.013817,25.6780355 Z M249.870066,9.89844248 C250.333654,10.8766517 250.519356,11.6652221 250.519356,12.513822 C250.519356,13.5234104 250.147951,15.2233389 248.882769,16.5139748 C246.909513,18.5304229 243.640348,19.1293543 243.640348,19.9138318 C243.640348,20.8934053 247.218127,22.4364384 248.697067,23.946728 C249.410485,24.6725401 249.529388,25.17597 249.529388,25.489761 C249.529388,27.3179345 246.846722,28.5130688 242.745235,28.5130688 C239.013817,28.5130688 236.609036,27.5389524 236.609036,26.0259342 C236.609036,24.7653131 238.087977,23.8512264 241.883522,21.8975365 C241.635028,21.5851098 241.576244,21.3654561 241.576244,21.0816799 C241.576244,20.4513694 242.098616,19.8865456 243.425253,19.0966109 C242.56354,18.78282 241.850122,18.2152676 241.390542,17.5221988 C240.89489,16.797751 240.61834,15.9477867 240.61834,15.0036852 C240.61834,11.6952369 244.288303,8.19851398 247.804626,8.19851398 C248.236151,8.19851398 248.634275,8.22989308 249.314294,8.35813809 L251.628227,8.35813809 L251.628227,10.0894457 L249.870066,9.89844248 Z"/>
      <path fill="#FFFFFF" d="M252.274846,21.5523664 L255.975536,3.09599989 C256.099783,2.53117613 256.069056,2.53117613 256.069056,2.40293113 C256.069056,2.08914015 255.946145,1.89950126 255.759106,1.89950126 C255.51462,1.89950126 254.587443,2.40293113 254.065072,2.7808446 L253.72573,2.18464175 C255.234062,1.14231 257.827217,0.0726920667 258.412381,0.0726920667 C258.751722,0.0726920667 258.905361,0.293710057 258.905361,0.734381729 C258.905361,1.1750534 258.845241,1.55296688 258.536628,3.09599989 L256.194639,14.719909 L256.256094,14.7826672 C259.893993,10.0266875 261.868585,8.19851398 263.103039,8.19851398 C263.964752,8.19851398 264.427004,8.86020365 264.427004,9.99530839 C264.427004,10.5001026 264.396276,10.9407742 264.150454,11.854861 L262.328165,19.0652318 C262.207926,19.5686617 262.300109,19.8538022 262.576659,19.8538022 C262.916,19.8538022 263.534563,19.2535064 264.950712,17.4580763 L265.475756,17.9314914 C263.717594,20.23308 262.054287,21.5523664 260.912017,21.5523664 C260.139815,21.5523664 259.646835,21.0489365 259.646835,20.2630948 C259.646835,19.8538022 259.646835,19.5059035 259.986176,18.1511451 L261.466452,12.2941683 C261.620091,11.6652221 261.681546,11.1590636 261.681546,10.8766517 C261.681546,10.5628608 261.558635,10.3418428 261.344877,10.3418428 C260.386973,10.3418428 257.457148,14.1523566 255.883353,16.3257002 L254.834601,21.5523664 L252.274846,21.5523664"/>
      <path stroke="#FFFFFF" stroke-width=".428" d="M252.274846,21.5523664 L255.975536,3.09599989 C256.099783,2.53117613 256.069056,2.53117613 256.069056,2.40293113 C256.069056,2.08914015 255.946145,1.89950126 255.759106,1.89950126 C255.51462,1.89950126 254.587443,2.40293113 254.065072,2.7808446 L253.72573,2.18464175 C255.234062,1.14231 257.827217,0.0726920667 258.412381,0.0726920667 C258.751722,0.0726920667 258.905361,0.293710057 258.905361,0.734381729 C258.905361,1.1750534 258.845241,1.55296688 258.536628,3.09599989 L256.194639,14.719909 L256.256094,14.7826672 C259.893993,10.0266875 261.868585,8.19851398 263.103039,8.19851398 C263.964752,8.19851398 264.427004,8.86020365 264.427004,9.99530839 C264.427004,10.5001026 264.396276,10.9407742 264.150454,11.854861 L262.328165,19.0652318 C262.207926,19.5686617 262.300109,19.8538022 262.576659,19.8538022 C262.916,19.8538022 263.534563,19.2535064 264.950712,17.4580763 L265.475756,17.9314914 C263.717594,20.23308 262.054287,21.5523664 260.912017,21.5523664 C260.139815,21.5523664 259.646835,21.0489365 259.646835,20.2630948 C259.646835,19.8538022 259.646835,19.5059035 259.986176,18.1511451 L261.466452,12.2941683 C261.620091,11.6652221 261.681546,11.1590636 261.681546,10.8766517 C261.681546,10.5628608 261.558635,10.3418428 261.344877,10.3418428 C260.386973,10.3418428 257.457148,14.1523566 255.883353,16.3257002 L254.834601,21.5523664 L252.274846,21.5523664 Z"/>
      <path fill="#FFFFFF" d="M274.60457,10.404601 C274.60457,9.5519081 274.263893,9.01982775 273.709457,9.01982775 C272.324036,9.01982775 271.057519,11.0021681 270.070223,14.6557865 C273.155022,13.6475625 274.60457,12.2941683 274.60457,10.404601 Z M275.899144,19.2221273 C274.202437,20.671023 272.10627,21.5523664 270.442964,21.5523664 C268.284005,21.5523664 266.894576,19.9138318 266.894576,17.3966824 C266.894576,12.6720818 270.564539,8.19851398 274.450931,8.19851398 C276.084846,8.19851398 277.133598,8.98708434 277.133598,10.2163264 C277.133598,12.4838072 274.326684,14.0895984 269.916584,15.4116135 C269.733553,15.9477867 269.640034,16.6081121 269.640034,17.2370583 C269.640034,19.0652318 270.595266,20.2630948 272.014087,20.2630948 C272.938592,20.2630948 274.050135,19.7282858 275.531747,18.6573036 L275.899144,19.2221273 L275.899144,19.2221273 Z"/>
      <path stroke="#FFFFFF" stroke-width=".428" d="M274.60457,10.404601 C274.60457,9.5519081 274.263893,9.01982775 273.709457,9.01982775 C272.324036,9.01982775 271.057519,11.0021681 270.070223,14.6557865 C273.155022,13.6475625 274.60457,12.2941683 274.60457,10.404601 Z M275.899144,19.2221273 C274.202437,20.671023 272.10627,21.5523664 270.442964,21.5523664 C268.284005,21.5523664 266.894576,19.9138318 266.894576,17.3966824 C266.894576,12.6720818 270.564539,8.19851398 274.450931,8.19851398 C276.084846,8.19851398 277.133598,8.98708434 277.133598,10.2163264 C277.133598,12.4838072 274.326684,14.0895984 269.916584,15.4116135 C269.733553,15.9477867 269.640034,16.6081121 269.640034,17.2370583 C269.640034,19.0652318 270.595266,20.2630948 272.014087,20.2630948 C272.938592,20.2630948 274.050135,19.7282858 275.531747,18.6573036 L275.899144,19.2221273 Z"/>
      <path fill="#FFFFFF" d="M278.647274,11.3487025 C280.466891,9.23811712 281.793528,8.19851398 282.655241,8.19851398 C283.243076,8.19851398 283.581082,8.63918566 283.581082,9.33498303 C283.581082,10.3732219 283.178949,12.3269118 282.933127,13.3023924 L281.977895,16.9873899 L282.283836,16.9873899 L283.581082,13.4879384 C284.815536,10.1522039 286.170229,8.19851398 287.527594,8.19851398 C288.176885,8.19851398 288.546954,8.63918566 288.546954,9.42912033 C288.546954,10.3732219 288.023246,11.1304131 287.373955,11.1304131 C287.037286,11.1304131 286.635153,10.9407742 286.323868,10.9407742 C285.615793,10.9407742 284.8476,11.7579951 283.920423,14.3733746 L282.008622,19.7569363 C281.483579,21.2713188 281.82292,21.5523664 281.145573,21.5523664 L279.571778,21.5523664 C279.078798,21.5523664 278.983943,21.334077 279.138918,20.6109935 L280.990599,11.3487025 C281.082782,10.8452726 281.01999,10.5301174 280.746113,10.5301174 C280.52701,10.5301174 279.851,11.1304131 279.170981,11.8835115 L278.647274,11.3487025"/>
      <path stroke="#FFFFFF" stroke-width=".428" d="M278.647274,11.3487025 C280.466891,9.23811712 281.793528,8.19851398 282.655241,8.19851398 C283.243076,8.19851398 283.581082,8.63918566 283.581082,9.33498303 C283.581082,10.3732219 283.178949,12.3269118 282.933127,13.3023924 L281.977895,16.9873899 L282.283836,16.9873899 L283.581082,13.4879384 C284.815536,10.1522039 286.170229,8.19851398 287.527594,8.19851398 C288.176885,8.19851398 288.546954,8.63918566 288.546954,9.42912033 C288.546954,10.3732219 288.023246,11.1304131 287.373955,11.1304131 C287.037286,11.1304131 286.635153,10.9407742 286.323868,10.9407742 C285.615793,10.9407742 284.8476,11.7579951 283.920423,14.3733746 L282.008622,19.7569363 C281.483579,21.2713188 281.82292,21.5523664 281.145573,21.5523664 L279.571778,21.5523664 C279.078798,21.5523664 278.983943,21.334077 279.138918,20.6109935 L280.990599,11.3487025 C281.082782,10.8452726 281.01999,10.5301174 280.746113,10.5301174 C280.52701,10.5301174 279.851,11.1304131 279.170981,11.8835115 L278.647274,11.3487025 Z"/>
      <path fill="#FFFFFF" d="M298.719176,19.7569363 C299.459314,20.3886112 299.983022,20.6109935 300.62964,20.6109935 C302.943574,20.6109935 304.85671,17.1442854 304.85671,12.955858 C304.85671,11.3487025 304.517369,10.3090994 303.929534,10.3090994 C303.436554,10.3090994 302.419866,11.1590636 299.734528,14.6557865 L298.719176,19.7569363 Z M291.810775,28.5130688 L291.96575,27.6631045 C294.093981,27.6631045 294.645745,27.382057 295.26698,24.2932623 L297.791999,11.5383414 C297.917582,10.9407742 297.824063,10.6556337 297.63836,10.6556337 C297.363147,10.6556337 296.683128,11.3186877 295.669112,12.5479297 L295.079941,12.0731504 C296.92895,9.7742904 298.842087,8.19851398 299.830719,8.19851398 C300.385154,8.19851398 300.725832,8.63918566 300.725832,9.36363351 C300.725832,9.6160306 300.691096,9.869792 300.600249,10.3418428 L300.075205,12.9244789 L300.13666,12.9872371 C302.051133,10.2463412 304.362394,8.19851398 305.441873,8.19851398 C306.614872,8.19851398 307.600832,10.2463412 307.600832,12.7048252 C307.600832,16.890524 304.240819,21.5523664 299.921566,21.5523664 C299.396522,21.5523664 298.997061,21.5223516 298.410562,21.3941066 L297.670424,24.9863311 C297.547513,25.6466564 297.484722,26.0886924 297.484722,26.3724686 C297.484722,27.3479492 298.071221,27.6631045 299.861446,27.6631045 L299.707808,28.5130688 L291.810775,28.5130688 L291.810775,28.5130688 Z"/>
      <path stroke="#FFFFFF" stroke-width=".428" d="M298.719176,19.7569363 C299.459314,20.3886112 299.983022,20.6109935 300.62964,20.6109935 C302.943574,20.6109935 304.85671,17.1442854 304.85671,12.955858 C304.85671,11.3487025 304.517369,10.3090994 303.929534,10.3090994 C303.436554,10.3090994 302.419866,11.1590636 299.734528,14.6557865 L298.719176,19.7569363 Z M291.810775,28.5130688 L291.96575,27.6631045 C294.093981,27.6631045 294.645745,27.382057 295.26698,24.2932623 L297.791999,11.5383414 C297.917582,10.9407742 297.824063,10.6556337 297.63836,10.6556337 C297.363147,10.6556337 296.683128,11.3186877 295.669112,12.5479297 L295.079941,12.0731504 C296.92895,9.7742904 298.842087,8.19851398 299.830719,8.19851398 C300.385154,8.19851398 300.725832,8.63918566 300.725832,9.36363351 C300.725832,9.6160306 300.691096,9.869792 300.600249,10.3418428 L300.075205,12.9244789 L300.13666,12.9872371 C302.051133,10.2463412 304.362394,8.19851398 305.441873,8.19851398 C306.614872,8.19851398 307.600832,10.2463412 307.600832,12.7048252 C307.600832,16.890524 304.240819,21.5523664 299.921566,21.5523664 C299.396522,21.5523664 298.997061,21.5223516 298.410562,21.3941066 L297.670424,24.9863311 C297.547513,25.6466564 297.484722,26.0886924 297.484722,26.3724686 C297.484722,27.3479492 298.071221,27.6631045 299.861446,27.6631045 L299.707808,28.5130688 L291.810775,28.5130688 Z"/>
      <path fill="#FFFFFF" d="M322.438328,17.9628705 C320.987444,19.6327842 319.106371,21.5523664 318.119075,21.5523664 C317.563304,21.5523664 317.256026,21.0816799 317.256026,20.2944739 C317.256026,19.7282858 317.346874,18.875593 317.595368,17.6477152 L318.33417,14.1223418 L318.272714,14.0582193 C315.652839,18.1838885 311.857294,21.5523664 310.932789,21.5523664 C310.377018,21.5523664 310.037676,20.9575278 310.037676,20.0434411 C310.037676,19.5059035 310.099132,18.875593 310.195323,18.4049065 L311.580744,11.4442041 C311.671591,11.0335472 311.644871,10.6883771 311.425769,10.6883771 C311.209339,10.6883771 310.749759,11.0963054 309.976221,12.1058938 L309.452513,11.6652221 C311.118492,9.52325762 312.660223,8.19851398 313.523272,8.19851398 C314.077708,8.19851398 314.450449,8.67192906 314.450449,9.39501261 C314.450449,9.71016789 314.387657,10.3418428 314.231347,11.0662906 L312.845926,17.9628705 C312.692287,18.7186975 312.815198,19.0652318 313.030292,19.0652318 C313.215995,19.0652318 313.801158,18.6573036 314.077708,18.3721631 C316.084364,16.3257002 318.180531,13.3651506 318.734966,11.9162549 L319.382921,8.92569046 C319.507168,8.32403037 319.565952,8.19851398 320.032212,8.19851398 L321.326785,8.19851398 C321.973404,8.19851398 322.036196,8.38815288 321.945348,8.92569046 L320.061604,18.4049065 C319.968084,18.875593 320.032212,19.1293543 320.155123,19.1293543 C320.461064,19.1293543 320.987444,18.6259245 321.945348,17.4580763 L322.438328,17.9628705"/>
      <path stroke="#FFFFFF" stroke-width=".428" d="M322.438328,17.9628705 C320.987444,19.6327842 319.106371,21.5523664 318.119075,21.5523664 C317.563304,21.5523664 317.256026,21.0816799 317.256026,20.2944739 C317.256026,19.7282858 317.346874,18.875593 317.595368,17.6477152 L318.33417,14.1223418 L318.272714,14.0582193 C315.652839,18.1838885 311.857294,21.5523664 310.932789,21.5523664 C310.377018,21.5523664 310.037676,20.9575278 310.037676,20.0434411 C310.037676,19.5059035 310.099132,18.875593 310.195323,18.4049065 L311.580744,11.4442041 C311.671591,11.0335472 311.644871,10.6883771 311.425769,10.6883771 C311.209339,10.6883771 310.749759,11.0963054 309.976221,12.1058938 L309.452513,11.6652221 C311.118492,9.52325762 312.660223,8.19851398 313.523272,8.19851398 C314.077708,8.19851398 314.450449,8.67192906 314.450449,9.39501261 C314.450449,9.71016789 314.387657,10.3418428 314.231347,11.0662906 L312.845926,17.9628705 C312.692287,18.7186975 312.815198,19.0652318 313.030292,19.0652318 C313.215995,19.0652318 313.801158,18.6573036 314.077708,18.3721631 C316.084364,16.3257002 318.180531,13.3651506 318.734966,11.9162549 L319.382921,8.92569046 C319.507168,8.32403037 319.565952,8.19851398 320.032212,8.19851398 L321.326785,8.19851398 C321.973404,8.19851398 322.036196,8.38815288 321.945348,8.92569046 L320.061604,18.4049065 C319.968084,18.875593 320.032212,19.1293543 320.155123,19.1293543 C320.461064,19.1293543 320.987444,18.6259245 321.945348,17.4580763 L322.438328,17.9628705 Z"/>
      <path fill="#FFFFFF" d="M323.732902,11.3487025 C325.551183,9.23811712 326.879157,8.19851398 327.742206,8.19851398 C328.327369,8.19851398 328.66671,8.63918566 328.66671,9.33498303 C328.66671,10.3732219 328.264577,12.3269118 328.018755,13.3023924 L327.063523,16.9873899 L327.372137,16.9873899 L328.66671,13.4879384 C329.898492,10.1522039 331.257193,8.19851398 332.615894,8.19851398 C333.261177,8.19851398 333.632582,8.63918566 333.632582,9.42912033 C333.632582,10.3732219 333.106202,11.1304131 332.459584,11.1304131 C332.121578,11.1304131 331.720782,10.9407742 331.410832,10.9407742 C330.701422,10.9407742 329.930556,11.7579951 329.00338,14.3733746 L327.092915,19.7569363 C326.567871,21.2713188 326.905876,21.5523664 326.229866,21.5523664 L324.656071,21.5523664 C324.163091,21.5523664 324.070907,21.334077 324.227218,20.6109935 L326.074891,11.3487025 C326.16841,10.8452726 326.106955,10.5301174 325.830405,10.5301174 C325.613975,10.5301174 324.935292,11.1304131 324.25661,11.8835115 L323.732902,11.3487025"/>
      <path stroke="#FFFFFF" stroke-width=".428" d="M323.732902,11.3487025 C325.551183,9.23811712 326.879157,8.19851398 327.742206,8.19851398 C328.327369,8.19851398 328.66671,8.63918566 328.66671,9.33498303 C328.66671,10.3732219 328.264577,12.3269118 328.018755,13.3023924 L327.063523,16.9873899 L327.372137,16.9873899 L328.66671,13.4879384 C329.898492,10.1522039 331.257193,8.19851398 332.615894,8.19851398 C333.261177,8.19851398 333.632582,8.63918566 333.632582,9.42912033 C333.632582,10.3732219 333.106202,11.1304131 332.459584,11.1304131 C332.121578,11.1304131 331.720782,10.9407742 331.410832,10.9407742 C330.701422,10.9407742 329.930556,11.7579951 329.00338,14.3733746 L327.092915,19.7569363 C326.567871,21.2713188 326.905876,21.5523664 326.229866,21.5523664 L324.656071,21.5523664 C324.163091,21.5523664 324.070907,21.334077 324.227218,20.6109935 L326.074891,11.3487025 C326.16841,10.8452726 326.106955,10.5301174 325.830405,10.5301174 C325.613975,10.5301174 324.935292,11.1304131 324.25661,11.8835115 L323.732902,11.3487025 Z"/>
      <path fill="#FFFFFF" d="M337.235745,19.7569363 C337.977219,20.3886112 338.503599,20.6109935 339.148882,20.6109935 C341.462815,20.6109935 343.374616,17.1442854 343.374616,12.955858 C343.374616,11.3487025 343.033938,10.3090994 342.448775,10.3090994 C341.955795,10.3090994 340.936435,11.1590636 338.256441,14.6557865 L337.235745,19.7569363 Z M330.330017,28.5130688 L330.483656,27.6631045 C332.613222,27.6631045 333.164986,27.382057 333.783549,24.2932623 L336.311241,11.5383414 C336.434152,10.9407742 336.340632,10.6556337 336.157602,10.6556337 C335.879716,10.6556337 335.20237,11.3186877 334.185682,12.5479297 L333.596511,12.0731504 C335.448192,9.7742904 337.361328,8.19851398 338.34996,8.19851398 C338.904396,8.19851398 339.242401,8.63918566 339.242401,9.36363351 C339.242401,9.6160306 339.210337,9.869792 339.116818,10.3418428 L338.594446,12.9244789 L338.655902,12.9872371 C340.567702,10.2463412 342.878964,8.19851398 343.961115,8.19851398 C345.131442,8.19851398 346.117402,10.2463412 346.117402,12.7048252 C346.117402,16.890524 342.760061,21.5523664 338.438135,21.5523664 C337.915764,21.5523664 337.516303,21.5223516 336.928468,21.3941066 L336.186994,24.9863311 C336.066755,25.6466564 336.003963,26.0886924 336.003963,26.3724686 C336.003963,27.3479492 336.58779,27.6631045 338.378016,27.6631045 L338.224377,28.5130688 L330.330017,28.5130688 L330.330017,28.5130688 Z"/>
      <path stroke="#FFFFFF" stroke-width=".428" d="M337.235745,19.7569363 C337.977219,20.3886112 338.503599,20.6109935 339.148882,20.6109935 C341.462815,20.6109935 343.374616,17.1442854 343.374616,12.955858 C343.374616,11.3487025 343.033938,10.3090994 342.448775,10.3090994 C341.955795,10.3090994 340.936435,11.1590636 338.256441,14.6557865 L337.235745,19.7569363 Z M330.330017,28.5130688 L330.483656,27.6631045 C332.613222,27.6631045 333.164986,27.382057 333.783549,24.2932623 L336.311241,11.5383414 C336.434152,10.9407742 336.340632,10.6556337 336.157602,10.6556337 C335.879716,10.6556337 335.20237,11.3186877 334.185682,12.5479297 L333.596511,12.0731504 C335.448192,9.7742904 337.361328,8.19851398 338.34996,8.19851398 C338.904396,8.19851398 339.242401,8.63918566 339.242401,9.36363351 C339.242401,9.6160306 339.210337,9.869792 339.116818,10.3418428 L338.594446,12.9244789 L338.655902,12.9872371 C340.567702,10.2463412 342.878964,8.19851398 343.961115,8.19851398 C345.131442,8.19851398 346.117402,10.2463412 346.117402,12.7048252 C346.117402,16.890524 342.760061,21.5523664 338.438135,21.5523664 C337.915764,21.5523664 337.516303,21.5223516 336.928468,21.3941066 L336.186994,24.9863311 C336.066755,25.6466564 336.003963,26.0886924 336.003963,26.3724686 C336.003963,27.3479492 336.58779,27.6631045 338.378016,27.6631045 L338.224377,28.5130688 L330.330017,28.5130688 Z"/>
      <path fill="#FFFFFF" d="M352.121337,10.0894457 C350.8281,11.412825 350.086626,14.5329987 350.086626,16.4512166 C350.086626,18.8428495 351.041858,20.3231244 352.059882,20.3231244 C352.552862,20.3231244 352.925603,20.1362141 353.386519,19.6641633 C354.650365,18.3721631 355.421231,15.6940253 355.421231,13.3324072 C355.421231,10.7197562 354.401871,9.42912033 353.572221,9.42912033 C353.138025,9.42912033 352.552862,9.64877401 352.121337,10.0894457 Z M358.168024,12.8944641 C358.168024,18.2152676 352.862811,21.5523664 350.516814,21.5523664 C348.667805,21.5523664 347.339832,19.6327842 347.339832,16.9246317 C347.339832,11.5383414 352.52347,8.19851398 355.080553,8.19851398 C356.870779,8.19851398 358.168024,10.183583 358.168024,12.8944641 L358.168024,12.8944641 Z"/>
      <path stroke="#FFFFFF" stroke-width=".428" d="M352.121337,10.0894457 C350.8281,11.412825 350.086626,14.5329987 350.086626,16.4512166 C350.086626,18.8428495 351.041858,20.3231244 352.059882,20.3231244 C352.552862,20.3231244 352.925603,20.1362141 353.386519,19.6641633 C354.650365,18.3721631 355.421231,15.6940253 355.421231,13.3324072 C355.421231,10.7197562 354.401871,9.42912033 353.572221,9.42912033 C353.138025,9.42912033 352.552862,9.64877401 352.121337,10.0894457 Z M358.168024,12.8944641 C358.168024,18.2152676 352.862811,21.5523664 350.516814,21.5523664 C348.667805,21.5523664 347.339832,19.6327842 347.339832,16.9246317 C347.339832,11.5383414 352.52347,8.19851398 355.080553,8.19851398 C356.870779,8.19851398 358.168024,10.183583 358.168024,12.8944641 Z"/>
      <path fill="#FFFFFF" d="M365.1312,8.19851398 C366.580749,8.19851398 367.597436,9.08258595 367.597436,10.3418428 C367.597436,11.2231861 367.041665,11.8835115 366.270799,11.8835115 C364.758459,11.8835115 365.1312,9.42912033 363.863346,9.42912033 C363.188672,9.42912033 362.477926,10.2163264 362.477926,10.9407742 C362.477926,12.7662191 366.026313,14.7826672 366.026313,17.4908197 C366.026313,19.8224231 363.801891,21.5523664 360.782555,21.5523664 C358.713108,21.5523664 357.572173,20.9234201 357.572173,19.7896797 C357.572173,19.0652318 358.127945,18.5304229 358.869419,18.5304229 C360.443214,18.5304229 361.398446,20.3572321 362.814595,20.3572321 C363.556069,20.3572321 364.049049,19.8865456 364.049049,19.1607334 C364.049049,17.2698017 360.257512,14.8781688 360.257512,12.6093236 C360.257512,10.9407742 362.723748,8.19851398 365.1312,8.19851398"/>
      <path stroke="#FFFFFF" stroke-width=".428" d="M365.1312,8.19851398 C366.580749,8.19851398 367.597436,9.08258595 367.597436,10.3418428 C367.597436,11.2231861 367.041665,11.8835115 366.270799,11.8835115 C364.758459,11.8835115 365.1312,9.42912033 363.863346,9.42912033 C363.188672,9.42912033 362.477926,10.2163264 362.477926,10.9407742 C362.477926,12.7662191 366.026313,14.7826672 366.026313,17.4908197 C366.026313,19.8224231 363.801891,21.5523664 360.782555,21.5523664 C358.713108,21.5523664 357.572173,20.9234201 357.572173,19.7896797 C357.572173,19.0652318 358.127945,18.5304229 358.869419,18.5304229 C360.443214,18.5304229 361.398446,20.3572321 362.814595,20.3572321 C363.556069,20.3572321 364.049049,19.8865456 364.049049,19.1607334 C364.049049,17.2698017 360.257512,14.8781688 360.257512,12.6093236 C360.257512,10.9407742 362.723748,8.19851398 365.1312,8.19851398 Z"/>
      <path fill="#FFFFFF" d="M375.960729,10.404601 C375.960729,9.5519081 375.621388,9.01982775 375.065616,9.01982775 C373.677523,9.01982775 372.415014,11.0021681 371.427718,14.6557865 C374.509845,13.6475625 375.960729,12.2941683 375.960729,10.404601 Z M377.255303,19.2221273 C375.558596,20.671023 373.462429,21.5523664 371.796451,21.5523664 C369.638828,21.5523664 368.250735,19.9138318 368.250735,17.3966824 C368.250735,12.6720818 371.920698,8.19851398 375.80709,8.19851398 C377.438333,8.19851398 378.487085,8.98708434 378.487085,10.2163264 C378.487085,12.4838072 375.681507,14.0895984 371.274079,15.4116135 C371.088376,15.9477867 370.992185,16.6081121 370.992185,17.2370583 C370.992185,19.0652318 371.950089,20.2630948 373.370246,20.2630948 C374.293414,20.2630948 375.404957,19.7282858 376.88657,18.6573036 L377.255303,19.2221273 L377.255303,19.2221273 Z"/>
      <path stroke="#FFFFFF" stroke-width=".428" d="M375.960729,10.404601 C375.960729,9.5519081 375.621388,9.01982775 375.065616,9.01982775 C373.677523,9.01982775 372.415014,11.0021681 371.427718,14.6557865 C374.509845,13.6475625 375.960729,12.2941683 375.960729,10.404601 Z M377.255303,19.2221273 C375.558596,20.671023 373.462429,21.5523664 371.796451,21.5523664 C369.638828,21.5523664 368.250735,19.9138318 368.250735,17.3966824 C368.250735,12.6720818 371.920698,8.19851398 375.80709,8.19851398 C377.438333,8.19851398 378.487085,8.98708434 378.487085,10.2163264 C378.487085,12.4838072 375.681507,14.0895984 371.274079,15.4116135 C371.088376,15.9477867 370.992185,16.6081121 370.992185,17.2370583 C370.992185,19.0652318 371.950089,20.2630948 373.370246,20.2630948 C374.293414,20.2630948 375.404957,19.7282858 376.88657,18.6573036 L377.255303,19.2221273 Z"/>
      <path fill="#FFFFFF" d="M383.082888,19.2535064 C383.082888,20.5141276 382.221174,21.5523664 381.172423,21.5523664 C380.309374,21.5523664 379.689475,20.8620262 379.689475,19.8538022 C379.689475,18.6259245 380.616651,17.5549422 381.633339,17.5549422 C382.465661,17.5549422 383.082888,18.2793901 383.082888,19.2535064"/>
      <path stroke="#FFFFFF" stroke-width=".428" d="M383.082888,19.2535064 C383.082888,20.5141276 382.221174,21.5523664 381.172423,21.5523664 C380.309374,21.5523664 379.689475,20.8620262 379.689475,19.8538022 C379.689475,18.6259245 380.616651,17.5549422 381.633339,17.5549422 C382.465661,17.5549422 383.082888,18.2793901 383.082888,19.2535064 Z"/>
    </g>
    <path stroke="#FFFFFF" stroke-width="1.75" d="M24.2478211,45.2040071 L457.800023,45.2040071"/>
    <path fill="#FFFFFF" d="M37.3174644,4.63699319 C37.776355,3.69913531 37.9490184,3.05221442 37.9490184,2.64182768 C37.9490184,1.87900507 37.3730875,1.58570273 35.4772664,1.58570273 L33.3496824,1.58570273 C31.3368211,1.58570273 30.8188308,1.8210542 30.8188308,2.58387682 C30.8188308,3.1704815 31.049435,3.87417057 31.6809891,5.22359787 L34.3833452,10.8578412 L37.3174644,4.63699319 Z M7.53128817,6.5150743 C5.51842682,2.05404033 4.6562686,1.58570273 0.286377904,1.58570273 L0.286377904,0.0009239615 L16.9617232,0.0009239615 L16.9617232,1.58570273 C14.0287629,1.70278713 13.2245454,2.05404033 13.2245454,3.52291737 C13.2245454,4.63699319 14.316149,7.27789691 15.1215253,8.97976008 L25.1267324,30.634461 L31.1629988,17.9006453 L25.874168,6.5150743 C23.689802,1.760738 23.1718118,1.52775186 19.3766933,1.58570273 L19.3766933,0.0009239615 L46.343473,0.0009239615 L46.343473,1.58570273 C42.375691,1.64483626 41.8009189,2.11435654 39.6733349,6.5150743 L35.9361571,14.1444831 L43.7002164,30.4582431 L53.6474828,6.22177196 C54.3381365,4.57904232 54.509641,3.81621971 54.509641,3.34551676 C54.509641,2.05404033 53.4168787,1.58570273 50.3112549,1.58570273 L50.3112549,0.0009239615 L62.732591,0.0009239615 L62.732591,1.58570273 C59.5110858,1.64483626 58.5342049,1.8210542 56.0624529,7.86450159 L43.9285029,37.4419137 L40.248107,37.4419137 L32.7158107,21.2452381 L25.1267324,37.4419137 L21.562218,37.4419137 L7.53128817,6.5150743 L7.53128817,6.5150743 Z"/>
    <path stroke="#FFFFFF" stroke-width=".5" d="M37.3174644,4.63699319 C37.776355,3.69913531 37.9490184,3.05221442 37.9490184,2.64182768 C37.9490184,1.87900507 37.3730875,1.58570273 35.4772664,1.58570273 L33.3496824,1.58570273 C31.3368211,1.58570273 30.8188308,1.8210542 30.8188308,2.58387682 C30.8188308,3.1704815 31.049435,3.87417057 31.6809891,5.22359787 L34.3833452,10.8578412 L37.3174644,4.63699319 Z M7.53128817,6.5150743 C5.51842682,2.05404033 4.6562686,1.58570273 0.286377904,1.58570273 L0.286377904,0.0009239615 L16.9617232,0.0009239615 L16.9617232,1.58570273 C14.0287629,1.70278713 13.2245454,2.05404033 13.2245454,3.52291737 C13.2245454,4.63699319 14.316149,7.27789691 15.1215253,8.97976008 L25.1267324,30.634461 L31.1629988,17.9006453 L25.874168,6.5150743 C23.689802,1.760738 23.1718118,1.52775186 19.3766933,1.58570273 L19.3766933,0.0009239615 L46.343473,0.0009239615 L46.343473,1.58570273 C42.375691,1.64483626 41.8009189,2.11435654 39.6733349,6.5150743 L35.9361571,14.1444831 L43.7002164,30.4582431 L53.6474828,6.22177196 C54.3381365,4.57904232 54.509641,3.81621971 54.509641,3.34551676 C54.509641,2.05404033 53.4168787,1.58570273 50.3112549,1.58570273 L50.3112549,0.0009239615 L62.732591,0.0009239615 L62.732591,1.58570273 C59.5110858,1.64483626 58.5342049,1.8210542 56.0624529,7.86450159 L43.9285029,37.4419137 L40.248107,37.4419137 L32.7158107,21.2452381 L25.1267324,37.4419137 L21.562218,37.4419137 L7.53128817,6.5150743 Z"/>
    <path fill="#FFFFFF" d="M68.8256394,23.6945492 L64.685194,12.5597044 L60.5887836,23.6945492 L68.8256394,23.6945492 Z M51.0146555,35.314289 C53.9035809,35.2705302 54.4644473,34.7856352 55.6730911,31.3535248 L63.4765501,9.52260594 L63.133541,8.42272217 L67.9623223,8.42272217 L76.3730003,31.3535248 C77.6222027,34.7856352 78.0544406,35.314289 80.7707025,35.314289 L80.7707025,36.5016904 L67.9623223,36.5016904 L67.9623223,35.314289 C71.3692379,35.314289 72.3171484,34.9618532 72.3171484,33.6857515 C72.3171484,33.2446153 72.1456438,32.4971674 71.7157235,31.3535248 L69.6449214,25.8954994 L59.7695015,25.8954994 L57.6558233,31.7497195 C57.3545314,32.5858677 57.2235854,33.1570976 57.2235854,33.5982338 C57.2235854,34.8731529 58.0880612,35.4467482 61.5378529,35.314289 L61.5378529,36.5016904 L51.0146555,36.5016904 L51.0146555,35.314289 L51.0146555,35.314289 Z"/>
    <path stroke="#FFFFFF" stroke-width=".5" d="M68.8256394,23.6945492 L64.685194,12.5597044 L60.5887836,23.6945492 L68.8256394,23.6945492 Z M51.0146555,35.314289 C53.9035809,35.2705302 54.4644473,34.7856352 55.6730911,31.3535248 L63.4765501,9.52260594 L63.133541,8.42272217 L67.9623223,8.42272217 L76.3730003,31.3535248 C77.6222027,34.7856352 78.0544406,35.314289 80.7707025,35.314289 L80.7707025,36.5016904 L67.9623223,36.5016904 L67.9623223,35.314289 C71.3692379,35.314289 72.3171484,34.9618532 72.3171484,33.6857515 C72.3171484,33.2446153 72.1456438,32.4971674 71.7157235,31.3535248 L69.6449214,25.8954994 L59.7695015,25.8954994 L57.6558233,31.7497195 C57.3545314,32.5858677 57.2235854,33.1570976 57.2235854,33.5982338 C57.2235854,34.8731529 58.0880612,35.4467482 61.5378529,35.314289 L61.5378529,36.5016904 L51.0146555,36.5016904 L51.0146555,35.314289 Z"/>
    <path fill="#FFFFFF" d="M80.3384646,36.5016904 L80.3384646,35.314289 C83.790574,35.314289 84.5229449,35.0067947 84.5229449,31.5285601 L84.5229449,14.1007243 C84.5229449,11.1073847 84.2204943,10.226295 80.3384646,10.3149953 L80.3384646,9.12641125 L94.4841171,9.12641125 L94.4841171,10.3149953 C89.8268404,10.3149953 89.310009,10.4900306 89.310009,13.7908646 L89.310009,32.3647083 C89.310009,34.1706465 89.654177,34.5230823 91.6392268,34.5230823 L96.0798052,34.5230823 C99.7462952,34.5230823 100.004711,34.3456817 103.238963,29.8562637 L104.533359,29.8562637 L101.213355,36.5016904 L80.3384646,36.5016904"/>
    <path stroke="#FFFFFF" stroke-width=".5" d="M80.3384646,36.5016904 L80.3384646,35.314289 C83.790574,35.314289 84.5229449,35.0067947 84.5229449,31.5285601 L84.5229449,14.1007243 C84.5229449,11.1073847 84.2204943,10.226295 80.3384646,10.3149953 L80.3384646,9.12641125 L94.4841171,9.12641125 L94.4841171,10.3149953 C89.8268404,10.3149953 89.310009,10.4900306 89.310009,13.7908646 L89.310009,32.3647083 C89.310009,34.1706465 89.654177,34.5230823 91.6392268,34.5230823 L96.0798052,34.5230823 C99.7462952,34.5230823 100.004711,34.3456817 103.238963,29.8562637 L104.533359,29.8562637 L101.213355,36.5016904 L80.3384646,36.5016904 Z"/>
    <path fill="#FFFFFF" d="M113.066872,32.1021554 C113.066872,34.8731529 113.453916,35.2705302 116.257089,35.2705302 C121.433515,35.2705302 124.1069,34.125705 126.089633,32.1021554 C128.720142,29.4163101 129.453672,25.7192815 129.453672,22.6384242 C129.453672,19.4688667 128.763018,15.9042972 126.132509,13.2196346 C123.977113,11.0186844 121.259692,10.0063183 116.213054,10.0063183 C115.480683,10.0063183 114.144569,10.0063183 113.066872,10.0950186 L113.066872,32.1021554 Z M108.278649,14.1882419 C108.278649,10.9749256 107.459367,10.2712365 104.182238,10.3149953 L104.182238,9.12641125 C105.431441,9.12641125 109.141966,8.94901064 110.952035,8.86149301 C113.282411,8.77397537 115.480683,8.77397537 117.120406,8.77397537 C123.631786,8.77397537 128.333098,9.96255945 130.964767,12.647222 C133.635835,15.3756433 134.672974,18.7202361 134.672974,22.0222528 C134.672974,28.4926443 130.231237,36.5016904 117.59552,36.5016904 L104.182238,36.5016904 L104.182238,35.314289 C107.846411,35.314289 108.278649,34.6981176 108.278649,31.7497195 L108.278649,14.1882419 L108.278649,14.1882419 Z"/>
    <path stroke="#FFFFFF" stroke-width=".5" d="M113.066872,32.1021554 C113.066872,34.8731529 113.453916,35.2705302 116.257089,35.2705302 C121.433515,35.2705302 124.1069,34.125705 126.089633,32.1021554 C128.720142,29.4163101 129.453672,25.7192815 129.453672,22.6384242 C129.453672,19.4688667 128.763018,15.9042972 126.132509,13.2196346 C123.977113,11.0186844 121.259692,10.0063183 116.213054,10.0063183 C115.480683,10.0063183 114.144569,10.0063183 113.066872,10.0950186 L113.066872,32.1021554 Z M108.278649,14.1882419 C108.278649,10.9749256 107.459367,10.2712365 104.182238,10.3149953 L104.182238,9.12641125 C105.431441,9.12641125 109.141966,8.94901064 110.952035,8.86149301 C113.282411,8.77397537 115.480683,8.77397537 117.120406,8.77397537 C123.631786,8.77397537 128.333098,9.96255945 130.964767,12.647222 C133.635835,15.3756433 134.672974,18.7202361 134.672974,22.0222528 C134.672974,28.4926443 130.231237,36.5016904 117.59552,36.5016904 L104.182238,36.5016904 L104.182238,35.314289 C107.846411,35.314289 108.278649,34.6981176 108.278649,31.7497195 L108.278649,14.1882419 Z"/>
    <path fill="#FFFFFF" d="M134.806238,36.5016904 L134.806238,35.314289 C138.298906,35.314289 139.162223,34.7418764 139.162223,32.2771906 L139.162223,13.3083349 C139.162223,10.402513 137.73688,10.3149953 134.806238,10.3149953 L134.806238,9.12641125 L156.843419,9.12641125 L157.230463,15.7292619 L156.067013,15.7292619 L155.850315,14.8044134 C154.989315,11.1949023 154.298662,11.1073847 151.538365,11.1073847 L143.948128,11.1073847 L143.948128,21.3623225 L150.633331,21.3623225 C153.134053,21.3623225 153.609167,21.0536455 153.867583,18.0165471 L155.032192,18.0165471 L155.032192,26.8641067 L153.867583,26.8641067 C153.565132,23.738308 153.004266,23.3421133 150.633331,23.3421133 L143.948128,23.3421133 L143.948128,31.3535248 C143.948128,34.0819461 144.294613,34.5230823 146.491726,34.5230823 L151.279949,34.5230823 C155.635934,34.5230823 156.496934,33.9057282 157.662701,29.5937108 L158.82731,29.5937108 L158.180691,36.5016904 L134.806238,36.5016904"/>
    <path stroke="#FFFFFF" stroke-width=".5" d="M134.806238,36.5016904 L134.806238,35.314289 C138.298906,35.314289 139.162223,34.7418764 139.162223,32.2771906 L139.162223,13.3083349 C139.162223,10.402513 137.73688,10.3149953 134.806238,10.3149953 L134.806238,9.12641125 L156.843419,9.12641125 L157.230463,15.7292619 L156.067013,15.7292619 L155.850315,14.8044134 C154.989315,11.1949023 154.298662,11.1073847 151.538365,11.1073847 L143.948128,11.1073847 L143.948128,21.3623225 L150.633331,21.3623225 C153.134053,21.3623225 153.609167,21.0536455 153.867583,18.0165471 L155.032192,18.0165471 L155.032192,26.8641067 L153.867583,26.8641067 C153.565132,23.738308 153.004266,23.3421133 150.633331,23.3421133 L143.948128,23.3421133 L143.948128,31.3535248 C143.948128,34.0819461 144.294613,34.5230823 146.491726,34.5230823 L151.279949,34.5230823 C155.635934,34.5230823 156.496934,33.9057282 157.662701,29.5937108 L158.82731,29.5937108 L158.180691,36.5016904 L134.806238,36.5016904 Z"/>
    <path fill="#FFFFFF" d="M167.453528,14.1007243 L167.453528,31.0010889 C167.453528,34.434382 167.885766,35.5342658 171.767795,35.314289 L171.767795,36.5016904 L161.458979,36.5016904 L161.458979,35.314289 C164.564602,35.4029893 165.081434,34.3906232 165.081434,31.5285601 L165.081434,11.7235562 C164.046612,10.7987076 163.097543,10.4462718 161.458979,10.3149953 L161.458979,9.12641125 L169.265914,9.12641125 L188.498764,29.8562637 L188.498764,14.1007243 C188.498764,10.7987076 187.981932,10.2712365 184.22969,10.3149953 L184.22969,9.12641125 L194.664817,9.12641125 L194.664817,10.3149953 C191.777051,10.3149953 190.870858,10.8436491 190.870858,14.1882419 L190.870858,36.7666087 L188.54164,36.7666087 L167.453528,14.1007243"/>
    <path stroke="#FFFFFF" stroke-width=".5" d="M167.453528,14.1007243 L167.453528,31.0010889 C167.453528,34.434382 167.885766,35.5342658 171.767795,35.314289 L171.767795,36.5016904 L161.458979,36.5016904 L161.458979,35.314289 C164.564602,35.4029893 165.081434,34.3906232 165.081434,31.5285601 L165.081434,11.7235562 C164.046612,10.7987076 163.097543,10.4462718 161.458979,10.3149953 L161.458979,9.12641125 L169.265914,9.12641125 L188.498764,29.8562637 L188.498764,14.1007243 C188.498764,10.7987076 187.981932,10.2712365 184.22969,10.3149953 L184.22969,9.12641125 L194.664817,9.12641125 L194.664817,10.3149953 C191.777051,10.3149953 190.870858,10.8436491 190.870858,14.1882419 L190.870858,36.7666087 L188.54164,36.7666087 L167.453528,14.1007243 Z"/>
    <path fill="#FFFFFF" d="M202.131027,0.531277863 L218.459887,0.531277863 L218.459887,2.11605663 C214.205878,2.11605663 213.400501,3.05509718 213.400501,7.16369527 L213.400501,22.9488014 C213.400501,30.7544282 218.517828,34.3331898 225.704797,34.3331898 C232.087549,34.3331898 238.067034,31.5160681 238.067034,22.831717 L238.067034,7.16369527 C238.067034,2.58557691 237.204875,2.11605663 232.547599,2.11605663 L232.547599,0.531277863 L246.462647,0.531277863 L246.462647,2.11605663 C242.092756,2.11605663 241.230598,3.05509718 241.230598,7.16369527 L241.230598,23.4774552 C241.230598,32.6904601 234.273074,37.9722676 223.807817,37.9722676 C212.882511,37.9722676 207.018908,32.6325093 207.018908,23.0670685 L207.018908,6.57709059 C207.018908,2.99596365 206.09765,2.11605663 202.131027,2.11605663 L202.131027,0.531277863"/>
    <path stroke="#FFFFFF" stroke-width=".5" d="M202.131027,0.531277863 L218.459887,0.531277863 L218.459887,2.11605663 C214.205878,2.11605663 213.400501,3.05509718 213.400501,7.16369527 L213.400501,22.9488014 C213.400501,30.7544282 218.517828,34.3331898 225.704797,34.3331898 C232.087549,34.3331898 238.067034,31.5160681 238.067034,22.831717 L238.067034,7.16369527 C238.067034,2.58557691 237.204875,2.11605663 232.547599,2.11605663 L232.547599,0.531277863 L246.462647,0.531277863 L246.462647,2.11605663 C242.092756,2.11605663 241.230598,3.05509718 241.230598,7.16369527 L241.230598,23.4774552 C241.230598,32.6904601 234.273074,37.9722676 223.807817,37.9722676 C212.882511,37.9722676 207.018908,32.6325093 207.018908,23.0670685 L207.018908,6.57709059 C207.018908,2.99596365 206.09765,2.11605663 202.131027,2.11605663 L202.131027,0.531277863 Z"/>
    <path fill="#FFFFFF" d="M250.954373,14.5373146 L250.954373,31.4376792 C250.954373,34.8709723 251.385452,35.9708561 255.267482,35.752062 L255.267482,36.9382807 L244.959824,36.9382807 L244.959824,35.752062 C248.065447,35.8395796 248.582279,34.8272135 248.582279,31.9651503 L248.582279,12.1601464 C247.546298,11.2352979 246.598388,10.8828621 244.959824,10.7515856 L244.959824,9.56300154 L252.764442,9.56300154 L271.999609,30.2928539 L271.999609,14.5373146 C271.999609,11.2352979 271.481619,10.7078268 267.729376,10.7515856 L267.729376,9.56300154 L278.165662,9.56300154 L278.165662,10.7515856 C275.277896,10.7515856 274.371703,11.2802394 274.371703,14.6248322 L274.371703,37.203199 L272.043644,37.203199 L250.954373,14.5373146"/>
    <path stroke="#FFFFFF" stroke-width=".5" d="M250.954373,14.5373146 L250.954373,31.4376792 C250.954373,34.8709723 251.385452,35.9708561 255.267482,35.752062 L255.267482,36.9382807 L244.959824,36.9382807 L244.959824,35.752062 C248.065447,35.8395796 248.582279,34.8272135 248.582279,31.9651503 L248.582279,12.1601464 C247.546298,11.2352979 246.598388,10.8828621 244.959824,10.7515856 L244.959824,9.56300154 L252.764442,9.56300154 L271.999609,30.2928539 L271.999609,14.5373146 C271.999609,11.2352979 271.481619,10.7078268 267.729376,10.7515856 L267.729376,9.56300154 L278.165662,9.56300154 L278.165662,10.7515856 C275.277896,10.7515856 274.371703,11.2802394 274.371703,14.6248322 L274.371703,37.203199 L272.043644,37.203199 L250.954373,14.5373146 Z"/>
    <path fill="#FFFFFF" d="M280.476387,9.56300154 L292.508361,9.56300154 L292.508361,10.7515856 C289.618277,10.7515856 288.798995,11.4115159 288.798995,14.5373146 L288.798995,31.6588386 C288.798995,34.9596726 289.403896,35.8395796 292.508361,35.752062 L292.508361,36.9382807 L280.476387,36.9382807 L280.476387,35.752062 C283.883302,35.8395796 284.011931,34.4747776 284.011931,31.9651503 L284.011931,14.0524196 C284.011931,11.6752514 283.453382,10.7078268 280.476387,10.7515856 L280.476387,9.56300154"/>
    <path stroke="#FFFFFF" stroke-width=".5" d="M280.476387,9.56300154 L292.508361,9.56300154 L292.508361,10.7515856 C289.618277,10.7515856 288.798995,11.4115159 288.798995,14.5373146 L288.798995,31.6588386 C288.798995,34.9596726 289.403896,35.8395796 292.508361,35.752062 L292.508361,36.9382807 L280.476387,36.9382807 L280.476387,35.752062 C283.883302,35.8395796 284.011931,34.4747776 284.011931,31.9651503 L284.011931,14.0524196 C284.011931,11.6752514 283.453382,10.7078268 280.476387,10.7515856 L280.476387,9.56300154 Z"/>
    <path fill="#FFFFFF" d="M296.409935,14.1399372 C295.201292,11.1040215 294.726177,10.7515856 291.967039,10.7515856 L291.967039,9.56300154 L305.250534,9.56300154 L305.250534,10.7515856 C301.712672,10.7953444 301.10893,11.7190103 301.10893,12.6438588 C301.10893,13.2162714 301.325628,14.0961784 301.798424,15.2847625 L308.312122,31.6150798 L314.651998,16.0333931 C315.426087,14.1399372 315.643944,13.303789 315.643944,12.6438588 C315.643944,11.1915391 314.521052,10.7515856 311.761914,10.7515856 L311.761914,9.56300154 L322.241077,9.56300154 L322.241077,10.7515856 C319.178329,10.7515856 318.61978,12.3801232 317.239632,15.7684748 L308.312122,37.6431525 L305.680454,37.6431525 L296.409935,14.1399372"/>
    <path stroke="#FFFFFF" stroke-width=".5" d="M296.409935,14.1399372 C295.201292,11.1040215 294.726177,10.7515856 291.967039,10.7515856 L291.967039,9.56300154 L305.250534,9.56300154 L305.250534,10.7515856 C301.712672,10.7953444 301.10893,11.7190103 301.10893,12.6438588 C301.10893,13.2162714 301.325628,14.0961784 301.798424,15.2847625 L308.312122,31.6150798 L314.651998,16.0333931 C315.426087,14.1399372 315.643944,13.303789 315.643944,12.6438588 C315.643944,11.1915391 314.521052,10.7515856 311.761914,10.7515856 L311.761914,9.56300154 L322.241077,9.56300154 L322.241077,10.7515856 C319.178329,10.7515856 318.61978,12.3801232 317.239632,15.7684748 L308.312122,37.6431525 L305.680454,37.6431525 L296.409935,14.1399372 Z"/>
    <path fill="#FFFFFF" d="M320.693671,36.9382807 L320.693671,35.752062 C324.186339,35.752062 325.048497,35.1784667 325.048497,32.7137809 L325.048497,13.7449252 C325.048497,10.8391032 323.625473,10.7515856 320.693671,10.7515856 L320.693671,9.56300154 L342.729694,9.56300154 L343.119056,16.1658522 L341.953288,16.1658522 L341.737748,15.2410037 C340.87559,11.6314926 340.186095,11.543975 337.426957,11.543975 L329.835561,11.543975 L329.835561,21.7989128 L336.519605,21.7989128 C339.022645,21.7989128 339.495442,21.4902358 339.753857,18.45432 L340.918466,18.45432 L340.918466,27.300697 L339.753857,27.300697 C339.452566,24.176081 338.89054,23.7798863 336.519605,23.7798863 L329.835561,23.7798863 L329.835561,31.7901151 C329.835561,34.5185364 330.179729,34.9596726 332.37916,34.9596726 L337.166224,34.9596726 C341.523368,34.9596726 342.385526,34.3423185 343.548976,30.030301 L344.714744,30.030301 L344.066966,36.9382807 L320.693671,36.9382807"/>
    <path stroke="#FFFFFF" stroke-width=".5" d="M320.693671,36.9382807 L320.693671,35.752062 C324.186339,35.752062 325.048497,35.1784667 325.048497,32.7137809 L325.048497,13.7449252 C325.048497,10.8391032 323.625473,10.7515856 320.693671,10.7515856 L320.693671,9.56300154 L342.729694,9.56300154 L343.119056,16.1658522 L341.953288,16.1658522 L341.737748,15.2410037 C340.87559,11.6314926 340.186095,11.543975 337.426957,11.543975 L329.835561,11.543975 L329.835561,21.7989128 L336.519605,21.7989128 C339.022645,21.7989128 339.495442,21.4902358 339.753857,18.45432 L340.918466,18.45432 L340.918466,27.300697 L339.753857,27.300697 C339.452566,24.176081 338.89054,23.7798863 336.519605,23.7798863 L329.835561,23.7798863 L329.835561,31.7901151 C329.835561,34.5185364 330.179729,34.9596726 332.37916,34.9596726 L337.166224,34.9596726 C341.523368,34.9596726 342.385526,34.3423185 343.548976,30.030301 L344.714744,30.030301 L344.066966,36.9382807 L320.693671,36.9382807 Z"/>
    <path fill="#FFFFFF" d="M354.56075,24.2172157 C354.8632,24.2609746 355.683641,24.3484922 355.940898,24.3484922 C361.675873,24.0847566 363.660922,21.8400476 363.660922,17.3494469 C363.660922,12.906153 361.332863,10.2640666 356.630393,10.2640666 C355.983774,10.2640666 354.950111,10.3527669 354.56075,10.4414672 L354.56075,24.2172157 Z M354.56075,31.2588372 C354.56075,35.0433835 355.035864,35.7482553 358.959611,35.6169788 L358.959611,36.8031976 L345.764186,36.8031976 L345.764186,35.6169788 C349.386641,35.7482553 349.774844,34.7358891 349.774844,31.8300672 L349.774844,14.1822547 C349.774844,11.3213742 349.300889,10.6165024 345.764186,10.6165024 L345.764186,9.42791837 C346.754973,9.42791837 348.954403,9.25170043 351.931399,9.11924131 C354.216582,9.03172367 356.33026,9.03172367 357.191259,9.03172367 C365.904388,9.03172367 368.879065,12.906153 368.879065,16.910676 C368.879065,20.1677512 367.068997,22.5449193 363.445383,24.0847566 C364.133719,24.5684689 365.988981,26.4169833 366.679635,27.1206724 L369.483967,29.9827355 C373.320803,33.8997409 376.252604,35.6607376 379.832183,36.0557497 L379.832183,37.2892752 C371.336912,37.5080693 369.223233,35.968232 365.341204,32.0062851 L363.05718,29.6740584 C360.85659,27.4305321 360.209972,26.813178 358.398744,25.448376 C357.148383,25.5370763 355.683641,25.5808351 354.56075,25.448376 L354.56075,31.2588372 L354.56075,31.2588372 Z"/>
    <path stroke="#FFFFFF" stroke-width=".5" d="M354.56075,24.2172157 C354.8632,24.2609746 355.683641,24.3484922 355.940898,24.3484922 C361.675873,24.0847566 363.660922,21.8400476 363.660922,17.3494469 C363.660922,12.906153 361.332863,10.2640666 356.630393,10.2640666 C355.983774,10.2640666 354.950111,10.3527669 354.56075,10.4414672 L354.56075,24.2172157 Z M354.56075,31.2588372 C354.56075,35.0433835 355.035864,35.7482553 358.959611,35.6169788 L358.959611,36.8031976 L345.764186,36.8031976 L345.764186,35.6169788 C349.386641,35.7482553 349.774844,34.7358891 349.774844,31.8300672 L349.774844,14.1822547 C349.774844,11.3213742 349.300889,10.6165024 345.764186,10.6165024 L345.764186,9.42791837 C346.754973,9.42791837 348.954403,9.25170043 351.931399,9.11924131 C354.216582,9.03172367 356.33026,9.03172367 357.191259,9.03172367 C365.904388,9.03172367 368.879065,12.906153 368.879065,16.910676 C368.879065,20.1677512 367.068997,22.5449193 363.445383,24.0847566 C364.133719,24.5684689 365.988981,26.4169833 366.679635,27.1206724 L369.483967,29.9827355 C373.320803,33.8997409 376.252604,35.6607376 379.832183,36.0557497 L379.832183,37.2892752 C371.336912,37.5080693 369.223233,35.968232 365.341204,32.0062851 L363.05718,29.6740584 C360.85659,27.4305321 360.209972,26.813178 358.398744,25.448376 C357.148383,25.5370763 355.683641,25.5808351 354.56075,25.448376 L354.56075,31.2588372 Z"/>
    <path fill="#FFFFFF" d="M375.01312,29.8928525 L376.306358,29.8928525 C377.386373,33.9423171 380.059759,36.2307849 383.767966,36.2307849 C386.916466,36.2307849 389.114738,34.3396944 389.114738,31.6976081 C389.114738,25.5358936 375.531111,23.1149666 375.531111,15.4571737 C375.531111,11.6726274 378.80708,9.03172367 383.42264,9.03172367 C384.846823,9.03172367 385.880486,9.20794161 386.743803,9.38297688 C387.604802,9.55919482 388.295456,9.73541275 389.027827,9.73541275 C389.588693,9.73541275 389.892303,9.6041363 390.235312,9.20794161 L391.315327,9.20794161 L392.263238,16.0284037 L390.968842,16.0284037 C389.675604,12.5525344 387.00106,10.4402845 383.939471,10.4402845 C381.180333,10.4402845 379.713273,12.1125809 379.713273,14.0486129 C379.713273,19.9465918 393.340936,21.7064058 393.340936,30.2027123 C393.340936,34.7347065 389.588693,37.8155637 384.069258,37.8155637 C380.833847,37.8155637 379.497734,37.0231743 378.290249,37.0231743 C377.773417,37.0231743 377.429249,37.1556334 377.12564,37.5080693 L376.091977,37.5080693 L375.01312,29.8928525"/>
    <path stroke="#FFFFFF" stroke-width=".5" d="M375.01312,29.8928525 L376.306358,29.8928525 C377.386373,33.9423171 380.059759,36.2307849 383.767966,36.2307849 C386.916466,36.2307849 389.114738,34.3396944 389.114738,31.6976081 C389.114738,25.5358936 375.531111,23.1149666 375.531111,15.4571737 C375.531111,11.6726274 378.80708,9.03172367 383.42264,9.03172367 C384.846823,9.03172367 385.880486,9.20794161 386.743803,9.38297688 C387.604802,9.55919482 388.295456,9.73541275 389.027827,9.73541275 C389.588693,9.73541275 389.892303,9.6041363 390.235312,9.20794161 L391.315327,9.20794161 L392.263238,16.0284037 L390.968842,16.0284037 C389.675604,12.5525344 387.00106,10.4402845 383.939471,10.4402845 C381.180333,10.4402845 379.713273,12.1125809 379.713273,14.0486129 C379.713273,19.9465918 393.340936,21.7064058 393.340936,30.2027123 C393.340936,34.7347065 389.588693,37.8155637 384.069258,37.8155637 C380.833847,37.8155637 379.497734,37.0231743 378.290249,37.0231743 C377.773417,37.0231743 377.429249,37.1556334 377.12564,37.5080693 L376.091977,37.5080693 L375.01312,29.8928525 Z"/>
    <path fill="#FFFFFF" d="M395.905216,9.56300154 L407.937191,9.56300154 L407.937191,10.7515856 C405.048265,10.7515856 404.228983,11.4115159 404.228983,14.5373146 L404.228983,31.6588386 C404.228983,34.9596726 404.832726,35.8395796 407.937191,35.752062 L407.937191,36.9382807 L395.905216,36.9382807 L395.905216,35.752062 C399.313291,35.8395796 399.44076,34.4747776 399.44076,31.9651503 L399.44076,14.0524196 C399.44076,11.6752514 398.881053,10.7078268 395.905216,10.7515856 L395.905216,9.56300154"/>
    <path stroke="#FFFFFF" stroke-width=".5" d="M395.905216,9.56300154 L407.937191,9.56300154 L407.937191,10.7515856 C405.048265,10.7515856 404.228983,11.4115159 404.228983,14.5373146 L404.228983,31.6588386 C404.228983,34.9596726 404.832726,35.8395796 407.937191,35.752062 L407.937191,36.9382807 L395.905216,36.9382807 L395.905216,35.752062 C399.313291,35.8395796 399.44076,34.4747776 399.44076,31.9651503 L399.44076,14.0524196 C399.44076,11.6752514 398.881053,10.7078268 395.905216,10.7515856 L395.905216,9.56300154 Z"/>
    <path fill="#FFFFFF" d="M411.306089,9.03172367 L412.470698,9.03172367 C412.642203,9.34040073 412.773149,9.56037749 413.160193,9.64907779 C413.547237,9.73659542 414.153297,9.78035424 415.27503,9.78035424 L433.515934,9.78035424 C435.714206,9.78035424 436.060691,9.69283661 436.320266,9.03172367 L437.483716,9.03172367 L438.258963,16.6031816 L437.008602,16.6031816 C436.404859,12.0250633 435.54386,11.7613277 432.955068,11.7613277 L426.789014,11.7613277 L426.789014,32.4911801 C426.789014,35.483337 427.262969,35.9694147 431.791618,35.9694147 L431.791618,37.1556334 L416.998188,37.1556334 L416.998188,35.9694147 C421.311296,35.9694147 422.000791,35.3958194 422.000791,32.4911801 L422.000791,11.7613277 L415.834738,11.7613277 C413.28998,11.7613277 412.427822,12.0250633 411.780045,16.6031816 L410.529683,16.6031816 L411.306089,9.03172367"/>
    <path stroke="#FFFFFF" stroke-width=".5" d="M411.306089,9.03172367 L412.470698,9.03172367 C412.642203,9.34040073 412.773149,9.56037749 413.160193,9.64907779 C413.547237,9.73659542 414.153297,9.78035424 415.27503,9.78035424 L433.515934,9.78035424 C435.714206,9.78035424 436.060691,9.69283661 436.320266,9.03172367 L437.483716,9.03172367 L438.258963,16.6031816 L437.008602,16.6031816 C436.404859,12.0250633 435.54386,11.7613277 432.955068,11.7613277 L426.789014,11.7613277 L426.789014,32.4911801 C426.789014,35.483337 427.262969,35.9694147 431.791618,35.9694147 L431.791618,37.1556334 L416.998188,37.1556334 L416.998188,35.9694147 C421.311296,35.9694147 422.000791,35.3958194 422.000791,32.4911801 L422.000791,11.7613277 L415.834738,11.7613277 C413.28998,11.7613277 412.427822,12.0250633 411.780045,16.6031816 L410.529683,16.6031816 L411.306089,9.03172367 Z"/>
    <path fill="#FFFFFF" d="M442.556753,14.3173378 C440.401358,11.1477803 439.840491,10.8828621 437.167106,10.7515856 L437.167106,9.56300154 L450.14699,9.56300154 L450.14699,10.7515856 C447.817773,10.7515856 447.127119,11.2352979 447.127119,12.0276873 C447.127119,12.5989173 447.473605,13.3475478 448.595337,14.9760854 L454.24456,23.206291 L459.160252,15.2410037 C460.152198,13.6124661 460.584435,12.7325591 460.584435,12.1163876 C460.584435,11.1477803 459.763995,10.7515856 457.82298,10.7515856 L457.82298,9.56300154 L467.957974,9.56300154 L467.957974,10.7515856 C464.809474,11.1040215 464.033068,11.6752514 461.27393,16.209611 L455.452045,25.8034359 L455.452045,31.9213915 C455.452045,35.1784667 455.968876,35.752062 459.549614,35.752062 L459.549614,36.9382807 L446.524535,36.9382807 L446.524535,35.752062 C449.802822,35.752062 450.664981,35.4433849 450.664981,31.7901151 L450.664981,26.1996306 L442.556753,14.3173378"/>
    <path stroke="#FFFFFF" stroke-width=".5" d="M442.556753,14.3173378 C440.401358,11.1477803 439.840491,10.8828621 437.167106,10.7515856 L437.167106,9.56300154 L450.14699,9.56300154 L450.14699,10.7515856 C447.817773,10.7515856 447.127119,11.2352979 447.127119,12.0276873 C447.127119,12.5989173 447.473605,13.3475478 448.595337,14.9760854 L454.24456,23.206291 L459.160252,15.2410037 C460.152198,13.6124661 460.584435,12.7325591 460.584435,12.1163876 C460.584435,11.1477803 459.763995,10.7515856 457.82298,10.7515856 L457.82298,9.56300154 L467.957974,9.56300154 L467.957974,10.7515856 C464.809474,11.1040215 464.033068,11.6752514 461.27393,16.209611 L455.452045,25.8034359 L455.452045,31.9213915 C455.452045,35.1784667 455.968876,35.752062 459.549614,35.752062 L459.549614,36.9382807 L446.524535,36.9382807 L446.524535,35.752062 C449.802822,35.752062 450.664981,35.4433849 450.664981,31.7901151 L450.664981,26.1996306 L442.556753,14.3173378 Z"/>
    <path fill="#FFFFFF" d="M19.7844885,45.5625004 L274.955512,45.5625004"/>
  </g>
</svg>
