<?xml version="1.0" encoding="UTF-8"?>
<svg width="49px" height="49px" viewBox="0 0 49 49" version="1.1" xmlns="http://www.w3.org/2000/svg" xmlns:xlink="http://www.w3.org/1999/xlink">
    <!-- Generator: Sketch 46.2 (44496) - http://www.bohemiancoding.com/sketch -->
    <title>Combined Shape</title>
    <desc>Created with Sketch.</desc>
    <defs></defs>
    <g id="Page-1" stroke="none" stroke-width="1" fill="none" fill-rule="evenodd">
        <g id="icons" transform="translate(-64.000000, -483.000000)" fill="#FFFFFF">
            <path d="M88.5,532 C74.9690236,532 64,521.030976 64,507.5 C64,493.969024 74.9690236,483 88.5,483 C102.030976,483 113,493.969024 113,507.5 C113,521.030976 102.030976,532 88.5,532 Z M74.7850012,513.220679 L83.9401693,522.584286 L83.9401693,522.584286 C84.3262736,522.979181 84.9593985,522.986307 85.3542933,522.600203 C85.414478,522.541358 85.4669924,522.47515 85.5105907,522.403149 L101.570066,495.88156 L101.570066,495.88156 C101.856131,495.409135 101.705056,494.794257 101.232631,494.508192 C101.225171,494.503675 101.217652,494.499255 101.210076,494.494935 L99.6961238,493.631502 L99.6961238,493.631502 C99.2205475,493.360272 98.6152812,493.521892 98.3382182,493.994094 L84.9654581,516.785436 L84.9654581,516.785436 C84.6859653,517.261778 84.0732397,517.421357 83.5968972,517.141864 C83.5032644,517.086925 83.4192023,517.017106 83.3480106,516.935148 L77.8062176,510.555266 C77.4475525,510.14236 76.8237059,510.094197 76.4059137,510.447159 L74.8546705,511.75769 C74.4327879,512.114107 74.3797179,512.745044 74.7361354,513.166927 C74.7517676,513.18543 74.768067,513.20336 74.7850012,513.220679 Z" id="Combined-Shape"></path>
        </g>
    </g>
</svg>