<?xml version="1.0" encoding="utf-8"?>
<!-- Generator: Adobe Illustrator 21.0.2, SVG Export Plug-In . SVG Version: 6.00 Build 0)  -->
<svg version="1.1" id="Layer_1" xmlns="http://www.w3.org/2000/svg" xmlns:xlink="http://www.w3.org/1999/xlink" x="0px" y="0px"
	 viewBox="0 0 24 24" style="enable-background:new 0 0 24 24;" xml:space="preserve">
<style type="text/css">
	.st0{fill:#FFFFFF;}
</style>
<path class="st0" d="M6.5,22H2.3V8.6h4.2V22z M4.4,6.8C3.1,6.8,2,5.7,2,4.4C2,3.1,3.1,2,4.4,2c1.3,0,2.4,1.1,2.4,2.4
	C6.8,5.7,5.7,6.8,4.4,6.8z M22,22h-4.1v-6.5c0-1.5,0-3.5-2.2-3.5c-2.2,0-2.5,1.7-2.5,3.4V22H9.1V8.6h4v1.8h0.1
	C13.7,9.4,15,8.3,17,8.3c4.2,0,5,2.8,5,6.4V22z"/>
</svg>
