<?xml version="1.0" encoding="utf-8"?>
<!-- Generator: Adobe Illustrator 21.0.2, SVG Export Plug-In . SVG Version: 6.00 Build 0)  -->
<svg version="1.1" id="Layer_1" xmlns="http://www.w3.org/2000/svg" xmlns:xlink="http://www.w3.org/1999/xlink" x="0px" y="0px"
	 viewBox="0 0 24 24" style="enable-background:new 0 0 24 24;" xml:space="preserve">
<style type="text/css">
	.st0{fill:#FFFFFF;}
</style>
<path class="st0" d="M21.9,16.1c0,1.1-0.2,1.8-0.5,2.4c-0.3,0.7-0.6,1.2-1.2,1.8c-0.6,0.6-1.1,0.9-1.8,1.2c-0.6,0.2-1.4,0.4-2.4,0.5
	C15.1,22,14.7,22,12,22s-3.1,0-4.1-0.1c-1.1,0-1.8-0.2-2.4-0.5c-0.7-0.3-1.2-0.6-1.8-1.2c-0.6-0.6-0.9-1.1-1.2-1.8
	c-0.2-0.6-0.4-1.4-0.5-2.4C2,15.1,2,14.7,2,12s0-3.1,0.1-4.1c0-1.1,0.2-1.8,0.5-2.4c0.3-0.7,0.6-1.2,1.2-1.8
	c0.6-0.6,1.1-0.9,1.8-1.2c0.6-0.2,1.4-0.4,2.4-0.5C8.9,2,9.3,2,12,2s3.1,0,4.1,0.1c1.1,0,1.8,0.2,2.4,0.5c0.7,0.3,1.2,0.6,1.8,1.2
	c0.6,0.6,0.9,1.1,1.2,1.8c0.2,0.6,0.4,1.4,0.5,2.4C22,8.9,22,9.3,22,12S22,15.1,21.9,16.1z M19.8,6.1C19.6,5.6,19.4,5.3,19,5
	c-0.3-0.3-0.7-0.6-1.1-0.7C17.5,4.1,17,3.9,16,3.9c-1.1,0-1.4-0.1-4-0.1s-3,0-4,0.1c-1,0-1.5,0.2-1.9,0.3C5.6,4.4,5.3,4.6,5,5
	C4.6,5.3,4.4,5.6,4.2,6.1C4.1,6.5,3.9,7,3.9,8c0,1.1-0.1,1.4-0.1,4c0,2.7,0,3,0.1,4c0,1,0.2,1.5,0.3,1.9C4.4,18.4,4.6,18.7,5,19
	c0.3,0.3,0.7,0.6,1.1,0.7C6.5,19.9,7,20.1,8,20.1c1.1,0,1.4,0.1,4,0.1c2.7,0,3,0,4-0.1c1,0,1.5-0.2,1.9-0.3c0.5-0.2,0.8-0.4,1.1-0.7
	c0.3-0.3,0.6-0.7,0.7-1.1c0.1-0.4,0.3-0.9,0.3-1.9c0-1.1,0.1-1.4,0.1-4c0-2.7,0-3-0.1-4C20.1,7,19.9,6.5,19.8,6.1z M12,17.1
	c-2.8,0-5.1-2.3-5.1-5.1S9.2,6.9,12,6.9c2.8,0,5.1,2.3,5.1,5.1S14.8,17.1,12,17.1z M17.3,7.9c-0.7,0-1.2-0.5-1.2-1.2
	s0.5-1.2,1.2-1.2c0.7,0,1.2,0.5,1.2,1.2S18,7.9,17.3,7.9z M12,8.7c-1.8,0-3.3,1.5-3.3,3.3s1.5,3.3,3.3,3.3s3.3-1.5,3.3-3.3
	S13.8,8.7,12,8.7z"/>
</svg>
