<?xml version="1.0" encoding="UTF-8"?>
<svg width="1177px" height="418px" viewBox="0 0 1177 418" version="1.1" xmlns="http://www.w3.org/2000/svg" xmlns:xlink="http://www.w3.org/1999/xlink">
    <!-- Generator: Sketch 49.1 (51147) - http://www.bohemiancoding.com/sketch -->
    <title>Group 2</title>
    <desc>Created with Sketch.</desc>
    <defs>
        <rect id="path-1" x="0" y="15" width="4" height="8" rx="2"></rect>
        <rect id="path-2" x="0" y="27" width="4" height="8" rx="2"></rect>
    </defs>
    <g id="Page-1" stroke="none" stroke-width="1" fill="none" fill-rule="evenodd">
        <g id="500" transform="translate(-226.000000, -226.000000)">
            <g id="Group-2" transform="translate(230.000000, 225.000000)">
                <g id="pattern">
                    <g id="if_plus_216373-copy-2" opacity="0.45" transform="translate(48.668800, 354.668800) rotate(-22.000000) translate(-48.668800, -354.668800) translate(38.168800, 344.168800)" fill="#041C3F" fill-rule="nonzero">
                        <path d="M17.5379572,7.51626739 L12.5271123,7.51626739 L12.5271123,2.50542246 C12.5271123,1.12242926 11.4046831,0 10.0216899,0 C8.63869666,0 7.51626739,1.12242926 7.51626739,2.50542246 L7.60520989,7.51626739 L2.50542246,7.51626739 C1.12242926,7.51626739 0,8.63869666 0,10.0216899 C0,11.4046831 1.12242926,12.5271123 2.50542246,12.5271123 L7.60520989,12.4381698 L7.51626739,17.5379572 C7.51626739,18.9209504 8.63869666,20.0433797 10.0216899,20.0433797 C11.4046831,20.0433797 12.5271123,18.9209504 12.5271123,17.5379572 L12.5271123,12.4381698 L17.5379572,12.5271123 C18.9209504,12.5271123 20.0433797,11.4046831 20.0433797,10.0216899 C20.0433797,8.63869666 18.9209504,7.51626739 17.5379572,7.51626739 Z" id="Shape"></path>
                    </g>
                    <g id="if_plus_216373-copy-3" opacity="0.45" transform="translate(89.615148, 143.301053) rotate(-47.000000) translate(-89.615148, -143.301053) translate(78.615148, 132.301053)" fill="#041C3F" fill-rule="nonzero">
                        <path d="M18.5151432,7.93506135 L13.2251023,7.93506135 L13.2251023,2.64502045 C13.2251023,1.18496916 12.0401331,0 10.5800818,0 C9.12003051,0 7.93506135,1.18496916 7.93506135,2.64502045 L8.02895958,7.93506135 L2.64502045,7.93506135 C1.18496916,7.93506135 0,9.12003051 0,10.5800818 C0,12.0401331 1.18496916,13.2251023 2.64502045,13.2251023 L8.02895958,13.131204 L7.93506135,18.5151432 C7.93506135,19.9751944 9.12003051,21.1601636 10.5800818,21.1601636 C12.0401331,21.1601636 13.2251023,19.9751944 13.2251023,18.5151432 L13.2251023,13.131204 L18.5151432,13.2251023 C19.9751944,13.2251023 21.1601636,12.0401331 21.1601636,10.5800818 C21.1601636,9.12003051 19.9751944,7.93506135 18.5151432,7.93506135 Z" id="Shape"></path>
                    </g>
                    <g id="if_plus_216373-copy-4" opacity="0.45" transform="translate(133.539122, 195.228667) rotate(-2.000000) translate(-133.539122, -195.228667) translate(128.539122, 190.228667)" fill="#041C3F" fill-rule="nonzero">
                        <path d="M8.12277717,3.48119022 L5.80198369,3.48119022 L5.80198369,1.16039674 C5.80198369,0.519857739 5.28212595,0 4.64158695,0 C4.00104796,0 3.48119022,0.519857739 3.48119022,1.16039674 L3.5223843,3.48119022 L1.16039674,3.48119022 C0.519857739,3.48119022 0,4.00104796 0,4.64158695 C0,5.28212595 0.519857739,5.80198369 1.16039674,5.80198369 L3.5223843,5.76078961 L3.48119022,8.12277717 C3.48119022,8.76331617 4.00104796,9.28317391 4.64158695,9.28317391 C5.28212595,9.28317391 5.80198369,8.76331617 5.80198369,8.12277717 L5.80198369,5.76078961 L8.12277717,5.80198369 C8.76331617,5.80198369 9.28317391,5.28212595 9.28317391,4.64158695 C9.28317391,4.00104796 8.76331617,3.48119022 8.12277717,3.48119022 Z" id="Shape"></path>
                    </g>
                    <g id="if_plus_216373-copy-6" opacity="0.45" transform="translate(247.960842, 95.960842) rotate(-49.000000) translate(-247.960842, -95.960842) translate(241.460842, 89.460842)" fill="#041C3F" fill-rule="nonzero">
                        <path d="M11.375,4.875 L8.125,4.875 L8.125,1.625 C8.125,0.728 7.397,0 6.5,0 C5.603,0 4.875,0.728 4.875,1.625 L4.9326875,4.875 L1.625,4.875 C0.728,4.875 0,5.603 0,6.5 C0,7.397 0.728,8.125 1.625,8.125 L4.9326875,8.0673125 L4.875,11.375 C4.875,12.272 5.603,13 6.5,13 C7.397,13 8.125,12.272 8.125,11.375 L8.125,8.0673125 L11.375,8.125 C12.272,8.125 13,7.397 13,6.5 C13,5.603 12.272,4.875 11.375,4.875 Z" id="Shape"></path>
                    </g>
                    <g id="if_plus_216373-copy-7" opacity="0.45" transform="translate(262.537904, 39.193788) rotate(-2.000000) translate(-262.537904, -39.193788) translate(257.537904, 34.193788)" fill="#041C3F" fill-rule="nonzero">
                        <path d="M8.15331423,3.49427753 L5.82379588,3.49427753 L5.82379588,1.16475918 C5.82379588,0.521812111 5.30198377,0 4.6590367,0 C4.01608964,0 3.49427753,0.521812111 3.49427753,1.16475918 L3.53562648,3.49427753 L1.16475918,3.49427753 C0.521812111,3.49427753 0,4.01608964 0,4.6590367 C0,5.30198377 0.521812111,5.82379588 1.16475918,5.82379588 L3.53562648,5.78244693 L3.49427753,8.15331423 C3.49427753,8.7962613 4.01608964,9.31807341 4.6590367,9.31807341 C5.30198377,9.31807341 5.82379588,8.7962613 5.82379588,8.15331423 L5.82379588,5.78244693 L8.15331423,5.82379588 C8.7962613,5.82379588 9.31807341,5.30198377 9.31807341,4.6590367 C9.31807341,4.01608964 8.7962613,3.49427753 8.15331423,3.49427753 Z" id="Shape"></path>
                    </g>
                    <g id="if_plus_216373-copy-8" opacity="0.45" transform="translate(147.098003, 11.818807) rotate(-2.000000) translate(-147.098003, -11.818807) translate(136.598003, 1.318807)" fill="#041C3F" fill-rule="nonzero">
                        <path d="M17.6712132,7.5733771 L12.6222952,7.5733771 L12.6222952,2.52445903 C12.6222952,1.13095765 11.4913375,0 10.0978361,0 C8.70433475,0 7.5733771,1.13095765 7.5733771,2.52445903 L7.6629954,7.5733771 L2.52445903,7.5733771 C1.13095765,7.5733771 0,8.70433475 0,10.0978361 C0,11.4913375 1.13095765,12.6222952 2.52445903,12.6222952 L7.6629954,12.5326769 L7.5733771,17.6712132 C7.5733771,19.0647146 8.70433475,20.1956723 10.0978361,20.1956723 C11.4913375,20.1956723 12.6222952,19.0647146 12.6222952,17.6712132 L12.6222952,12.5326769 L17.6712132,12.6222952 C19.0647146,12.6222952 20.1956723,11.4913375 20.1956723,10.0978361 C20.1956723,8.70433475 19.0647146,7.5733771 17.6712132,7.5733771 Z" id="Shape"></path>
                    </g>
                    <g id="if_plus_216373-copy-18" opacity="0.45" transform="translate(253.825013, 348.001402) rotate(-56.000000) translate(-253.825013, -348.001402) translate(243.325013, 337.501402)" fill="#041C3F" fill-rule="nonzero">
                        <path d="M18.2193991,7.80831389 L13.0138565,7.80831389 L13.0138565,2.6027713 C13.0138565,1.16604154 11.8478149,0 10.4110852,0 C8.97435543,0 7.80831389,1.16604154 7.80831389,2.6027713 L7.90071227,7.80831389 L2.6027713,7.80831389 C1.16604154,7.80831389 0,8.97435543 0,10.4110852 C0,11.8478149 1.16604154,13.0138565 2.6027713,13.0138565 L7.90071227,12.9214581 L7.80831389,18.2193991 C7.80831389,19.6561288 8.97435543,20.8221704 10.4110852,20.8221704 C11.8478149,20.8221704 13.0138565,19.6561288 13.0138565,18.2193991 L13.0138565,12.9214581 L18.2193991,13.0138565 C19.6561288,13.0138565 20.8221704,11.8478149 20.8221704,10.4110852 C20.8221704,8.97435543 19.6561288,7.80831389 18.2193991,7.80831389 Z" id="Shape"></path>
                    </g>
                    <g id="if_plus_216373-copy-19" opacity="0.45" transform="translate(179.326270, 297.436579) rotate(-60.000000) translate(-179.326270, -297.436579) translate(168.326270, 286.436579)" fill="#041C3F" fill-rule="nonzero">
                        <path d="M18.3934081,7.88288919 L13.1381486,7.88288919 L13.1381486,2.62762973 C13.1381486,1.17717812 11.9609705,0 10.5105189,0 C9.0600673,0 7.88288919,1.17717812 7.88288919,2.62762973 L7.97617004,7.88288919 L2.62762973,7.88288919 C1.17717812,7.88288919 0,9.0600673 0,10.5105189 C0,11.9609705 1.17717812,13.1381486 2.62762973,13.1381486 L7.97617004,13.0448678 L7.88288919,18.3934081 C7.88288919,19.8438597 9.0600673,21.0210378 10.5105189,21.0210378 C11.9609705,21.0210378 13.1381486,19.8438597 13.1381486,18.3934081 L13.1381486,13.0448678 L18.3934081,13.1381486 C19.8438597,13.1381486 21.0210378,11.9609705 21.0210378,10.5105189 C21.0210378,9.0600673 19.8438597,7.88288919 18.3934081,7.88288919 Z" id="Shape"></path>
                    </g>
                    <g id="if_plus_216373-copy-20" opacity="0.45" transform="translate(117.960842, 294.960842) rotate(-30.000000) translate(-117.960842, -294.960842) translate(111.460842, 288.460842)" fill="#041C3F" fill-rule="nonzero">
                        <path d="M11.375,4.875 L8.125,4.875 L8.125,1.625 C8.125,0.728 7.397,0 6.5,0 C5.603,0 4.875,0.728 4.875,1.625 L4.9326875,4.875 L1.625,4.875 C0.728,4.875 0,5.603 0,6.5 C0,7.397 0.728,8.125 1.625,8.125 L4.9326875,8.0673125 L4.875,11.375 C4.875,12.272 5.603,13 6.5,13 C7.397,13 8.125,12.272 8.125,11.375 L8.125,8.0673125 L11.375,8.125 C12.272,8.125 13,7.397 13,6.5 C13,5.603 12.272,4.875 11.375,4.875 Z" id="Shape"></path>
                    </g>
                    <g id="if_plus_216373-copy-21" opacity="0.05" transform="translate(110.438386, 407.546258) rotate(-330.000000) translate(-110.438386, -407.546258) translate(97.438386, 394.546258)" fill="#041C3F" fill-rule="nonzero">
                        <path d="M22.0174482,9.43604924 L15.7267487,9.43604924 L15.7267487,3.14534975 C15.7267487,1.40911669 14.3176321,0 12.581399,0 C10.8451659,0 9.43604924,1.40911669 9.43604924,3.14534975 L9.54770916,9.43604924 L3.14534975,9.43604924 C1.40911669,9.43604924 0,10.8451659 0,12.581399 C0,14.3176321 1.40911669,15.7267487 3.14534975,15.7267487 L9.54770916,15.6150888 L9.43604924,22.0174482 C9.43604924,23.7536813 10.8451659,25.162798 12.581399,25.162798 C14.3176321,25.162798 15.7267487,23.7536813 15.7267487,22.0174482 L15.7267487,15.6150888 L22.0174482,15.7267487 C23.7536813,15.7267487 25.162798,14.3176321 25.162798,12.581399 C25.162798,10.8451659 23.7536813,9.43604924 22.0174482,9.43604924 Z" id="Shape"></path>
                    </g>
                    <circle id="Oval-4" stroke="#041C3F" stroke-width="8" opacity="0.05" cx="130.5" cy="77.5" r="17.5"></circle>
                    <circle id="Oval-4-Copy-3" stroke="#041C3F" stroke-width="8" cx="220.5" cy="54.5" r="10.5"></circle>
                    <circle id="Oval-4-Copy-15" stroke="#041C3F" stroke-width="8" opacity="0.05" cx="195" cy="354" r="13"></circle>
                    <circle id="Oval-4-Copy-16" stroke="#041C3F" stroke-width="8" opacity="0.15" cx="134.5" cy="338.5" r="10.5"></circle>
                    <circle id="Oval-4-Copy-17" stroke="#041C3F" stroke-width="8" cx="167" cy="408" r="7"></circle>
                    <circle id="Oval-4-Copy-18" stroke="#041C3F" stroke-width="8" opacity="0.05" cx="10.5" cy="264.5" r="10.5"></circle>
                    <circle id="Oval-4-Copy-20" stroke="#00A8BD" stroke-width="8" opacity="0.05" cx="83.5" cy="258.5" r="21.5"></circle>
                    <circle id="Oval-4-Copy-19" stroke="#041C3F" stroke-width="8" cx="53" cy="182" r="13"></circle>
                </g>
                <g id="if_Monitor_2215474" transform="translate(184.000000, 133.000000)">
                    <path d="M66,8 L80.7304646,8 C82.3026384,8 83.7290194,8.9209743 84.3760316,10.3538406 L96,36.0961569 L96,69 C96,71.209139 94.209139,73 92,73 L66,73 L66,8 Z" id="Rectangle" fill="#6CC7BA"></path>
                    <rect id="Rectangle-path" fill="#20293B" fill-rule="nonzero" x="9" y="8" width="46" height="36"></rect>
                    <path d="M37,61 L51,61" id="Shape" stroke="#20293B" stroke-width="1.5"></path>
                    <path d="M9,52 L9,69" id="Shape" stroke="#20293B" stroke-width="1.5"></path>
                    <path d="M14,52 L14,69" id="Shape" stroke="#20293B" stroke-width="1.5"></path>
                    <path d="M92.6531228,34.1928721 L77.5734283,2.49475891 C76.848443,1.02725367 75.2534753,0 73.3685135,0 L62.3487368,0 L58.8688073,0 L4.20491481,0 C1.88496181,0 0,1.90775681 0,4.2557652 L0,49.0146751 L0,52.5366876 L0,66.918239 C0,68.6792453 1.30497356,70 3.04493831,70 L58.7238102,70 L89.7531816,70 C91.4931463,70 92.9431169,68.5324948 92.9431169,66.7714885 L92.9431169,52.5366876 L92.9431169,49.0146751 L92.9431169,35.8071279 C93.088114,35.2201258 92.9431169,34.6331237 92.6531228,34.1928721 Z M62.4937339,3.6687631 L73.3685135,3.6687631 C73.8035047,3.6687631 74.2384959,3.96226415 74.383493,4.10901468 L89.6081845,35.8071279 C89.6081845,35.8071279 89.6081845,35.8071279 89.6081845,35.9538784 L89.6081845,48.8679245 L62.4937339,48.8679245 L62.4937339,3.6687631 Z M3.62492656,4.10901468 C3.62492656,3.81551363 3.91492068,3.52201258 4.20491481,3.52201258 L58.5788132,3.52201258 L58.5788132,48.5744235 L3.62492656,48.5744235 L3.62492656,4.10901468 Z M58.5788132,66.1844864 L3.62492656,66.1844864 L3.62492656,52.5366876 L58.5788132,52.5366876 L58.5788132,66.1844864 Z M89.4631875,66.1844864 L62.4937339,66.1844864 L62.4937339,52.5366876 L89.4631875,52.5366876 L89.4631875,66.1844864 Z" id="Shape" fill="#20293B" fill-rule="nonzero"></path>
                </g>
                <g id="if_plus_216373" transform="translate(208.000000, 154.000000) rotate(-315.000000) translate(-208.000000, -154.000000) translate(204.000000, 150.000000)" fill="#FFFFFF" fill-rule="nonzero">
                    <path d="M7,3 L5,3 L5,1 C5,0.448 4.552,0 4,0 C3.448,0 3,0.448 3,1 L3.0355,3 L1,3 C0.448,3 0,3.448 0,4 C0,4.552 0.448,5 1,5 L3.0355,4.9645 L3,7 C3,7.552 3.448,8 4,8 C4.552,8 5,7.552 5,7 L5,4.9645 L7,5 C7.552,5 8,4.552 8,4 C8,3.448 7.552,3 7,3 Z" id="Shape"></path>
                </g>
                <g id="if_plus_216373-copy" transform="translate(224.000000, 154.000000) rotate(-315.000000) translate(-224.000000, -154.000000) translate(220.000000, 150.000000)" fill="#FFFFFF" fill-rule="nonzero">
                    <path d="M7,3 L5,3 L5,1 C5,0.448 4.552,0 4,0 C3.448,0 3,0.448 3,1 L3.0355,3 L1,3 C0.448,3 0,3.448 0,4 C0,4.552 0.448,5 1,5 L3.0355,4.9645 L3,7 C3,7.552 3.448,8 4,8 C4.552,8 5,7.552 5,7 L5,4.9645 L7,5 C7.552,5 8,4.552 8,4 C8,3.448 7.552,3 7,3 Z" id="Shape"></path>
                </g>
                <text id="P" transform="translate(218.500000, 167.000000) rotate(-270.000000) translate(-218.500000, -167.000000) " font-family="ProximaNova-Bold, Proxima Nova" font-size="20" font-weight="bold" fill="#FFFFFF">
                    <tspan x="212" y="175">P</tspan>
                </text>
                <g id="Cable" transform="translate(224.000000, 211.000000)" opacity="0.25" stroke="#041C3F" stroke-dasharray="5" stroke-linecap="square" stroke-width="4">
                    <path d="M1.5,0.5 L1.5,31" id="Line-2"></path>
                    <path d="M1.5,36.5 L665.009231,36.5" id="Line-2-Copy"></path>
                </g>
                <g id="Plug" transform="translate(891.000000, 228.000000)">
                    <path d="M10,14 L26,14 L26,32 L10,32 C7.790861,32 6,30.209139 6,28 L6,18 C6,15.790861 7.790861,14 10,14 Z" id="Rectangle-3" fill="#6CC7BA"></path>
                    <path d="M40.5,7.5 L47.0192024,0.980797595" id="Line-3" stroke="#041C3F" stroke-width="3" stroke-linecap="round"></path>
                    <path d="M45.5140053,14.0918537 L50.2449318,11.8857864" id="Line-3-Copy-2" stroke="#041C3F" stroke-width="3" stroke-linecap="round"></path>
                    <path d="M45.5140053,25.4015731 L50.244932,23.1955058" id="Line-3-Copy-3" stroke="#041C3F" stroke-width="3" stroke-linecap="round" transform="translate(47.879469, 24.298539) scale(1, -1) translate(-47.879469, -24.298539) "></path>
                    <path d="M40.5,36.5 L47.0192024,29.9807976" id="Line-3-Copy" stroke="#041C3F" stroke-width="3" stroke-linecap="round" transform="translate(44.000000, 33.000000) scale(1, -1) translate(-44.000000, -33.000000) "></path>
                    <g id="if_a_5_2578124" transform="translate(18.000000, 19.500000) rotate(-270.000000) translate(-18.000000, -19.500000) translate(7.000000, 2.000000)" stroke="#041C3F" stroke-linecap="round" stroke-linejoin="round" stroke-width="2">
                        <path d="M20,14 L20,26 C20,29.3137085 17.3137085,32 14,32 L8,32 C4.6862915,32 2,29.3137085 2,26 L2,14" id="Shape"></path>
                        <path d="M18,14 L20,14 C21.1045695,14 22,13.1045695 22,12 L22,10 L0,10 L0,12 C0,13.1045695 0.8954305,14 2,14 L6,14" id="Shape"></path>
                        <path d="M10.83,14 L13,14" id="Shape"></path>
                        <path d="M7,0 C8.1045695,0 9,0.8954305 9,2 L9,10 L5,10 L5,2 C5,0.8954305 5.8954305,0 7,0 Z" id="Shape"></path>
                        <path d="M15,0 C16.1045695,0 17,0.8954305 17,2 L17,10 L13,10 L13,2 C13,0.8954305 13.8954305,0 15,0 Z" id="Shape"></path>
                        <path d="M12,35 L10,35 C8.8954305,35 8,34.1045695 8,33 L8,32 L14,32 L14,33 C14,34.1045695 13.1045695,35 12,35 Z" id="Shape"></path>
                        <path d="M5,17 L5,22" id="Shape"></path>
                        <path d="M17,20 L17,24" id="Shape"></path>
                    </g>
                </g>
                <g id="Connector" transform="translate(960.000000, 223.000000)">
                    <path d="M7,48 L7,1 L4,1 C2.34314575,1 1,2.34314575 1,4 L1,45 C1,46.6568542 2.34314575,48 4,48 L7,48 Z" id="Rectangle-2" stroke="#041C3F" stroke-width="2"></path>
                    <g id="Rectangle-9">
                        <use fill="#041C3F" fill-rule="evenodd" xlink:href="#path-1"></use>
                        <rect stroke="#041C3F" stroke-width="1" x="0.5" y="15.5" width="3" height="7" rx="1.5"></rect>
                    </g>
                    <g id="Rectangle-9-Copy">
                        <use fill="#041C3F" fill-rule="evenodd" xlink:href="#path-2"></use>
                        <rect stroke="#041C3F" stroke-width="1" x="0.5" y="27.5" width="3" height="7" rx="1.5"></rect>
                    </g>
                </g>
                <g id="pattern" transform="translate(1034.500000, 213.000000) scale(-1, 1) translate(-1034.500000, -213.000000) translate(900.000000, 0.000000)">
                    <g id="if_plus_216373-copy-12" opacity="0.45" transform="translate(48.668800, 354.668800) scale(-1, 1) rotate(-22.000000) translate(-48.668800, -354.668800) translate(38.168800, 344.168800)" fill="#041C3F" fill-rule="nonzero">
                        <path d="M17.5379572,7.51626739 L12.5271123,7.51626739 L12.5271123,2.50542246 C12.5271123,1.12242926 11.4046831,0 10.0216899,0 C8.63869666,0 7.51626739,1.12242926 7.51626739,2.50542246 L7.60520989,7.51626739 L2.50542246,7.51626739 C1.12242926,7.51626739 0,8.63869666 0,10.0216899 C0,11.4046831 1.12242926,12.5271123 2.50542246,12.5271123 L7.60520989,12.4381698 L7.51626739,17.5379572 C7.51626739,18.9209504 8.63869666,20.0433797 10.0216899,20.0433797 C11.4046831,20.0433797 12.5271123,18.9209504 12.5271123,17.5379572 L12.5271123,12.4381698 L17.5379572,12.5271123 C18.9209504,12.5271123 20.0433797,11.4046831 20.0433797,10.0216899 C20.0433797,8.63869666 18.9209504,7.51626739 17.5379572,7.51626739 Z" id="Shape"></path>
                    </g>
                    <g id="if_plus_216373-copy-5" opacity="0.45" transform="translate(89.615148, 143.301053) scale(-1, 1) rotate(-47.000000) translate(-89.615148, -143.301053) translate(78.615148, 132.301053)" fill="#041C3F" fill-rule="nonzero">
                        <path d="M18.5151432,7.93506135 L13.2251023,7.93506135 L13.2251023,2.64502045 C13.2251023,1.18496916 12.0401331,0 10.5800818,0 C9.12003051,0 7.93506135,1.18496916 7.93506135,2.64502045 L8.02895958,7.93506135 L2.64502045,7.93506135 C1.18496916,7.93506135 0,9.12003051 0,10.5800818 C0,12.0401331 1.18496916,13.2251023 2.64502045,13.2251023 L8.02895958,13.131204 L7.93506135,18.5151432 C7.93506135,19.9751944 9.12003051,21.1601636 10.5800818,21.1601636 C12.0401331,21.1601636 13.2251023,19.9751944 13.2251023,18.5151432 L13.2251023,13.131204 L18.5151432,13.2251023 C19.9751944,13.2251023 21.1601636,12.0401331 21.1601636,10.5800818 C21.1601636,9.12003051 19.9751944,7.93506135 18.5151432,7.93506135 Z" id="Shape"></path>
                    </g>
                    <g id="if_plus_216373-copy-11" opacity="0.45" transform="translate(247.960842, 95.960842) scale(-1, 1) rotate(-49.000000) translate(-247.960842, -95.960842) translate(241.460842, 89.460842)" fill="#041C3F" fill-rule="nonzero">
                        <path d="M11.375,4.875 L8.125,4.875 L8.125,1.625 C8.125,0.728 7.397,0 6.5,0 C5.603,0 4.875,0.728 4.875,1.625 L4.9326875,4.875 L1.625,4.875 C0.728,4.875 0,5.603 0,6.5 C0,7.397 0.728,8.125 1.625,8.125 L4.9326875,8.0673125 L4.875,11.375 C4.875,12.272 5.603,13 6.5,13 C7.397,13 8.125,12.272 8.125,11.375 L8.125,8.0673125 L11.375,8.125 C12.272,8.125 13,7.397 13,6.5 C13,5.603 12.272,4.875 11.375,4.875 Z" id="Shape"></path>
                    </g>
                    <g id="if_plus_216373-copy-10" opacity="0.45" transform="translate(262.537904, 39.193788) scale(-1, 1) rotate(-2.000000) translate(-262.537904, -39.193788) translate(257.537904, 34.193788)" fill="#041C3F" fill-rule="nonzero">
                        <path d="M8.15331423,3.49427753 L5.82379588,3.49427753 L5.82379588,1.16475918 C5.82379588,0.521812111 5.30198377,0 4.6590367,0 C4.01608964,0 3.49427753,0.521812111 3.49427753,1.16475918 L3.53562648,3.49427753 L1.16475918,3.49427753 C0.521812111,3.49427753 0,4.01608964 0,4.6590367 C0,5.30198377 0.521812111,5.82379588 1.16475918,5.82379588 L3.53562648,5.78244693 L3.49427753,8.15331423 C3.49427753,8.7962613 4.01608964,9.31807341 4.6590367,9.31807341 C5.30198377,9.31807341 5.82379588,8.7962613 5.82379588,8.15331423 L5.82379588,5.78244693 L8.15331423,5.82379588 C8.7962613,5.82379588 9.31807341,5.30198377 9.31807341,4.6590367 C9.31807341,4.01608964 8.7962613,3.49427753 8.15331423,3.49427753 Z" id="Shape"></path>
                    </g>
                    <g id="if_plus_216373-copy-9" opacity="0.45" transform="translate(147.098003, 11.818807) scale(-1, 1) rotate(-2.000000) translate(-147.098003, -11.818807) translate(136.598003, 1.318807)" fill="#041C3F" fill-rule="nonzero">
                        <path d="M17.6712132,7.5733771 L12.6222952,7.5733771 L12.6222952,2.52445903 C12.6222952,1.13095765 11.4913375,0 10.0978361,0 C8.70433475,0 7.5733771,1.13095765 7.5733771,2.52445903 L7.6629954,7.5733771 L2.52445903,7.5733771 C1.13095765,7.5733771 0,8.70433475 0,10.0978361 C0,11.4913375 1.13095765,12.6222952 2.52445903,12.6222952 L7.6629954,12.5326769 L7.5733771,17.6712132 C7.5733771,19.0647146 8.70433475,20.1956723 10.0978361,20.1956723 C11.4913375,20.1956723 12.6222952,19.0647146 12.6222952,17.6712132 L12.6222952,12.5326769 L17.6712132,12.6222952 C19.0647146,12.6222952 20.1956723,11.4913375 20.1956723,10.0978361 C20.1956723,8.70433475 19.0647146,7.5733771 17.6712132,7.5733771 Z" id="Shape"></path>
                    </g>
                    <g id="if_plus_216373-copy-23" opacity="0.45" transform="translate(253.825013, 348.001402) scale(-1, 1) rotate(-56.000000) translate(-253.825013, -348.001402) translate(243.325013, 337.501402)" fill="#041C3F" fill-rule="nonzero">
                        <path d="M18.2193991,7.80831389 L13.0138565,7.80831389 L13.0138565,2.6027713 C13.0138565,1.16604154 11.8478149,0 10.4110852,0 C8.97435543,0 7.80831389,1.16604154 7.80831389,2.6027713 L7.90071227,7.80831389 L2.6027713,7.80831389 C1.16604154,7.80831389 0,8.97435543 0,10.4110852 C0,11.8478149 1.16604154,13.0138565 2.6027713,13.0138565 L7.90071227,12.9214581 L7.80831389,18.2193991 C7.80831389,19.6561288 8.97435543,20.8221704 10.4110852,20.8221704 C11.8478149,20.8221704 13.0138565,19.6561288 13.0138565,18.2193991 L13.0138565,12.9214581 L18.2193991,13.0138565 C19.6561288,13.0138565 20.8221704,11.8478149 20.8221704,10.4110852 C20.8221704,8.97435543 19.6561288,7.80831389 18.2193991,7.80831389 Z" id="Shape"></path>
                    </g>
                    <g id="if_plus_216373-copy-22" opacity="0.05" transform="translate(110.438386, 407.546258) scale(-1, 1) rotate(-330.000000) translate(-110.438386, -407.546258) translate(97.438386, 394.546258)" fill="#041C3F" fill-rule="nonzero">
                        <path d="M22.0174482,9.43604924 L15.7267487,9.43604924 L15.7267487,3.14534975 C15.7267487,1.40911669 14.3176321,0 12.581399,0 C10.8451659,0 9.43604924,1.40911669 9.43604924,3.14534975 L9.54770916,9.43604924 L3.14534975,9.43604924 C1.40911669,9.43604924 0,10.8451659 0,12.581399 C0,14.3176321 1.40911669,15.7267487 3.14534975,15.7267487 L9.54770916,15.6150888 L9.43604924,22.0174482 C9.43604924,23.7536813 10.8451659,25.162798 12.581399,25.162798 C14.3176321,25.162798 15.7267487,23.7536813 15.7267487,22.0174482 L15.7267487,15.6150888 L22.0174482,15.7267487 C23.7536813,15.7267487 25.162798,14.3176321 25.162798,12.581399 C25.162798,10.8451659 23.7536813,9.43604924 22.0174482,9.43604924 Z" id="Shape"></path>
                    </g>
                    <circle id="Oval-4-Copy" stroke="#041C3F" stroke-width="8" opacity="0.05" transform="translate(130.500000, 77.500000) scale(-1, 1) translate(-130.500000, -77.500000) " cx="130.5" cy="77.5" r="17.5"></circle>
                    <circle id="Oval-4-Copy-4" stroke="#041C3F" stroke-width="8" transform="translate(220.500000, 54.500000) scale(-1, 1) translate(-220.500000, -54.500000) " cx="220.5" cy="54.5" r="10.5"></circle>
                    <circle id="Oval-4-Copy-26" stroke="#041C3F" stroke-width="8" opacity="0.05" transform="translate(195.000000, 354.000000) scale(-1, 1) translate(-195.000000, -354.000000) " cx="195" cy="354" r="13"></circle>
                    <circle id="Oval-4-Copy-25" stroke="#041C3F" stroke-width="8" opacity="0.15" transform="translate(134.500000, 338.500000) scale(-1, 1) translate(-134.500000, -338.500000) " cx="134.5" cy="338.5" r="10.5"></circle>
                    <circle id="Oval-4-Copy-24" stroke="#041C3F" stroke-width="8" transform="translate(167.000000, 408.000000) scale(-1, 1) translate(-167.000000, -408.000000) " cx="167" cy="408" r="7"></circle>
                    <circle id="Oval-4-Copy-23" stroke="#041C3F" stroke-width="8" opacity="0.05" transform="translate(10.500000, 264.500000) scale(-1, 1) translate(-10.500000, -264.500000) " cx="10.5" cy="264.5" r="10.5"></circle>
                    <circle id="Oval-4-Copy-22" stroke="#00A8BD" stroke-width="8" transform="translate(83.500000, 258.500000) scale(-1, 1) translate(-83.500000, -258.500000) " cx="83.5" cy="258.5" r="21.5"></circle>
                    <circle id="Oval-4-Copy-21" stroke="#041C3F" stroke-width="8" transform="translate(53.000000, 182.000000) scale(-1, 1) translate(-53.000000, -182.000000) " cx="53" cy="182" r="13"></circle>
                </g>
            </g>
        </g>
    </g>
</svg>