<?xml version="1.0" encoding="utf-8"?>
<!-- Generator: Adobe Illustrator 20.1.0, SVG Export Plug-In . SVG Version: 6.00 Build 0)  -->
<svg version="1.1" id="Layer_1" xmlns="http://www.w3.org/2000/svg" xmlns:xlink="http://www.w3.org/1999/xlink" x="0px" y="0px"
	 width="400px" height="400px" viewBox="0 0 400 400" enable-background="new 0 0 400 400" xml:space="preserve">
<path fill="#127187" d="M201,80c0,0,40,1.7,40,40c0,0-1.3,16.2-11,26v54c0,0-1.3,8-9,8s-20-11-20-11s-13.2,12-20,12s-9-5.5-9-10
	s0-30,0-30s1.3-8,9-8s10,5.5,10,9s0,15,0,15s4-6,10-6s10,6,10,6v-26v-14c0,0-0.5-7.2,3-10s9.3-10.8,6-21s-10.8-14-19-14
	s-20,7.2-20,20s14,19,14,19s9.8,4.8,6,13s-10.5,6.2-14,5s-26-12-26-37S183.2,80,201,80z"/>
<path fill="#127187" d="M232.3,241.1L232.3,241.1l-1-0.1C231.7,241,232,241,232.3,241.1z M232.3,261c5.1-0.5,9-4.8,9-10
	s-3.9-9.4-9-9.9c-0.3,0-0.7-0.1-1-0.1H131c-5.5,0-10,4.5-10,10c0,5.5,4.5,10,10,10h100.3C231.7,261,232,261,232.3,261z M232.3,261
	L232.3,261c-0.3,0-0.7,0-1,0H232.3z"/>
<path fill="#127187" d="M232.3,280L232.3,280l-1,0C231.7,280,232,280,232.3,280z M232.3,300c5.1-0.5,9-4.8,9-10s-3.9-9.4-9-10
	c-0.3,0-0.7,0-1,0H131c-5.5,0-10,4.5-10,10s4.5,10,10,10h100.3C231.7,300,232,300,232.3,300z M232.3,300L232.3,300c-0.3,0-0.7,0-1,0
	H232.3z"/>
<path fill="#127187" d="M61,350v1h0C61,350.7,61,350.3,61,350z M71,40h-1v0C70.3,40,70.7,40,71,40z M292,40L292,40l-1,0
	C291.3,40,291.7,40,292,40z M281,351c0.5,5.1,4.8,9,10,9c5,0,9.2-3.7,9.9-8.5l0.2,0.1L360,215l-0.3-0.1c0.8-1.4,1.3-3.1,1.3-4.9
	c0-5.5-4.5-10-10-10c-1,0-2.1,0.2-3,0.5V200h-27c-5.5,0-10,4.5-10,10s4.5,10,10,10h14.3L301,299.6V50c0-5.2-3.9-9.4-9-10
	c-0.3,0-0.7,0-1,0H71c-0.3,0-0.7,0-1,0c-5.1,0.5-9,4.8-9,10v300c0,0.3,0,0.7,0,1c0.5,5.1,4.8,9,10,9h160c5.5,0,10-4.5,10-10
	s-4.5-10-10-10H81V60h200v290C281,350.3,281,350.7,281,351z M281,351L281,351c0-0.3,0-0.7,0-1V351z"/>
</svg>
