<?xml version="1.0" encoding="utf-8"?>
<!-- Generator: Adobe Illustrator 20.1.0, SVG Export Plug-In . SVG Version: 6.00 Build 0)  -->
<svg version="1.1" id="Layer_1" xmlns="http://www.w3.org/2000/svg" xmlns:xlink="http://www.w3.org/1999/xlink" x="0px" y="0px"
	 width="400px" height="400px" viewBox="0 0 400 400" enable-background="new 0 0 400 400" xml:space="preserve">
<g id="Layer_x25_20140">
	<path fill="#127187" d="M350.8,349V51c0-5.5-4.5-10-10-10c-5.5,0-10,4.5-10,10V341H111v-70.1h10c5.5,0,10-4.5,10-10s-4.5-10-10-10
		h-10v-40.1h10c5.5,0,10-4.5,10-10c0-5.5-4.5-10-10-10h-10v-39.9h10c5.5,0,10-4.5,10-10c0-5.5-4.5-10-10-10h-10V61h169.9
		c5.5,0,10-4.5,10-10c0-5.5-4.5-10-10-10H101c-0.5,0-1,0-1.5,0.1c-0.2,0-0.4,0-0.6,0.1c-0.9,0.2-1.8,0.5-2.7,1c0,0-0.1,0-0.1,0
		c-0.2,0.1-0.4,0.2-0.5,0.3c-0.1,0.1-0.2,0.1-0.3,0.2c-0.1,0.1-0.2,0.2-0.4,0.3c-0.1,0.1-0.3,0.2-0.4,0.3c-0.1,0.1-0.2,0.2-0.3,0.3
		c-0.1,0.1-0.3,0.2-0.4,0.4c-0.1,0.1-0.2,0.3-0.4,0.4c-0.1,0.1-0.2,0.2-0.3,0.3c-0.1,0.1-0.2,0.3-0.3,0.4c-0.1,0.1-0.2,0.2-0.3,0.4
		c0,0.1-0.1,0.1-0.1,0.2c-0.7,1-1.1,2.2-1.4,3.4c0,0.2-0.1,0.4-0.1,0.6C91,50,91,50.5,91,51v79.9H61c-5.5,0-10,4.5-10,10
		c0,5.5,4.5,10,10,10h30v39.9H61c-5.5,0-10,4.5-10,10c0,5.5,4.5,10,10,10h30v40.1H61c-5.5,0-10,4.5-10,10s4.5,10,10,10h30V351
		c0,1,0.2,2,0.5,3c1.2,4.1,5.1,7.1,9.6,7.1h240c5.5,0,10-4.5,10-10C351,350.3,350.9,349.6,350.8,349z"/>
</g>
</svg>
