<svg xmlns="http://www.w3.org/2000/svg" viewBox="0 0 420.28 107.33"><defs><style>.a{fill:#fff;}</style></defs><title>logo-laureate-white</title><polygon class="a" points="184.26 27.43 184.26 0.02 176.68 0.02 176.68 33.08 198.11 33.08 198.11 27.43 184.26 27.43"/><polygon class="a" points="388.33 0 357.05 0 357.05 5.66 370.09 5.66 370.09 33.31 377.49 33.31 377.49 5.66 388.33 5.66 388.33 0"/><polygon class="a" points="325.21 5.7 325.21 0.04 304.36 0.04 304.36 33.17 325.21 33.17 325.21 27.12 311.38 27.12 311.38 19.46 321.1 19.46 321.1 13.8 311.38 13.8 311.38 5.7 325.21 5.7"/><polygon class="a" points="414.91 5.7 414.91 0.04 394.06 0.04 394.06 33.17 414.91 33.17 414.91 27.12 401.08 27.12 401.08 19.46 410.8 19.46 410.8 13.8 401.08 13.8 401.08 5.7 414.91 5.7"/><path class="a" d="M228.53,33.07l6.85,0L220.31,0.36V0.11h-4l-0.1,0,0,0h-0.14V0.42l-15,32.49,6.79,0,3.5-7.6H225ZM214,19.69l4.17-9,4.17,9H214Z"/><path class="a" d="M355.85,33.07l6.85,0L347.63,0.36V0.11h-4l-0.1,0,0,0h-0.14V0.42l-15,32.49,6.79,0,3.5-7.6h13.57ZM341.33,19.69l4.17-9,4.17,9h-8.35Z"/><path class="a" d="M259.86,0.12V24.38a14.72,14.72,0,0,1-9.22,3.21,23.8,23.8,0,0,1-3.71-.29c-4.29,0-3.47-7.46-3.47-7.46V0.28l-7.08-.16V24.56c0.79,5.45,3.85,7.79,7.24,8.44a41.8,41.8,0,0,0,5.93.16,15.42,15.42,0,0,0,10.31-3.47v3.57H267V0.12h-7.1Z"/><path class="a" d="M290.27,19.19c4.32-1.71,5.49-4.52,5.49-4.52,2.9-7.42-.9-12-4.52-14.05a7.52,7.52,0,0,0-2.08-.5H273.9V33.25h6.6v-12h4l8.22,11.16h6.9Zm-0.65-6.78a6.63,6.63,0,0,1-1.58,2.3,3.08,3.08,0,0,1-2.46.91h-5.08V5.78h5.69C289.4,6.66,290.79,9.36,289.62,12.41Z"/><rect class="a" x="138.65" y="0.46" width="2.08" height="106.87"/><path class="a" d="M60.32,58.5h22c20.54-28.14,20-57.18,20-57.18A166.14,166.14,0,0,0,60,15.85h0.34V58.5Z"/><path class="a" d="M50.11,21.48C-1.33,54,0,106.11,0,106.11,36.51,98.9,60,83.83,75.06,67.3H50.11V21.48Z"/><path class="a" d="M295.51,49L285.37,71.16h1.33l3.38-7.4,0.17-.37h11.21l0.17,0.37,3.37,7.4h1.26L296.17,49h-0.66ZM290.68,62.4l0.41-.9,4.17-9.12,0.57-1.26,0.58,1.26,4.16,9.12L301,62.4m-18.26,7.72h1.07v-22h-1.17V68.24l-1.12-1.39c-1.32-1.63-2.54-3.12-3.72-4.55s-2.47-2.95-3.71-4.39S271.31,54.68,270,53s-2.66-3.29-3.94-4.88h-1v22h1.17v-20l1.12,1.36Zm19.11,25.13a19.07,19.07,0,0,0-2.6-.89c-0.67-.2-1.29-0.39-1.74-0.55a12.82,12.82,0,0,1-3.75-1.93A3.76,3.76,0,0,1,292.58,89,4.16,4.16,0,0,1,294,85.82a5.08,5.08,0,0,1,1.55-1,5.3,5.3,0,0,1,1.92-.32,6.91,6.91,0,0,1,3,.66c0.44,0.21.87,0.43,1.27,0.64l0.52,0.27,0-1.41a11.86,11.86,0,0,0-1.7-.77h0a9.14,9.14,0,0,0-3.28-.55,6.12,6.12,0,0,0-4.36,1.71A5.12,5.12,0,0,0,291.15,89a4.79,4.79,0,0,0,1.22,3.56,7.76,7.76,0,0,0,1.57,1.16,12.85,12.85,0,0,0,2.35,1l1.18,0.4A17.55,17.55,0,0,1,301.95,97a4,4,0,0,1,1.38,3.24,4.39,4.39,0,0,1-1.45,3.35c-1.23,1.13-4.67,1.17-5.06,1.17a6.76,6.76,0,0,1-2.68-.61,14.53,14.53,0,0,1-1.53-.83c-0.32-.2-0.71-0.45-1.15-0.77V104a6.88,6.88,0,0,0,.78.48c0.4,0.2.86,0.42,1.44,0.67a8,8,0,0,0,3.44.72c1.68,0,4.61-.41,5.81-1.54a5.27,5.27,0,0,0,1.8-4,5.49,5.49,0,0,0-1.19-3.81A6.31,6.31,0,0,0,301.83,95.25Zm-44.5-.17h9v-1h-9v-9.4h10.5v-1H256v21.95h12v-1H257.33V95.07Zm24-.28a6.33,6.33,0,0,0,.87-0.24l0.78-.36a6.41,6.41,0,0,0,2.25-1.55,4.66,4.66,0,0,0,1.21-3.34,4.91,4.91,0,0,0-1.89-4.19A6.24,6.24,0,0,0,282.24,84h0a12.43,12.43,0,0,0-3.12-.35h-5.43v21.95H275V94.88h4.75l8.75,10.76H290Zm-2.35-.88H275V84.68h4.11a7,7,0,0,1,4.27,1.19,3.92,3.92,0,0,1,1.61,3.4,4,4,0,0,1-1.63,3.46A7.34,7.34,0,0,1,278.93,93.91ZM261.27,70.16c-2.27-3.54-5.39-8.37-5.86-9l-0.88-.64,1.08-.42a9.61,9.61,0,0,0,2.72-1.92,4.66,4.66,0,0,0,1.21-3.34,4.93,4.93,0,0,0-1.89-4.19,6.15,6.15,0,0,0-2.27-1.08h0a12.47,12.47,0,0,0-3.12-.35h-5.43v21h1.29V60.41h5.41l0.19,0.29,6,9.46h1.51Zm-9.2-10.72h-3.95V50.21h4.11a7,7,0,0,1,4.27,1.2,3.91,3.91,0,0,1,1.61,3.4,4,4,0,0,1-1.63,3.46A7.31,7.31,0,0,1,252.06,59.44Zm58.22,46.19h1.26V83.68h-1.26v21.95Zm33.91-35.29a11.36,11.36,0,0,0,8.2-3.24,10.4,10.4,0,0,0,3.31-7.93,10.5,10.5,0,0,0-3.31-8h0a11.36,11.36,0,0,0-8.2-3.2,11.2,11.2,0,0,0-8.2,3.24,10.58,10.58,0,0,0-3.28,7.92,11.29,11.29,0,0,0,.83,4.37A10.65,10.65,0,0,0,336,67.15,11.31,11.31,0,0,0,344.18,70.35ZM337,52.11a10.05,10.05,0,1,1,14.28,14.15h0a9.7,9.7,0,0,1-7.14,2.94A9.8,9.8,0,0,1,337,66.27,10,10,0,0,1,337,52.11ZM392.51,49L382.4,70h1.33l3.36-6.23,0.18-.33h11.15l0.18,0.33L402,70h1.28L393.19,49h-0.68Zm5.06,12.45L398,62.4h-10.3l0.41-.9,4.17-9.12,0.58-1.26,0.58,1.26ZM371.48,95a18.91,18.91,0,0,0-2.6-.89c-0.67-.2-1.29-0.38-1.74-0.55a12.72,12.72,0,0,1-3.75-1.93,3.75,3.75,0,0,1-1.16-2.93,4.16,4.16,0,0,1,1.46-3.13,4.89,4.89,0,0,1,1.56-1,5.31,5.31,0,0,1,1.92-.32,7,7,0,0,1,3,.66l1.26,0.64L372,85.84l0-1.41a12.17,12.17,0,0,0-1.7-.78h0A9.14,9.14,0,0,0,367,83.1a6.1,6.1,0,0,0-4.36,1.71,5.12,5.12,0,0,0-1.8,3.93A4.78,4.78,0,0,0,362,92.29a7.58,7.58,0,0,0,1.57,1.16,12.51,12.51,0,0,0,2.35,1l1.18,0.4a17.85,17.85,0,0,1,4.46,1.86A4,4,0,0,1,373,100a4.4,4.4,0,0,1-1.45,3.36c-1.23,1.13-4.67,1.17-5.06,1.17a6.77,6.77,0,0,1-2.69-.61,14.87,14.87,0,0,1-1.53-.83c-0.32-.19-0.7-0.45-1.15-0.77v1.48a7,7,0,0,0,.79.48c0.41,0.21.89,0.44,1.44,0.68a8,8,0,0,0,3.44.72c1.68,0,4.61-.41,5.8-1.54a5.26,5.26,0,0,0,1.8-4,5.49,5.49,0,0,0-1.19-3.81A6.33,6.33,0,0,0,371.48,95Zm5.12-26.73-1.12-1.39c-1.32-1.63-2.54-3.12-3.72-4.55-1.4-1.68-2.58-3.08-3.72-4.39-1.33-1.54-2.7-3.17-4.08-4.86-1.24-1.53-2.53-3.12-3.94-4.88h-1v22h1.18v-20l1.12,1.36L376.7,70.12h1.07v-22h-1.17V68.24Zm-61.7,16.47h8.39v20.92h1.29v-21H333v-1H314.89v1Zm7.73-35.5H304.53v1h8.4V70.43h1.29V50.21h8.4v-1Zm5.49,21V49h-1.26V70.19h1.26Zm18.16,24.88h8.25v-1h-8.25v-9.4h10.49v-1H345v21.95h12v-1H346.26V95.07Zm-8.76,10.56h1.26V83.68H337.5v21.95Zm71.73-55.29h-1.29V71.08h12.34V70H409.23V50.34ZM240.94,69.4H230.22v-8.8h8.31v-1h-8.31v-9.4h10.5v-1H228.92V70.43h12v-1Zm-15.45,36.23h1.26V83.68h-1.26v21.95Zm16.09-4L241,103l-0.58-1.41-7.47-17.9h-1.25l9.21,22.18h0.21l9.25-22.18H249ZM201.5,67.49c-1.23-1.52-2.48-3.05-3.72-4.55s-2.48-3-3.71-4.39c-1.37-1.59-2.75-3.22-4.08-4.86s-2.52-3.11-3.94-4.88h-1V70h1.17V50.8l1.11,1.29L202.72,70h1.08V48.8h-1.18V68.88ZM178.18,70V49.22h-1.26V70h1.26Zm15.06,26a10.9,10.9,0,0,1-.54,3.57,8.53,8.53,0,0,1-1.58,2.79,7.22,7.22,0,0,1-5.69,2.41,7.52,7.52,0,0,1-5.78-2.34,9,9,0,0,1-2.1-6.27V83.68h-1.29V96.3a9.72,9.72,0,0,0,2.54,7,8.7,8.7,0,0,0,6.59,2.65,8.38,8.38,0,0,0,6.58-2.77l0,0a1.54,1.54,0,0,1,.14-0.18l1.1-1.19v3.71h1.19v-8.1l0-.35a8.15,8.15,0,0,0,.06-0.86V83.68h-1.29V96Zm22.91-26V50.21h8.4v-1H206.46v1h8.4V70h1.3Zm1.45,33.82-1.13-1.4c-1.17-1.45-2.38-2.94-3.71-4.55s-2.56-3.05-3.72-4.38c-1.49-1.73-2.82-3.33-4.08-4.87s-2.52-3.11-3.94-4.88h-1v21.95h1.17v-20L202.28,87l15.42,18.66h1.07V83.68H217.6v20.09Z"/></svg>