<?xml version="1.0" encoding="UTF-8"?>
<svg width="151px" height="152px" viewBox="0 0 151 152" version="1.1" xmlns="http://www.w3.org/2000/svg" xmlns:xlink="http://www.w3.org/1999/xlink">
    <!-- Generator: Sketch 50.2 (55047) - http://www.bohemiancoding.com/sketch -->
    <title>Group 5</title>
    <desc>Created with Sketch.</desc>
    <defs></defs>
    <g id="Page-1" stroke="none" stroke-width="1" fill="none" fill-rule="evenodd">
        <g id="Forgot-Password-2" transform="translate(-209.000000, -502.000000)">
            <g id="Tip" transform="translate(195.000000, 490.000000)">
                <g id="Group-5" transform="translate(14.000000, 12.000000)">
                    <ellipse id="Oval-3" fill="#00667D" cx="75.2637646" cy="75.9775391" rx="74.7637646" ry="75.8271484"></ellipse>
                    <g id="Group-4" transform="translate(28.000000, 28.000000)" fill="#E6EFF2">
                        <path d="M70.5289903,62.9452265 C70.704208,63.2759744 70.6746769,63.6775968 70.4541783,63.9807823 C70.2356485,64.2859366 69.8596196,64.4394981 69.4914658,64.3745298 L53.7966916,61.6753909 L42.6772631,73.0763489 C42.4882643,73.2712539 42.2323284,73.375597 41.9724551,73.375597 C41.8700807,73.375597 41.7677064,73.3598471 41.6673008,73.3263785 C41.3109593,73.2121918 41.051086,72.9031 40.9979301,72.5329774 L38.7102573,56.7732349 L24.4310053,49.7212177 C24.09632,49.5558438 23.8836963,49.2132835 23.8836963,48.8392234 C23.8836963,48.4651633 24.09632,48.122603 24.4310053,47.9572291 L38.7141948,40.9111181 L41.0077738,25.1533443 C41.0609297,24.781253 41.320803,24.4721612 41.6771445,24.3579745 C42.0334859,24.241819 42.4252647,24.3382871 42.685138,24.6060354 L53.8006291,36.0128996 L69.4993407,33.3255731 C69.8517447,33.2625735 70.2415547,33.4121975 70.4600845,33.7153831 C70.6805831,34.0205374 70.7101142,34.4221598 70.5348965,34.7529077 L63.118663,48.8470983 L70.5289903,62.9452265 Z M97.9987826,46.6578624 C97.9850014,46.3408957 97.8196275,46.0514913 97.5577854,45.8782424 L93.0139396,42.8956053 L96.5990103,38.8124441 C96.8076965,38.5742269 96.8903834,38.2513539 96.8195089,37.9422622 C96.7486343,37.6351391 96.534042,37.3792033 96.2446376,37.2551728 L91.242076,35.132874 L94.0396518,30.4728727 C94.203057,30.2031556 94.2247131,29.870439 94.1026514,29.5810346 C93.9766522,29.2896615 93.7207163,29.0750691 93.4135933,29.0061633 L88.1117836,27.809171 L90.03524,22.7258912 C90.147458,22.4305806 90.110052,22.0998327 89.9348344,21.8360219 C89.7635542,21.5722111 89.4721811,21.4088059 89.1571831,21.3950247 L83.7254368,21.1646825 L84.7098055,15.8195606 C84.7649301,15.5085001 84.6723994,15.1895646 84.4519009,14.9611911 C84.2353398,14.7328176 83.9124668,14.6166621 83.6073125,14.6678492 L78.2228159,15.4100632 L78.2365971,9.97634812 C78.2365971,9.65938141 78.086973,9.36210207 77.8310372,9.17704076 C77.5731326,8.99001071 77.2443534,8.94079228 76.9470741,9.03726041 L71.7811073,10.7303745 L70.8223322,5.37934641 C70.7672076,5.06828591 70.5663963,4.80250637 70.2809294,4.66469475 C69.9974312,4.53082061 69.6627459,4.53672683 69.3851539,4.6883196 L64.6070284,7.27524048 L62.7091656,2.18014822 C62.5989163,1.88483762 62.3547929,1.66040156 62.0476698,1.57574585 C61.7444843,1.48912141 61.4176739,1.55802722 61.1715817,1.75686969 L56.9309215,5.15491035 L54.1569705,0.483096625 C53.9955341,0.211410871 53.7140046,0.0342245092 53.3990067,0.00666218634 C53.0899149,-0.0228688739 52.7729482,0.103130316 52.5681995,0.341347536 L49.0008474,4.44222743 L45.4354641,0.341347536 C45.2267779,0.103130316 44.9294986,-0.0268063486 44.6046569,0.00666218634 C44.2896589,0.0342245092 44.0081295,0.211410871 43.846693,0.483096625 L41.0707734,5.15491035 L36.8281444,1.75686969 C36.584021,1.55999595 36.2552418,1.49109015 35.9520563,1.57574585 C35.646902,1.66040156 35.4008098,1.88483762 35.2905605,2.18211696 L33.3946665,7.27524048 L28.6145722,4.68635086 C28.3369802,4.53475809 28.0003261,4.53082061 27.7187967,4.66469475 C27.4352985,4.80250637 27.2325186,5.06828591 27.1773939,5.37934641 L26.2205876,10.7303745 L21.0565895,9.03726041 C20.7553727,8.93882354 20.4265935,8.99001071 20.1706577,9.17704076 C19.9147218,9.36210207 19.7631291,9.65938141 19.7650978,9.97634812 L19.778879,15.4100632 L14.3943823,14.6678492 C14.0774156,14.6225683 13.7663551,14.7347863 13.549794,14.9611911 C13.3312641,15.1895646 13.234796,15.5085001 13.2918894,15.8195606 L14.2762581,21.1646825 L8.84648045,21.3950247 C8.52951374,21.4088059 8.24010935,21.5722111 8.06489173,21.8360219 C7.89164284,22.0998327 7.85620557,22.4305806 7.96645486,22.7258912 L9.88991125,27.809171 L4.58810157,29.0061633 C4.2790098,29.0750691 4.02307395,29.2896615 3.89904349,29.5810346 C3.77501304,29.870439 3.79666915,30.2031556 3.96007435,30.4728727 L6.75961886,35.132874 L1.75705726,37.2551728 C1.46568413,37.3792033 1.2530605,37.6351391 1.18218595,37.9422622 C1.11131141,38.2513539 1.19399838,38.5742269 1.40268454,38.8124441 L4.98775525,42.8956053 L0.443909447,45.8782424 C0.180098643,46.0514913 0.0166934427,46.3408957 0.000943543944,46.6578624 C-0.0128376175,46.9728604 0.124973997,47.2760459 0.373034903,47.4729197 L4.63141379,50.8493042 L0.691970353,54.5958114 C0.463596821,54.8123725 0.353347529,55.1273705 0.394691014,55.4403997 C0.438003235,55.7553977 0.628970758,56.0270835 0.906562724,56.1767075 L5.69846943,58.7400035 L2.49336503,63.1302878 C2.30830372,63.3862237 2.25514781,63.7150028 2.35358468,64.0142509 C2.45005281,64.3154677 2.68630129,64.5497474 2.9875181,64.6462156 L8.15939112,66.3137361 L5.78903135,71.2040797 C5.65121974,71.4895466 5.65909468,71.8222632 5.80871872,72.0998552 C5.95834276,72.3774471 6.23199725,72.5684147 6.54502649,72.6097581 L11.9334606,73.3244098 L10.4746262,78.5612511 C10.3899705,78.8644367 10.4549389,79.1912471 10.6518126,79.4373393 C10.8506551,79.6854002 11.1715593,79.8468366 11.4688386,79.8054932 L16.8986162,79.551526 L16.3965882,84.963585 C16.3690259,85.2766142 16.4930563,85.585706 16.7293048,85.7943922 C16.967522,86.0030783 17.2923637,86.0857653 17.5994867,86.012922 L22.8953902,84.7903361 L23.3678871,90.2043638 C23.3974182,90.5173931 23.5726358,90.7989225 23.8443216,90.9623277 C24.1160073,91.1237642 24.4487239,91.147389 24.7381283,91.0213898 L29.7308463,88.8734974 L31.1621183,94.1162449 C31.246774,94.4213992 31.4712101,94.6674914 31.7665207,94.7777407 C32.0638,94.8919275 32.3945479,94.850584 32.65639,94.6773351 L37.1844859,91.6710732 L39.529252,96.5732292 C39.6670637,96.8586961 39.9308745,97.0595073 40.241935,97.1166007 C40.5510267,97.1677878 40.8719309,97.0791947 41.1003044,96.8586961 L45.0180918,93.0925015 L48.2035088,97.4985357 C48.3885701,97.7544716 48.6838807,97.9060643 49.0008474,97.9060643 C49.3178141,97.9060643 49.6131247,97.7544716 49.798186,97.4985357 L52.9816343,93.0925015 L56.8994217,96.8586961 C57.1277952,97.0772259 57.4447619,97.1658191 57.7577912,97.1166007 C58.0688517,97.0595073 58.3346312,96.8586961 58.4704741,96.5732292 L60.817209,91.6710732 L65.3453049,94.6773351 C65.6091157,94.8525527 65.943801,94.8899587 66.2351742,94.7777407 C66.5324535,94.6674914 66.7568896,94.4194305 66.8395765,94.1162449 L68.2728173,88.8734974 L73.2655352,91.0213898 C73.5510022,91.147389 73.8856875,91.1237642 74.159342,90.9623277 C74.429059,90.7989225 74.6062454,90.5173931 74.6338077,90.2043638 L75.1082734,84.7903361 L80.4041769,86.012922 C80.7132686,86.0857653 81.0361416,86.0011096 81.27239,85.7943922 C81.5106073,85.585706 81.6346377,85.2766142 81.6051067,84.963585 L81.1030786,79.551526 L86.5328562,79.8054932 C86.8557292,79.8527428 87.1510398,79.6834314 87.3479135,79.4373393 C87.546756,79.1912471 87.6117243,78.8644367 87.5270686,78.5612511 L86.0682342,73.3244098 L91.4546996,72.6097581 C91.7677289,72.5684147 92.0433521,72.3774471 92.1929761,72.0998552 C92.3426002,71.8222632 92.3485064,71.4895466 92.2126635,71.2040797 L89.8423037,66.3137361 L95.0161455,64.6462156 C95.3153936,64.5497474 95.551642,64.3154677 95.6500789,64.0142509 C95.7485158,63.7150028 95.6933911,63.3862237 95.5083298,63.1302878 L92.3032254,58.7400035 L97.0931634,56.1767075 C97.3727241,56.0270835 97.5617229,55.7553977 97.6050351,55.4403997 C97.6463786,55.1273705 97.538098,54.8123725 97.3097245,54.5958114 L93.3722498,50.8493042 L97.6286599,47.4729197 C97.8767208,47.2760459 98.0145325,46.9728604 97.9987826,46.6578624 L97.9987826,46.6578624 Z" id="Fill-1"></path>
                    </g>
                </g>
            </g>
        </g>
    </g>
</svg>