<?xml version="1.0" encoding="UTF-8"?>
<svg width="93px" height="95px" viewBox="0 0 93 95" version="1.1" xmlns="http://www.w3.org/2000/svg" xmlns:xlink="http://www.w3.org/1999/xlink">
    <!-- Generator: Sketch 50.2 (55047) - http://www.bohemiancoding.com/sketch -->
    <title>Group 2</title>
    <desc>Created with Sketch.</desc>
    <defs></defs>
    <g id="Page-1" stroke="none" stroke-width="1" fill="none" fill-rule="evenodd">
        <g id="Forgot-Password-2" transform="translate(-200.000000, -719.000000)">
            <g id="Group-2" transform="translate(200.000000, 719.000000)">
                <ellipse id="Oval-5" fill="#E6EFF2" cx="46.5" cy="47.5" rx="46.5" ry="47.5"></ellipse>
                <path d="M25.8928231,31 L68.0972408,31 L46.994112,51.9491233 L42.1870735,47.2368398 L25.8928231,31 Z M24,62.4228542 L24,34.3503828 L37.8139105,48.328465 L37.75227,48.3866185 L37.8139105,48.4447721 L24,62.4228542 Z M48.4732998,56.1769786 L53.251818,51.7730012 L68.0970568,67 L25.8926391,67 L40.7378779,51.7730012 L45.5163961,56.1769786 C45.9239594,56.5868226 46.4603237,56.7917447 46.994848,56.7917447 C47.5302922,56.7917447 48.0648165,56.5868226 48.4732998,56.1769786 Z M56.2376099,48.3867108 L56.1814895,48.3285573 L70,34.3504751 L70,62.4229465 L56.1814895,48.4448644 L56.2376099,48.3867108 Z" id="Combined-Shape" fill="#00667D"></path>
            </g>
        </g>
    </g>
</svg>