<?xml version="1.0" encoding="UTF-8"?>
<svg width="400px" height="482px" viewBox="0 0 400 482" version="1.1" xmlns="http://www.w3.org/2000/svg" xmlns:xlink="http://www.w3.org/1999/xlink">
    <!-- Generator: Sketch 43.2 (39069) - http://www.bohemiancoding.com/sketch -->
    <title>Group</title>
    <desc>Created with Sketch.</desc>
    <defs></defs>
    <g id="Page-1" stroke="none" stroke-width="1" fill="none" fill-rule="evenodd">
        <g id="Group" fill-rule="nonzero" fill="#423500">
            <path d="M391.107179,206.821321 C391.107179,198.183222 384.141913,191.196604 375.526547,191.196604 L24.4741718,191.196604 C15.8855206,191.196604 8.89354047,198.199547 8.89354047,206.821321 L8.89354047,457.537227 C8.89354047,466.147668 15.8741544,473.117858 24.4741718,473.117858 L375.525472,473.117858 C384.152197,473.117858 391.106103,466.163952 391.106103,457.537227 C391.106103,457.504763 391.107179,206.821321 391.107179,206.821321 Z M375.525472,481.720001 L24.4741718,481.720001 C11.1261972,481.720001 0.29139759,470.90138 0.29139759,457.537227 L0.29139759,206.821321 C0.29139759,193.451728 11.1316689,182.594461 24.4741718,182.594461 L375.526547,182.594461 C388.89865,182.594461 399.709322,193.438274 399.709322,206.821321 L399.709322,457.537227 C399.650559,470.972376 388.86733,481.720001 375.525472,481.720001 Z" id="Shape"></path>
            <path d="M77.6827668,66.3137816 C107.608339,30.0245526 152.048385,8.60214288 199.999822,8.60214288 C287.539679,8.60214288 358.442692,79.5229561 358.442692,167.061142 C358.442692,169.436558 360.368347,171.362213 362.743763,171.362213 C365.119179,171.362213 367.044835,169.436558 367.044835,167.061142 C367.044835,74.7726071 292.290995,0 199.999822,0 C149.45237,0 102.588897,22.5906271 71.046133,60.8409439 C69.5348506,62.6735997 69.7953752,65.3843973 71.628031,66.8956797 C73.4606869,68.4069621 76.1714844,68.1464375 77.6827668,66.3137816 Z" id="Shape"></path>
            <path d="M234.972909,336.756689 C234.972909,317.432682 219.304556,301.720161 200.010575,301.720161 C180.713293,301.720161 165.02566,317.439228 165.02566,336.756689 C165.02566,356.040694 180.695989,371.689992 200.010575,371.689992 C219.321167,371.689992 234.972909,356.046837 234.972909,336.756689 Z M243.575052,336.756689 C243.575052,360.798726 224.070943,380.292135 200.010575,380.292135 C175.947741,380.292135 156.423517,360.794114 156.423517,336.756689 C156.423517,312.692246 175.958602,293.118019 200.010575,293.118019 C224.060817,293.118019 243.575052,312.687261 243.575052,336.756689 Z" id="Shape"></path>
        </g>
    </g>
</svg>