<?xml version="1.0" encoding="UTF-8"?>
<svg width="52px" height="50px" viewBox="0 0 52 50" version="1.1" xmlns="http://www.w3.org/2000/svg" xmlns:xlink="http://www.w3.org/1999/xlink">
    <!-- Generator: Sketch 43.2 (39069) - http://www.bohemiancoding.com/sketch -->
    <title>Fill 1</title>
    <desc>Created with Sketch.</desc>
    <defs></defs>
    <g id="icons" stroke="none" stroke-width="1" fill="none" fill-rule="evenodd">
        <g id="icon-telephone" transform="translate(-9.000000, -9.000000)" fill="#127187">
            <path d="M60.2466,49.7256 L60.2296,49.7256 C60.2296,48.7786 59.8346,47.9216 59.1946,47.3006 C59.0076,47.1176 58.7936,46.9626 58.5666,46.8256 L50.4466,41.0896 C49.8076,40.4696 48.9246,40.0846 47.9496,40.0846 C47.1496,40.0846 46.4226,40.3526 45.8326,40.7886 L41.7566,44.7686 L41.7496,44.7626 C41.3186,45.2296 40.6986,45.5306 40.0026,45.5306 C39.2056,45.5306 36.3536,42.9416 35.4876,42.0406 L23.6416,30.5576 C22.9996,29.9356 22.6236,29.4516 22.6236,28.6686 C22.6236,27.9686 22.9526,27.3486 23.4596,26.9266 L23.4566,26.9226 L27.5186,22.9966 C27.9686,22.4256 28.2416,21.7196 28.2416,20.9426 C28.2416,19.9966 27.8466,19.1386 27.2076,18.5176 L21.2856,10.6146 C21.1436,10.3956 20.9856,10.1876 20.7976,10.0046 C20.1586,9.3846 19.2746,8.9996 18.3006,8.9996 C13.5916,8.9996 8.9996,13.1186 8.9996,19.7486 C8.9996,21.5856 9.4366,23.3196 10.1956,24.8766 L10.1576,24.9146 C17.2406,38.6166 29.7566,50.7726 43.8646,57.6526 L43.9016,57.6156 C45.5046,58.3526 47.2906,58.7776 49.1816,58.7776 C56.0086,58.7776 60.2476,54.3176 60.2476,49.7436 C60.2476,49.7376 60.2466,49.7326 60.2466,49.7256" id="Fill-1"></path>
        </g>
    </g>
</svg>